<svg width="176" height="58" viewBox="0 0 176 58" fill="none" xmlns="http://www.w3.org/2000/svg">
<path d="M65.8773 37.1886C65.3809 37.1886 64.9699 37.0793 64.6441 36.8606C64.3339 36.6264 64.078 36.275 63.8763 35.8065L58.0132 22.688C57.796 22.2195 57.734 21.8057 57.827 21.4465C57.9201 21.0716 58.114 20.7827 58.4087 20.5797C58.7034 20.3611 59.0602 20.2517 59.479 20.2517C60.0063 20.2517 60.4096 20.3767 60.6888 20.6266C60.968 20.8608 61.2007 21.2122 61.3868 21.6807L66.5287 33.6513H65.3654L70.5073 21.6573C70.7089 21.1888 70.9494 20.8374 71.2286 20.6031C71.5078 20.3689 71.8955 20.2517 72.3919 20.2517C72.8107 20.2517 73.1519 20.3611 73.4156 20.5797C73.6948 20.7827 73.8654 21.0716 73.9275 21.4465C74.005 21.8057 73.943 22.2195 73.7413 22.688L67.8782 35.8065C67.661 36.275 67.3973 36.6264 67.0871 36.8606C66.7924 37.0793 66.3891 37.1886 65.8773 37.1886Z" fill="#F3F3F3"/>
<path d="M79.6536 37.2354C78.4282 37.2354 77.358 36.9934 76.4428 36.5092C75.5432 36.0251 74.8452 35.3301 74.3488 34.4243C73.8525 33.5185 73.6043 32.4488 73.6043 31.215C73.6043 30.2936 73.7439 29.4659 74.0231 28.7319C74.3023 27.9979 74.7056 27.3732 75.2329 26.8578C75.7758 26.3268 76.4195 25.9286 77.1641 25.6631C77.9086 25.382 78.7384 25.2414 79.6536 25.2414C80.879 25.2414 81.9415 25.4835 82.8411 25.9676C83.7563 26.4518 84.462 27.1389 84.9584 28.0291C85.4702 28.9193 85.7262 29.9812 85.7262 31.215C85.7262 32.152 85.5788 32.9876 85.2841 33.7216C85.0049 34.4556 84.6016 35.0881 84.0742 35.6191C83.5469 36.15 82.9031 36.5561 82.1431 36.8372C81.3986 37.1027 80.5687 37.2354 79.6536 37.2354ZM79.6536 34.5883C80.1655 34.5883 80.6075 34.4634 80.9798 34.2135C81.352 33.9636 81.6468 33.5966 81.8639 33.1125C82.0811 32.6127 82.1896 31.9802 82.1896 31.215C82.1896 30.075 81.957 29.2394 81.4916 28.7084C81.0263 28.1618 80.4136 27.8885 79.6536 27.8885C79.1572 27.8885 78.7152 28.0057 78.3274 28.2399C77.9551 28.4742 77.6604 28.8412 77.4433 29.3409C77.2416 29.8251 77.1408 30.4498 77.1408 31.215C77.1408 32.3551 77.3735 33.2062 77.8388 33.7684C78.3041 34.315 78.9091 34.5883 79.6536 34.5883Z" fill="#F3F3F3"/>
<path d="M93.3572 37.2354C92.287 37.2354 91.3873 37.0558 90.6583 36.6966C89.9448 36.3374 89.4097 35.8143 89.0529 35.1271C88.7117 34.44 88.541 33.5732 88.541 32.5268V28.1228H87.5638C87.1295 28.1228 86.7883 28.0057 86.5401 27.7714C86.3075 27.5372 86.1911 27.217 86.1911 26.811C86.1911 26.3737 86.3075 26.0457 86.5401 25.8271C86.7883 25.5928 87.1295 25.4757 87.5638 25.4757H88.541V23.6953C88.541 23.1019 88.6962 22.6568 89.0064 22.3601C89.3166 22.0477 89.7509 21.8915 90.3093 21.8915C90.8832 21.8915 91.3175 22.0477 91.6122 22.3601C91.9069 22.6568 92.0543 23.1019 92.0543 23.6953V25.4757H94.2646C94.6989 25.4757 95.0324 25.5928 95.2651 25.8271C95.4977 26.0457 95.6141 26.3737 95.6141 26.811C95.6141 27.217 95.4977 27.5372 95.2651 27.7714C95.0324 28.0057 94.6989 28.1228 94.2646 28.1228H92.0543V32.3863C92.0543 33.0422 92.2016 33.5342 92.4964 33.8621C92.8066 34.1901 93.2952 34.3541 93.9621 34.3541C94.1948 34.3541 94.412 34.3306 94.6136 34.2838C94.8153 34.2369 95.0014 34.2057 95.172 34.1901C95.3892 34.1745 95.5675 34.2447 95.7071 34.4009C95.8467 34.5415 95.9165 34.8616 95.9165 35.3614C95.9165 35.7362 95.8545 36.0641 95.7304 36.3453C95.6063 36.6264 95.3892 36.8294 95.0789 36.9543C94.8773 37.0324 94.5981 37.0949 94.2413 37.1417C93.9001 37.2042 93.6054 37.2354 93.3572 37.2354Z" fill="#F3F3F3"/>
<path d="M102.976 37.2354C101.626 37.2354 100.463 36.9934 99.4859 36.5092C98.5243 36.0095 97.7797 35.3145 97.2524 34.4243C96.7405 33.5185 96.4846 32.4566 96.4846 31.2384C96.4846 30.0515 96.7327 29.013 97.2291 28.1228C97.7254 27.217 98.4157 26.5142 99.2998 26.0145C100.199 25.4991 101.215 25.2414 102.348 25.2414C103.17 25.2414 103.914 25.382 104.581 25.6631C105.248 25.9286 105.822 26.319 106.303 26.8344C106.784 27.3341 107.148 27.951 107.397 28.685C107.645 29.4034 107.769 30.2077 107.769 31.0979C107.769 31.3946 107.676 31.6211 107.49 31.7772C107.304 31.9178 107.032 31.9881 106.675 31.9881H99.3696V30.1608H105.233L104.861 30.4888C104.861 29.8485 104.767 29.3175 104.581 28.8959C104.395 28.4586 104.124 28.1306 103.767 27.912C103.426 27.6933 102.999 27.584 102.487 27.584C101.913 27.584 101.425 27.7168 101.022 27.9822C100.618 28.2477 100.308 28.6304 100.091 29.1301C99.8737 29.6299 99.7651 30.2311 99.7651 30.9339V31.1213C99.7651 32.3082 100.037 33.1828 100.579 33.745C101.138 34.3072 101.96 34.5883 103.046 34.5883C103.418 34.5883 103.845 34.5415 104.325 34.4478C104.806 34.3541 105.256 34.2057 105.675 34.0027C106.032 33.8309 106.35 33.7762 106.629 33.8387C106.908 33.8855 107.125 34.0105 107.28 34.2135C107.435 34.4165 107.521 34.6508 107.536 34.9163C107.567 35.1818 107.513 35.4473 107.373 35.7128C107.234 35.9626 107.001 36.1735 106.675 36.3453C106.148 36.642 105.551 36.8606 104.884 37.0012C104.232 37.1573 103.596 37.2354 102.976 37.2354Z" fill="#F3F3F3"/>
<path d="M118.072 37.2354C116.304 37.2354 114.791 36.884 113.535 36.1813C112.279 35.4785 111.309 34.4946 110.627 33.2296C109.96 31.949 109.626 30.442 109.626 28.7084C109.626 27.4122 109.812 26.2487 110.185 25.218C110.572 24.1717 111.131 23.2815 111.86 22.5475C112.589 21.7978 113.473 21.22 114.512 20.814C115.567 20.4079 116.753 20.2049 118.072 20.2049C118.847 20.2049 119.631 20.3064 120.422 20.5094C121.228 20.6968 121.926 20.9701 122.516 21.3293C122.904 21.548 123.167 21.8213 123.307 22.1492C123.446 22.4772 123.485 22.8052 123.423 23.1331C123.377 23.4611 123.245 23.7422 123.028 23.9764C122.826 24.2107 122.57 24.3591 122.26 24.4215C121.95 24.484 121.601 24.4137 121.213 24.2107C120.748 23.9296 120.259 23.7266 119.747 23.6016C119.235 23.4767 118.716 23.4142 118.188 23.4142C117.149 23.4142 116.273 23.6251 115.559 24.0467C114.861 24.4528 114.334 25.0462 113.977 25.8271C113.62 26.6079 113.442 27.5684 113.442 28.7084C113.442 29.8329 113.62 30.7933 113.977 31.5898C114.334 32.3863 114.861 32.9954 115.559 33.417C116.273 33.8231 117.149 34.0261 118.188 34.0261C118.685 34.0261 119.189 33.9636 119.701 33.8387C120.228 33.7138 120.732 33.5185 121.213 33.253C121.616 33.05 121.973 32.9797 122.283 33.0422C122.609 33.0891 122.873 33.2296 123.074 33.4639C123.291 33.6825 123.423 33.948 123.47 34.2604C123.532 34.5727 123.501 34.885 123.377 35.1974C123.253 35.5097 123.02 35.7752 122.679 35.9939C122.105 36.3843 121.399 36.6888 120.561 36.9075C119.724 37.1261 118.894 37.2354 118.072 37.2354Z" fill="#F3F3F3"/>
<path d="M130.39 37.2354C129.165 37.2354 128.094 36.9934 127.179 36.5092C126.28 36.0251 125.582 35.3301 125.085 34.4243C124.589 33.5185 124.341 32.4488 124.341 31.215C124.341 30.2936 124.48 29.4659 124.76 28.7319C125.039 27.9979 125.442 27.3732 125.969 26.8578C126.512 26.3268 127.156 25.9286 127.901 25.6631C128.645 25.382 129.475 25.2414 130.39 25.2414C131.615 25.2414 132.678 25.4835 133.578 25.9676C134.493 26.4518 135.198 27.1389 135.695 28.0291C136.207 28.9193 136.463 29.9812 136.463 31.215C136.463 32.152 136.315 32.9876 136.021 33.7216C135.741 34.4556 135.338 35.0881 134.811 35.6191C134.283 36.15 133.64 36.5561 132.88 36.8372C132.135 37.1027 131.305 37.2354 130.39 37.2354ZM130.39 34.5883C130.902 34.5883 131.344 34.4634 131.716 34.2135C132.089 33.9636 132.383 33.5966 132.6 33.1125C132.818 32.6127 132.926 31.9802 132.926 31.215C132.926 30.075 132.693 29.2394 132.228 28.7084C131.763 28.1618 131.15 27.8885 130.39 27.8885C129.894 27.8885 129.452 28.0057 129.064 28.2399C128.692 28.4742 128.397 28.8412 128.18 29.3409C127.978 29.8251 127.877 30.4498 127.877 31.215C127.877 32.3551 128.11 33.2062 128.575 33.7684C129.041 34.315 129.646 34.5883 130.39 34.5883Z" fill="#F3F3F3"/>
<path d="M140.368 37.1652C139.794 37.1652 139.352 37.0012 139.042 36.6732C138.747 36.3296 138.6 35.8533 138.6 35.2442V27.2326C138.6 26.6079 138.747 26.1316 139.042 25.8037C139.352 25.4601 139.794 25.2883 140.368 25.2883C140.927 25.2883 141.353 25.4601 141.648 25.8037C141.958 26.1316 142.113 26.6079 142.113 27.2326V35.2442C142.113 35.8533 141.966 36.3296 141.671 36.6732C141.377 37.0012 140.942 37.1652 140.368 37.1652ZM140.368 23.3674C139.717 23.3674 139.213 23.219 138.856 22.9223C138.515 22.6099 138.344 22.1727 138.344 21.6104C138.344 21.0326 138.515 20.5953 138.856 20.2986C139.213 19.9863 139.717 19.8301 140.368 19.8301C141.02 19.8301 141.516 19.9863 141.857 20.2986C142.199 20.5953 142.369 21.0326 142.369 21.6104C142.369 22.1727 142.199 22.6099 141.857 22.9223C141.516 23.219 141.02 23.3674 140.368 23.3674Z" fill="#F3F3F3"/>
<path d="M146.594 37.1886C146.02 37.1886 145.578 37.0324 145.268 36.7201C144.973 36.4077 144.826 35.9626 144.826 35.3848V27.0686C144.826 26.4908 144.973 26.0535 145.268 25.7568C145.578 25.4445 146.005 25.2883 146.547 25.2883C147.106 25.2883 147.532 25.4445 147.827 25.7568C148.122 26.0535 148.269 26.4908 148.269 27.0686V28.4039L148.013 27.6309C148.37 26.8656 148.897 26.28 149.595 25.8739C150.309 25.4523 151.115 25.2414 152.015 25.2414C152.93 25.2414 153.682 25.421 154.272 25.7802C154.861 26.1238 155.303 26.6548 155.598 27.3732C155.893 28.076 156.04 28.9739 156.04 30.0671V35.3848C156.04 35.9626 155.885 36.4077 155.575 36.7201C155.28 37.0324 154.846 37.1886 154.272 37.1886C153.714 37.1886 153.279 37.0324 152.969 36.7201C152.674 36.4077 152.527 35.9626 152.527 35.3848V30.2311C152.527 29.4346 152.38 28.8646 152.085 28.521C151.806 28.1618 151.371 27.9822 150.782 27.9822C150.037 27.9822 149.44 28.2165 148.99 28.685C148.556 29.1535 148.339 29.7782 148.339 30.5591V35.3848C148.339 36.5873 147.757 37.1886 146.594 37.1886Z" fill="#F3F3F3"/>
<g filter="url(#filter0_i_2124_32585)">
<ellipse cx="35.9341" cy="28.8964" rx="11.6333" ry="11.7128" stroke="url(#paint0_linear_2124_32585)" stroke-width="6.40936"/>
</g>
<g filter="url(#filter1_d_2124_32585)">
<path d="M46.0048 34.7529C44.8543 36.7591 43.1389 38.3768 41.0753 39.4014C39.0117 40.426 36.6927 40.8115 34.4115 40.5091C32.1303 40.2067 29.9895 39.2301 28.2596 37.7026C26.5297 36.1752 25.2885 34.1656 24.693 31.928C24.0975 29.6903 24.1744 27.3252 24.914 25.1315C25.6536 22.9379 27.0227 21.0143 28.848 19.6041C30.6734 18.1938 32.8732 17.3603 35.1691 17.2088C37.4651 17.0572 39.754 17.5946 41.7467 18.7529" stroke="url(#paint1_linear_2124_32585)" stroke-width="6.40936" stroke-linecap="round"/>
</g>
<defs>
<filter id="filter0_i_2124_32585" x="21.0977" y="13.9785" width="29.6758" height="30.3045" filterUnits="userSpaceOnUse" color-interpolation-filters="sRGB">
<feFlood flood-opacity="0" result="BackgroundImageFix"/>
<feBlend mode="normal" in="SourceGraphic" in2="BackgroundImageFix" result="shape"/>
<feColorMatrix in="SourceAlpha" type="matrix" values="0 0 0 0 0 0 0 0 0 0 0 0 0 0 0 0 0 0 127 0" result="hardAlpha"/>
<feOffset dy="0.468514"/>
<feGaussianBlur stdDeviation="0.468514"/>
<feComposite in2="hardAlpha" operator="arithmetic" k2="-1" k3="1"/>
<feColorMatrix type="matrix" values="0 0 0 0 0 0 0 0 0 0 0 0 0 0 0 0 0 0 0.25 0"/>
<feBlend mode="normal" in2="shape" result="effect1_innerShadow_2124_32585"/>
</filter>
<filter id="filter1_d_2124_32585" x="20.1645" y="13.5022" width="29.9756" height="31.7256" filterUnits="userSpaceOnUse" color-interpolation-filters="sRGB">
<feFlood flood-opacity="0" result="BackgroundImageFix"/>
<feColorMatrix in="SourceAlpha" type="matrix" values="0 0 0 0 0 0 0 0 0 0 0 0 0 0 0 0 0 0 127 0" result="hardAlpha"/>
<feOffset dy="0.468514"/>
<feGaussianBlur stdDeviation="0.468514"/>
<feComposite in2="hardAlpha" operator="out"/>
<feColorMatrix type="matrix" values="0 0 0 0 0 0 0 0 0 0 0 0 0 0 0 0 0 0 0.25 0"/>
<feBlend mode="normal" in2="BackgroundImageFix" result="effect1_dropShadow_2124_32585"/>
<feBlend mode="normal" in="SourceGraphic" in2="effect1_dropShadow_2124_32585" result="shape"/>
</filter>
<linearGradient id="paint0_linear_2124_32585" x1="35.9341" y1="17.1836" x2="35.9341" y2="40.6092" gradientUnits="userSpaceOnUse">
<stop stop-color="#9A99B5"/>
<stop offset="1" stop-color="#E3E3E9"/>
</linearGradient>
<linearGradient id="paint1_linear_2124_32585" x1="43.0961" y1="19.8073" x2="47.3138" y2="34.8083" gradientUnits="userSpaceOnUse">
<stop stop-color="#3C3583"/>
<stop offset="0.560137" stop-color="#574FA7"/>
<stop offset="1" stop-color="#221E57"/>
</linearGradient>
</defs>
</svg>
