<svg width="196" height="84" viewBox="0 0 196 84" fill="none" xmlns="http://www.w3.org/2000/svg">
<g clip-path="url(#clip0_2124_32558)">
<path d="M111.109 29.6822C110.14 29.6822 108.686 29.5216 108.686 30.8067C108.686 32.8951 109.009 33.0557 107.071 33.0557C104.809 33.0557 106.101 37.0717 105.617 37.0717C105.132 37.0717 104.809 35.144 102.386 35.144C99.9143 35.144 99.9623 37.0717 99.1546 37.0717C98.3468 37.0717 98.1392 35.0757 97.3775 31.2887C96.5697 27.2726 96.0851 29.6822 94.6311 35.7866C93.4442 40.7699 90.2688 38.8923 89.057 37.393C87.2833 35.0731 86.2305 32.1787 86.2305 29.0397C86.2305 21.4098 92.4508 15.2246 100.124 15.2246C104.493 15.2246 108.391 17.2298 110.938 20.3651" stroke="#F5F7EF" stroke-width="1.48732"/>
<path d="M104.175 26.2801C104.175 27.082 103.585 27.6989 102.81 27.6989C102.034 27.6989 101.414 27.082 101.414 26.2801C101.414 25.4782 102.034 24.8613 102.81 24.8613C103.585 24.8613 104.175 25.4782 104.175 26.2801Z" fill="#F5F7EF"/>
<path d="M26.03 54.2504C28.8918 54.2504 30.4367 56.5493 30.4367 59.1766V65.2901H32.0069V58.9997C32.0069 55.463 29.8036 52.7599 26.03 52.7599C22.3324 52.7599 20.1797 55.4883 20.1797 59.025V65.2901H21.7499V59.1513C21.7499 56.5493 23.2441 54.2504 26.03 54.2504Z" fill="#F5F7EF"/>
<path d="M38.9704 65.5427C41.2244 65.5427 43.1491 64.5322 44.2635 62.5112L43.0478 61.8544C42.1614 63.4207 40.6419 64.0522 38.9704 64.0522C36.3618 64.0522 34.437 62.2081 34.1838 59.7071H44.5927V58.7724C44.5927 55.2862 42.2627 52.7347 38.6918 52.7347C35.0955 52.7347 32.6389 55.5893 32.6389 59.1261C32.6389 62.7891 35.3488 65.5427 38.9704 65.5427ZM34.2344 58.444C34.4623 56.0693 36.1339 54.2251 38.6918 54.2251C41.1737 54.2251 42.9719 55.8925 43.0225 58.444H34.2344Z" fill="#F5F7EF"/>
<path d="M47.0614 65.2901L49.9232 61.3239C50.2778 60.8439 50.4804 60.3386 50.5817 59.8334H52.1266C52.2279 60.3386 52.4558 60.8439 52.7851 61.3239L55.6469 65.2901H57.4451L54.1274 60.6418C53.7475 60.1113 53.5702 59.6313 53.5702 59.1513C53.5702 58.6966 53.7475 58.2419 54.102 57.7366L57.4451 53.0378H55.6216L52.7851 57.004C52.4812 57.4587 52.2532 57.9135 52.1519 58.3934H50.5564C50.4551 57.9135 50.2525 57.4587 49.9232 57.004L47.0614 53.0378H45.2633L48.6063 57.7366C48.9609 58.2419 49.1381 58.6966 49.1381 59.1513C49.1381 59.6313 48.9609 60.1113 48.581 60.6418L45.2633 65.2901H47.0614Z" fill="#F5F7EF"/>
<path d="M63.919 65.568C64.8307 65.568 65.7425 65.2648 66.3756 64.7848V63.2691C65.7678 63.7743 64.932 64.1027 64.0456 64.1027C62.4248 64.1027 61.3611 63.0417 61.3611 61.2228V54.4525H66.3756V53.0378H61.3611V49.779H59.7909V53.0378H57.1823V54.4525H59.7909V61.2734C59.7909 63.8754 61.3104 65.568 63.919 65.568Z" fill="#F5F7EF"/>
<path d="M77.7594 71.2015C81.609 71.2015 84.3695 68.4731 84.3695 64.2796V59.1261C84.3695 55.5388 81.533 52.7599 77.9114 52.7599C74.2391 52.7599 71.4786 55.6398 71.4786 59.1261C71.4786 62.688 74.2391 65.4922 77.7594 65.4922C80.1148 65.4922 81.9382 64.2291 82.7993 62.5112V64.2291C82.7993 67.5384 80.7226 69.711 77.7341 69.711C75.8093 69.711 74.1632 68.8773 73.2768 67.3363L71.9598 68.0689C73.0741 70.1152 75.2775 71.2015 77.7594 71.2015ZM77.9114 64.0017C75.2269 64.0017 73.0488 61.8039 73.0488 59.1008C73.0488 56.423 75.2269 54.2504 77.9114 54.2504C80.6213 54.2504 82.7993 56.423 82.7993 59.1008C82.7993 61.8039 80.6213 64.0017 77.9114 64.0017Z" fill="#F5F7EF"/>
<path d="M91.3288 65.5427C93.5828 65.5427 95.5076 64.5322 96.6219 62.5112L95.4063 61.8544C94.5199 63.4207 93.0003 64.0522 91.3288 64.0522C88.7202 64.0522 86.7955 62.2081 86.5422 59.7071H96.9512V58.7724C96.9512 55.2862 94.6212 52.7347 91.0502 52.7347C87.454 52.7347 84.9973 55.5893 84.9973 59.1261C84.9973 62.7891 87.7072 65.5427 91.3288 65.5427ZM86.5929 58.444C86.8208 56.0693 88.4923 54.2251 91.0502 54.2251C93.5322 54.2251 95.3303 55.8925 95.381 58.444H86.5929Z" fill="#F5F7EF"/>
<path d="M103.596 54.2504C106.458 54.2504 108.002 56.5493 108.002 59.1766V65.2901H109.573V58.9997C109.573 55.463 107.369 52.7599 103.596 52.7599C99.8981 52.7599 97.7454 55.4883 97.7454 59.025V65.2901H99.3156V59.1513C99.3156 56.5493 100.81 54.2504 103.596 54.2504Z" fill="#F5F7EF"/>
<path d="M118.312 64.0522C118.692 65.0627 119.477 65.568 120.363 65.568C121.275 65.568 122.009 65.0627 122.389 64.0522L126.543 53.0378H124.871L120.946 63.648C120.844 63.9259 120.667 64.1027 120.363 64.1027C120.084 64.1027 119.882 63.9259 119.781 63.648L115.855 53.0378H114.184L118.312 64.0522Z" fill="#F5F7EF"/>
<path d="M127.697 50.0821C128.33 50.0821 128.811 49.5769 128.811 48.92C128.811 48.2632 128.33 47.758 127.697 47.758C127.064 47.758 126.557 48.2632 126.557 48.92C126.557 49.5769 127.064 50.0821 127.697 50.0821ZM126.912 53.0378V65.2901H128.482V53.0378H126.912Z" fill="#F5F7EF"/>
<path d="M130.834 47.4043V65.2901H132.405V47.4043H130.834Z" fill="#F5F7EF"/>
<path d="M134.93 47.4043V65.2901H136.5V47.4043H134.93Z" fill="#F5F7EF"/>
<path d="M143.863 65.5427C146.193 65.5427 148.092 64.2796 149.029 62.4354V65.2901H150.524V59.1261C150.524 55.5388 147.687 52.7599 144.066 52.7599C140.393 52.7599 137.633 55.6398 137.633 59.1261C137.633 62.6628 140.317 65.5427 143.863 65.5427ZM144.066 64.0522C141.356 64.0522 139.203 61.8291 139.203 59.1513C139.203 56.4735 141.356 54.2504 144.066 54.2504C146.801 54.2504 148.953 56.4735 148.953 59.1513C148.953 61.8291 146.801 64.0522 144.066 64.0522Z" fill="#F5F7EF"/>
<path d="M157.432 71.2015C161.282 71.2015 164.042 68.4731 164.042 64.2796V59.1261C164.042 55.5388 161.206 52.7599 157.584 52.7599C153.912 52.7599 151.152 55.6398 151.152 59.1261C151.152 62.688 153.912 65.4922 157.432 65.4922C159.788 65.4922 161.611 64.2291 162.472 62.5112V64.2291C162.472 67.5384 160.395 69.711 157.407 69.711C155.482 69.711 153.836 68.8773 152.95 67.3363L151.633 68.0689C152.747 70.1152 154.95 71.2015 157.432 71.2015ZM157.584 64.0017C154.9 64.0017 152.722 61.8039 152.722 59.1008C152.722 56.423 154.9 54.2504 157.584 54.2504C160.294 54.2504 162.472 56.423 162.472 59.1008C162.472 61.8039 160.294 64.0017 157.584 64.0017Z" fill="#F5F7EF"/>
<path d="M171.002 65.5427C173.256 65.5427 175.18 64.5322 176.295 62.5112L175.079 61.8544C174.193 63.4207 172.673 64.0522 171.002 64.0522C168.393 64.0522 166.468 62.2081 166.215 59.7071H176.624V58.7724C176.624 55.2862 174.294 52.7347 170.723 52.7347C167.127 52.7347 164.67 55.5893 164.67 59.1261C164.67 62.7891 167.38 65.5427 171.002 65.5427ZM166.266 58.444C166.494 56.0693 168.165 54.2251 170.723 54.2251C173.205 54.2251 175.003 55.8925 175.054 58.444H166.266Z" fill="#F5F7EF"/>
</g>
<defs>
<clipPath id="clip0_2124_32558">
<rect width="156.444" height="57.6" fill="white" transform="translate(20.1797 13.6016)"/>
</clipPath>
</defs>
</svg>
