<svg width="186" height="52" viewBox="0 0 186 52" fill="none" xmlns="http://www.w3.org/2000/svg">
<path d="M68.7285 38.5996C75.7971 38.5996 81.5273 32.8694 81.5273 25.8008C81.5273 20.6121 78.4397 16.1445 74.0016 14.1352C74.0016 21.2038 68.2714 26.9341 61.2028 26.9341C59.3229 26.9341 57.5377 26.5288 55.9297 25.8008C55.9297 32.8694 61.6599 38.5996 68.7285 38.5996Z" fill="url(#paint0_radial_2124_30918)"/>
<path d="M55.9297 25.8008C55.9297 32.8694 61.6599 38.5996 68.7285 38.5996C75.7971 38.5996 81.5273 32.8694 81.5273 25.8008C81.5273 20.6121 78.4397 16.1445 74.0016 14.1352M55.9297 25.8008C57.5377 26.5288 59.3229 26.9341 61.2028 26.9341C68.2714 26.9341 74.0016 21.2038 74.0016 14.1352M55.9297 25.8008C63.5703 23.4397 66.3729 20.6468 68.7285 13.002C70.6084 13.002 72.3936 13.4073 74.0016 14.1352" stroke="#F5F7EF" stroke-width="2.56"/>
<path d="M55.9219 25.7988L55.544 24.5759C55.0358 24.7329 54.6777 25.1878 54.6444 25.7186C54.6111 26.2494 54.9094 26.7455 55.394 26.9649L55.9219 25.7988ZM68.7207 13V11.72H67.7757L67.4974 12.6231L68.7207 13ZM73.9938 14.1333H75.2738V13.3077L74.5217 12.9672L73.9938 14.1333ZM68.7207 14.28C70.4149 14.28 72.0205 14.645 73.4659 15.2994L74.5217 12.9672C72.7512 12.1656 70.7862 11.72 68.7207 11.72V14.28ZM72.7138 14.1333C72.7138 20.495 67.5567 25.6521 61.195 25.6521V28.2121C68.9705 28.2121 75.2738 21.9088 75.2738 14.1333H72.7138ZM61.195 25.6521C59.5007 25.6521 57.8952 25.2871 56.4498 24.6328L55.394 26.9649C57.1645 27.7665 59.1294 28.2121 61.195 28.2121V25.6521ZM67.4974 12.6231C66.3441 16.366 65.1322 18.7427 63.3984 20.4755C61.6642 22.2085 59.2858 23.4196 55.544 24.5759L56.2998 27.0218C60.1986 25.817 63.0418 24.4511 65.208 22.2862C67.3745 20.1211 68.7416 17.2789 69.9439 13.3769L67.4974 12.6231Z" fill="#F5F7EF"/>
<path d="M43.221 38.4201L43.2216 38.7396H43.541H45.3438H45.6643L45.6638 38.4191L45.6278 13.1798L45.6273 12.8603H45.3078H43.7934H43.6089L43.5164 13.02L32.5079 32.0477L21.4993 13.02L21.4068 12.8603H21.2223H19.6719H19.3519V13.1803V38.4196V38.7396H19.6719H21.4747H21.7947V38.4196V18.0812L31.7625 35.2272L31.855 35.3864H32.0391H32.9405H33.125L33.2175 35.2267L43.187 18.0097L43.221 38.4201ZM93.4524 32.4867L93.4539 32.4892C94.6366 34.485 96.2519 36.0628 98.2949 37.2197L98.2974 37.2212C100.344 38.3554 102.634 38.9199 105.159 38.9199C107.684 38.9199 109.974 38.3554 112.021 37.2212C114.065 36.088 115.67 34.5211 116.829 32.5239C118.013 30.5242 118.603 28.2802 118.603 25.7999C118.603 23.3196 118.013 21.0756 116.829 19.0759C115.67 17.0787 114.065 15.5118 112.021 14.3787C109.974 13.2444 107.684 12.68 105.159 12.68C102.633 12.68 100.343 13.2568 98.2964 14.4153C96.2525 15.5483 94.6367 17.1146 93.4539 19.1106L93.4524 19.1132C92.2924 21.1123 91.7146 23.3437 91.7146 25.7999C91.7146 28.2561 92.2924 30.4876 93.4524 32.4867ZM114.653 20.2991L114.654 20.3008C115.609 21.9309 116.089 23.7613 116.089 25.7999C116.089 27.8382 115.609 29.6811 114.654 31.3359C113.697 32.969 112.392 34.2505 110.735 35.1842C109.08 36.1165 107.224 36.5852 105.159 36.5852C103.095 36.5852 101.226 36.1167 99.5462 35.1837C97.8894 34.2501 96.5849 32.9688 95.6284 31.3359C94.673 29.6811 94.1934 27.8382 94.1934 25.7999C94.1934 23.7613 94.6731 21.9309 95.6279 20.3008L95.6289 20.2991C96.5857 18.6421 97.8902 17.3494 99.5462 16.4162C101.226 15.4832 103.095 15.0146 105.159 15.0146C107.224 15.0146 109.08 15.4833 110.735 16.4157C112.391 17.3489 113.696 18.6418 114.653 20.2991ZM150.581 13.1803V12.8603H150.261H148.422H148.102V13.1803V34.1746L131.512 12.983L131.416 12.8603H131.26H129.709H129.389V13.1803V38.4196V38.7396H129.709H131.548H131.868V38.4196V17.4238L148.495 38.6171L148.591 38.7396H148.747H150.261H150.581V38.4196V13.1803ZM164.123 12.8603H163.803V13.1803V38.4196V38.7396H164.123H165.962H166.282V38.4196V13.1803V12.8603H165.962H164.123Z" fill="#F5F7EF" stroke="#F5F7EF" stroke-width="0.64"/>
<defs>
<radialGradient id="paint0_radial_2124_30918" cx="0" cy="0" r="1" gradientUnits="userSpaceOnUse" gradientTransform="translate(56.3817 13.002) rotate(45.5103) scale(35.8824 68.4914)">
<stop stop-color="white" stop-opacity="0.7"/>
<stop offset="0.0001" stop-color="#152D68" stop-opacity="0.7"/>
<stop offset="1" stop-color="#152D68" stop-opacity="0.1"/>
</radialGradient>
</defs>
</svg>
