<svg width="155" height="84" viewBox="0 0 155 84" fill="none" xmlns="http://www.w3.org/2000/svg">
<path d="M71.7008 32.8975C71.6989 34.0948 71.1984 35.2372 70.3196 36.0503C67.5607 38.6032 63.0845 36.6422 63.0906 32.8834L63.1044 24.3964C63.1064 23.1991 63.6069 22.0567 64.4857 21.2435C67.2446 18.6907 71.7208 20.6516 71.7147 24.4104L71.7008 32.8975Z" fill="white"/>
<path d="M71.7008 32.8975C71.6989 34.0948 71.1984 35.2372 70.3196 36.0503C67.5607 38.6032 63.0845 36.6422 63.0906 32.8834L63.1044 24.3964C63.1064 23.1991 63.6069 22.0567 64.4857 21.2435C67.2446 18.6907 71.7208 20.6516 71.7147 24.4104L71.7008 32.8975Z" fill="url(#paint0_linear_2124_32591)" fill-opacity="0.5"/>
<path d="M91.4942 32.9302C91.4923 34.1275 90.9918 35.2699 90.113 36.0831C87.3541 38.6359 82.8779 36.675 82.884 32.9162L82.8978 24.4291C82.8998 23.2318 83.4003 22.0894 84.2791 21.2763C87.038 18.7234 91.5142 20.6844 91.5081 24.4432L91.4942 32.9302Z" fill="white"/>
<path d="M91.4942 32.9302C91.4923 34.1275 90.9918 35.2699 90.113 36.0831C87.3541 38.6359 82.8779 36.675 82.884 32.9162L82.8978 24.4291C82.8998 23.2318 83.4003 22.0894 84.2791 21.2763C87.038 18.7234 91.5142 20.6844 91.5081 24.4432L91.4942 32.9302Z" fill="url(#paint1_linear_2124_32591)" fill-opacity="0.5"/>
<path d="M91.5071 24.9002C91.4982 30.372 87.0602 34.8006 81.5944 34.7918C76.1285 34.783 71.7046 30.3399 71.7135 24.8679L71.7139 24.6579C71.723 19.0701 76.2551 14.5477 81.8367 14.5567L91.524 14.5722L91.5071 24.9002Z" fill="white"/>
<path d="M91.5071 24.9002C91.4982 30.372 87.0602 34.8006 81.5944 34.7918C76.1285 34.783 71.7046 30.3399 71.7135 24.8679L71.7139 24.6579C71.723 19.0701 76.2551 14.5477 81.8367 14.5567L91.524 14.5722L91.5071 24.9002Z" fill="url(#paint2_linear_2124_32591)" fill-opacity="0.5"/>
<path d="M82.8794 35.6667C82.873 39.5991 79.6836 42.7817 75.7555 42.7754L63.0742 42.755L63.0956 29.6397C63.102 25.7073 66.2914 22.5246 70.2195 22.5309L75.7882 22.5399C79.7163 22.5462 82.8956 25.7393 82.8892 29.6719L82.8794 35.6667Z" fill="white"/>
<path d="M82.8794 35.6667C82.873 39.5991 79.6836 42.7817 75.7555 42.7754L63.0742 42.755L63.0956 29.6397C63.102 25.7073 66.2914 22.5246 70.2195 22.5309L75.7882 22.5399C79.7163 22.5462 82.8956 25.7393 82.8892 29.6719L82.8794 35.6667Z" fill="url(#paint3_linear_2124_32591)" fill-opacity="0.5"/>
<path d="M91.524 14.5722L81.8367 14.5567C76.2551 14.5477 71.723 19.0701 71.7139 24.6579L71.7135 24.8679C71.7046 30.3399 76.1285 34.783 81.5944 34.7918C87.0602 34.8006 91.4982 30.372 91.5071 24.9002L91.524 14.5722ZM91.524 14.5722L86.1897 20.2366M71.7139 32.3412C71.7139 38.7495 63.0742 42.755 63.0742 42.755M63.0742 42.755L75.7555 42.7754C79.6836 42.7817 82.873 39.5991 82.8794 35.6667L82.8892 29.6719C82.8956 25.7393 79.7163 22.5462 75.7882 22.5399L70.2195 22.5309C66.2914 22.5246 63.102 25.7073 63.0956 29.6397L63.0742 42.755ZM63.1047 24.3962L63.0908 32.8832C63.0847 36.642 67.5609 38.603 70.3198 36.0501C71.1986 35.2369 71.6991 34.0945 71.701 32.8972L71.7149 24.4102C71.721 20.6514 67.2448 18.6904 64.4859 21.2433C63.6071 22.0565 63.1066 23.1989 63.1047 24.3962ZM82.8979 24.429L82.8841 32.916C82.878 36.6748 87.3542 38.6358 90.1131 36.0829C90.9919 35.2697 91.4924 34.1273 91.4943 32.93L91.5081 24.443C91.5143 20.6842 87.0381 18.7232 84.2792 21.2761C83.4004 22.0893 82.8999 23.2317 82.8979 24.429Z" stroke="#1C1C1C" stroke-width="1.75697" stroke-linecap="round" stroke-linejoin="round"/>
<path d="M28.3944 68.2494H23.5358L22.7569 70.5489H19.4375L24.1477 57.5309H27.8195L32.5297 70.5489H29.1732L28.3944 68.2494ZM27.5784 65.8016L25.9651 61.0357L24.3703 65.8016H27.5784Z" fill="#F5F7EF"/>
<path d="M38.6179 67.5818L40.8617 60.2012H44.2368L40.565 70.5489H36.6522L32.9804 60.2012H36.374L38.6179 67.5818Z" fill="#F5F7EF"/>
<path d="M44.941 65.3565C44.941 64.2933 45.1388 63.3599 45.5345 62.5563C45.9424 61.7528 46.4926 61.1346 47.1849 60.7019C47.8772 60.2692 48.6499 60.0529 49.5029 60.0529C50.2323 60.0529 50.869 60.2012 51.413 60.4979C51.9693 60.7946 52.3958 61.1841 52.6925 61.6662V60.2012H55.8636V70.5489H52.6925V69.0839C52.3835 69.5661 51.9508 69.9555 51.3944 70.2522C50.8505 70.5489 50.2138 70.6973 49.4844 70.6973C48.6437 70.6973 47.8772 70.4809 47.1849 70.0482C46.4926 69.6031 45.9424 68.9788 45.5345 68.1752C45.1388 67.3593 44.941 66.4197 44.941 65.3565ZM52.6925 65.3751C52.6925 64.5838 52.47 63.9595 52.0249 63.5021C51.5922 63.0447 51.0606 62.816 50.4301 62.816C49.7996 62.816 49.2619 63.0447 48.8168 63.5021C48.3841 63.9472 48.1677 64.5653 48.1677 65.3565C48.1677 66.1477 48.3841 66.7782 48.8168 67.248C49.2619 67.7055 49.7996 67.9342 50.4301 67.9342C51.0606 67.9342 51.5922 67.7055 52.0249 67.248C52.47 66.7906 52.6925 66.1663 52.6925 65.3751Z" fill="#F5F7EF"/>
<path d="M64.4628 60.09C65.6743 60.09 66.6386 60.4856 67.3557 61.2768C68.0851 62.0556 68.4498 63.1312 68.4498 64.5035V70.5489H65.2973V64.93C65.2973 64.2377 65.118 63.6999 64.7595 63.3167C64.4009 62.9334 63.9188 62.7418 63.313 62.7418C62.7072 62.7418 62.2251 62.9334 61.8666 63.3167C61.508 63.6999 61.3288 64.2377 61.3288 64.93V70.5489H58.1577V60.2012H61.3288V61.5735C61.6502 61.1161 62.0829 60.7575 62.6269 60.4979C63.1708 60.2259 63.7828 60.09 64.4628 60.09Z" fill="#F5F7EF"/>
<path d="M76.4206 67.86V70.5489H74.8073C73.6575 70.5489 72.7612 70.2707 72.1183 69.7144C71.4755 69.1457 71.154 68.2247 71.154 66.9513V62.8345H69.893V60.2012H71.154V57.6792H74.3251V60.2012H76.4021V62.8345H74.3251V66.9884C74.3251 67.2975 74.3993 67.52 74.5476 67.656C74.696 67.792 74.9433 67.86 75.2894 67.86H76.4206Z" fill="#F5F7EF"/>
<path d="M86.8286 61.6477C86.5937 61.215 86.2537 60.8874 85.8086 60.6648C85.3759 60.4299 84.8629 60.3125 84.2695 60.3125C83.2433 60.3125 82.4212 60.6525 81.8031 61.3324C81.1849 62 80.8759 62.8963 80.8759 64.0213C80.8759 65.2205 81.1973 66.1601 81.8402 66.8401C82.4954 67.5077 83.3917 67.8414 84.5291 67.8414C85.3079 67.8414 85.9632 67.6436 86.4948 67.248C87.0387 66.8524 87.4343 66.2837 87.6816 65.542H83.6575V63.2054H90.556V66.1539C90.3211 66.9451 89.9193 67.6807 89.3506 68.3607C88.7943 69.0406 88.0834 69.5908 87.218 70.0111C86.3526 70.4315 85.3759 70.6416 84.288 70.6416C83.0023 70.6416 81.8525 70.3635 80.8388 69.8071C79.8374 69.2384 79.0523 68.4534 78.4837 67.452C77.9273 66.4506 77.6492 65.3071 77.6492 64.0213C77.6492 62.7356 77.9273 61.592 78.4837 60.5907C79.0523 59.5769 79.8374 58.7919 80.8388 58.2355C81.8402 57.6668 82.9837 57.3825 84.2695 57.3825C85.8272 57.3825 87.1376 57.7596 88.2008 58.5137C89.2764 59.2678 89.9873 60.3125 90.3334 61.6477H86.8286Z" fill="#F5F7EF"/>
<path d="M91.6819 65.3565C91.6819 64.2933 91.8797 63.3599 92.2754 62.5563C92.6833 61.7528 93.2335 61.1346 93.9258 60.7019C94.6181 60.2692 95.3908 60.0529 96.2438 60.0529C96.9732 60.0529 97.6099 60.2012 98.1539 60.4979C98.7102 60.7946 99.1367 61.1841 99.4334 61.6662V60.2012H102.604V70.5489H99.4334V69.0839C99.1244 69.5661 98.6917 69.9555 98.1353 70.2522C97.5914 70.5489 96.9547 70.6973 96.2253 70.6973C95.3846 70.6973 94.6181 70.4809 93.9258 70.0482C93.2335 69.6031 92.6833 68.9788 92.2754 68.1752C91.8797 67.3593 91.6819 66.4197 91.6819 65.3565ZM99.4334 65.3751C99.4334 64.5838 99.2109 63.9595 98.7658 63.5021C98.3331 63.0447 97.8015 62.816 97.171 62.816C96.5405 62.816 96.0027 63.0447 95.5577 63.5021C95.125 63.9472 94.9086 64.5653 94.9086 65.3565C94.9086 66.1477 95.125 66.7782 95.5577 67.248C96.0027 67.7055 96.5405 67.9342 97.171 67.9342C97.8015 67.9342 98.3331 67.7055 98.7658 67.248C99.2109 66.7906 99.4334 66.1663 99.4334 65.3751Z" fill="#F5F7EF"/>
<path d="M108.07 61.9258C108.441 61.3571 108.904 60.9121 109.46 60.5907C110.017 60.2569 110.635 60.09 111.315 60.09V63.4465H110.443C109.652 63.4465 109.059 63.6195 108.663 63.9657C108.267 64.2995 108.07 64.8929 108.07 65.7459V70.5489H104.899V60.2012H108.07V61.9258Z" fill="#F5F7EF"/>
<path d="M112.2 65.3565C112.2 64.2933 112.398 63.3599 112.794 62.5563C113.202 61.7528 113.752 61.1346 114.444 60.7019C115.136 60.2692 115.909 60.0529 116.762 60.0529C117.442 60.0529 118.06 60.195 118.616 60.4794C119.185 60.7637 119.63 61.147 119.952 61.6291V56.8262H123.123V70.5489H119.952V69.0654C119.655 69.5599 119.228 69.9555 118.672 70.2522C118.128 70.5489 117.491 70.6973 116.762 70.6973C115.909 70.6973 115.136 70.4809 114.444 70.0482C113.752 69.6031 113.202 68.9788 112.794 68.1752C112.398 67.3593 112.2 66.4197 112.2 65.3565ZM119.952 65.3751C119.952 64.5838 119.729 63.9595 119.284 63.5021C118.851 63.0447 118.32 62.816 117.689 62.816C117.059 62.816 116.521 63.0447 116.076 63.5021C115.643 63.9472 115.427 64.5653 115.427 65.3565C115.427 66.1477 115.643 66.7782 116.076 67.248C116.521 67.7055 117.059 67.9342 117.689 67.9342C118.32 67.9342 118.851 67.7055 119.284 67.248C119.729 66.7906 119.952 66.1663 119.952 65.3751Z" fill="#F5F7EF"/>
<path d="M135.171 65.2082C135.171 65.5049 135.153 65.8139 135.115 66.1354H127.939C127.988 66.7782 128.192 67.2728 128.551 67.6189C128.922 67.9527 129.373 68.1196 129.905 68.1196C130.696 68.1196 131.246 67.7858 131.555 67.1182H134.93C134.757 67.7982 134.442 68.4101 133.984 68.9541C133.539 69.4981 132.977 69.9246 132.297 70.2337C131.617 70.5427 130.856 70.6973 130.016 70.6973C129.002 70.6973 128.1 70.4809 127.308 70.0482C126.517 69.6155 125.899 68.9974 125.454 68.1938C125.009 67.3902 124.786 66.4506 124.786 65.3751C124.786 64.2995 125.003 63.3599 125.435 62.5563C125.88 61.7528 126.499 61.1346 127.29 60.7019C128.081 60.2692 128.99 60.0529 130.016 60.0529C131.017 60.0529 131.907 60.263 132.686 60.6834C133.465 61.1037 134.071 61.7033 134.503 62.4822C134.949 63.261 135.171 64.1697 135.171 65.2082ZM131.926 64.3737C131.926 63.8297 131.74 63.397 131.37 63.0756C130.999 62.7541 130.535 62.5934 129.979 62.5934C129.447 62.5934 128.996 62.748 128.625 63.057C128.266 63.3661 128.044 63.805 127.957 64.3737H131.926Z" fill="#F5F7EF"/>
<defs>
<linearGradient id="paint0_linear_2124_32591" x1="63.0742" y1="28.666" x2="91.524" y2="28.666" gradientUnits="userSpaceOnUse">
<stop stop-color="#FBE46B"/>
<stop offset="0.50305" stop-color="#FB6B6B"/>
<stop offset="1" stop-color="#BC6BFB"/>
</linearGradient>
<linearGradient id="paint1_linear_2124_32591" x1="63.0742" y1="28.666" x2="91.524" y2="28.666" gradientUnits="userSpaceOnUse">
<stop stop-color="#FBE46B"/>
<stop offset="0.50305" stop-color="#FB6B6B"/>
<stop offset="1" stop-color="#BC6BFB"/>
</linearGradient>
<linearGradient id="paint2_linear_2124_32591" x1="63.0742" y1="28.666" x2="91.524" y2="28.666" gradientUnits="userSpaceOnUse">
<stop stop-color="#FBE46B"/>
<stop offset="0.50305" stop-color="#FB6B6B"/>
<stop offset="1" stop-color="#BC6BFB"/>
</linearGradient>
<linearGradient id="paint3_linear_2124_32591" x1="63.0742" y1="28.666" x2="91.524" y2="28.666" gradientUnits="userSpaceOnUse">
<stop stop-color="#FBE46B"/>
<stop offset="0.50305" stop-color="#FB6B6B"/>
<stop offset="1" stop-color="#BC6BFB"/>
</linearGradient>
</defs>
</svg>
