<svg width="184" height="78" viewBox="0 0 184 78" fill="none" xmlns="http://www.w3.org/2000/svg">
<path d="M78.6482 31.7237H75.682V36.2656C75.7194 36.797 75.5561 37.3231 75.2243 37.7399C75.0733 37.8972 74.8922 38.0223 74.6916 38.1078C74.4911 38.1932 74.2754 38.2373 74.0574 38.2373C73.8394 38.2373 73.6237 38.1932 73.4231 38.1078C73.2226 38.0223 73.0414 37.8972 72.8905 37.7399C72.5639 37.3276 72.4043 36.8076 72.4433 36.283V23.95C72.4433 23.2513 72.6075 22.7307 72.9359 22.4268C73.3781 22.0812 73.935 21.9163 74.4941 21.9656H78.6482C79.6023 21.9364 80.5561 22.0328 81.4851 22.2521C82.1124 22.4185 82.6924 22.7282 83.1796 23.157C83.6581 23.5806 84.0303 24.1108 84.2662 24.7047C84.5205 25.3617 84.6462 26.0615 84.6365 26.766C84.6365 28.3964 84.1346 29.6297 83.1307 30.4659C82.1268 31.3021 80.6326 31.7213 78.6482 31.7237ZM77.8621 24.3868H75.682V29.278H77.8621C78.5087 29.2936 79.1541 29.2123 79.7767 29.037C80.2427 28.9087 80.6545 28.6329 80.9506 28.2509C81.236 27.8307 81.377 27.3292 81.3524 26.8219C81.3786 26.1885 81.1553 25.5701 80.7305 25.0995C80.267 24.6243 79.3108 24.3868 77.8621 24.3868Z" fill="#F5F7EF"/>
<path d="M97.8708 24.463H90.5793V28.3899H97.2943C97.6919 28.3594 98.0866 28.4777 98.4018 28.7219C98.5233 28.8324 98.619 28.9682 98.6824 29.1197C98.7458 29.2712 98.7752 29.4347 98.7687 29.5988C98.7752 29.7634 98.7475 29.9275 98.6874 30.0809C98.6272 30.2342 98.5359 30.3734 98.4193 30.4897C98.1063 30.7446 97.7073 30.8697 97.3048 30.8391H90.5793V35.381H98.1223C98.5369 35.3482 98.9486 35.473 99.2753 35.7304C99.4042 35.8503 99.5056 35.9967 99.5725 36.1595C99.6395 36.3224 99.6704 36.4978 99.6631 36.6737C99.6689 36.8463 99.6373 37.0182 99.5704 37.1774C99.5034 37.3366 99.4027 37.4794 99.2753 37.596C98.948 37.8522 98.5368 37.9768 98.1223 37.9454H89.3215C88.6228 37.9454 88.1092 37.7882 87.7983 37.4772C87.452 37.0516 87.2864 36.5072 87.3371 35.9609V23.9424C87.3219 23.5522 87.3922 23.1635 87.5432 22.8034C87.6735 22.5166 87.9048 22.2877 88.193 22.1606C88.5508 22.0146 88.9353 21.9455 89.3215 21.9579H97.8708C98.2841 21.9264 98.6943 22.0511 99.0202 22.3073C99.1448 22.4204 99.2432 22.5593 99.3083 22.7144C99.3735 22.8696 99.404 23.0371 99.3975 23.2052C99.4044 23.3754 99.3742 23.5451 99.309 23.7026C99.2439 23.86 99.1453 24.0014 99.0202 24.1171C98.693 24.3705 98.2835 24.4938 97.8708 24.463V24.463Z" fill="#F5F7EF"/>
<path d="M112.464 36.1429L111.699 34.1375H105.2L104.439 36.1848C104.251 36.7544 103.994 37.2989 103.674 37.8059C103.546 37.9558 103.384 38.0724 103.201 38.1454C103.019 38.2185 102.821 38.2459 102.625 38.2252C102.425 38.2258 102.226 38.1865 102.041 38.1098C101.856 38.033 101.687 37.9202 101.546 37.778C101.4 37.652 101.283 37.4966 101.201 37.322C101.12 37.1473 101.077 36.9574 101.074 36.7648C101.077 36.5345 101.114 36.3059 101.186 36.087C101.256 35.8564 101.378 35.5315 101.535 35.1192L105.648 24.7358C105.763 24.4388 105.903 24.0789 106.067 23.6632C106.203 23.2959 106.379 22.9445 106.591 22.615C106.778 22.3374 107.029 22.1076 107.321 21.9442C107.671 21.774 108.055 21.6855 108.444 21.6855C108.833 21.6855 109.218 21.774 109.568 21.9442C109.858 22.1059 110.108 22.3317 110.298 22.6046C110.485 22.8754 110.642 23.1659 110.766 23.471C110.895 23.7785 111.056 24.1907 111.252 24.7078L115.444 35.0249C115.704 35.5633 115.87 36.1424 115.933 36.7369C115.93 36.9289 115.888 37.1183 115.809 37.2932C115.729 37.4682 115.615 37.6249 115.472 37.7535C115.327 37.9035 115.154 38.0221 114.961 38.102C114.769 38.1819 114.562 38.2215 114.354 38.2182C114.127 38.2244 113.903 38.1777 113.697 38.0819C113.519 37.9937 113.363 37.8673 113.24 37.7116C113.079 37.4881 112.945 37.2465 112.841 36.9919C112.687 36.674 112.565 36.391 112.464 36.1429ZM106.053 31.7233H110.846L108.436 25.1236L106.053 31.7233Z" fill="#F5F7EF"/>
<path d="M122.519 23.6363L128.745 33.0695V23.549C128.707 23.0505 128.848 22.5549 129.143 22.1515C129.276 21.9981 129.441 21.8766 129.627 21.7962C129.812 21.7157 130.014 21.6783 130.216 21.6868C130.422 21.6781 130.628 21.7153 130.819 21.7956C131.009 21.876 131.179 21.9975 131.317 22.1515C131.616 22.553 131.76 23.0495 131.722 23.549V36.1265C131.722 37.524 131.14 38.2228 129.975 38.2228C129.709 38.2268 129.444 38.1842 129.192 38.097C128.95 38.0074 128.727 37.8722 128.536 37.6987C128.325 37.5074 128.135 37.2943 127.97 37.0629C127.795 36.8183 127.62 36.5702 127.446 36.3152L121.373 27.0008V36.3711C121.412 36.8739 121.26 37.3728 120.947 37.7686C120.811 37.9218 120.643 38.0432 120.454 38.1241C120.266 38.205 120.062 38.2435 119.857 38.2368C119.65 38.2442 119.444 38.2054 119.253 38.1232C119.063 38.041 118.893 37.9175 118.757 37.7616C118.454 37.3676 118.307 36.8769 118.341 36.3816V24.0381C118.325 23.621 118.384 23.2045 118.515 22.8083C118.661 22.4752 118.905 22.1947 119.214 22.0047C119.525 21.7989 119.89 21.6906 120.262 21.6938C120.503 21.6853 120.742 21.7276 120.965 21.8179C121.187 21.9082 121.389 22.0445 121.555 22.2178C121.736 22.4078 121.896 22.6162 122.034 22.8397L122.519 23.6363Z" fill="#F5F7EF"/>
<path d="M135.303 31.346V23.6597C135.263 23.1314 135.421 22.6072 135.747 22.1888C135.892 22.0265 136.071 21.8982 136.271 21.813C136.472 21.7279 136.689 21.688 136.906 21.6962C137.129 21.6858 137.351 21.7242 137.556 21.8087C137.762 21.8932 137.947 22.0218 138.098 22.1853C138.422 22.6042 138.578 23.1283 138.538 23.6562V31.5207C138.52 32.2784 138.621 33.0342 138.838 33.7602C139.014 34.3339 139.385 34.8282 139.887 35.1577C140.537 35.5254 141.279 35.6988 142.025 35.6573C143.29 35.6573 144.184 35.3079 144.708 34.6476C145.232 33.9873 145.494 32.9566 145.494 31.5871V23.6562C145.452 23.1265 145.607 22.5999 145.931 22.1784C146.078 22.0171 146.259 21.8901 146.46 21.8062C146.662 21.7223 146.88 21.6836 147.098 21.6927C147.318 21.6848 147.537 21.724 147.741 21.8078C147.944 21.8915 148.128 22.0179 148.279 22.1784C148.613 22.5951 148.775 23.1237 148.733 23.6562V31.3425C148.759 32.4027 148.635 33.4612 148.366 34.4869C148.118 35.335 147.64 36.098 146.986 36.6915C146.406 37.2285 145.714 37.6306 144.96 37.8689C144.083 38.1312 143.17 38.2561 142.255 38.2392C141.184 38.26 140.116 38.1259 139.083 37.8409C138.267 37.6173 137.52 37.1933 136.91 36.6076C136.328 36.0104 135.905 35.2763 135.68 34.4729C135.403 33.4545 135.276 32.4011 135.303 31.346V31.346Z" fill="#F5F7EF"/>
<path d="M162.612 24.6382H159.08V36.2654C159.123 36.8001 158.964 37.3315 158.633 37.7538C158.486 37.9133 158.307 38.0392 158.108 38.1231C157.908 38.2069 157.693 38.2466 157.476 38.2394C157.257 38.2464 157.039 38.2063 156.836 38.1219C156.634 38.0376 156.452 37.9108 156.302 37.7503C155.971 37.3296 155.81 36.7994 155.852 36.2654V24.6382H152.32C151.879 24.6771 151.441 24.5527 151.086 24.2888C150.952 24.1668 150.847 24.0169 150.777 23.8497C150.707 23.6826 150.674 23.5021 150.681 23.321C150.673 23.1361 150.706 22.9516 150.779 22.7815C150.853 22.6114 150.964 22.4602 151.104 22.3393C151.455 22.082 151.886 21.9582 152.32 21.9899H162.612C163.06 21.9548 163.505 22.0881 163.859 22.3637C163.994 22.4853 164.101 22.635 164.171 22.8022C164.242 22.9694 164.275 23.1501 164.268 23.3315C164.276 23.5133 164.242 23.6945 164.171 23.8618C164.1 24.0292 163.992 24.1787 163.856 24.2993C163.495 24.5579 163.054 24.6781 162.612 24.6382V24.6382Z" fill="#F5F7EF"/>
<path d="M87.0433 50.9379V54.002C87.054 54.3322 87.014 54.6621 86.9245 54.9802C86.8365 55.2333 86.6849 55.4595 86.4843 55.637C86.2338 55.86 85.9569 56.0513 85.6597 56.2065C84.7764 56.6963 83.8382 57.0798 82.8647 57.349C81.9107 57.5933 80.9287 57.7108 79.9439 57.6984C78.7987 57.7129 77.6602 57.5212 76.5829 57.1324C75.6111 56.7796 74.7286 56.2179 73.9976 55.4868C73.2712 54.7412 72.7125 53.849 72.359 52.87C71.9647 51.7685 71.7706 50.6054 71.786 49.4356C71.7723 48.2742 71.9603 47.1193 72.3415 46.0222C72.6829 45.034 73.2416 44.1349 73.9766 43.3914C74.7216 42.6566 75.6183 42.0938 76.6039 41.7423C77.7308 41.3436 78.9199 41.1496 80.1151 41.1693C81.085 41.1529 82.0509 41.2981 82.973 41.5991C83.7071 41.8344 84.3916 42.2027 84.9924 42.6856C85.466 43.0738 85.8619 43.548 86.1593 44.0831C86.394 44.4766 86.5284 44.9217 86.5506 45.3793C86.5546 45.5764 86.5161 45.772 86.4377 45.9529C86.3593 46.1337 86.243 46.2956 86.0965 46.4275C85.954 46.5684 85.7848 46.6794 85.5988 46.7538C85.4128 46.8282 85.2137 46.8645 85.0134 46.8607C84.7799 46.8602 84.5499 46.8039 84.3426 46.6965C84.1292 46.5878 83.9438 46.4311 83.8011 46.2388C83.4957 45.7437 83.1572 45.2698 82.7879 44.8203C82.4756 44.4762 82.0948 44.2013 81.6699 44.0133C81.1029 43.7764 80.4916 43.6644 79.8776 43.6849C79.1882 43.6729 78.504 43.805 77.8686 44.0727C77.2861 44.3273 76.7698 44.7122 76.3593 45.1977C75.9207 45.7271 75.595 46.3406 75.4021 47.0004C75.1657 47.7677 75.0479 48.5664 75.0527 49.3692C75.0527 51.2419 75.4859 52.6883 76.3454 53.698C77.2048 54.7077 78.4102 55.2143 79.9509 55.2143C80.6603 55.2165 81.3663 55.1165 82.0472 54.9173C82.7402 54.7068 83.4099 54.4258 84.0456 54.0788V51.4829H81.5406C81.0682 51.5116 80.5964 51.4178 80.171 51.2104C80.015 51.1148 79.8888 50.9774 79.8067 50.8138C79.7245 50.6502 79.6898 50.4669 79.7064 50.2846C79.7023 50.1178 79.735 49.9522 79.802 49.7995C79.869 49.6468 79.9688 49.5106 80.0942 49.4007C80.3867 49.1556 80.7613 49.0307 81.1423 49.0513H84.8527C85.238 49.0456 85.6227 49.0855 85.9986 49.1701C86.3085 49.2489 86.5784 49.4392 86.7568 49.7046C86.9716 50.0786 87.0712 50.5076 87.0433 50.9379V50.9379Z" fill="#F5F7EF"/>
<path d="M99.5112 55.6219L98.746 53.6164H92.2476L91.486 55.6673C91.3 56.2365 91.0429 56.78 90.7209 57.2849C90.5935 57.4348 90.4314 57.5513 90.2487 57.6244C90.0661 57.6974 89.8684 57.7248 89.6727 57.7041C89.472 57.7055 89.2731 57.6666 89.0877 57.5898C88.9023 57.513 88.7341 57.3998 88.5932 57.2569C88.4479 57.1308 88.331 56.9753 88.2503 56.8006C88.1696 56.626 88.1269 56.4361 88.125 56.2437C88.1262 56.0147 88.1627 55.7873 88.2333 55.5695C88.3067 55.3354 88.4255 55.0105 88.5827 54.5982L92.6809 44.2182C92.7962 43.9177 92.9394 43.5614 93.1001 43.1421C93.2365 42.7749 93.4122 42.4235 93.6242 42.094C93.8118 41.8163 94.0619 41.5866 94.3544 41.4232C94.705 41.2552 95.0888 41.168 95.4776 41.168C95.8664 41.168 96.2503 41.2552 96.6009 41.4232C96.8914 41.5848 97.1411 41.8107 97.3311 42.0835C97.5175 42.3554 97.6755 42.6458 97.8027 42.95C97.9285 43.2597 98.0892 43.672 98.2849 44.1868L102.477 54.5039C102.737 55.0424 102.902 55.6214 102.967 56.2158C102.962 56.4082 102.92 56.5977 102.84 56.7731C102.761 56.9484 102.647 57.1059 102.505 57.236C102.36 57.3848 102.186 57.5024 101.994 57.5817C101.802 57.661 101.595 57.7003 101.387 57.6972C101.157 57.711 100.928 57.6703 100.717 57.5784C100.539 57.4901 100.382 57.3637 100.259 57.208C100.098 56.985 99.964 56.7433 99.8605 56.4883C99.7348 56.1564 99.6125 55.8699 99.5112 55.6219ZM93.1001 51.1848H97.8761L95.4759 44.5885L93.1001 51.1848Z" fill="#F5F7EF"/>
<path d="M110.743 55.0243L108.178 44.8365V55.8733C108.216 56.3657 108.07 56.8547 107.769 57.2463C107.629 57.39 107.462 57.5042 107.277 57.5822C107.092 57.6602 106.894 57.7003 106.693 57.7003C106.493 57.7003 106.294 57.6602 106.109 57.5822C105.924 57.5042 105.757 57.39 105.617 57.2463C105.311 56.8545 105.162 56.3621 105.201 55.8663V43.2189C105.201 42.5201 105.383 42.0543 105.746 41.8214C106.193 41.5632 106.706 41.4417 107.221 41.472H108.224C108.668 41.4486 109.112 41.5042 109.537 41.6362C109.808 41.7376 110.028 41.9424 110.149 42.2057C110.334 42.659 110.484 43.1263 110.596 43.6032L112.912 52.3376L115.235 43.6032C115.344 43.1253 115.494 42.6578 115.683 42.2057C115.74 42.0727 115.822 41.9524 115.926 41.8517C116.03 41.7509 116.153 41.6717 116.287 41.6187C116.712 41.4865 117.157 41.4309 117.601 41.4545H118.603C119.117 41.4241 119.629 41.5456 120.074 41.8039C120.438 42.0368 120.619 42.5026 120.619 43.2014V55.8488C120.657 56.3413 120.512 56.8303 120.211 57.2219C120.073 57.3737 119.904 57.4933 119.715 57.5724C119.526 57.6515 119.322 57.6881 119.117 57.6796C118.92 57.6843 118.723 57.6457 118.542 57.5667C118.361 57.4876 118.2 57.3699 118.069 57.2219C117.764 56.8321 117.616 56.3423 117.653 55.8488V44.8365L115.092 55.0243C114.925 55.6846 114.788 56.1703 114.683 56.4777C114.566 56.8055 114.365 57.0969 114.1 57.3232C113.769 57.5937 113.349 57.7297 112.923 57.704C112.606 57.7174 112.292 57.6432 112.014 57.4898C111.737 57.3363 111.507 57.1095 111.35 56.8341C111.2 56.5677 111.082 56.2837 111.001 55.9886C110.914 55.6776 110.847 55.3562 110.743 55.0243Z" fill="#F5F7EF"/>
<path d="M134.48 43.9509H127.185V47.8744H133.907C134.304 47.8445 134.699 47.9627 135.014 48.2063C135.132 48.3197 135.224 48.4569 135.284 48.6088C135.345 48.7606 135.372 48.9236 135.364 49.0868C135.371 49.2509 135.344 49.4148 135.284 49.5677C135.223 49.7206 135.132 49.8591 135.014 49.9742C134.704 50.2312 134.305 50.3566 133.903 50.3236H127.185V54.8655H134.731C135.145 54.8336 135.555 54.9583 135.881 55.2148C136.01 55.3347 136.111 55.4812 136.178 55.644C136.245 55.8068 136.276 55.9822 136.269 56.1581C136.274 56.3308 136.243 56.5026 136.176 56.6619C136.109 56.8211 136.008 56.9639 135.881 57.0805C135.556 57.3386 135.145 57.4635 134.731 57.4299H125.931C125.232 57.4299 124.718 57.2762 124.411 56.9617C124.063 56.5366 123.896 55.9922 123.946 55.4454V43.4304C123.932 43.0399 124.003 42.6511 124.156 42.2914C124.283 42.004 124.514 41.7747 124.802 41.6485C125.159 41.5012 125.544 41.4321 125.931 41.4459H134.48C134.894 41.4155 135.305 41.54 135.633 41.7953C135.872 42.0356 136.007 42.361 136.007 42.7002C136.007 43.0394 135.872 43.3647 135.633 43.605C135.305 43.8606 134.894 43.984 134.48 43.9509V43.9509Z" fill="#F5F7EF"/>
<path d="M150.989 52.6331C151.002 53.5565 150.742 54.4633 150.241 55.2394C149.704 56.0428 148.944 56.6719 148.054 57.0492C146.976 57.5092 145.812 57.732 144.641 57.7025C143.284 57.7556 141.937 57.4469 140.738 56.8081C140.018 56.3877 139.41 55.7991 138.967 55.0927C138.543 54.474 138.306 53.7462 138.286 52.9964C138.281 52.8058 138.316 52.6163 138.387 52.4395C138.459 52.2627 138.566 52.1025 138.702 51.9686C138.838 51.8348 138.999 51.7301 139.177 51.6612C139.355 51.5922 139.545 51.5603 139.735 51.5675C140.056 51.5609 140.366 51.6786 140.602 51.8959C140.874 52.1696 141.081 52.5018 141.206 52.8672C141.378 53.3155 141.6 53.7433 141.867 54.1424C142.125 54.5021 142.468 54.7925 142.866 54.9879C143.394 55.2297 143.973 55.3434 144.553 55.3198C145.386 55.3576 146.208 55.122 146.894 54.649C147.17 54.4653 147.396 54.2165 147.553 53.9246C147.709 53.6327 147.791 53.3067 147.792 52.9755C147.802 52.7384 147.764 52.5018 147.681 52.2798C147.597 52.0577 147.47 51.8546 147.306 51.6828C146.956 51.3342 146.527 51.0743 146.056 50.9246C145.543 50.7499 144.857 50.5648 143.998 50.3691C143.008 50.1529 142.042 49.8369 141.115 49.4258C140.384 49.1023 139.749 48.5957 139.271 47.9549C138.8 47.2751 138.561 46.4615 138.589 45.6351C138.578 44.7975 138.83 43.9775 139.309 43.2908C139.838 42.5708 140.567 42.0228 141.405 41.7151C142.43 41.3283 143.518 41.1421 144.613 41.1665C145.475 41.1451 146.335 41.2631 147.16 41.5159C147.81 41.7245 148.414 42.054 148.942 42.4872C149.374 42.835 149.731 43.2678 149.99 43.7589C150.199 44.1595 150.311 44.6033 150.318 45.0551C150.319 45.4436 150.173 45.8182 149.909 46.1032C149.785 46.2521 149.629 46.3711 149.452 46.4516C149.275 46.532 149.083 46.5717 148.889 46.5679C148.582 46.5894 148.278 46.489 148.044 46.2884C147.791 46.0182 147.581 45.7121 147.418 45.38C147.173 44.8444 146.816 44.3678 146.37 43.9825C145.965 43.6331 145.322 43.4759 144.407 43.4759C143.691 43.4427 142.983 43.6358 142.384 44.0279C142.151 44.1638 141.957 44.356 141.818 44.5868C141.68 44.8176 141.601 45.0796 141.591 45.3486C141.583 45.6461 141.675 45.9377 141.853 46.1766C142.047 46.4261 142.292 46.631 142.572 46.7775C142.868 46.94 143.179 47.0712 143.502 47.1688C143.813 47.2632 144.33 47.4029 145.049 47.5846C145.876 47.7743 146.693 48.0075 147.495 48.2833C148.156 48.5029 148.783 48.8146 149.357 49.2092C149.863 49.5657 150.275 50.0392 150.559 50.5892C150.864 51.2264 151.011 51.9273 150.989 52.6331V52.6331Z" fill="#F5F7EF"/>
<path d="M36.6663 41.0089C37.4506 39.8472 38.5137 38.9006 39.7583 38.2558L40.5478 37.854C42.101 37.0829 43.8532 36.8061 45.5684 37.0609C46.683 37.21 47.8172 37.0675 48.8604 36.6475C49.9036 36.2275 50.82 35.5442 51.5204 34.6644C52.2207 33.7846 52.6811 32.7382 52.8564 31.6274C53.0318 30.5166 52.9162 29.3793 52.521 28.3265C52.521 28.3055 52.5 28.2811 52.493 28.2601C52.1842 27.6122 51.8008 27.0024 51.3506 26.4434C51.2423 26.3071 51.1409 26.1639 51.0361 26.0206C50.3243 25.3055 49.4559 24.7658 48.4995 24.4443C47.5431 24.1229 46.525 24.0284 45.5258 24.1684C44.5265 24.3083 43.5736 24.679 42.7423 25.2509C41.9111 25.8228 41.2244 26.5804 40.7365 27.4636C39.876 29.066 38.5542 30.3732 36.9423 31.2159L36.4601 31.4604C34.5336 32.4523 32.3071 32.6926 30.2133 32.1347C28.7181 31.7271 27.1376 31.7555 25.658 32.2165C24.1784 32.6776 22.8615 33.5521 21.8626 34.737C20.8637 35.9219 20.2244 37.3677 20.0201 38.9039C19.8159 40.4401 20.0551 42.0028 20.7097 43.4075C21.3643 44.8122 22.4069 46.0005 23.7146 46.8322C25.0222 47.6639 26.5405 48.1043 28.0902 48.1015C29.64 48.0988 31.1566 47.6529 32.4613 46.8166C33.766 45.9802 34.8044 44.7882 35.4539 43.3812C35.692 42.516 36.1045 41.7086 36.6663 41.0089V41.0089ZM25.1194 44.5446C24.3565 44.0509 23.7294 43.3741 23.2952 42.5759C22.8609 41.7776 22.6335 40.8834 22.6335 39.9747C22.6335 39.066 22.8609 38.1718 23.2952 37.3736C23.7294 36.5754 24.3565 35.8986 25.1194 35.4049C25.7598 34.9891 26.4811 34.7137 27.2356 34.5969C27.9902 34.4801 28.7609 34.5244 29.4971 34.7271C32.2332 35.465 35.1462 35.1547 37.6655 33.8571L38.1476 33.6091C40.2371 32.5237 41.9522 30.8354 43.0703 28.7632C43.4375 28.0952 43.9976 27.5534 44.6775 27.2085C45.2764 26.9049 45.9445 26.7635 46.6151 26.7984C47.2857 26.8334 47.9355 27.0434 48.4997 27.4077C48.7223 27.5566 48.9284 27.7287 49.1146 27.9212C48.259 27.5954 47.3148 27.5884 46.4546 27.9015C45.5943 28.2145 44.8755 28.8268 44.4294 29.6262C43.3134 31.7008 41.5979 33.3908 39.5067 34.4755L39.0246 34.7201C36.5057 36.0189 33.5927 36.3304 30.8562 35.5935C29.8908 35.3307 28.8716 35.3392 27.9107 35.6182C26.9498 35.8971 26.0845 36.4356 25.4099 37.1745C24.7353 37.9134 24.2775 38.824 24.087 39.8063C23.8964 40.7885 23.9804 41.8042 24.3298 42.7418C24.6424 43.578 25.1545 44.3252 25.8216 44.9184C25.5788 44.8111 25.3441 44.6861 25.1194 44.5446V44.5446Z" fill="#F5F7EF"/>
<path d="M52.4994 28.2681C53.1119 29.5281 53.399 30.9214 53.3344 32.3209L53.289 33.2048C53.1768 34.9372 52.5353 36.5933 51.4513 37.9493C50.7653 38.8396 50.3217 39.8924 50.1636 41.0052C50.0056 42.1179 50.1385 43.2526 50.5495 44.2987C50.9605 45.3447 51.6355 46.2665 52.5086 46.9741C53.3818 47.6817 54.4235 48.151 55.532 48.3363H55.6088C56.3223 48.3933 57.0399 48.3663 57.747 48.2559C57.9217 48.228 58.0964 48.214 58.2746 48.1965C59.2499 47.9376 60.1516 47.4552 60.9083 46.7875C61.665 46.1198 62.2558 45.2852 62.6341 44.3496C63.0124 43.4141 63.1677 42.4033 63.0878 41.3974C63.0079 40.3914 62.6949 39.4178 62.1736 38.5537C61.2166 37.0077 60.7456 35.2101 60.8215 33.3935L60.8495 32.8519C60.9524 30.6881 61.858 28.6403 63.3895 27.1082C64.4914 26.0171 65.2582 24.6336 65.5996 23.1209C65.941 21.6083 65.8426 20.0295 65.3161 18.5709C64.7896 17.1123 63.857 15.8347 62.6282 14.8888C61.3994 13.9429 59.9257 13.3682 58.381 13.2324C56.8362 13.0966 55.2849 13.4055 53.9099 14.1225C52.5349 14.8395 51.3937 15.9348 50.6208 17.2792C49.8479 18.6235 49.4756 20.1609 49.5479 21.7099C49.6201 23.259 50.1339 24.755 51.0285 26.0216C51.1333 26.1648 51.2347 26.3081 51.343 26.4444C51.7985 27.0049 52.1867 27.617 52.4994 28.2681ZM58.5855 16.0015C59.3097 16.1186 60.0013 16.3864 60.6154 16.7876C61.3008 17.2279 61.8786 17.8164 62.3062 18.5097C62.7338 19.2031 63.0004 19.9836 63.0862 20.7936C63.172 21.6037 63.075 22.4227 62.8021 23.1903C62.5293 23.9578 62.0877 24.6544 61.5098 25.2285C59.5031 27.2289 58.3157 29.9065 58.1803 32.7366L58.1523 33.2817C58.0502 35.6344 58.6589 37.9634 59.8992 39.9652C60.3747 40.7568 60.5478 41.6937 60.3867 42.6029C60.2255 43.5122 59.7409 44.3325 59.0223 44.9124C58.8387 45.0608 58.6409 45.1907 58.4318 45.3002C58.9085 44.6922 59.1892 43.9536 59.2366 43.1824C59.284 42.4112 59.096 41.6438 58.6973 40.9819C57.4574 38.9786 56.8487 36.6486 56.9505 34.2948L56.9784 33.7533C57.114 30.9222 58.3013 28.2435 60.308 26.2417C60.8518 25.7057 61.2759 25.0606 61.5523 24.3487C61.8287 23.6369 61.9512 22.8746 61.9116 22.1121C61.8666 21.2473 61.6171 20.4056 61.1834 19.6561C60.7497 18.9066 60.1444 18.2707 59.4171 17.8008C58.8007 17.4014 58.1084 17.1338 57.3837 17.0147C56.0796 16.7888 54.7381 17.0499 53.6139 17.7484C53.8097 17.5217 54.0248 17.3125 54.2568 17.123C54.8565 16.638 55.5531 16.287 56.2997 16.0936C57.0464 15.9001 57.8258 15.8687 58.5855 16.0015Z" fill="#F5F7EF"/>
<path d="M63.4306 49.4731C61.9058 48.4822 60.0912 48.0353 58.2808 48.2048C58.1061 48.2223 57.9314 48.2363 57.7532 48.2642C57.0461 48.3745 56.3284 48.4015 55.615 48.3446C54.2168 48.2467 52.8655 47.7998 51.6845 47.0449L50.9404 46.5627C49.4975 45.6016 48.3822 44.2231 47.7436 42.6113C47.3162 41.5718 46.6266 40.6609 45.7422 39.9674C44.8578 39.2739 43.8087 38.8215 42.6973 38.6544C41.5859 38.4872 40.4501 38.611 39.4008 39.0136C38.3515 39.4163 37.4245 40.084 36.7103 40.9518C36.6928 40.9692 36.6823 40.9902 36.6648 41.0111C36.1022 41.713 35.6896 42.5227 35.4525 43.3904C35.1888 44.3646 35.1554 45.3868 35.3551 46.3761C35.5548 47.3654 35.9821 48.2947 36.6031 49.0903C37.2241 49.8858 38.0218 50.5259 38.9331 50.9599C39.8443 51.3938 40.844 51.6096 41.8531 51.5903C43.6697 51.5307 45.4624 52.0176 46.9994 52.9878L47.4536 53.2848C49.2757 54.4574 50.5969 56.2655 51.1605 58.3577C51.498 59.633 52.1411 60.807 53.0341 61.778C53.9271 62.749 55.0432 63.488 56.2858 63.9309C57.5285 64.3738 58.8603 64.5074 60.1662 64.3201C61.4721 64.1329 62.7127 63.6304 63.7808 62.8561C64.8489 62.0817 65.7123 61.0589 66.2964 59.8761C66.8806 58.6932 67.1678 57.3859 67.1333 56.0671C67.0988 54.7483 66.7437 53.4577 66.0985 52.307C65.4534 51.1563 64.5377 50.18 63.4306 49.4626V49.4731ZM42.9501 47.3768L41.9754 46.7479L41.343 47.7227C41.1683 47.9918 40.8939 48.1806 40.58 48.2474C40.2662 48.3143 39.9387 48.2537 39.6695 48.079C39.4003 47.9044 39.2115 47.6299 39.1447 47.3161C39.0779 47.0022 39.1385 46.6747 39.3131 46.4055L39.942 45.4308L38.9707 44.7984C38.7016 44.6237 38.5128 44.3493 38.446 44.0354C38.3791 43.7216 38.4397 43.3941 38.6144 43.1249C38.789 42.8557 39.0635 42.6669 39.3773 42.6001C39.6912 42.5333 40.0187 42.5938 40.2879 42.7685L41.2591 43.3974L41.8915 42.4261C41.9747 42.2856 42.0854 42.1633 42.2171 42.0666C42.3487 41.9699 42.4985 41.9008 42.6575 41.8635C42.8165 41.8261 42.9814 41.8213 43.1423 41.8492C43.3032 41.8772 43.4568 41.9374 43.5939 42.0262C43.731 42.1149 43.8487 42.2305 43.94 42.3659C44.0313 42.5014 44.0943 42.6538 44.1252 42.8142C44.1561 42.9746 44.1543 43.1395 44.1199 43.2992C44.0855 43.4588 44.0191 43.6099 43.9249 43.7433L43.2925 44.7145L44.2673 45.3469C44.523 45.5276 44.6988 45.8001 44.7581 46.1075C44.8174 46.415 44.7554 46.7334 44.5852 46.9961C44.415 47.2589 44.1497 47.4456 43.845 47.5172C43.5402 47.5888 43.2195 47.5398 42.9501 47.3803V47.3768ZM55.1154 55.6465C54.8524 55.4766 54.6458 55.2324 54.5216 54.945C54.3975 54.6575 54.3613 54.3397 54.4179 54.0317C54.4744 53.7237 54.621 53.4394 54.8391 53.2148C55.0572 52.9902 55.3371 52.8353 55.6433 52.7697C55.9494 52.7042 56.2682 52.7309 56.5592 52.8466C56.8501 52.9623 57.1003 53.1616 57.2779 53.4195C57.4555 53.6774 57.5527 53.9821 57.5571 54.2952C57.5614 54.6083 57.4729 54.9156 57.3025 55.1784C57.0743 55.5301 56.7161 55.7771 56.3063 55.8655C55.8964 55.9539 55.4683 55.8764 55.1154 55.65V55.6465ZM56.1041 60.2932C55.8417 60.1229 55.6356 59.8786 55.5119 59.5911C55.3882 59.3037 55.3526 58.986 55.4094 58.6783C55.4662 58.3706 55.6129 58.0866 55.8311 57.8623C56.0492 57.638 56.329 57.4833 56.635 57.4179C56.941 57.3525 57.2595 57.3793 57.5503 57.4949C57.8411 57.6104 58.0911 57.8096 58.2687 58.0672C58.4463 58.3248 58.5436 58.6293 58.5482 58.9422C58.5529 59.2551 58.4647 59.5623 58.2947 59.8251C58.182 60.0001 58.0359 60.1511 57.8648 60.2696C57.6936 60.388 57.5008 60.4715 57.2973 60.5153C57.0938 60.5591 56.8837 60.5624 56.6789 60.5249C56.4742 60.4874 56.2789 60.4098 56.1041 60.2967V60.2932ZM59.7586 54.6543C59.4961 54.484 59.29 54.2396 59.1664 53.9522C59.0427 53.6647 59.007 53.3471 59.0638 53.0394C59.1206 52.7317 59.2674 52.4477 59.4855 52.2234C59.7037 51.999 59.9834 51.8444 60.2894 51.779C60.5954 51.7136 60.914 51.7404 61.2048 51.8559C61.4955 51.9715 61.7455 52.1707 61.9232 52.4283C62.1008 52.6859 62.1981 52.9904 62.2027 53.3033C62.2073 53.6162 62.1191 53.9234 61.9492 54.1861C61.8368 54.3615 61.6909 54.5129 61.5197 54.6316C61.3486 54.7503 61.1557 54.834 60.9521 54.8778C60.7485 54.9217 60.5382 54.9248 60.3334 54.887C60.1285 54.8493 59.9332 54.7714 59.7586 54.6578V54.6543ZM60.7508 59.301C60.4884 59.1307 60.2823 58.8863 60.1586 58.5989C60.0349 58.3115 59.9993 57.9938 60.0561 57.6861C60.1129 57.3784 60.2596 57.0944 60.4778 56.8701C60.6959 56.6457 60.9757 56.4911 61.2817 56.4257C61.5877 56.3603 61.9062 56.3871 62.197 56.5026C62.4878 56.6182 62.7378 56.8174 62.9154 57.075C63.093 57.3326 63.1903 57.6371 63.1949 57.95C63.1996 58.2629 63.1114 58.5701 62.9414 58.8328C62.7132 59.1855 62.3544 59.4333 61.9437 59.5217C61.533 59.6101 61.104 59.532 60.7508 59.3045V59.301Z" fill="#F5F7EF"/>
</svg>
