<svg width="224" height="65" viewBox="0 0 224 65" fill="none" xmlns="http://www.w3.org/2000/svg">
<path fill-rule="evenodd" clip-rule="evenodd" d="M57.9077 35.7438C57.9077 27.8792 49.1306 18.1407 37.6106 18.1407C26.0907 18.1407 19.5078 27.8792 19.5078 35.7438C19.5078 43.6084 38.8415 52.0977 38.8415 52.0977C38.8415 52.0977 57.9077 43.6084 57.9077 35.7438ZM20.1661 35.7438C20.1661 28.8981 26.8586 26.8336 37.5558 26.8336C48.2529 26.8336 57.2494 28.8981 57.2494 35.7438C57.2494 42.5895 38.8415 51.461 38.8415 51.461C38.8415 51.461 20.1661 42.5895 20.1661 35.7438Z" fill="#131313"/>
<path d="M37.5558 26.8336C26.8586 26.8336 20.1661 28.8981 20.1661 35.7438C20.1661 42.5895 38.8415 51.461 38.8415 51.461C38.8415 51.461 57.2494 42.5895 57.2494 35.7438C57.2494 28.8981 48.2529 26.8336 37.5558 26.8336Z" fill="#131313"/>
<path d="M38.8415 51.461C38.8415 51.461 57.2494 42.5895 57.2494 35.7438C57.2494 28.8981 48.2529 26.8336 37.5558 26.8336C26.8586 26.8336 20.1661 28.8981 20.1661 35.7438C20.1661 42.5895 38.8415 51.461 38.8415 51.461ZM38.8415 51.461L38.8415 52.0977M38.8415 52.0977C38.8415 52.0977 57.9077 43.6084 57.9077 35.7438C57.9077 27.8792 49.1306 18.1407 37.6106 18.1407C26.0907 18.1407 19.5078 27.8792 19.5078 35.7438C19.5078 43.6084 38.8415 52.0977 38.8415 52.0977Z" stroke="#131313" stroke-width="0.0817166"/>
<path d="M37.5576 26.8316C26.8605 26.8316 20.168 28.8962 20.168 35.7418C20.168 42.5875 38.8433 51.459 38.8433 51.459C38.8433 51.459 57.2513 42.5875 57.2513 35.7418C57.2513 28.8962 48.2547 26.8316 37.5576 26.8316Z" fill="#E2FF8A" stroke="#131313" stroke-width="0.0817166"/>
<path d="M38.8415 47.7656C38.8581 47.8029 38.8582 47.8029 38.8583 47.8028L38.859 47.8026L38.8616 47.8014L38.872 47.7967L38.913 47.7783C38.9491 47.7619 39.0027 47.7376 39.0726 47.7055C39.2124 47.6413 39.4174 47.5462 39.6783 47.4224C40.1999 47.1748 40.9451 46.8122 41.8393 46.3526C43.6275 45.4335 46.0121 44.1259 48.3969 42.5722C50.7814 41.0187 53.1677 39.2181 54.9584 37.3129C56.748 35.4089 57.9486 33.3939 57.9486 31.4118C57.9486 23.5262 50.4404 13.656 38.8963 13.656C33.1242 13.656 28.2669 16.1239 24.853 19.5764C21.4398 23.0282 19.467 27.4668 19.467 31.4118C19.467 33.3941 20.6845 35.4091 22.4991 37.3131C24.3149 39.2183 26.7346 41.0188 29.1526 42.5723C31.5708 44.126 33.9888 45.4336 35.8021 46.3527C36.7088 46.8123 37.4644 47.1749 37.9934 47.4225C38.2579 47.5463 38.4657 47.6414 38.6075 47.7056C38.6784 47.7377 38.7327 47.762 38.7694 47.7784L38.8109 47.7968L38.8215 47.8015L38.8241 47.8026L38.8248 47.8029C38.825 47.803 38.8251 47.803 38.8415 47.7656ZM38.8415 47.7656L38.8581 47.8029L38.8416 47.8103L38.8251 47.803L38.8415 47.7656ZM38.8764 47.0666L38.8413 47.0836L38.8056 47.0665C38.7703 47.0495 38.718 47.0242 38.6496 46.9909C38.513 46.9243 38.3125 46.8257 38.0573 46.6978C37.547 46.442 36.8178 46.0689 35.9428 45.5998C34.1926 44.6615 31.8593 43.3393 29.5263 41.8034C27.1929 40.2673 24.8612 38.5184 23.1134 36.7271C21.3638 34.934 20.207 33.1061 20.207 31.4118C20.207 29.7089 20.7029 28.2984 21.612 27.1393C22.5216 25.9796 23.8466 25.0694 25.5082 24.3713C28.8322 22.9748 33.4944 22.4307 38.8415 22.4307C44.1886 22.4307 48.7838 22.9748 52.0408 24.3712C53.6688 25.0692 54.9604 25.9793 55.845 27.1389C56.7292 28.2979 57.2086 29.7086 57.2086 31.4118C57.2086 33.1063 56.0682 34.9343 54.3437 36.7273C52.6209 38.5186 50.3227 40.2674 48.0228 41.8035C45.7231 43.3394 43.4233 44.6616 41.6982 45.5999C40.8357 46.069 40.117 46.4421 39.6139 46.6979C39.3624 46.8258 39.1648 46.9244 39.0301 46.991C38.9628 47.0243 38.9111 47.0496 38.8764 47.0666Z" fill="#131313" stroke="#131313" stroke-width="0.0817166"/>
<path d="M37.5506 22.4661C26.7857 22.4661 20.0508 24.5313 20.0508 31.3793C20.0508 38.2272 38.8444 47.1016 38.8444 47.1016C38.8444 47.1016 57.369 38.2272 57.369 31.3792C57.369 24.5313 48.3155 22.4661 37.5506 22.4661Z" fill="#F5F7EF"/>
<path d="M25.3864 27.9185L25.1506 27.5005L25.3864 27.9185ZM52.0356 27.9185L51.7998 28.3366L51.7998 28.3366L52.0356 27.9185ZM38.711 24.8047L38.711 24.3247L38.711 24.8047ZM57.0749 35.4361C57.0749 35.7012 57.2898 35.9161 57.5549 35.9161C57.82 35.9161 58.0349 35.7012 58.0349 35.4361L57.0749 35.4361ZM25.6223 28.3366C29.2125 26.311 33.9487 25.2847 38.711 25.2847L38.711 24.3247C33.8282 24.3247 28.9193 25.3742 25.1506 27.5005L25.6223 28.3366ZM38.711 25.2847C43.4734 25.2847 48.2095 26.311 51.7998 28.3366L52.2715 27.5005C48.5028 25.3742 43.5938 24.3247 38.711 24.3247L38.711 25.2847ZM20.3472 35.4361C20.3472 32.9528 22.0277 30.3646 25.6223 28.3366L25.1506 27.5005C21.3862 29.6243 19.3872 32.4777 19.3872 35.4361L20.3472 35.4361ZM51.7998 28.3366C55.3944 30.3646 57.0749 32.9528 57.0749 35.4361L58.0349 35.4361C58.0349 32.4777 56.0359 29.6243 52.2715 27.5005L51.7998 28.3366Z" fill="#131313"/>
<path d="M49.2626 29.4281C43.4332 26.0998 34.4617 25.3799 28.6323 28.7082C25.7175 30.3723 24.427 32.0619 23.707 34.2217C24.787 32.5419 26.4375 31.3322 29.3523 29.6681C35.1817 26.3398 43.267 27.3373 49.2626 29.4281Z" fill="#131313" stroke="#131313" stroke-width="0.0592441" stroke-miterlimit="16"/>
<path d="M38.7094 29.0645C35.8442 29.0645 32.8287 29.5439 30.793 30.9366C32.9487 29.8871 38.7094 30.0244 38.7094 30.0244C38.7094 30.0244 44.0163 30.0847 46.6257 31.8965C48.1783 32.9745 49.2687 33.8635 49.9048 35.4564C49.9887 33.8635 48.8118 32.1847 46.6257 30.9366C44.4397 29.6885 41.5745 29.0645 38.7094 29.0645Z" fill="#131313" stroke="#131313" stroke-width="0.0592441" stroke-miterlimit="16"/>
<path d="M38.7136 31.1897C36.793 30.9788 34.8934 31.6057 33.4361 32.4378C31.9787 33.2698 31.25 34.3604 31.25 35.4509C31.633 34.4584 32.4556 33.8506 33.913 33.0186C35.3703 32.1865 36.793 31.5787 38.7136 31.1897Z" fill="#131313" stroke="#131313" stroke-width="0.0592441" stroke-miterlimit="16"/>
<path d="M69.4258 46.3922H77.7497C85.534 46.3922 90.2355 40.2231 90.2355 32.126C90.2355 24.029 85.5726 19.4021 77.7497 19.4021H69.4258V46.3922ZM75.5916 19.8648H77.7497C82.6053 19.8648 84.0696 24.5688 84.0696 32.0874C84.0696 39.6061 82.6053 45.9295 77.7497 45.9295H77.1331C76.0155 45.9295 75.5916 45.891 75.5916 44.2716V19.8648Z" fill="#F5F7EF"/>
<path d="M94.9415 33.0514C93.7468 36.2131 88.5444 47.0091 96.5215 47.0091C99.8356 47.0091 101.762 44.6571 104.884 40.84L106.772 46.3922H113.015L103.728 19.4021H100.144L94.9415 33.0514ZM104.691 40.3002C103.419 41.6882 102.186 42.3823 100.105 42.3823C96.2132 42.3823 94.9415 34.4009 96.9839 29.0029L98.9878 23.7205L104.691 40.3002Z" fill="#F5F7EF"/>
<path d="M124.75 19.0165C116.927 19.0165 112.65 24.8001 112.65 32.8972C112.65 40.9942 116.966 46.7778 124.75 46.7778C132.535 46.7778 136.851 40.9942 136.851 32.8972C136.851 24.8001 132.573 19.0165 124.75 19.0165ZM124.75 46.3151C119.509 46.3151 118.816 39.6061 118.816 32.8586C118.816 26.1111 119.509 19.4792 124.75 19.4792C129.991 19.4792 130.685 26.1111 130.685 32.8586C130.685 39.6061 129.991 46.3151 124.75 46.3151Z" fill="#F5F7EF"/>
<path d="M155.732 32.7429C156.926 29.5812 161.358 18.7852 154.152 18.7852C150.837 18.7852 148.911 21.1372 145.789 24.9543L143.901 19.4021H137.658L146.945 46.3922H150.529L155.732 32.7429ZM145.982 25.4941C147.254 24.1061 148.487 23.412 150.568 23.412C154.46 23.412 155.732 31.3934 153.689 36.7914L151.685 42.0738L145.982 25.4941Z" fill="#F5F7EF"/>
<path d="M172.96 19.0165C165.137 19.0165 160.86 24.8001 160.86 32.8972C160.86 40.9942 165.176 46.7778 172.96 46.7778C180.744 46.7778 185.061 40.9942 185.061 32.8972C185.061 24.8001 180.783 19.0165 172.96 19.0165ZM172.96 46.3151C167.719 46.3151 167.025 39.6061 167.025 32.8586C167.025 26.1111 167.719 19.4792 172.96 19.4792C178.201 19.4792 178.895 26.1111 178.895 32.8586C178.895 39.6061 178.201 46.3151 172.96 46.3151Z" fill="#F5F7EF"/>
<path d="M203.826 46.3922V38.6808C202.323 40.9942 197.39 45.9681 193.382 45.9681H191.879C194.115 40.8785 201.205 24.6844 203.517 19.4021H186.292V27.1135C187.795 24.8001 191.956 19.8262 195.964 19.8262H196.851C194.615 24.9158 187.525 41.1099 185.213 46.3922H203.826Z" fill="#F5F7EF"/>
</svg>
