<svg width="186" height="52" viewBox="0 0 186 52" fill="none" xmlns="http://www.w3.org/2000/svg">
<path d="M40.729 31.0841C40.729 33.4779 40.0309 35.2622 38.6345 36.4369C37.2603 37.6116 35.1214 38.199 32.2179 38.199H21.0137C20.4818 38.199 20.0939 38.077 19.8501 37.8332C19.6063 37.5894 19.4844 37.2016 19.4844 36.6696V15.1257C19.4844 14.5938 19.6063 14.2059 19.8501 13.9621C20.0939 13.7183 20.4818 13.5964 21.0137 13.5964H32.2179C35.1214 13.5964 37.2603 14.1837 38.6345 15.3584C40.0309 16.5332 40.729 18.3174 40.729 20.7112V31.0841ZM32.2179 37.8665C34.9884 37.8665 37.0387 37.3124 38.3685 36.2041C39.7206 35.0959 40.3966 33.3893 40.3966 31.0841V20.7112C40.3966 18.4061 39.7206 16.6994 38.3685 15.5912C37.0387 14.4829 34.9884 13.9288 32.2179 13.9288H21.0137C20.5926 13.9288 20.2823 14.0286 20.0828 14.228C19.9055 14.4054 19.8168 14.7046 19.8168 15.1257V36.6696C19.8168 37.0907 19.9055 37.401 20.0828 37.6005C20.2823 37.7778 20.5926 37.8665 21.0137 37.8665H32.2179ZM23.4407 34.8743V16.921H31.4865C32.6168 16.921 33.5256 17.0429 34.2127 17.2867C34.9219 17.5306 35.465 17.863 35.8418 18.2841C36.2186 18.6831 36.4735 19.1707 36.6064 19.747C36.7394 20.3011 36.8059 20.8996 36.8059 21.5423V30.3527C36.8059 30.9955 36.7394 31.5939 36.6064 32.148C36.4956 32.7022 36.2518 33.1787 35.875 33.5777C35.4982 33.9766 34.9552 34.298 34.2459 34.5418C33.5367 34.7635 32.6168 34.8743 31.4865 34.8743H23.4407ZM31.4865 17.2535H23.7732V34.5418H31.4865C32.5503 34.5418 33.4037 34.4421 34.0465 34.2426C34.7114 34.0209 35.2212 33.7328 35.5758 33.3782C35.9304 33.0014 36.1632 32.5581 36.274 32.0483C36.407 31.5164 36.4735 30.9512 36.4735 30.3527V21.5423C36.4735 20.9439 36.407 20.3787 36.274 19.8467C36.141 19.3148 35.8972 18.8604 35.5426 18.4836C35.1879 18.1068 34.6781 17.8076 34.0132 17.586C33.3704 17.3643 32.5282 17.2535 31.4865 17.2535ZM27.3639 20.279H31.3202C31.8522 20.279 32.24 20.4119 32.4839 20.6779C32.7498 20.9217 32.8828 21.3207 32.8828 21.8748V29.9538C32.8828 30.5079 32.7498 30.9179 32.4839 31.1839C32.24 31.4499 31.8522 31.5829 31.3202 31.5829H27.3639V20.279ZM31.3202 20.6114H27.6963V31.2504H31.3202C31.7413 31.2504 32.0516 31.1506 32.2511 30.9512C32.4506 30.7295 32.5503 30.3971 32.5503 29.9538V21.8748C32.5503 21.4537 32.4506 21.1434 32.2511 20.9439C32.0516 20.7222 31.7413 20.6114 31.3202 20.6114Z" fill="url(#paint0_linear_2124_32652)"/>
<path d="M47.98 27.7927V28.8234H60.9462V27.7927C60.9462 27.1943 60.8908 26.6402 60.78 26.1304C60.6913 25.6206 60.5694 25.1441 60.4142 24.7008L58.1202 19.2816C57.8764 18.7053 57.6215 18.2287 57.3555 17.8519C57.0896 17.453 56.6463 17.2535 56.0257 17.2535H52.7675C52.1026 17.2535 51.6371 17.453 51.3711 17.8519C51.1051 18.2287 50.8613 18.6942 50.6397 19.2483L48.5119 24.7008C48.3568 25.1441 48.2238 25.6206 48.1129 26.1304C48.0243 26.6402 47.98 27.1943 47.98 27.7927ZM53.2994 20.9106C53.3881 20.7112 53.4768 20.5671 53.5654 20.4784C53.6762 20.3898 53.7981 20.3454 53.9311 20.3454H54.7623C54.8953 20.3454 55.0061 20.3898 55.0948 20.4784C55.2056 20.5671 55.3053 20.7112 55.394 20.9106L56.9566 25.9641H51.7368L53.2994 20.9106ZM55.0615 21.0104L55.0948 21.0436C55.0504 20.955 55.0061 20.8774 54.9618 20.8109C54.9174 20.7222 54.851 20.6779 54.7623 20.6779H53.9311C53.8425 20.6779 53.776 20.7222 53.7316 20.8109C53.6873 20.8774 53.643 20.955 53.5987 21.0436L53.6319 21.0104L52.2023 25.6317H56.4911L55.0615 21.0104ZM60.9462 34.8743V29.1558H47.98V34.8743H47.6475V27.7927C47.6475 27.1721 47.6918 26.6069 47.7805 26.0971C47.8913 25.5652 48.0354 25.0554 48.2127 24.5678L50.3405 19.1153C50.5843 18.4947 50.8613 17.9738 51.1716 17.5527C51.4819 17.1316 52.0139 16.921 52.7675 16.921H56.0257C56.7571 16.921 57.2669 17.1316 57.555 17.5527C57.8653 17.9738 58.1535 18.5058 58.4194 19.1486L60.7135 24.5678C60.8908 25.0554 61.0238 25.5652 61.1124 26.0971C61.2232 26.6069 61.2787 27.1721 61.2787 27.7927V34.8743H60.9462ZM51.4044 36.6696V32.0151H57.289V36.6696C57.289 37.0907 57.3888 37.401 57.5883 37.6005C57.8099 37.7778 58.1424 37.8665 58.5857 37.8665H63.6059C64.0271 37.8665 64.3263 37.7778 64.5036 37.6005C64.7031 37.401 64.8028 37.0907 64.8028 36.6696V27.8925C64.8028 27.2275 64.692 26.4629 64.4703 25.5984C64.2709 24.734 63.9495 23.7255 63.5062 22.573L60.6137 15.026C60.4807 14.6492 60.2702 14.3721 59.982 14.1948C59.7161 14.0175 59.3725 13.9288 58.9514 13.9288H50.008C49.5647 13.9288 49.199 14.0175 48.9109 14.1948C48.6449 14.3721 48.4454 14.6492 48.3124 15.026L45.42 22.573C44.9767 23.7255 44.6442 24.734 44.4226 25.5984C44.2231 26.4629 44.1233 27.2275 44.1233 27.8925V36.6696C44.1233 37.0907 44.212 37.401 44.3893 37.6005C44.5888 37.7778 44.8991 37.8665 45.3202 37.8665H50.2075C50.6286 37.8665 50.9278 37.7778 51.1052 37.6005C51.3046 37.401 51.4044 37.0907 51.4044 36.6696ZM45.3202 38.199C44.7883 38.199 44.4004 38.077 44.1566 37.8332C43.9128 37.5894 43.7909 37.2016 43.7909 36.6696V27.8925C43.7909 27.2054 43.8906 26.4296 44.0901 25.5652C44.3117 24.6786 44.6553 23.6369 45.1207 22.44L48.0132 14.9262C48.1684 14.4608 48.4011 14.1283 48.7114 13.9288C49.0439 13.7072 49.4761 13.5964 50.008 13.5964H58.9514C59.4612 13.5964 59.8712 13.7072 60.1815 13.9288C60.514 14.1283 60.7578 14.4497 60.9129 14.893L63.8054 22.44C64.2709 23.6369 64.6033 24.6786 64.8028 25.5652C65.0245 26.4296 65.1353 27.2054 65.1353 27.8925V36.6696C65.1353 37.2016 65.0134 37.5894 64.7696 37.8332C64.5258 38.077 64.1379 38.199 63.6059 38.199H58.5857C58.0316 38.199 57.6215 38.077 57.3555 37.8332C57.0896 37.5673 56.9566 37.1794 56.9566 36.6696V32.3475H51.7368V36.6696C51.7368 37.2016 51.6149 37.5894 51.3711 37.8332C51.1273 38.077 50.7394 38.199 50.2075 38.199H45.3202Z" fill="url(#paint1_linear_2124_32652)"/>
<path d="M81.209 26.3964C81.5637 26.3964 81.8518 26.5072 82.0735 26.7288C82.2951 26.9283 82.55 27.3383 82.8381 27.959L85.5644 34.0764C85.653 34.298 85.786 34.431 85.9633 34.4753C86.1406 34.5196 86.3069 34.5418 86.462 34.5418H86.6283C86.8056 34.5418 86.9718 34.4753 87.127 34.3423C87.2821 34.1872 87.3708 34.0209 87.3929 33.8436L88.2241 30.0535C88.3128 29.6324 88.3571 29.0893 88.3571 28.4244C88.3793 27.7595 88.3903 27.1832 88.3903 26.6956V16.921H88.7228V26.7288C88.7228 27.2164 88.7117 27.7927 88.6896 28.4577C88.6896 29.1226 88.6452 29.6656 88.5566 30.0867L87.7254 33.8436C87.6367 34.1983 87.4927 34.4642 87.2932 34.6416C87.1159 34.7967 86.8942 34.8743 86.6283 34.8743H86.3955C86.1961 34.8743 85.9855 34.841 85.7638 34.7745C85.5422 34.6859 85.3871 34.5307 85.2984 34.3091L82.5722 28.1252C82.3062 27.5267 82.0735 27.1499 81.874 26.9948C81.6967 26.8175 81.475 26.7288 81.209 26.7288H79.7129C79.447 26.7288 79.2142 26.8175 79.0148 26.9948C78.8374 27.1499 78.6158 27.5267 78.3498 28.1252L75.6236 34.3091C75.5349 34.5307 75.3798 34.6859 75.1581 34.7745C74.9365 34.841 74.7259 34.8743 74.5264 34.8743H74.2937C74.0277 34.8743 73.795 34.7967 73.5955 34.6416C73.4182 34.4642 73.2852 34.1983 73.1966 33.8436L72.3654 30.0867C72.2767 29.6656 72.2213 29.1226 72.1992 28.4577C72.1992 27.7927 72.1992 27.2164 72.1992 26.7288V16.921H72.5316V26.6956C72.5316 27.1832 72.5316 27.7595 72.5316 28.4244C72.5538 29.0893 72.6092 29.6324 72.6979 30.0535L73.529 33.8436C73.5512 34.0209 73.6399 34.1872 73.795 34.3423C73.9502 34.4753 74.1164 34.5418 74.2937 34.5418H74.46C74.6151 34.5418 74.7813 34.5196 74.9587 34.4753C75.136 34.431 75.269 34.298 75.3576 34.0764L78.0838 27.959C78.372 27.3383 78.6269 26.9283 78.8485 26.7288C79.0702 26.5072 79.3583 26.3964 79.7129 26.3964H81.209ZM86.0963 13.9288C85.6752 13.9288 85.3649 14.0286 85.1654 14.228C84.9881 14.4054 84.8994 14.7046 84.8994 15.1257V27.3605L82.9711 23.1714C82.7938 22.7946 82.5611 22.5287 82.2729 22.3735C81.9848 22.2183 81.6302 22.1408 81.209 22.1408H79.8127C79.3916 22.1408 79.0369 22.2183 78.7488 22.3735C78.4606 22.5287 78.2279 22.7946 78.0506 23.1714L76.1223 27.3605V15.1257C76.1223 14.7046 76.0225 14.4054 75.8231 14.228C75.6458 14.0286 75.3465 13.9288 74.9254 13.9288H69.8054C69.3843 13.9288 69.074 14.0286 68.8745 14.228C68.6972 14.4054 68.6085 14.7046 68.6085 15.1257V27.959C68.6085 28.6682 68.6307 29.3332 68.675 29.9538C68.7415 30.5522 68.9188 31.2615 69.207 32.0816L70.8693 36.6696C70.9801 37.0242 71.1574 37.3124 71.4013 37.534C71.6672 37.7557 71.9775 37.8665 72.3322 37.8665H76.7207C77.0754 37.8665 77.3746 37.7889 77.6184 37.6338C77.8622 37.4564 78.0284 37.2016 78.1171 36.8691L79.6797 31.4499C79.7462 31.2282 79.8238 31.0841 79.9124 31.0177C80.0232 30.929 80.1451 30.8847 80.2781 30.8847H80.5774C80.7103 30.8847 80.8212 30.929 80.9098 31.0177C81.0206 31.0841 81.1093 31.2282 81.1758 31.4499L82.7051 36.8691C82.7938 37.2237 82.9822 37.4786 83.2703 37.6338C83.5585 37.7889 83.8799 37.8665 84.2345 37.8665H88.6563C89.0109 37.8665 89.288 37.7557 89.4875 37.534C89.7091 37.2902 89.8754 37.0021 89.9862 36.6696L91.6485 32.148C91.9367 31.328 92.1029 30.6187 92.1472 30.0203C92.2137 29.3996 92.247 28.7347 92.247 28.0254V15.1257C92.247 14.7046 92.1472 14.4054 91.9477 14.228C91.7704 14.0286 91.4712 13.9288 91.0501 13.9288H86.0963ZM76.7207 38.199H72.3322C71.911 38.199 71.5453 38.066 71.235 37.8C70.9247 37.534 70.7031 37.1905 70.5701 36.7693L68.9077 32.1813C68.5974 31.3612 68.409 30.6409 68.3426 30.0203C68.2982 29.3775 68.2761 28.6904 68.2761 27.959V15.1257C68.2761 14.5938 68.398 14.2059 68.6418 13.9621C68.8856 13.7183 69.2735 13.5964 69.8054 13.5964H74.9254C75.4574 13.5964 75.8452 13.7183 76.089 13.9621C76.3329 14.2059 76.4548 14.5938 76.4548 15.1257V25.8644L77.7514 23.0384C77.973 22.5951 78.239 22.2848 78.5493 22.1075C78.8818 21.908 79.3029 21.8083 79.8127 21.8083H81.209C81.7188 21.8083 82.1289 21.908 82.4392 22.1075C82.7716 22.2848 83.0487 22.5951 83.2703 23.0384L84.567 25.8644V15.1257C84.567 14.5938 84.6778 14.2059 84.8994 13.9621C85.1432 13.7183 85.5422 13.5964 86.0963 13.5964H91.0501C91.582 13.5964 91.9699 13.7183 92.2137 13.9621C92.4575 14.2059 92.5794 14.5938 92.5794 15.1257V28.0254C92.5794 28.7569 92.5462 29.444 92.4797 30.0867C92.4354 30.7074 92.258 31.4277 91.9477 32.2478L90.2854 36.7693C90.1524 37.1905 89.9529 37.534 89.687 37.8C89.421 38.066 89.0774 38.199 88.6563 38.199H84.2345C83.7912 38.199 83.4033 38.0992 83.0709 37.8997C82.7384 37.7003 82.5057 37.3899 82.3727 36.9688L80.8433 31.5496C80.8212 31.4609 80.7879 31.3834 80.7436 31.3169C80.6993 31.2504 80.6438 31.2171 80.5774 31.2171H80.2781C80.2116 31.2171 80.1562 31.2504 80.1119 31.3169C80.0676 31.3834 80.0343 31.4609 80.0122 31.5496L78.4496 36.9688C78.3166 37.3678 78.0949 37.667 77.7846 37.8665C77.4965 38.0881 77.1419 38.199 76.7207 38.199Z" fill="url(#paint2_linear_2124_32652)"/>
<path d="M117.151 20.2457V31.5829C117.151 32.6246 117.007 33.5887 116.718 34.4753C116.43 35.3397 115.887 36.0822 115.089 36.7028C114.314 37.3235 113.227 37.8111 111.831 38.1657C110.457 38.5203 108.684 38.6977 106.512 38.6977C104.34 38.6977 102.555 38.5203 101.159 38.1657C99.7847 37.8111 98.6986 37.3235 97.9007 36.7028C97.125 36.0822 96.5819 35.3397 96.2716 34.4753C95.9835 33.5887 95.8394 32.6246 95.8394 31.5829V20.2457C95.8394 19.204 95.9835 18.2509 96.2716 17.3865C96.5819 16.4999 97.125 15.7463 97.9007 15.1257C98.6986 14.4829 99.7847 13.9842 101.159 13.6296C102.555 13.275 104.34 13.0977 106.512 13.0977C108.684 13.0977 110.457 13.275 111.831 13.6296C113.227 13.9842 114.314 14.4829 115.089 15.1257C115.887 15.7463 116.43 16.4999 116.718 17.3865C117.007 18.2509 117.151 19.204 117.151 20.2457ZM116.818 31.5829V20.2457C116.818 19.2261 116.663 18.3063 116.353 17.4862C116.065 16.644 115.533 15.9236 114.757 15.3252C114.003 14.7267 112.95 14.2613 111.598 13.9288C110.269 13.5964 108.573 13.4301 106.512 13.4301C104.45 13.4301 102.744 13.5964 101.392 13.9288C100.04 14.2613 98.9757 14.7267 98.2 15.3252C97.4464 15.9236 96.9144 16.644 96.6041 17.4862C96.316 18.3063 96.1719 19.2261 96.1719 20.2457V31.5829C96.1719 32.6024 96.316 33.5333 96.6041 34.3756C96.9144 35.1957 97.4464 35.9049 98.2 36.5034C98.9757 37.0796 100.04 37.534 101.392 37.8665C102.744 38.199 104.45 38.3652 106.512 38.3652C108.573 38.3652 110.269 38.199 111.598 37.8665C112.95 37.534 114.003 37.0796 114.757 36.5034C115.533 35.9049 116.065 35.1957 116.353 34.3756C116.663 33.5333 116.818 32.6024 116.818 31.5829ZM113.194 30.8182C113.194 32.148 112.718 33.2341 111.765 34.0764C110.812 34.8964 109.038 35.3065 106.445 35.3065C103.852 35.3065 102.09 34.8964 101.159 34.0764C100.228 33.2341 99.7625 32.148 99.7625 30.8182V21.0104C99.7625 19.6805 100.228 18.6055 101.159 17.7854C102.09 16.9432 103.852 16.5221 106.445 16.5221C109.038 16.5221 110.812 16.9432 111.765 17.7854C112.718 18.6055 113.194 19.6805 113.194 21.0104V30.8182ZM100.095 30.8182C100.095 32.0594 100.538 33.0679 101.425 33.8436C102.311 34.5972 103.985 34.974 106.445 34.974C108.905 34.974 110.59 34.5972 111.499 33.8436C112.407 33.0679 112.862 32.0594 112.862 30.8182V21.0104C112.862 19.7692 112.407 18.7718 111.499 18.0182C110.59 17.2424 108.905 16.8545 106.445 16.8545C103.985 16.8545 102.311 17.2424 101.425 18.0182C100.538 18.7718 100.095 19.7692 100.095 21.0104V30.8182ZM103.719 30.386V21.4426C103.719 21.0215 103.885 20.6668 104.218 20.3787C104.55 20.0684 105.315 19.9132 106.512 19.9132C107.709 19.9132 108.473 20.0684 108.806 20.3787C109.138 20.6668 109.304 21.0215 109.304 21.4426V30.386C109.304 30.8293 109.138 31.2061 108.806 31.5164C108.473 31.8045 107.709 31.9486 106.512 31.9486C105.315 31.9486 104.55 31.8045 104.218 31.5164C103.885 31.2061 103.719 30.8293 103.719 30.386ZM104.051 21.4426V30.386C104.051 30.7849 104.218 31.0952 104.55 31.3169C104.905 31.5164 105.559 31.6161 106.512 31.6161C107.465 31.6161 108.107 31.5164 108.44 31.3169C108.795 31.0952 108.972 30.7849 108.972 30.386V21.4426C108.972 21.0658 108.795 20.7777 108.44 20.5782C108.107 20.3565 107.465 20.2457 106.512 20.2457C105.581 20.2457 104.938 20.3565 104.583 20.5782C104.229 20.7777 104.051 21.0658 104.051 21.4426Z" fill="url(#paint3_linear_2124_32652)"/>
<path d="M141.664 20.2457V31.5829C141.664 32.6246 141.52 33.5887 141.231 34.4753C140.943 35.3397 140.4 36.0822 139.602 36.7028C138.827 37.3235 137.74 37.8111 136.344 38.1657C134.97 38.5203 133.197 38.6977 131.025 38.6977C128.853 38.6977 127.068 38.5203 125.672 38.1657C124.298 37.8111 123.212 37.3235 122.414 36.7028C121.638 36.0822 121.095 35.3397 120.785 34.4753C120.496 33.5887 120.352 32.6246 120.352 31.5829V20.2457C120.352 19.204 120.496 18.2509 120.785 17.3865C121.095 16.4999 121.638 15.7463 122.414 15.1257C123.212 14.4829 124.298 13.9842 125.672 13.6296C127.068 13.275 128.853 13.0977 131.025 13.0977C133.197 13.0977 134.97 13.275 136.344 13.6296C137.74 13.9842 138.827 14.4829 139.602 15.1257C140.4 15.7463 140.943 16.4999 141.231 17.3865C141.52 18.2509 141.664 19.204 141.664 20.2457ZM141.331 31.5829V20.2457C141.331 19.2261 141.176 18.3063 140.866 17.4862C140.578 16.644 140.046 15.9236 139.27 15.3252C138.516 14.7267 137.463 14.2613 136.111 13.9288C134.782 13.5964 133.086 13.4301 131.025 13.4301C128.963 13.4301 127.257 13.5964 125.905 13.9288C124.553 14.2613 123.489 14.7267 122.713 15.3252C121.959 15.9236 121.427 16.644 121.117 17.4862C120.829 18.3063 120.685 19.2261 120.685 20.2457V31.5829C120.685 32.6024 120.829 33.5333 121.117 34.3756C121.427 35.1957 121.959 35.9049 122.713 36.5034C123.489 37.0796 124.553 37.534 125.905 37.8665C127.257 38.199 128.963 38.3652 131.025 38.3652C133.086 38.3652 134.782 38.199 136.111 37.8665C137.463 37.534 138.516 37.0796 139.27 36.5034C140.046 35.9049 140.578 35.1957 140.866 34.3756C141.176 33.5333 141.331 32.6024 141.331 31.5829ZM137.707 30.8182C137.707 32.148 137.231 33.2341 136.278 34.0764C135.325 34.8964 133.551 35.3065 130.958 35.3065C128.365 35.3065 126.603 34.8964 125.672 34.0764C124.741 33.2341 124.276 32.148 124.276 30.8182V21.0104C124.276 19.6805 124.741 18.6055 125.672 17.7854C126.603 16.9432 128.365 16.5221 130.958 16.5221C133.551 16.5221 135.325 16.9432 136.278 17.7854C137.231 18.6055 137.707 19.6805 137.707 21.0104V30.8182ZM124.608 30.8182C124.608 32.0594 125.051 33.0679 125.938 33.8436C126.824 34.5972 128.498 34.974 130.958 34.974C133.418 34.974 135.103 34.5972 136.012 33.8436C136.92 33.0679 137.375 32.0594 137.375 30.8182V21.0104C137.375 19.7692 136.92 18.7718 136.012 18.0182C135.103 17.2424 133.418 16.8545 130.958 16.8545C128.498 16.8545 126.824 17.2424 125.938 18.0182C125.051 18.7718 124.608 19.7692 124.608 21.0104V30.8182ZM128.232 30.386V21.4426C128.232 21.0215 128.398 20.6668 128.731 20.3787C129.063 20.0684 129.828 19.9132 131.025 19.9132C132.222 19.9132 132.986 20.0684 133.319 20.3787C133.651 20.6668 133.817 21.0215 133.817 21.4426V30.386C133.817 30.8293 133.651 31.2061 133.319 31.5164C132.986 31.8045 132.222 31.9486 131.025 31.9486C129.828 31.9486 129.063 31.8045 128.731 31.5164C128.398 31.2061 128.232 30.8293 128.232 30.386ZM128.564 21.4426V30.386C128.564 30.7849 128.731 31.0952 129.063 31.3169C129.418 31.5164 130.072 31.6161 131.025 31.6161C131.978 31.6161 132.62 31.5164 132.953 31.3169C133.308 31.0952 133.485 30.7849 133.485 30.386V21.4426C133.485 21.0658 133.308 20.7777 132.953 20.5782C132.62 20.3565 131.978 20.2457 131.025 20.2457C130.094 20.2457 129.451 20.3565 129.096 20.5782C128.742 20.7777 128.564 21.0658 128.564 21.4426Z" fill="url(#paint4_linear_2124_32652)"/>
<path d="M166.476 31.0841C166.476 33.4779 165.778 35.2622 164.381 36.4369C163.007 37.6116 160.868 38.199 157.965 38.199H146.76C146.229 38.199 145.841 38.077 145.597 37.8332C145.353 37.5894 145.231 37.2016 145.231 36.6696V15.1257C145.231 14.5938 145.353 14.2059 145.597 13.9621C145.841 13.7183 146.229 13.5964 146.76 13.5964H157.965C160.868 13.5964 163.007 14.1837 164.381 15.3584C165.778 16.5332 166.476 18.3174 166.476 20.7112V31.0841ZM157.965 37.8665C160.735 37.8665 162.785 37.3124 164.115 36.2041C165.467 35.0959 166.143 33.3893 166.143 31.0841V20.7112C166.143 18.4061 165.467 16.6994 164.115 15.5912C162.785 14.4829 160.735 13.9288 157.965 13.9288H146.76C146.339 13.9288 146.029 14.0286 145.83 14.228C145.652 14.4054 145.564 14.7046 145.564 15.1257V36.6696C145.564 37.0907 145.652 37.401 145.83 37.6005C146.029 37.7778 146.339 37.8665 146.76 37.8665H157.965ZM149.187 34.8743V16.921H157.233C158.364 16.921 159.272 17.0429 159.959 17.2867C160.669 17.5306 161.212 17.863 161.589 18.2841C161.965 18.6831 162.22 19.1707 162.353 19.747C162.486 20.3011 162.553 20.8996 162.553 21.5423V30.3527C162.553 30.9955 162.486 31.5939 162.353 32.148C162.242 32.7022 161.999 33.1787 161.622 33.5777C161.245 33.9766 160.702 34.298 159.993 34.5418C159.283 34.7635 158.364 34.8743 157.233 34.8743H149.187ZM157.233 17.2535H149.52V34.5418H157.233C158.297 34.5418 159.15 34.4421 159.793 34.2426C160.458 34.0209 160.968 33.7328 161.323 33.3782C161.677 33.0014 161.91 32.5581 162.021 32.0483C162.154 31.5164 162.22 30.9512 162.22 30.3527V21.5423C162.22 20.9439 162.154 20.3787 162.021 19.8467C161.888 19.3148 161.644 18.8604 161.289 18.4836C160.935 18.1068 160.425 17.8076 159.76 17.586C159.117 17.3643 158.275 17.2535 157.233 17.2535ZM153.111 20.279H157.067C157.599 20.279 157.987 20.4119 158.231 20.6779C158.497 20.9217 158.63 21.3207 158.63 21.8748V29.9538C158.63 30.5079 158.497 30.9179 158.231 31.1839C157.987 31.4499 157.599 31.5829 157.067 31.5829H153.111V20.279ZM157.067 20.6114H153.443V31.2504H157.067C157.488 31.2504 157.798 31.1506 157.998 30.9512C158.197 30.7295 158.297 30.3971 158.297 29.9538V21.8748C158.297 21.4537 158.197 21.1434 157.998 20.9439C157.798 20.7222 157.488 20.6114 157.067 20.6114Z" fill="url(#paint5_linear_2124_32652)"/>
<defs>
<linearGradient id="paint0_linear_2124_32652" x1="20.8047" y1="27.9951" x2="153.179" y2="-16.186" gradientUnits="userSpaceOnUse">
<stop stop-color="#FFEAA3"/>
<stop offset="0.227907" stop-color="#D9A72C"/>
<stop offset="0.413953" stop-color="#D79D48"/>
<stop offset="0.586047" stop-color="#BC852A"/>
<stop offset="0.772093" stop-color="#D3AC5C"/>
<stop offset="1" stop-color="#DEB963"/>
</linearGradient>
<linearGradient id="paint1_linear_2124_32652" x1="20.8047" y1="27.9951" x2="153.179" y2="-16.186" gradientUnits="userSpaceOnUse">
<stop stop-color="#FFEAA3"/>
<stop offset="0.227907" stop-color="#D9A72C"/>
<stop offset="0.413953" stop-color="#D79D48"/>
<stop offset="0.586047" stop-color="#BC852A"/>
<stop offset="0.772093" stop-color="#D3AC5C"/>
<stop offset="1" stop-color="#DEB963"/>
</linearGradient>
<linearGradient id="paint2_linear_2124_32652" x1="20.8047" y1="27.9951" x2="153.179" y2="-16.186" gradientUnits="userSpaceOnUse">
<stop stop-color="#FFEAA3"/>
<stop offset="0.227907" stop-color="#D9A72C"/>
<stop offset="0.413953" stop-color="#D79D48"/>
<stop offset="0.586047" stop-color="#BC852A"/>
<stop offset="0.772093" stop-color="#D3AC5C"/>
<stop offset="1" stop-color="#DEB963"/>
</linearGradient>
<linearGradient id="paint3_linear_2124_32652" x1="20.8047" y1="27.9951" x2="153.179" y2="-16.186" gradientUnits="userSpaceOnUse">
<stop stop-color="#FFEAA3"/>
<stop offset="0.227907" stop-color="#D9A72C"/>
<stop offset="0.413953" stop-color="#D79D48"/>
<stop offset="0.586047" stop-color="#BC852A"/>
<stop offset="0.772093" stop-color="#D3AC5C"/>
<stop offset="1" stop-color="#DEB963"/>
</linearGradient>
<linearGradient id="paint4_linear_2124_32652" x1="20.8047" y1="27.9951" x2="153.179" y2="-16.186" gradientUnits="userSpaceOnUse">
<stop stop-color="#FFEAA3"/>
<stop offset="0.227907" stop-color="#D9A72C"/>
<stop offset="0.413953" stop-color="#D79D48"/>
<stop offset="0.586047" stop-color="#BC852A"/>
<stop offset="0.772093" stop-color="#D3AC5C"/>
<stop offset="1" stop-color="#DEB963"/>
</linearGradient>
<linearGradient id="paint5_linear_2124_32652" x1="20.8047" y1="27.9951" x2="153.179" y2="-16.186" gradientUnits="userSpaceOnUse">
<stop stop-color="#FFEAA3"/>
<stop offset="0.227907" stop-color="#D9A72C"/>
<stop offset="0.413953" stop-color="#D79D48"/>
<stop offset="0.586047" stop-color="#BC852A"/>
<stop offset="0.772093" stop-color="#D3AC5C"/>
<stop offset="1" stop-color="#DEB963"/>
</linearGradient>
</defs>
</svg>
