<svg width="164" height="89" viewBox="0 0 164 89" fill="none" xmlns="http://www.w3.org/2000/svg">
<path d="M26.2089 52.5182C24.8985 52.5182 23.6673 52.3814 22.5153 52.1078C21.3633 51.8198 20.4129 51.4454 19.6641 50.9846L21.6297 47.2262C23.2569 48.1622 24.9561 48.6302 26.7273 48.6302C27.3753 48.6302 27.8721 48.551 28.2177 48.3926C28.5633 48.2342 28.7361 48.0182 28.7361 47.7446C28.7361 47.4854 28.5561 47.2766 28.1961 47.1182C27.8505 46.9598 27.2961 46.787 26.5329 46.5998C25.5249 46.3406 24.6897 46.0814 24.0273 45.8222C23.3649 45.5486 22.7817 45.1382 22.2777 44.591C21.7881 44.0294 21.5433 43.295 21.5433 42.3878C21.5433 41.2502 21.8457 40.2566 22.4505 39.407C23.0697 38.543 23.9553 37.8806 25.1073 37.4198C26.2593 36.9446 27.6201 36.707 29.1897 36.707C30.3129 36.707 31.3569 36.8222 32.3217 37.0526C33.3009 37.2686 34.1433 37.5854 34.8489 38.003L33.0129 41.7182C32.4225 41.3438 31.7673 41.063 31.0473 40.8758C30.3417 40.6886 29.6145 40.595 28.8657 40.595C28.1601 40.595 27.6129 40.6958 27.2241 40.8974C26.8353 41.099 26.6409 41.3366 26.6409 41.6102C26.6409 41.8838 26.8137 42.0998 27.1593 42.2582C27.5193 42.4166 28.1025 42.5894 28.9089 42.7766C29.8881 43.007 30.7089 43.2518 31.3713 43.511C32.0481 43.7702 32.6313 44.1734 33.1209 44.7206C33.6105 45.2678 33.8553 45.9878 33.8553 46.8806C33.8553 48.0038 33.5457 48.9902 32.9265 49.8398C32.3073 50.6894 31.4217 51.3518 30.2697 51.827C29.1177 52.2878 27.7641 52.5182 26.2089 52.5182Z" fill="#F5F7EF"/>
<path d="M51.8919 49.5374H46.1247L44.6127 52.1726H39.2343L48.8679 37.0526H53.8791L57.4647 52.1726H52.3887L51.8919 49.5374ZM51.1791 45.8654L50.4447 41.999L48.2199 45.8654H51.1791Z" fill="#F5F7EF"/>
<path d="M115.872 46.6862L114.792 52.1726H109.694L110.796 46.6214L107.016 37.0526H112.135L114.187 42.2798L118.399 37.0526H123.518L115.872 46.6862Z" fill="#F5F7EF"/>
<path d="M136.214 52.5182C134.673 52.5182 133.312 52.2374 132.131 51.6758C130.965 51.0998 130.058 50.3006 129.41 49.2782C128.776 48.2558 128.459 47.0822 128.459 45.7574C128.459 44.0006 128.863 42.4382 129.669 41.0702C130.49 39.7022 131.62 38.6366 133.06 37.8734C134.515 37.0958 136.163 36.707 138.007 36.707C139.461 36.707 140.75 36.9734 141.873 37.5062C142.996 38.0246 143.831 38.7662 144.379 39.731L140.707 42.6038C140.03 41.423 139.022 40.8326 137.683 40.8326C136.891 40.8326 136.185 41.027 135.566 41.4158C134.947 41.8046 134.464 42.3518 134.119 43.0574C133.773 43.7486 133.6 44.5406 133.6 45.4334C133.6 46.3262 133.881 47.0462 134.443 47.5934C135.019 48.1262 135.775 48.3926 136.711 48.3926C137.992 48.3926 139.115 47.8094 140.08 46.643L143.083 49.5158C142.204 50.5958 141.203 51.3662 140.08 51.827C138.971 52.2878 137.683 52.5182 136.214 52.5182Z" fill="#F5F7EF"/>
<path d="M90.1347 43.6368C90.7273 42.3149 90.3816 37.0081 90.1347 34.52C89.6029 31.0252 87.4893 24.0306 85.0635 21.7564C82.3284 19.1923 80.1632 17.4829 77.0862 18.3376C76.2505 18.5655 74.7842 19.6709 75.6047 22.2692C76.6304 25.5171 79.0603 29.5234 79.7074 34.52C80.2534 38.7366 79.7643 42.6294 79.3085 45.4021L79.1945 52.0699L85.9182 52.1838L90.1347 43.6368Z" fill="#FFE797" stroke="black" stroke-width="0.64" stroke-linejoin="round"/>
<path fill-rule="evenodd" clip-rule="evenodd" d="M65.7464 75.8303L63.0114 73.5511C63.0114 73.3232 63.0798 72.6964 63.3533 72.0126C63.6268 71.3288 64.8347 69.8284 65.4046 69.1636C65.3286 69.0876 65.0627 68.8103 64.6068 68.3089C64.0782 67.7274 63.4515 67.7344 63.0907 67.7385H63.0904C63.0624 67.7388 63.036 67.7391 63.0114 67.7391C62.6695 67.7391 61.7578 67.0553 61.7578 65.9727C61.7578 65.1066 63.6572 63.3706 64.6068 62.6109C64.4549 61.8701 64.2422 59.5453 64.6068 56.1721C65.0627 51.9556 67.6268 47.3402 69.4501 45.6307C70.9054 44.2664 72.6874 44.3177 74.3325 44.365C74.7486 44.377 75.156 44.3887 75.547 44.3772C76.5698 44.3471 77.3703 44.5076 78.2251 44.8671L77.1425 40.6165C77.0855 40.6925 76.5499 40.9812 74.8633 41.5282C72.755 42.2119 70.9886 41.927 70.4188 41.7561C69.849 41.5851 68.3675 40.5595 69.4501 40.0467C70.2935 39.6472 71.3789 37.7955 72.1946 36.4039C72.426 36.0091 72.6357 35.6513 72.812 35.3743C73.4434 34.3821 75.0742 34.6393 76.2071 34.8179C76.5056 34.865 76.7696 34.9066 76.9715 34.9185C77.7465 34.964 79.0798 34.6715 79.6496 34.5196C80.4701 36.5709 79.7636 42.629 79.3077 45.4017C79.7699 45.6571 80.2719 45.9611 80.8462 46.3145C82.624 47.4085 82.8405 49.9612 82.7266 51.1009C83.3533 49.5814 84.926 46.2233 86.2024 44.947C87.7362 43.4132 88.796 43.5119 89.9894 43.6231C90.0374 43.6275 90.0856 43.632 90.134 43.6364C90.7266 42.3145 90.3809 37.0077 90.134 34.5196C91.3453 34.2036 92.5079 35.0072 92.947 35.3107C92.983 35.3355 93.0141 35.357 93.04 35.3743C93.2206 35.4947 93.719 35.7104 94.4766 36.0383C95.1534 36.3313 96.037 36.7137 97.0856 37.1977C98.8634 38.0182 99.0061 41.8321 98.8552 43.6364C99.8014 44.5913 100.569 46.055 101.425 47.6886L101.425 47.6888C101.571 47.9671 101.72 48.2503 101.872 48.5367C103.296 51.2148 103.125 58.1094 102.214 61.7562C101.484 64.6735 99.2508 66.6565 98.2252 67.2832L95.0343 64.4342C95.4901 60.5026 94.0656 51.9556 93.3249 49.6763C92.7323 47.853 91.8244 46.8273 91.4445 46.5424L91.0457 48.5367C88.9274 59.2397 83.4824 65.4162 80.0994 69.2537C80.0244 69.3387 79.9505 69.4227 79.8775 69.5055C76.5157 73.3232 70.1909 75.1465 68.7664 75.4884C67.6268 75.7619 66.2782 75.8303 65.7464 75.8303ZM70.3618 62.326C71.3305 61.5282 74.6354 56.0581 75.2052 54.6336C75.2683 54.4759 75.3453 54.2881 75.4318 54.0774C76.1263 52.3853 77.4276 49.2146 76.9715 48.2518C76.5613 47.3857 76.1548 46.9033 76.0029 46.7704C75.3191 46.8843 73.6211 47.6023 72.2992 49.5624C70.6467 52.0125 69.5071 56.0581 68.8803 59.0781C68.4603 61.1019 68.0147 62.6651 67.7493 63.5962C67.6186 64.0545 67.5316 64.3596 67.5128 64.4912C67.5066 64.5348 67.4999 64.5776 67.4934 64.6198C67.4299 65.0279 67.3771 65.3673 67.848 65.5738C68.914 64.0565 69.9423 62.6714 70.3618 62.326ZM93.3249 42.7247C92.9984 42.8976 92.4427 43.152 91.8434 43.3496C91.9194 42.2866 92.1967 40.1378 92.6981 40.0467C93.1995 39.9555 93.3249 41.7941 93.3249 42.7247Z" fill="#F8CD38"/>
<path d="M93.3249 42.7247C94.1226 42.4778 96.0827 42.1322 97.5414 42.7247C98.0247 42.9211 98.4559 43.2334 98.8552 43.6364M93.3249 42.7247C92.9984 42.8976 92.4427 43.152 91.8434 43.3496M93.3249 42.7247C93.3249 41.7941 93.1995 39.9555 92.6981 40.0467C92.1967 40.1378 91.9194 42.2866 91.8434 43.3496M90.134 43.6364C90.6298 43.6815 91.2574 43.5427 91.8434 43.3496M90.134 43.6364C90.7266 42.3145 90.3809 37.0077 90.134 34.5196C91.3453 34.2036 92.5079 35.0072 92.947 35.3107C92.983 35.3355 93.0141 35.357 93.04 35.3743C93.2206 35.4947 93.719 35.7104 94.4766 36.0383C95.1534 36.3313 96.037 36.7137 97.0856 37.1977C98.8634 38.0182 99.0061 41.8321 98.8552 43.6364M90.134 43.6364C90.0856 43.632 90.0374 43.6275 89.9894 43.6231C88.796 43.5119 87.7362 43.4132 86.2024 44.947C84.926 46.2233 83.3533 49.5814 82.7266 51.1009M82.7266 51.1009C82.8405 49.9612 82.624 47.4085 80.8462 46.3145C80.2719 45.9611 79.7699 45.6571 79.3077 45.4017M82.7266 51.1009C81.4046 58.759 75.2242 65.7638 72.2992 68.3089M65.4046 69.1636C65.3286 69.0876 65.0627 68.8103 64.6068 68.3089C64.0782 67.7274 63.4515 67.7344 63.0907 67.7385H63.0904C63.0624 67.7388 63.036 67.7391 63.0114 67.7391C62.6695 67.7391 61.7578 67.0553 61.7578 65.9727C61.7578 65.1066 63.6572 63.3706 64.6068 62.6109C64.4549 61.8701 64.2422 59.5453 64.6068 56.1721C65.0627 51.9556 67.6268 47.3402 69.4501 45.6307C70.9054 44.2664 72.6874 44.3177 74.3325 44.365C74.7486 44.377 75.156 44.3887 75.547 44.3772C76.5698 44.3471 77.3703 44.5076 78.2251 44.8671M65.4046 69.1636C64.8347 69.8284 63.6268 71.3288 63.3533 72.0126C63.0798 72.6964 63.0114 73.3232 63.0114 73.5511L65.7464 75.8303C66.2782 75.8303 67.6268 75.7619 68.7664 75.4884C70.1909 75.1465 76.5157 73.3232 79.8775 69.5055C79.9505 69.4227 80.0244 69.3387 80.0994 69.2537C83.4824 65.4162 88.9274 59.2397 91.0457 48.5367L91.4445 46.5424C91.8244 46.8273 92.7323 47.853 93.3249 49.6763C94.0656 51.9556 95.4901 60.5026 95.0343 64.4342L98.2252 67.2832C99.2508 66.6565 101.484 64.6735 102.214 61.7562C103.125 58.1094 103.296 51.2148 101.872 48.5367C101.72 48.2503 101.571 47.9671 101.425 47.6888L101.425 47.6886C100.569 46.055 99.8014 44.5913 98.8552 43.6364M65.4046 69.1636C66.0144 68.2401 66.9447 66.8595 67.848 65.5738M67.848 65.5738C68.914 64.0565 69.9423 62.6714 70.3618 62.326C71.3305 61.5282 74.6354 56.0581 75.2052 54.6336C75.2683 54.4759 75.3453 54.2881 75.4318 54.0774C76.1263 52.3853 77.4276 49.2146 76.9715 48.2518C76.5613 47.3857 76.1548 46.9033 76.0029 46.7704C75.3191 46.8843 73.6211 47.6023 72.2992 49.5624C70.6467 52.0125 69.5071 56.0581 68.8803 59.0781C68.4603 61.1019 68.0147 62.6651 67.7493 63.5962C67.6186 64.0545 67.5316 64.3596 67.5128 64.4912C67.5066 64.5348 67.4999 64.5776 67.4934 64.6198C67.4299 65.0279 67.3771 65.3673 67.848 65.5738ZM79.3077 45.4017C79.7636 42.629 80.4701 36.5709 79.6496 34.5196C79.0798 34.6715 77.7465 34.964 76.9715 34.9185C76.7696 34.9066 76.5056 34.865 76.2071 34.8179C75.0742 34.6393 73.4434 34.3821 72.812 35.3743C72.6357 35.6513 72.426 36.0091 72.1946 36.4039C71.3789 37.7955 70.2935 39.6472 69.4501 40.0467C68.3675 40.5595 69.849 41.5851 70.4188 41.7561C70.9886 41.927 72.755 42.2119 74.8633 41.5282C76.5499 40.9812 77.0855 40.6925 77.1425 40.6165L78.2251 44.8671M79.3077 45.4017C78.9257 45.1905 78.571 45.0125 78.2251 44.8671" stroke="black" stroke-width="0.64" stroke-linejoin="round"/>
<path d="M91.7864 45.0609C89.416 42.8273 85.4046 46.0296 84.1511 48.0809C84.4701 47.4427 85.4046 45.7447 86.2024 44.947C87.7362 43.4132 88.796 43.5119 89.9894 43.6231L90.134 43.6364C90.7266 42.3145 90.3809 37.0077 90.134 34.5196C91.3453 34.2036 92.5079 35.0072 92.947 35.3107C92.983 35.3355 93.0141 35.357 93.04 35.3743C93.2205 35.4947 93.719 35.7104 94.4766 36.0383L94.4767 36.0384C95.1535 36.3313 96.0371 36.7137 97.0856 37.1977C96.4208 37.0457 94.4645 36.833 92.869 37.6535C91.2736 38.474 90.6088 41.946 90.4759 43.5795L90.134 43.6364C90.6298 43.6815 91.2574 43.5427 91.8434 43.3496C92.4427 43.152 92.9984 42.8976 93.3249 42.7247C94.1226 42.4778 96.0827 42.1322 97.5414 42.7247C98.0247 42.9211 98.4559 43.2334 98.8552 43.6364C99.8014 44.5913 100.569 46.0549 101.425 47.6886L101.425 47.6888L101.426 47.6904C101.572 47.9681 101.72 48.2508 101.872 48.5367C103.296 51.2148 103.125 58.1094 102.214 61.7562C101.484 64.6735 99.2508 66.6565 98.2252 67.2832L95.6611 65.004C96.9146 57.0268 94.7494 47.853 91.7864 45.0609Z" fill="#FFEEB6"/>
<path d="M82.0998 47.6251C80.1624 46.0106 75.4559 43.8415 72.1282 48.0808C68.8006 52.3202 66.7911 61.0154 66.2023 64.8331L63.2963 67.7391L63.0904 67.7385H63.0902L63.0894 67.7385C63.0617 67.7388 63.0357 67.7391 63.0114 67.7391C62.6695 67.7391 61.7578 67.0553 61.7578 65.9727C61.7578 65.1066 63.6572 63.3706 64.6068 62.6109C64.4549 61.8701 64.2422 59.5453 64.6068 56.1721C65.0627 51.9556 67.6268 47.3401 69.4501 45.6307C70.9054 44.2664 72.6874 44.3177 74.3325 44.365C74.7486 44.377 75.156 44.3887 75.547 44.3772C76.5698 44.3471 77.3703 44.5076 78.2251 44.8671C78.571 45.0125 78.9257 45.1905 79.3077 45.4017L78.9089 45.1749C78.567 42.5348 77.53 36.947 76.1168 36.172C74.3505 35.2034 73.3818 35.2603 71.6724 37.3116C71.9038 36.9168 72.6357 35.6513 72.812 35.3743C73.4433 34.3821 75.0742 34.6393 76.2071 34.8179C76.5056 34.865 76.7695 34.9066 76.9715 34.9184C77.7465 34.964 79.0798 34.6715 79.6496 34.5196C80.4701 36.5709 79.7636 42.629 79.3077 45.4017C79.7699 45.6571 80.2719 45.9611 80.8462 46.3145C81.1881 46.5424 81.9174 47.1236 82.0998 47.6251Z" fill="#FFEEB6"/>
<path d="M90.134 43.6364C90.7266 42.3145 90.3809 37.0077 90.134 34.5196C91.3453 34.2036 92.5079 35.0072 92.947 35.3107C92.983 35.3355 93.0141 35.357 93.04 35.3743C93.2205 35.4947 93.719 35.7104 94.4766 36.0383C95.1534 36.3313 96.037 36.7137 97.0856 37.1977C96.4208 37.0457 94.4645 36.833 92.869 37.6535C91.2736 38.474 90.6088 41.946 90.4759 43.5795L90.134 43.6364ZM90.134 43.6364C90.6298 43.6815 91.2574 43.5427 91.8434 43.3496C92.4427 43.152 92.9984 42.8976 93.3249 42.7247C94.1226 42.4778 96.0827 42.1322 97.5414 42.7247C98.0247 42.9211 98.4559 43.2334 98.8552 43.6364C99.8014 44.5913 100.569 46.0549 101.425 47.6886L101.425 47.6888C101.571 47.9671 101.72 48.2503 101.872 48.5367C103.296 51.2148 103.125 58.1094 102.214 61.7562C101.484 64.6735 99.2508 66.6565 98.2252 67.2832L95.6611 65.004C96.9146 57.0268 94.7494 47.853 91.7864 45.0609C89.416 42.8273 85.4046 46.0296 84.1511 48.0809C84.4701 47.4427 85.4046 45.7447 86.2024 44.947C87.7362 43.4132 88.796 43.5119 89.9894 43.6231C90.0374 43.6275 90.0856 43.632 90.134 43.6364ZM79.3077 45.4017C79.7636 42.629 80.4701 36.5709 79.6496 34.5196C79.0798 34.6715 77.7465 34.964 76.9715 34.9184C76.7695 34.9066 76.5056 34.865 76.2071 34.8179C75.0742 34.6393 73.4433 34.3821 72.812 35.3743C72.6357 35.6513 71.9038 36.9168 71.6724 37.3116C73.3818 35.2603 74.3505 35.2034 76.1168 36.172C77.53 36.947 78.567 42.5348 78.9089 45.1749L79.3077 45.4017ZM79.3077 45.4017C79.7699 45.6571 80.2719 45.9611 80.8462 46.3145C81.1881 46.5424 81.9174 47.1236 82.0998 47.6251C80.1624 46.0106 75.4559 43.8415 72.1282 48.0808C68.8006 52.3202 66.7911 61.0154 66.2023 64.8331L63.2963 67.7391L63.0904 67.7385H63.0902C63.0623 67.7388 63.0359 67.7391 63.0114 67.7391C62.6695 67.7391 61.7578 67.0553 61.7578 65.9727C61.7578 65.1066 63.6572 63.3706 64.6068 62.6109C64.4549 61.8701 64.2422 59.5453 64.6068 56.1721C65.0627 51.9556 67.6268 47.3402 69.4501 45.6307C70.9054 44.2664 72.6874 44.3177 74.3325 44.365C74.7486 44.377 75.156 44.3887 75.547 44.3772C76.5698 44.3471 77.3703 44.5076 78.2251 44.8671C78.571 45.0125 78.9257 45.1905 79.3077 45.4017Z" stroke="black" stroke-width="0.64" stroke-linejoin="round"/>
<path d="M73.2963 19.6865C75.405 17.6064 77.123 19.4097 77.7184 20.5714L77.1698 23.3131C76.8573 23.6492 76.0058 24.3496 75.1001 24.4627C73.968 24.6041 70.6603 22.2865 73.2963 19.6865Z" fill="#F5F7EF"/>
<path d="M77.7184 20.5714C77.123 19.4097 75.405 17.6064 73.2963 19.6865C70.6603 22.2865 73.968 24.6041 75.1001 24.4627C76.0058 24.3496 76.8573 23.6492 77.1698 23.3131" stroke="black" stroke-width="0.64" stroke-linecap="round" stroke-linejoin="round"/>
<path fill-rule="evenodd" clip-rule="evenodd" d="M89.5796 28.484C89.4244 27.9927 89.0366 27.0147 88.7266 27.0325C88.3392 27.0547 89.1767 20.1107 87.4287 17.832C85.6808 15.5534 81.5156 15.7225 80.1707 15.9941C78.8257 16.2657 75.9972 17.5087 75.2704 20.2871C74.5436 23.0654 78.01 29.1404 77.6443 29.2703C77.3517 29.3742 77.3737 30.4261 77.4213 30.9391C77.1201 31.0185 76.5524 31.3497 76.6914 32.0383C76.8652 32.8991 76.6418 34.288 79.8412 35.7136C82.4007 36.8541 83.7064 36.2769 83.7064 36.2769C83.7064 36.2769 87.2856 35.8677 89.202 33.8234C91.5976 31.268 90.8527 30.0746 90.6789 29.2139C90.5398 28.5253 89.8881 28.4404 89.5796 28.484ZM84.2044 20.4428C83.4211 20.5562 82.0434 21.7563 81.4525 22.3423C81.1709 22.6114 81.841 22.8797 83.294 22.8663C84.7471 22.8528 84.7357 22.5192 85.09 22.0557C85.4444 21.5922 85.1837 20.301 84.2044 20.4428ZM78.2609 21.6429C79.0269 21.4434 80.4583 22.543 80.4583 22.543C80.4583 22.543 81.3848 22.9718 80.0404 23.5233C78.6959 24.0747 78.577 23.7628 78.0705 23.4731C77.5641 23.1834 77.3034 21.8923 78.2609 21.6429ZM83.7855 26.6864C83.6199 25.6448 82.2443 25.6165 81.5772 25.7326C80.9173 25.8845 80.7364 26.2271 80.988 27.2513C81.2396 28.2755 81.5036 28.603 82.1421 28.53C82.7588 28.3495 83.951 27.728 83.7855 26.6864Z" fill="#F5F7EF"/>
<path d="M89.5796 28.484C89.4244 27.9927 89.0366 27.0147 88.7266 27.0325C88.3392 27.0547 89.1767 20.1107 87.4287 17.832C85.6808 15.5534 81.5156 15.7225 80.1707 15.9941M89.5796 28.484C89.8881 28.4404 90.5398 28.5253 90.6789 29.2139C90.8527 30.0746 91.5976 31.268 89.202 33.8234C87.2856 35.8677 83.7064 36.2769 83.7064 36.2769C83.7064 36.2769 82.4007 36.8541 79.8412 35.7136C76.6418 34.288 76.8652 32.8991 76.6914 32.0383C76.5524 31.3497 77.1201 31.0185 77.4213 30.9391C77.3737 30.4261 77.3517 29.3742 77.6443 29.2703M89.5796 28.484C89.6467 28.6841 85.7652 31.9696 83.0407 32.4026M80.1707 15.9941L79.6327 16.1027M80.1707 15.9941C78.8257 16.2657 75.9972 17.5087 75.2704 20.2871C74.5436 23.0654 78.01 29.1404 77.6443 29.2703M77.6443 29.2703C78.2422 29.6586 79.3416 30.3031 80.5598 30.5603M81.4525 22.3423C82.0434 21.7563 83.4211 20.5562 84.2044 20.4428C85.1837 20.301 85.4444 21.5922 85.09 22.0557C84.7357 22.5192 84.7471 22.8528 83.294 22.8663C81.841 22.8797 81.1709 22.6114 81.4525 22.3423ZM80.4583 22.543C80.4583 22.543 79.0269 21.4434 78.2609 21.6429C77.3034 21.8923 77.5641 23.1834 78.0705 23.4731C78.577 23.7628 78.6959 24.0747 80.0404 23.5233C81.3848 22.9718 80.4583 22.543 80.4583 22.543ZM81.5772 25.7326C82.2443 25.6165 83.6199 25.6448 83.7855 26.6864C83.951 27.728 82.7588 28.3495 82.1421 28.53C81.5036 28.603 81.2396 28.2755 80.988 27.2513C80.7364 26.2271 80.9173 25.8845 81.5772 25.7326Z" stroke="black" stroke-width="0.64" stroke-linecap="round" stroke-linejoin="round"/>
<path d="M91.3788 17.853C89.2945 15.7822 87.6101 17.5758 87.0285 18.7314L87.5794 21.4599C87.8884 21.7944 88.7295 22.4918 89.6217 22.6048C90.7369 22.746 93.9842 20.4414 91.3788 17.853Z" fill="#F5F7EF"/>
<path d="M87.0285 18.7314C87.6101 17.5758 89.2945 15.7822 91.3788 17.853C93.9842 20.4414 90.7369 22.746 89.6217 22.6048C88.7295 22.4918 87.8884 21.7944 87.5794 21.4599" stroke="black" stroke-width="0.64" stroke-linecap="round" stroke-linejoin="round"/>
<path d="M86.7477 21.7528C86.8964 21.9965 87.0773 22.3753 87.5287 22.6086" stroke="black" stroke-width="0.64" stroke-linecap="round" stroke-linejoin="round"/>
</svg>
