<svg width="139" height="84" viewBox="0 0 139 84" fill="none" xmlns="http://www.w3.org/2000/svg">
<path d="M20.0453 66.6241V56.7649H22.5495V66.6241H20.0453ZM21.2974 55.612C20.8469 55.612 20.4626 55.4663 20.1446 55.1747C19.8399 54.8832 19.6875 54.4989 19.6875 54.0218C19.6875 53.5448 19.8399 53.1605 20.1446 52.8689C20.4626 52.5774 20.8469 52.4316 21.2974 52.4316C21.7611 52.4316 22.1454 52.5774 22.4501 52.8689C22.7549 53.1605 22.9073 53.5448 22.9073 54.0218C22.9073 54.4989 22.7549 54.8832 22.4501 55.1747C22.1454 55.4663 21.7611 55.612 21.2974 55.612Z" fill="#EEEEF6"/>
<path d="M25.3246 66.6241V56.7649H27.7891V58.057H28.1468C28.3059 57.7124 28.604 57.3877 29.0412 57.083C29.4785 56.7649 30.141 56.6059 31.0287 56.6059C31.7972 56.6059 32.4664 56.7848 33.0361 57.1426C33.6191 57.4871 34.0696 57.9708 34.3876 58.5936C34.7056 59.2032 34.8646 59.9188 34.8646 60.7404V66.6241H32.3604V60.9392C32.3604 60.1971 32.1749 59.6405 31.8039 59.2695C31.4461 58.8984 30.9294 58.7129 30.2536 58.7129C29.4851 58.7129 28.8889 58.9713 28.4649 59.4881C28.0408 59.9917 27.8288 60.7007 27.8288 61.615V66.6241H25.3246Z" fill="#EEEEF6"/>
<path d="M40.6326 66.9024C39.9304 66.9024 39.301 66.7831 38.7445 66.5446C38.188 66.2928 37.7441 65.935 37.4128 65.4712C37.0948 64.9942 36.9358 64.4177 36.9358 63.7419C36.9358 63.0661 37.0948 62.5029 37.4128 62.0523C37.7441 61.5885 38.1946 61.244 38.7644 61.0187C39.3474 60.7802 40.0099 60.6609 40.7519 60.6609H43.4549V60.1043C43.4549 59.6405 43.3091 59.2629 43.0176 58.9713C42.7261 58.6665 42.2624 58.5141 41.6264 58.5141C41.0036 58.5141 40.5399 58.6599 40.2351 58.9514C39.9304 59.2297 39.7316 59.5941 39.6389 60.0447L37.3333 59.2695C37.4924 58.7659 37.7441 58.3087 38.0886 57.8979C38.4464 57.4739 38.9167 57.136 39.4997 56.8842C40.096 56.6192 40.8181 56.4866 41.6661 56.4866C42.9646 56.4866 43.9915 56.8113 44.7468 57.4606C45.502 58.11 45.8797 59.0508 45.8797 60.2832V63.9605C45.8797 64.3581 46.0652 64.5569 46.4362 64.5569H47.2312V66.6241H45.5616C45.0714 66.6241 44.6673 66.5049 44.3493 66.2663C44.0313 66.0278 43.8723 65.7098 43.8723 65.3122V65.2923H43.4946C43.4416 65.4514 43.3224 65.6634 43.1369 65.9284C42.9514 66.1802 42.6599 66.4055 42.2624 66.6042C41.8649 66.803 41.3216 66.9024 40.6326 66.9024ZM41.0699 64.8749C41.7721 64.8749 42.3419 64.6828 42.7791 64.2985C43.2296 63.9009 43.4549 63.3775 43.4549 62.7281V62.5294H40.9307C40.467 62.5294 40.1026 62.6288 39.8376 62.8275C39.5726 63.0263 39.4401 63.3046 39.4401 63.6624C39.4401 64.0202 39.5792 64.3117 39.8575 64.537C40.1357 64.7623 40.5399 64.8749 41.0699 64.8749Z" fill="#EEEEF6"/>
<path d="M48.3911 61.7343V61.4162C48.3911 60.3826 48.5964 59.5014 49.0072 58.7725C49.4179 58.0304 49.9612 57.4673 50.6369 57.083C51.326 56.6854 52.0746 56.4866 52.8828 56.4866C53.7838 56.4866 54.4662 56.6457 54.93 56.9637C55.3937 57.2817 55.7316 57.613 55.9436 57.9576H56.3014V56.7649H58.7659V68.3733C58.7659 69.0492 58.5671 69.5859 58.1696 69.9834C57.7721 70.3942 57.2421 70.5996 56.5796 70.5996H49.9811V68.4131H55.7051C56.0761 68.4131 56.2616 68.2143 56.2616 67.8168V65.2526H55.9039C55.7714 65.4646 55.5859 65.6833 55.3474 65.9085C55.1089 66.1206 54.7908 66.2995 54.3933 66.4452C53.9958 66.591 53.4923 66.6639 52.8828 66.6639C52.0746 66.6639 51.326 66.4717 50.6369 66.0874C49.9612 65.6899 49.4179 65.1267 49.0072 64.3979C48.5964 63.6558 48.3911 62.7679 48.3911 61.7343ZM53.5983 64.4774C54.3668 64.4774 55.0095 64.2322 55.5262 63.7419C56.043 63.2516 56.3014 62.5625 56.3014 61.6746V61.4759C56.3014 60.5748 56.043 59.8857 55.5262 59.4086C55.0227 58.9183 54.3801 58.6732 53.5983 58.6732C52.8298 58.6732 52.1872 58.9183 51.6705 59.4086C51.1537 59.8857 50.8953 60.5748 50.8953 61.4759V61.6746C50.8953 62.5625 51.1537 63.2516 51.6705 63.7419C52.1872 64.2322 52.8298 64.4774 53.5983 64.4774Z" fill="#EEEEF6"/>
<path d="M66.0341 66.9024C65.0536 66.9024 64.1857 66.697 63.4305 66.2862C62.6885 65.8622 62.1055 65.2725 61.6815 64.5171C61.2707 63.7485 61.0653 62.8474 61.0653 61.8138V61.5753C61.0653 60.5416 61.2707 59.6471 61.6815 58.8918C62.0922 58.1232 62.6686 57.5335 63.4106 57.1227C64.1526 56.6987 65.0139 56.4866 65.9944 56.4866C66.9616 56.4866 67.803 56.7053 68.5185 57.1426C69.234 57.5666 69.7905 58.163 70.188 58.9316C70.5855 59.6869 70.7843 60.5681 70.7843 61.5753V62.43H63.6093C63.6358 63.1058 63.8876 63.6558 64.3646 64.0798C64.8416 64.5039 65.4246 64.7159 66.1136 64.7159C66.8159 64.7159 67.3326 64.5635 67.6639 64.2587C67.9951 63.9539 68.2469 63.616 68.4191 63.245L70.4663 64.3183C70.2808 64.6629 70.0091 65.0406 69.6514 65.4514C69.3069 65.8489 68.8431 66.1934 68.2601 66.485C67.6771 66.7633 66.9351 66.9024 66.0341 66.9024ZM63.6292 60.5615H68.2403C68.1873 59.9917 67.9554 59.5345 67.5446 59.19C67.1471 58.8454 66.6237 58.6732 65.9745 58.6732C65.2987 58.6732 64.7621 58.8454 64.3646 59.19C63.9671 59.5345 63.722 59.9917 63.6292 60.5615Z" fill="#EEEEF6"/>
<path d="M74.4669 66.9024C73.9369 66.9024 73.4864 66.7301 73.1154 66.3856C72.7577 66.0278 72.5788 65.5706 72.5788 65.0141C72.5788 64.4575 72.7577 64.0069 73.1154 63.6624C73.4864 63.3046 73.9369 63.1257 74.4669 63.1257C75.0102 63.1257 75.4607 63.3046 75.8184 63.6624C76.1762 64.0069 76.355 64.4575 76.355 65.0141C76.355 65.5706 76.1762 66.0278 75.8184 66.3856C75.4607 66.7301 75.0102 66.9024 74.4669 66.9024Z" fill="#EEEEF6"/>
<path d="M81.2925 66.6241C80.6432 66.6241 80.1132 66.4253 79.7025 66.0278C79.305 65.617 79.1062 65.0737 79.1062 64.3979V58.8322H76.6417V56.7649H79.1062V53.7038H81.6105V56.7649H84.3135V58.8322H81.6105V63.9605C81.6105 64.3581 81.796 64.5569 82.167 64.5569H84.075V66.6241H81.2925Z" fill="#EEEEF6"/>
<path d="M90.7227 66.9024C89.7422 66.9024 88.8744 66.697 88.1191 66.2862C87.3771 65.8622 86.7941 65.2725 86.3701 64.5171C85.9593 63.7485 85.754 62.8474 85.754 61.8138V61.5753C85.754 60.5416 85.9593 59.6471 86.3701 58.8918C86.7808 58.1232 87.3572 57.5335 88.0992 57.1227C88.8412 56.6987 89.7025 56.4866 90.683 56.4866C91.6502 56.4866 92.4916 56.7053 93.2071 57.1426C93.9226 57.5666 94.4791 58.163 94.8766 58.9316C95.2741 59.6869 95.4729 60.5681 95.4729 61.5753V62.43H88.298C88.3245 63.1058 88.5762 63.6558 89.0532 64.0798C89.5302 64.5039 90.1132 64.7159 90.8022 64.7159C91.5045 64.7159 92.0212 64.5635 92.3525 64.2587C92.6838 63.9539 92.9355 63.616 93.1078 63.245L95.1549 64.3183C94.9694 64.6629 94.6978 65.0406 94.34 65.4514C93.9955 65.8489 93.5318 66.1934 92.9488 66.485C92.3658 66.7633 91.6237 66.9024 90.7227 66.9024ZM88.3179 60.5615H92.9289C92.8759 59.9917 92.644 59.5345 92.2333 59.19C91.8357 58.8454 91.3124 58.6732 90.6631 58.6732C89.9874 58.6732 89.4507 58.8454 89.0532 59.19C88.6557 59.5345 88.4106 59.9917 88.3179 60.5615Z" fill="#EEEEF6"/>
<path d="M102.333 66.9024C101.379 66.9024 100.511 66.7036 99.7291 66.3061C98.9606 65.9085 98.3511 65.3321 97.9006 64.5767C97.4501 63.8214 97.2249 62.907 97.2249 61.8337V61.5554C97.2249 60.482 97.4501 59.5676 97.9006 58.8123C98.3511 58.057 98.9606 57.4805 99.7291 57.083C100.511 56.6854 101.379 56.4866 102.333 56.4866C103.274 56.4866 104.082 56.6523 104.758 56.9836C105.433 57.3149 105.977 57.772 106.387 58.3551C106.811 58.9249 107.09 59.5743 107.222 60.3031L104.797 60.8199C104.744 60.4224 104.625 60.0646 104.44 59.7465C104.254 59.4285 103.989 59.1767 103.645 58.9912C103.313 58.8057 102.896 58.7129 102.392 58.7129C101.889 58.7129 101.432 58.8255 101.021 59.0508C100.624 59.2629 100.306 59.5875 100.067 60.0248C99.8418 60.4489 99.7291 60.9723 99.7291 61.5951V61.7939C99.7291 62.4167 99.8418 62.9468 100.067 63.3841C100.306 63.8082 100.624 64.1328 101.021 64.3581C101.432 64.5701 101.889 64.6761 102.392 64.6761C103.148 64.6761 103.717 64.484 104.102 64.0997C104.499 63.7021 104.751 63.1853 104.857 62.5493L107.282 63.1257C107.109 63.828 106.811 64.4707 106.387 65.0538C105.977 65.6236 105.433 66.0742 104.758 66.4055C104.082 66.7368 103.274 66.9024 102.333 66.9024Z" fill="#EEEEF6"/>
<path d="M109.347 66.6241V52.7099H111.852V57.9774H112.209C112.315 57.7654 112.481 57.5534 112.706 57.3414C112.932 57.1293 113.23 56.9571 113.601 56.8246C113.985 56.6788 114.469 56.6059 115.052 56.6059C115.82 56.6059 116.489 56.7848 117.059 57.1426C117.642 57.4871 118.092 57.9708 118.41 58.5936C118.728 59.2032 118.887 59.9188 118.887 60.7404V66.6241H116.383V60.9392C116.383 60.1971 116.198 59.6405 115.827 59.2695C115.469 58.8984 114.952 58.7129 114.276 58.7129C113.508 58.7129 112.912 58.9713 112.488 59.4881C112.064 59.9917 111.852 60.7007 111.852 61.615V66.6241H109.347Z" fill="#EEEEF6"/>
<g filter="url(#filter0_iiii_2124_30945)">
<path fill-rule="evenodd" clip-rule="evenodd" d="M69.4427 38.0157C66.6675 41.2341 62.5604 43.2714 57.9776 43.2714H46.5123C44.4861 43.2714 42.844 41.6291 42.844 39.6027C42.8439 36.0252 42.8438 30.7524 42.8438 28.1357C42.8438 19.7765 49.6194 13 57.9776 13C62.5604 13 66.6675 15.0373 69.4427 18.2557C67.1565 20.907 65.7741 24.3599 65.7741 28.1357C65.7741 31.9115 67.1565 35.3644 69.4427 38.0157ZM69.4427 38.0157C72.218 41.2341 76.3251 43.2714 80.9079 43.2714C89.2661 43.2714 96.0417 36.4949 96.0417 28.1357C96.0417 19.7765 89.2661 13 80.9079 13C76.3251 13 72.218 15.0373 69.4427 18.2557C71.729 20.907 73.1114 24.3599 73.1114 28.1357C73.1114 31.9115 71.729 35.3644 69.4427 38.0157ZM65.7738 28.1357C65.7738 32.442 62.2833 35.9329 57.9776 35.9329H53.8499C51.8237 35.9329 50.1814 34.2904 50.1814 32.2639V28.1357C50.1814 23.8294 53.6718 20.3385 57.9776 20.3385C62.2833 20.3385 65.7738 23.8294 65.7738 28.1357ZM88.7041 28.1357C88.7041 32.442 85.2137 35.9329 80.9079 35.9329C76.6022 35.9329 73.1117 32.442 73.1117 28.1357C73.1117 23.8294 76.6022 20.3385 80.9079 20.3385C85.2137 20.3385 88.7041 23.8294 88.7041 28.1357Z" fill="url(#paint0_linear_2124_30945)"/>
<path d="M69.4427 18.2557C67.1565 20.907 65.7741 24.3599 65.7741 28.1357C65.7741 31.9115 67.1565 35.3644 69.4427 38.0157C71.729 35.3644 73.1114 31.9115 73.1114 28.1357C73.1114 24.3599 71.729 20.907 69.4427 18.2557Z" fill="url(#paint1_linear_2124_30945)"/>
</g>
<path d="M80.9105 20.3385C76.6048 20.3385 73.1143 23.8294 73.1143 28.1357C73.1143 24.3599 71.7315 20.907 69.4453 18.2557C72.2206 15.0373 76.3276 13 80.9105 13V20.3385Z" fill="url(#paint2_linear_2124_30945)"/>
<path d="M57.9801 35.933C62.2859 35.933 65.7763 32.4421 65.7763 28.1358C65.7763 31.9116 67.1591 35.3645 69.4453 38.0158C66.6701 41.2342 62.563 43.2715 57.9801 43.2715V35.933Z" fill="url(#paint3_linear_2124_30945)"/>
<defs>
<filter id="filter0_iiii_2124_30945" x="41.9264" y="11.1654" width="55.9512" height="33.9407" filterUnits="userSpaceOnUse" color-interpolation-filters="sRGB">
<feFlood flood-opacity="0" result="BackgroundImageFix"/>
<feBlend mode="normal" in="SourceGraphic" in2="BackgroundImageFix" result="shape"/>
<feColorMatrix in="SourceAlpha" type="matrix" values="0 0 0 0 0 0 0 0 0 0 0 0 0 0 0 0 0 0 127 0" result="hardAlpha"/>
<feOffset dx="1.83462" dy="1.83462"/>
<feGaussianBlur stdDeviation="1.83462"/>
<feComposite in2="hardAlpha" operator="arithmetic" k2="-1" k3="1"/>
<feColorMatrix type="matrix" values="0 0 0 0 0.434236 0 0 0 0 0.451107 0 0 0 0 0.704167 0 0 0 0.4 0"/>
<feBlend mode="normal" in2="shape" result="effect1_innerShadow_2124_30945"/>
<feColorMatrix in="SourceAlpha" type="matrix" values="0 0 0 0 0 0 0 0 0 0 0 0 0 0 0 0 0 0 127 0" result="hardAlpha"/>
<feOffset dx="0.917311" dy="0.917311"/>
<feGaussianBlur stdDeviation="0.917311"/>
<feComposite in2="hardAlpha" operator="arithmetic" k2="-1" k3="1"/>
<feColorMatrix type="matrix" values="0 0 0 0 0.435294 0 0 0 0 0.45098 0 0 0 0 0.705882 0 0 0 0.25 0"/>
<feBlend mode="normal" in2="effect1_innerShadow_2124_30945" result="effect2_innerShadow_2124_30945"/>
<feColorMatrix in="SourceAlpha" type="matrix" values="0 0 0 0 0 0 0 0 0 0 0 0 0 0 0 0 0 0 127 0" result="hardAlpha"/>
<feOffset dx="-0.917311" dy="-1.83462"/>
<feGaussianBlur stdDeviation="1.83462"/>
<feComposite in2="hardAlpha" operator="arithmetic" k2="-1" k3="1"/>
<feColorMatrix type="matrix" values="0 0 0 0 0.0588235 0 0 0 0 0 0 0 0 0 0.227451 0 0 0 0.4 0"/>
<feBlend mode="normal" in2="effect2_innerShadow_2124_30945" result="effect3_innerShadow_2124_30945"/>
<feColorMatrix in="SourceAlpha" type="matrix" values="0 0 0 0 0 0 0 0 0 0 0 0 0 0 0 0 0 0 127 0" result="hardAlpha"/>
<feOffset dx="-0.917311" dy="-0.917311"/>
<feGaussianBlur stdDeviation="0.917311"/>
<feComposite in2="hardAlpha" operator="arithmetic" k2="-1" k3="1"/>
<feColorMatrix type="matrix" values="0 0 0 0 0.0591372 0 0 0 0 0 0 0 0 0 0.227451 0 0 0 0.25 0"/>
<feBlend mode="normal" in2="effect3_innerShadow_2124_30945" result="effect4_innerShadow_2124_30945"/>
</filter>
<linearGradient id="paint0_linear_2124_30945" x1="100.57" y1="28.1715" x2="39.5526" y2="28.1715" gradientUnits="userSpaceOnUse">
<stop stop-color="#EDEDED"/>
<stop offset="1" stop-color="#5A5A5A"/>
</linearGradient>
<linearGradient id="paint1_linear_2124_30945" x1="100.57" y1="28.1715" x2="39.5526" y2="28.1715" gradientUnits="userSpaceOnUse">
<stop stop-color="#EDEDED"/>
<stop offset="1" stop-color="#5A5A5A"/>
</linearGradient>
<linearGradient id="paint2_linear_2124_30945" x1="68.8145" y1="24.4664" x2="80.9109" y2="16.9573" gradientUnits="userSpaceOnUse">
<stop stop-color="#0E0529"/>
<stop offset="1" stop-color="#3257F5" stop-opacity="0"/>
</linearGradient>
<linearGradient id="paint3_linear_2124_30945" x1="71.2796" y1="32.321" x2="58.0261" y2="39.9757" gradientUnits="userSpaceOnUse">
<stop stop-color="#0E0529"/>
<stop offset="1" stop-color="#7424F2" stop-opacity="0"/>
</linearGradient>
</defs>
</svg>
