<svg width="182" height="58" viewBox="0 0 182 58" fill="none" xmlns="http://www.w3.org/2000/svg">
<g clip-path="url(#clip0_2124_30771)">
<path d="M51.3164 18.31C46.1564 21.3956 40.9357 24.0316 35.5632 44.7988C35.5632 20.5325 43.7083 15.0842 47.5298 12.7988L47.7702 16.7708L51.3164 18.31Z" fill="#F4F5F6"/>
<path d="M35.3181 29.0553V16.5645C36.2712 18.057 36.4965 19.4328 38.8945 20.4265C36.9681 22.7347 36.3577 26.033 35.3181 29.0553Z" fill="#F4F5F6"/>
<path d="M51.3164 26.4606C49.4701 25.9482 47.6294 25.4821 45.6378 24.4707C45.1532 24.8508 42.9245 27.921 42.5079 29.6436C45.1011 31.6327 47.4239 32.3514 49.0359 32.7988L48.2756 28.8977L51.3164 26.4606Z" fill="#F4F5F6"/>
<path d="M35.3103 16.541C36.7212 18.0023 37.1192 18.5721 38.8867 20.4029C36.9603 22.711 36.3499 26.0093 35.3103 29.0318C34.2707 26.0093 33.6603 22.711 31.7339 20.4029C33.5014 18.5721 33.8994 18.0023 35.3103 16.541Z" fill="#F4F5F6"/>
<path d="M19.3171 18.31C24.4771 21.3956 29.6977 24.0316 35.0703 44.7988C35.0703 20.5325 26.9252 15.0842 23.1037 12.7988L22.8633 16.7708L19.3171 18.31Z" fill="#F4F5F6"/>
<path d="M19.3165 26.4606C21.1628 25.9482 23.0035 25.4821 24.995 24.4707C25.4797 24.8508 27.7085 27.921 28.125 29.6436C25.5318 31.6327 23.209 32.3514 21.597 32.7988L22.3573 28.8977L19.3165 26.4606Z" fill="#F4F5F6"/>
</g>
<path d="M78.0489 21.8408L72.9289 35.8008H69.5289L64.4089 21.8408H67.4089L71.2489 32.9408L75.0689 21.8408H78.0489ZM89.6277 30.0208C89.6277 30.4208 89.601 30.7808 89.5477 31.1008H81.4477C81.5143 31.9008 81.7943 32.5274 82.2877 32.9808C82.781 33.4341 83.3877 33.6608 84.1077 33.6608C85.1477 33.6608 85.8877 33.2141 86.3277 32.3208H89.3477C89.0277 33.3874 88.4143 34.2674 87.5077 34.9608C86.601 35.6408 85.4877 35.9808 84.1677 35.9808C83.101 35.9808 82.141 35.7474 81.2877 35.2808C80.4477 34.8008 79.7877 34.1274 79.3077 33.2608C78.841 32.3941 78.6077 31.3941 78.6077 30.2608C78.6077 29.1141 78.841 28.1074 79.3077 27.2408C79.7743 26.3741 80.4277 25.7074 81.2677 25.2408C82.1077 24.7741 83.0743 24.5408 84.1677 24.5408C85.221 24.5408 86.161 24.7674 86.9877 25.2208C87.8277 25.6741 88.4743 26.3208 88.9277 27.1608C89.3943 27.9874 89.6277 28.9408 89.6277 30.0208ZM86.7277 29.2208C86.7143 28.5008 86.4543 27.9274 85.9477 27.5008C85.441 27.0608 84.821 26.8408 84.0877 26.8408C83.3943 26.8408 82.8077 27.0541 82.3277 27.4808C81.861 27.8941 81.5743 28.4741 81.4677 29.2208H86.7277ZM97.4114 24.5608C98.7314 24.5608 99.7981 24.9808 100.611 25.8208C101.425 26.6474 101.831 27.8074 101.831 29.3008V35.8008H99.0314V29.6808C99.0314 28.8008 98.8114 28.1274 98.3714 27.6608C97.9314 27.1808 97.3314 26.9408 96.5714 26.9408C95.7981 26.9408 95.1847 27.1808 94.7314 27.6608C94.2914 28.1274 94.0714 28.8008 94.0714 29.6808V35.8008H91.2714V24.7208H94.0714V26.1008C94.4447 25.6208 94.9181 25.2474 95.4914 24.9808C96.0781 24.7008 96.7181 24.5608 97.4114 24.5608ZM103.374 30.2208C103.374 29.1008 103.594 28.1074 104.034 27.2408C104.487 26.3741 105.094 25.7074 105.854 25.2408C106.627 24.7741 107.487 24.5408 108.434 24.5408C109.261 24.5408 109.981 24.7074 110.594 25.0408C111.221 25.3741 111.721 25.7941 112.094 26.3008V24.7208H114.914V35.8008H112.094V34.1808C111.734 34.7008 111.234 35.1341 110.594 35.4808C109.967 35.8141 109.241 35.9808 108.414 35.9808C107.481 35.9808 106.627 35.7408 105.854 35.2608C105.094 34.7808 104.487 34.1074 104.034 33.2408C103.594 32.3608 103.374 31.3541 103.374 30.2208ZM112.094 30.2608C112.094 29.5808 111.961 29.0008 111.694 28.5208C111.427 28.0274 111.067 27.6541 110.614 27.4008C110.161 27.1341 109.674 27.0008 109.154 27.0008C108.634 27.0008 108.154 27.1274 107.714 27.3808C107.274 27.6341 106.914 28.0074 106.634 28.5008C106.367 28.9808 106.234 29.5541 106.234 30.2208C106.234 30.8874 106.367 31.4741 106.634 31.9808C106.914 32.4741 107.274 32.8541 107.714 33.1208C108.167 33.3874 108.647 33.5208 109.154 33.5208C109.674 33.5208 110.161 33.3941 110.614 33.1408C111.067 32.8741 111.427 32.5008 111.694 32.0208C111.961 31.5274 112.094 30.9408 112.094 30.2608ZM120.049 33.5808H124.649V35.8008H117.249V21.8408H120.049V33.5808ZM125.308 30.2208C125.308 29.1008 125.528 28.1074 125.968 27.2408C126.422 26.3741 127.028 25.7074 127.788 25.2408C128.562 24.7741 129.422 24.5408 130.368 24.5408C131.195 24.5408 131.915 24.7074 132.528 25.0408C133.155 25.3741 133.655 25.7941 134.028 26.3008V24.7208H136.848V35.8008H134.028V34.1808C133.668 34.7008 133.168 35.1341 132.528 35.4808C131.902 35.8141 131.175 35.9808 130.348 35.9808C129.415 35.9808 128.562 35.7408 127.788 35.2608C127.028 34.7808 126.422 34.1074 125.968 33.2408C125.528 32.3608 125.308 31.3541 125.308 30.2208ZM134.028 30.2608C134.028 29.5808 133.895 29.0008 133.628 28.5208C133.362 28.0274 133.002 27.6541 132.548 27.4008C132.095 27.1341 131.608 27.0008 131.088 27.0008C130.568 27.0008 130.088 27.1274 129.648 27.3808C129.208 27.6341 128.848 28.0074 128.568 28.5008C128.302 28.9808 128.168 29.5541 128.168 30.2208C128.168 30.8874 128.302 31.4741 128.568 31.9808C128.848 32.4741 129.208 32.8541 129.648 33.1208C130.102 33.3874 130.582 33.5208 131.088 33.5208C131.608 33.5208 132.095 33.3941 132.548 33.1408C133.002 32.8741 133.362 32.5008 133.628 32.0208C133.895 31.5274 134.028 30.9408 134.028 30.2608ZM141.983 26.3408C142.343 25.8074 142.836 25.3741 143.463 25.0408C144.103 24.7074 144.83 24.5408 145.643 24.5408C146.59 24.5408 147.443 24.7741 148.203 25.2408C148.976 25.7074 149.583 26.3741 150.023 27.2408C150.476 28.0941 150.703 29.0874 150.703 30.2208C150.703 31.3541 150.476 32.3608 150.023 33.2408C149.583 34.1074 148.976 34.7808 148.203 35.2608C147.443 35.7408 146.59 35.9808 145.643 35.9808C144.816 35.9808 144.09 35.8208 143.463 35.5008C142.85 35.1674 142.356 34.7408 141.983 34.2208V35.8008H139.183V21.0008H141.983V26.3408ZM147.843 30.2208C147.843 29.5541 147.703 28.9808 147.423 28.5008C147.156 28.0074 146.796 27.6341 146.343 27.3808C145.903 27.1274 145.423 27.0008 144.903 27.0008C144.396 27.0008 143.916 27.1341 143.463 27.4008C143.023 27.6541 142.663 28.0274 142.383 28.5208C142.116 29.0141 141.983 29.5941 141.983 30.2608C141.983 30.9274 142.116 31.5074 142.383 32.0008C142.663 32.4941 143.023 32.8741 143.463 33.1408C143.916 33.3941 144.396 33.5208 144.903 33.5208C145.423 33.5208 145.903 33.3874 146.343 33.1208C146.796 32.8541 147.156 32.4741 147.423 31.9808C147.703 31.4874 147.843 30.9008 147.843 30.2208ZM156.578 35.9808C155.671 35.9808 154.858 35.8208 154.138 35.5008C153.418 35.1674 152.844 34.7208 152.418 34.1608C152.004 33.6008 151.778 32.9808 151.738 32.3008H154.558C154.611 32.7274 154.818 33.0808 155.178 33.3608C155.551 33.6408 156.011 33.7808 156.558 33.7808C157.091 33.7808 157.504 33.6741 157.798 33.4608C158.104 33.2474 158.258 32.9741 158.258 32.6408C158.258 32.2808 158.071 32.0141 157.698 31.8408C157.338 31.6541 156.758 31.4541 155.958 31.2408C155.131 31.0408 154.451 30.8341 153.918 30.6208C153.398 30.4074 152.944 30.0808 152.558 29.6408C152.184 29.2008 151.998 28.6074 151.998 27.8608C151.998 27.2474 152.171 26.6874 152.518 26.1808C152.878 25.6741 153.384 25.2741 154.038 24.9808C154.704 24.6874 155.484 24.5408 156.378 24.5408C157.698 24.5408 158.751 24.8741 159.538 25.5408C160.324 26.1941 160.758 27.0808 160.838 28.2008H158.158C158.118 27.7608 157.931 27.4141 157.598 27.1608C157.278 26.8941 156.844 26.7608 156.298 26.7608C155.791 26.7608 155.398 26.8541 155.118 27.0408C154.851 27.2274 154.718 27.4874 154.718 27.8208C154.718 28.1941 154.904 28.4808 155.278 28.6808C155.651 28.8674 156.231 29.0608 157.018 29.2608C157.818 29.4608 158.478 29.6674 158.998 29.8808C159.518 30.0941 159.964 30.4274 160.338 30.8808C160.724 31.3208 160.924 31.9074 160.938 32.6408C160.938 33.2808 160.758 33.8541 160.398 34.3608C160.051 34.8674 159.544 35.2674 158.878 35.5608C158.224 35.8408 157.458 35.9808 156.578 35.9808Z" fill="#F4F5F6"/>
<defs>
<clipPath id="clip0_2124_30771">
<rect width="32" height="32" fill="white" transform="translate(19.3281 12.8008)"/>
</clipPath>
</defs>
</svg>
