<svg width="160" height="52" viewBox="0 0 160 52" fill="none" xmlns="http://www.w3.org/2000/svg">
<path d="M35.8581 33.8965V20.4894L29.736 30.9781H28.99L22.8679 20.4894V33.8965H21.7488V18.3171H22.8679L29.363 29.464L35.8581 18.3171H36.9772V33.8965H35.8581ZM51.4349 32.8871V33.8965H41.056V18.3171H51.2375V19.3264H42.1751V25.4485H50.0964V26.414H42.1751V32.8871H51.4349ZM65.3753 19.3264H59.6702V33.8965H58.5511V19.3264H52.846V18.3171H65.3753V19.3264ZM71.1707 18.3171H72.1361L78.719 33.8965H77.5341L75.3617 28.7619H67.9231L65.7508 33.8965H64.5439L71.1707 18.3171ZM75.0545 27.8403L71.6534 19.6775L68.1864 27.8403H75.0545ZM80.514 33.8965V32.0313H81.4795V33.8965H80.514ZM90.8087 34.0062C89.7261 34.0062 88.7387 33.7868 87.8464 33.3479C86.954 32.8944 86.186 32.2947 85.5424 31.5486C84.8987 30.8025 84.4013 29.9614 84.0503 29.0252C83.6992 28.0743 83.5236 27.1015 83.5236 26.1068C83.5236 25.0681 83.7065 24.0807 84.0722 23.1445C84.4379 22.1936 84.9499 21.3525 85.6082 20.6211C86.2811 19.875 87.0564 19.2899 87.9341 18.8656C88.8265 18.4268 89.792 18.2073 90.8306 18.2073C91.9277 18.2073 92.9152 18.4341 93.7929 18.8876C94.6852 19.3411 95.4532 19.9481 96.0969 20.7088C96.7405 21.4695 97.2379 22.318 97.589 23.2542C97.9401 24.1904 98.1156 25.1413 98.1156 26.1068C98.1156 27.16 97.9328 28.1621 97.5671 29.1129C97.2013 30.0492 96.682 30.8903 96.0091 31.6364C95.3508 32.3678 94.5755 32.9456 93.6832 33.3699C92.8055 33.7941 91.8473 34.0062 90.8087 34.0062ZM84.6427 26.1068C84.6427 26.9991 84.7963 27.8549 85.1035 28.6741C85.4107 29.4933 85.8349 30.2247 86.3762 30.8684C86.9321 31.512 87.5831 32.024 88.3291 32.4044C89.0898 32.7847 89.9236 32.9749 90.8306 32.9749C91.7522 32.9749 92.5933 32.7774 93.354 32.3824C94.1147 31.9875 94.7657 31.4608 95.3069 30.8025C95.8482 30.1443 96.2578 29.4128 96.5357 28.6083C96.8283 27.7891 96.9746 26.9552 96.9746 26.1068C96.9746 25.2144 96.821 24.3587 96.5138 23.5395C96.2212 22.7203 95.797 21.9888 95.2411 21.3452C94.6852 20.7015 94.0269 20.1895 93.2663 19.8092C92.5202 19.4288 91.7083 19.2387 90.8306 19.2387C89.8944 19.2387 89.0459 19.4361 88.2852 19.8311C87.5245 20.2261 86.8736 20.7527 86.3323 21.411C85.8057 22.0693 85.3888 22.808 85.0816 23.6272C84.789 24.4318 84.6427 25.2583 84.6427 26.1068ZM115.23 33.8965V20.4894L109.107 30.9781H108.361L102.239 20.4894V33.8965H101.12V18.3171H102.239L108.734 29.464L115.23 18.3171H116.349V33.8965H115.23ZM121.546 20.4016V33.8965H120.427V18.3171H121.349L132.211 32.0313V18.3171H133.33V33.8965H132.233L121.546 20.4016ZM137.399 33.8965V18.3171H138.518V33.8965H137.399Z" fill="#F5F7EF"/>
</svg>
