<svg width="104" height="91" viewBox="0 0 104 91" fill="none" xmlns="http://www.w3.org/2000/svg">
<path d="M55.781 37.537C55.781 39.7137 54.0141 41.4784 51.8344 41.4784C49.6547 41.4784 47.8877 39.7137 47.8877 37.537C47.8877 35.3602 49.6547 33.5956 51.8344 33.5956C54.0141 33.5956 55.781 35.3602 55.781 37.537Z" fill="#F5F7EF"/>
<path fill-rule="evenodd" clip-rule="evenodd" d="M55.781 37.537C55.781 39.7137 54.0141 41.4784 51.8344 41.4784C49.6547 41.4784 47.8877 39.7137 47.8877 37.537C47.8877 35.3602 49.6547 33.5956 51.8344 33.5956C54.0141 33.5956 55.781 35.3602 55.781 37.537Z" fill="#F5F7EF"/>
<path d="M51.8344 27.6835C46.3852 27.6835 41.9677 32.0951 41.9677 37.537C41.9677 39.0787 42.3223 40.5377 42.9544 41.8372M51.8344 27.6835C57.2836 27.6835 61.701 32.0951 61.701 37.537C61.701 39.0787 61.3465 40.5377 60.7144 41.8372M51.8344 27.6835V19.8008M51.8344 19.8008L22.2344 19.8008L37.0344 45.4008M51.8344 19.8008L81.4344 19.8008L66.6344 45.4008M37.0344 45.4008L51.8344 71.0008L66.6344 45.4008M37.0344 45.4008L42.9544 41.8372M42.9544 41.8372C44.5535 45.1244 47.9289 47.3904 51.8344 47.3904C55.7398 47.3904 59.1153 45.1244 60.7144 41.8372M66.6344 45.4008L60.7144 41.8372M55.781 37.537C55.781 39.7137 54.0141 41.4784 51.8344 41.4784C49.6547 41.4784 47.8877 39.7137 47.8877 37.537C47.8877 35.3602 49.6547 33.5956 51.8344 33.5956C54.0141 33.5956 55.781 35.3602 55.781 37.537Z" stroke="#F5F7EF" stroke-width="1.97069"/>
</svg>
