<svg width="201" height="84" viewBox="0 0 201 84" fill="none" xmlns="http://www.w3.org/2000/svg">
<path d="M48.1104 54.2224C49.6879 54.2398 51.2531 53.944 52.7155 53.3524C54.1779 52.7607 55.5084 51.8848 56.63 50.7755C57.7517 49.6661 58.6421 48.3453 59.2498 46.8895C59.8575 45.4337 60.1704 43.8718 60.1704 42.2942C60.1704 40.7166 59.8575 39.1547 59.2498 37.6989C58.6421 36.2431 57.7517 34.9223 56.63 33.8129C55.5084 32.7036 54.1779 31.8277 52.7155 31.236C51.2531 30.6444 49.6879 30.3486 48.1104 30.366C44.9695 30.4005 41.969 31.6724 39.7602 33.9056C37.5514 36.1388 36.3125 39.1531 36.3125 42.2942C36.3125 45.4353 37.5514 48.4496 39.7602 50.6828C41.969 52.916 44.9695 54.1879 48.1104 54.2224Z" stroke="url(#paint0_linear_2124_32489)" stroke-width="5.76" stroke-miterlimit="10" stroke-linecap="round"/>
<path d="M30.4304 55.5087C27.6052 51.6932 26.0882 47.0671 26.1056 42.3195C26.123 37.572 27.6738 32.9571 30.5269 29.1624M61.2507 60.0807C57.4368 62.9138 52.8088 64.4372 48.0577 64.4234C43.3067 64.4097 38.6876 62.8595 34.8901 60.0044M65.7637 29.2258C68.6027 33.0296 70.1365 37.6489 70.1365 42.3953C70.1365 47.1417 68.6027 51.7611 65.7637 55.5648M34.9779 24.7359C38.7912 21.8978 43.4206 20.37 48.1741 20.3809C52.9276 20.3918 57.5499 21.9408 61.3501 24.7964" stroke="url(#paint1_linear_2124_32489)" stroke-width="2.88" stroke-miterlimit="10"/>
<path d="M97.4027 53.9064C94.992 53.9064 93.104 53.2238 91.7387 51.8584C90.3947 50.4931 89.7227 48.5838 89.7227 46.1304L89.7227 45.1064C89.7227 43.8904 89.8933 42.8024 90.2347 41.8424C90.5973 40.8824 91.1093 40.0718 91.7707 39.4104C92.4533 38.7278 93.264 38.2158 94.2027 37.8744C95.1413 37.5118 96.208 37.3304 97.4027 37.3304C99.8133 37.3304 101.691 38.0131 103.035 39.3784C104.4 40.7438 105.083 42.6531 105.083 45.1064V46.1304C105.083 47.3464 104.901 48.4344 104.539 49.3944C104.197 50.3544 103.685 51.1758 103.003 51.8584C102.341 52.5198 101.531 53.0318 100.571 53.3944C99.632 53.7358 98.576 53.9064 97.4027 53.9064ZM97.4027 50.4504C98.6187 50.4504 99.5467 50.0984 100.187 49.3944C100.848 48.6904 101.179 47.6024 101.179 46.1304V45.1064C101.179 43.6558 100.837 42.5784 100.155 41.8744C99.4933 41.1491 98.576 40.7864 97.4027 40.7864C96.1867 40.7864 95.248 41.1384 94.5867 41.8424C93.9467 42.5464 93.6267 43.6344 93.6267 45.1064V46.1304C93.6267 47.5811 93.9573 48.6691 94.6187 49.3944C95.3013 50.0984 96.2293 50.4504 97.4027 50.4504Z" fill="#F5F7EF"/>
<path d="M107.636 37.6184H110.548L110.836 39.3784C111.391 38.7171 112.063 38.2158 112.852 37.8744C113.663 37.5118 114.548 37.3304 115.508 37.3304C116.596 37.3304 117.556 37.5544 118.388 38.0024C119.242 38.4291 119.924 39.0691 120.436 39.9224C120.991 39.0904 121.716 38.4504 122.612 38.0024C123.508 37.5544 124.522 37.3304 125.652 37.3304C127.466 37.3304 128.916 37.9171 130.004 39.0904C131.092 40.2638 131.636 42.0131 131.636 44.3384V53.6184H127.924V44.3384C127.924 43.1438 127.647 42.2584 127.092 41.6824C126.559 41.0851 125.812 40.7864 124.852 40.7864C123.892 40.7864 123.092 41.1171 122.452 41.7784C121.812 42.4184 121.492 43.2718 121.492 44.3384V53.6184H117.78V44.3384C117.78 43.1651 117.503 42.2798 116.948 41.6824C116.394 41.0851 115.647 40.7864 114.708 40.7864C113.748 40.7864 112.959 41.0958 112.34 41.7144C111.722 42.3331 111.391 43.1544 111.348 44.1784V53.6184H107.636V37.6184Z" fill="#F5F7EF"/>
<path d="M134.996 37.6184H137.908L138.196 39.4104C139.391 38.0238 141.044 37.3304 143.156 37.3304C145.119 37.3304 146.644 37.9171 147.732 39.0904C148.842 40.2424 149.396 41.9918 149.396 44.3384V53.6184H145.684V44.3384C145.684 43.1651 145.396 42.2798 144.82 41.6824C144.266 41.0851 143.498 40.7864 142.516 40.7864C141.364 40.7864 140.447 41.0958 139.764 41.7144C139.103 42.3331 138.751 43.1544 138.708 44.1784V53.6184H134.996V37.6184Z" fill="#F5F7EF"/>
<path d="M152.923 37.6184H156.635V53.6184H152.923V37.6184ZM154.779 35.6984C154.096 35.6984 153.52 35.4744 153.051 35.0264C152.603 34.5571 152.379 33.9811 152.379 33.2984C152.379 32.6158 152.603 32.0504 153.051 31.6024C153.52 31.1331 154.096 30.8984 154.779 30.8984C155.44 30.8984 156.005 31.1331 156.475 31.6024C156.944 32.0504 157.179 32.6158 157.179 33.2984C157.179 33.9811 156.944 34.5571 156.475 35.0264C156.005 35.4744 155.44 35.6984 154.779 35.6984Z" fill="#F5F7EF"/>
<path d="M173.526 48.2424L169.91 53.6184H165.75L171.286 45.5224L166.006 37.6184H170.294L173.654 42.7064L177.078 37.6184H181.174L175.894 45.3944L181.43 53.6184H177.142L173.526 48.2424Z" fill="#F5F7EF"/>
<defs>
<linearGradient id="paint0_linear_2124_32489" x1="40.6555" y1="30.366" x2="61.0344" y2="35.2879" gradientUnits="userSpaceOnUse">
<stop stop-color="#00F0EC"/>
<stop offset="1" stop-color="#16FFC5"/>
</linearGradient>
<linearGradient id="paint1_linear_2124_32489" x1="34.3616" y1="20.3813" x2="71.9744" y2="29.462" gradientUnits="userSpaceOnUse">
<stop stop-color="#00F0EC"/>
<stop offset="1" stop-color="#16FFC5"/>
</linearGradient>
</defs>
</svg>
