<svg width="223" height="59" viewBox="0 0 223 59" fill="none" xmlns="http://www.w3.org/2000/svg">
<g clip-path="url(#clip0_2124_32519)">
<path d="M19.4844 15.5465C19.4844 14.9361 19.7252 14.6309 20.2068 14.6309H40.4738C40.9301 14.6309 41.1584 14.9095 41.1584 15.4669L41.1203 20.0847C41.1203 20.8013 40.8034 21.1596 40.1697 21.1596H28.9905C28.4074 21.1596 28.1159 21.4117 28.1159 21.916V25.658C28.1159 26.1888 28.3441 26.4542 28.8004 26.4542H35.7588C36.2658 26.4542 36.5194 26.7196 36.5194 27.2503V32.1072C36.5194 32.5582 36.2912 32.7839 35.8348 32.7839H28.7243C28.3187 32.7839 28.1159 32.9829 28.1159 33.381V43.0148C28.1159 43.7845 27.6977 44.1694 26.8611 44.1694H20.511C20.1054 44.1694 19.8266 44.0898 19.6745 43.9305C19.5477 43.7713 19.4844 43.5191 19.4844 43.174V15.5465Z" fill="black"/>
<path d="M43.3008 15.5465C43.3008 15.2811 43.3769 15.0688 43.529 14.9095C43.6811 14.7238 43.9218 14.6309 44.2514 14.6309H66.9901C67.3196 14.6309 67.5605 14.7238 67.7126 14.9095C67.8646 15.0688 67.9407 15.2811 67.9407 15.5465V20.2838C67.9407 20.788 67.6619 21.0402 67.1042 21.0402H60.3738C60.0697 21.0402 59.9175 21.1729 59.9175 21.4382V43.2935C59.9175 43.8774 59.6767 44.1694 59.1951 44.1694H51.9705C51.5142 44.1694 51.2859 43.9039 51.2859 43.3731V21.5975C51.2859 21.2259 51.1465 21.0402 50.8678 21.0402H44.1754C43.5924 21.0402 43.3008 20.788 43.3008 20.2838V15.5465Z" fill="black"/>
<path d="M109.011 14.6309C109.518 14.6309 109.86 14.7901 110.038 15.1086C110.24 15.4005 110.278 15.7721 110.152 16.2232L102.433 43.174C102.204 43.8376 101.748 44.1694 101.064 44.1694H95.8164C95.0813 44.1694 94.6249 43.8376 94.4474 43.174L90.493 29.1612C90.4169 28.8428 90.3281 28.6835 90.2267 28.6835C90.1254 28.6569 90.0113 28.8428 89.8846 29.2409L85.9681 43.174C85.7905 43.8376 85.3343 44.1694 84.5991 44.1694H79.1616C78.4772 44.1694 78.0209 43.8376 77.7928 43.174L70.0358 16.2232C69.9344 15.7721 69.9724 15.4005 70.1498 15.1086C70.3527 14.7901 70.6948 14.6309 71.1765 14.6309H77.4505C77.8562 14.6309 78.135 14.7105 78.287 14.8697C78.4646 15.0024 78.5913 15.2015 78.6673 15.4669L82.6979 30.2361C82.7739 30.528 82.85 30.6873 82.926 30.7138C83.0275 30.7138 83.1035 30.6076 83.1542 30.3953L87.1468 15.4669C87.1975 15.2015 87.3115 15.0024 87.4889 14.8697C87.6665 14.7105 87.9579 14.6309 88.3636 14.6309H93.687C94.0926 14.6309 94.3714 14.7105 94.5236 14.8697C94.701 15.0024 94.8277 15.2015 94.9037 15.4669L99.0865 30.5943C99.1372 30.7536 99.2132 30.8465 99.3146 30.873C99.416 30.8996 99.4793 30.8332 99.5047 30.6739L103.383 15.4669C103.434 15.2015 103.548 15.0024 103.725 14.8697C103.903 14.7105 104.194 14.6309 104.6 14.6309H109.011Z" fill="black"/>
<path fill-rule="evenodd" clip-rule="evenodd" d="M188.674 15.8619C186.057 15.8619 183.826 16.44 181.94 17.5549L181.929 17.5605C180.036 18.6564 178.564 20.2019 177.502 22.225C176.446 24.2387 175.895 26.6431 175.895 29.478C175.895 32.2882 176.433 34.6833 177.467 36.7002C178.5 38.689 179.956 40.2192 181.847 41.315C183.733 42.3818 185.995 42.9388 188.674 42.9388C191.323 42.9388 193.554 42.3706 195.412 41.2824L195.417 41.279C197.312 40.1825 198.769 38.6502 199.803 36.6581C200.835 34.6698 201.374 32.2895 201.374 29.478C201.374 26.6431 200.823 24.2387 199.767 22.225L199.761 22.215C198.727 20.1972 197.27 18.6549 195.378 17.5605L195.363 17.5516C193.506 16.4402 191.29 15.8619 188.674 15.8619ZM180.718 15.4262C183.029 14.0619 185.695 13.4004 188.674 13.4004C191.651 13.4004 194.304 14.0612 196.592 15.4277C198.893 16.7613 200.672 18.6529 201.915 21.0749C203.19 23.5052 203.804 26.3193 203.804 29.478C203.804 32.6102 203.203 35.3985 201.955 37.8035C200.708 40.2037 198.928 42.0821 196.626 43.4146C194.338 44.7545 191.671 45.4004 188.674 45.4004C185.654 45.4004 182.967 44.7696 180.656 43.4607L180.647 43.4552C178.343 42.1226 176.561 40.2434 175.314 37.8422L175.312 37.837C174.066 35.4094 173.465 32.6106 173.465 29.478C173.465 26.3171 174.08 23.5014 175.356 21.07C176.626 18.6499 178.417 16.7594 180.718 15.4262ZM119.544 16.2496H127.502C128.4 16.2496 129.119 16.2624 129.663 16.2871L129.682 16.2878C133.028 16.3874 135.69 17.0332 137.728 18.1548L137.733 18.1576C139.822 19.294 141.337 20.8065 142.328 22.6912L142.331 22.6967C143.336 24.5849 143.856 26.795 143.856 29.3616C143.856 31.9493 143.325 34.2289 142.287 36.2289C141.268 38.1692 139.738 39.7043 137.655 40.8371C135.6 41.9554 132.961 42.5512 129.679 42.5512H119.544V16.2496ZM117.748 14.3366C118.249 13.8661 118.911 13.788 119.378 13.788H127.502C128.413 13.788 129.169 13.8009 129.763 13.8276C133.356 13.9356 136.418 14.6332 138.886 15.9904C141.355 17.3343 143.235 19.1801 144.472 21.5316C145.694 23.8292 146.287 26.4509 146.287 29.3616C146.287 32.3032 145.679 34.9844 144.437 37.3771L144.434 37.3823C143.174 39.7826 141.283 41.6579 138.806 43.0055C136.301 44.3681 133.238 45.0128 129.679 45.0128H119.456C118.887 45.0128 118.239 44.8645 117.743 44.3535C117.252 43.8467 117.113 43.1907 117.113 42.6191V15.9879C117.113 15.54 117.194 14.8288 117.748 14.3366ZM156.04 16.2496C156.023 16.2788 156.005 16.3161 155.986 16.3625L146.667 42.5512H151.81L153.31 38.2478C153.411 37.9112 153.609 37.5638 153.959 37.3087C154.317 37.0467 154.714 36.9692 155.049 36.9692H163.29C163.55 36.9692 164.233 37.015 164.647 37.6044C164.807 37.7944 164.918 38.002 164.999 38.2019L165.012 38.2328L166.48 42.5512H173.147L163.938 16.491C163.904 16.4025 163.872 16.3471 163.851 16.3147C163.828 16.2828 163.812 16.2705 163.812 16.2705C163.812 16.2705 163.807 16.2663 163.793 16.2624C163.779 16.2579 163.743 16.2496 163.679 16.2496H156.04ZM154.471 14.3348C154.944 13.8897 155.547 13.788 156.021 13.788H163.679C164.232 13.788 164.781 13.9353 165.256 14.2904C165.722 14.6395 166.025 15.1205 166.216 15.6322L166.222 15.6507L175.545 42.0293C175.758 42.5832 175.737 43.1504 175.572 43.6685C175.487 43.9796 175.319 44.3306 174.997 44.6061C174.645 44.9071 174.231 45.0128 173.863 45.0128H166.244C165.82 45.0128 165.362 44.9041 164.964 44.5967C164.578 44.2987 164.354 43.8974 164.233 43.5034L162.848 39.4307H155.474L154.02 43.6044C153.879 44.0204 153.618 44.3404 153.333 44.5784L153.323 44.5862L153.314 44.5937C152.862 44.9539 152.318 45.0128 151.939 45.0128H146.031C145.703 45.0128 145.351 44.9364 145.025 44.7333C144.699 44.5302 144.474 44.247 144.326 43.9516L144.315 43.9311L144.306 43.9102C143.993 43.2235 144.088 42.5119 144.308 41.921L153.723 15.4616L153.736 15.4308C153.892 15.0572 154.117 14.644 154.471 14.3348ZM163.287 39.4307H163.292H163.29H163.287ZM185.899 20.0529C186.724 19.5801 187.664 19.3701 188.674 19.3701C189.672 19.3701 190.604 19.5813 191.419 20.0586C192.24 20.5383 192.869 21.2452 193.325 22.1207C194.197 23.7971 194.553 26.3557 194.553 29.5942C194.553 32.7184 194.201 35.1937 193.311 36.7843C192.359 38.5343 190.714 39.3532 188.674 39.3532C186.595 39.3532 184.909 38.5464 183.925 36.7925L183.915 36.776C183.057 35.1916 182.716 32.7212 182.716 29.5942C182.716 26.3557 183.072 23.7971 183.944 22.1207L183.953 22.1048C184.423 21.2305 185.068 20.5284 185.899 20.0529ZM186.091 23.2755C185.513 24.3919 185.146 26.4312 185.146 29.5942C185.146 32.6609 185.503 34.5817 186.042 35.5839C186.509 36.4094 187.284 36.8916 188.674 36.8916C189.998 36.8916 190.736 36.4209 191.184 35.5924L191.193 35.5756C191.751 34.5817 192.123 32.6669 192.123 29.5942C192.123 26.4237 191.753 24.3822 191.175 23.2676C190.903 22.7476 190.576 22.4078 190.203 22.1898C189.827 21.9693 189.333 21.8316 188.674 21.8316C187.998 21.8316 187.487 21.9705 187.095 22.1954C186.709 22.4166 186.371 22.7587 186.091 23.2755ZM126.266 20.5178C126.601 20.0497 127.099 19.874 127.541 19.874H128.474C130.297 19.874 131.906 20.2087 133.229 20.9625C134.559 21.7204 135.538 22.8474 136.157 24.2947C136.763 25.6879 137.036 27.3686 137.036 29.284C137.036 31.437 136.697 33.2949 135.928 34.7734C135.191 36.2382 134.105 37.3346 132.674 38.0002C131.312 38.6343 129.73 38.9268 127.969 38.9268H127.696C127.311 38.9268 126.802 38.8204 126.406 38.3973C126.022 37.9865 125.937 37.4821 125.937 37.1146V21.6475C125.937 21.3545 125.983 20.9126 126.266 20.5178ZM128.368 22.3356V36.4592C129.689 36.4185 130.777 36.1743 131.659 35.7635C132.558 35.3452 133.258 34.6616 133.765 33.65L133.774 33.6317C134.297 32.6309 134.605 31.2099 134.605 29.284C134.605 27.5836 134.36 26.2681 133.931 25.2846L133.927 25.2757C133.509 24.2959 132.883 23.5896 132.037 23.1078C131.183 22.6212 130.02 22.3356 128.474 22.3356H128.368ZM158.224 23.1092C158.487 22.8903 158.807 22.7814 159.131 22.7814C159.454 22.7814 159.774 22.8903 160.037 23.1092C160.281 23.3109 160.415 23.5549 160.489 23.7428L160.5 23.7676L162.851 30.4486L162.859 30.476C162.955 30.7952 163.084 31.3675 162.83 31.9277C162.499 32.6635 161.801 32.8408 161.347 32.8408H156.916C156.507 32.8408 155.743 32.716 155.374 31.9422C155.077 31.3222 155.264 30.6932 155.388 30.3642L157.763 23.7635L157.772 23.7428C157.847 23.5549 157.98 23.3109 158.224 23.1092ZM159.121 27.181L157.97 30.3792H160.246L159.121 27.181ZM156.916 30.3792H156.917H156.916Z" fill="#FDC307"/>
</g>
<defs>
<clipPath id="clip0_2124_32519">
<rect width="184.32" height="32" fill="white" transform="translate(19.4844 13.4004)"/>
</clipPath>
</defs>
</svg>
