<svg width="187" height="58" viewBox="0 0 187 58" fill="none" xmlns="http://www.w3.org/2000/svg">
<g clip-path="url(#clip0_2124_30924)">
<path fill-rule="evenodd" clip-rule="evenodd" d="M62.918 19.8437H66.4454V22.027H66.6135C66.9826 21.5902 67.4529 21.1537 67.9905 20.7843C68.8973 20.1461 70.2073 19.5078 71.988 19.5078C76.5229 19.5078 80.0498 23.0349 80.0498 28.4094C80.0498 33.7842 76.5229 37.3111 71.988 37.3111C70.2073 37.3111 68.8973 36.7065 67.9905 36.0683C67.4529 35.6985 66.9826 35.2619 66.6135 34.7918H66.4454V43.3576H62.918V19.8437ZM71.3159 34.1201C74.3731 34.1201 76.3548 32.1379 76.3548 28.4094C76.3548 24.6807 74.3731 22.6988 71.3159 22.6988C68.4607 22.6988 66.4454 24.6807 66.4454 28.4094C66.4454 32.1379 68.4607 34.1201 71.3159 34.1201Z" fill="#F5F7EF"/>
<path fill-rule="evenodd" clip-rule="evenodd" d="M82.6797 19.8439H86.207V22.3632H86.3751C86.6437 21.8594 87.0134 21.4228 87.4499 21.0197C88.2223 20.348 89.3641 19.6758 91.0775 19.6758H93.0934V23.0351H90.91C88.2223 23.0351 86.207 24.8826 86.207 27.7378V36.9754H82.6797V19.8439Z" fill="#F5F7EF"/>
<path fill-rule="evenodd" clip-rule="evenodd" d="M102.515 19.5078C107.386 19.5078 111.249 23.4045 111.249 28.4097V29.585H97.3083C97.8459 32.4406 99.9956 34.1201 102.515 34.1201C104.261 34.1201 105.504 33.5826 106.277 32.9443C106.714 32.6085 107.084 32.2054 107.386 31.7686H111.08C110.644 32.8097 110.073 33.7505 109.3 34.5566C107.957 35.9004 105.908 37.3111 102.515 37.3111C97.6444 37.3111 93.7812 33.4146 93.7812 28.4097C93.7812 23.4045 97.6444 19.5078 102.515 19.5078ZM107.554 26.7298C107.184 24.7144 105.572 22.6988 102.515 22.6988C100.163 22.6988 98.0135 24.1769 97.4763 26.7298H107.554Z" fill="#F5F7EF"/>
<path fill-rule="evenodd" clip-rule="evenodd" d="M113.805 19.8437H117.332V22.1952H117.5C117.802 21.6912 118.172 21.2544 118.642 20.8513C119.448 20.1796 120.657 19.5078 122.539 19.5078C124.722 19.5078 126.099 20.3138 126.939 21.1202C127.443 21.5902 127.813 22.1278 128.081 22.6988H128.249C128.551 22.1278 128.988 21.5902 129.559 21.1202C130.466 20.3138 131.944 19.5078 134.128 19.5078C138.024 19.5078 140.51 21.9935 140.51 26.7299V36.9752H136.983V26.8978C136.983 24.0425 135.673 22.6988 133.288 22.6988C130.97 22.6988 128.921 24.7142 128.921 27.5698V36.9752H125.394V26.8978C125.394 24.0425 124.084 22.6988 121.699 22.6988C119.381 22.6988 117.332 24.7142 117.332 27.5698V36.9752H113.805V19.8437Z" fill="#F5F7EF"/>
<path fill-rule="evenodd" clip-rule="evenodd" d="M145.649 13.123C146.824 13.123 147.766 14.0637 147.766 15.2394C147.766 16.4152 146.824 17.3218 145.649 17.3218C144.473 17.3218 143.566 16.4152 143.566 15.2394C143.566 14.0637 144.473 13.123 145.649 13.123ZM143.902 36.973H147.43V19.8415H143.902V36.973Z" fill="#F5F7EF"/>
<path fill-rule="evenodd" clip-rule="evenodd" d="M157.983 19.5078C159.73 19.5078 161.074 20.1461 161.981 20.7843C162.519 21.1536 162.989 21.5905 163.358 22.027H163.527V19.8437H167.053V36.9752H163.527V34.6238H163.358C162.989 35.1277 162.519 35.5643 161.981 35.9676C161.074 36.6394 159.73 37.3111 157.983 37.3111C153.449 37.3111 149.922 33.7842 149.922 28.4097C149.922 23.0351 153.449 19.5078 157.983 19.5078ZM158.655 34.1201C161.511 34.1201 163.527 32.1382 163.527 28.4097C163.527 24.6809 161.511 22.6988 158.655 22.6988C155.598 22.6988 153.617 24.6809 153.617 28.4097C153.617 32.1382 155.598 34.1201 158.655 34.1201Z" fill="#F5F7EF"/>
<path fill-rule="evenodd" clip-rule="evenodd" d="M28.0514 19.7735H42.6283C43.4572 19.7735 43.936 20.7138 43.4487 21.3842L36.5114 30.9231C36.0236 31.5935 36.5026 32.5338 37.3316 32.5338H43.4453C43.7697 32.5338 44.0746 32.3786 44.2655 32.1159L51.1264 22.6822C51.385 22.3264 51.385 21.8449 51.1264 21.4891L45.1113 13.2188C44.9205 12.9561 44.6155 12.8008 44.2912 12.8008H26.3886C26.0639 12.8008 25.7593 12.9561 25.5684 13.2188L19.5533 21.4891C19.2947 21.8449 19.2947 22.3267 19.5533 22.6822L34.5194 43.261C34.9243 43.8178 35.7552 43.8178 36.1601 43.261L39.2166 39.058C39.4754 38.7022 39.4754 38.2205 39.2166 37.8647L27.2312 21.3842C26.7437 20.7138 27.2225 19.7735 28.0514 19.7735Z" fill="#5294FF"/>
</g>
<defs>
<clipPath id="clip0_2124_30924">
<rect width="147.692" height="32" fill="white" transform="translate(19.3594 12.8008)"/>
</clipPath>
</defs>
</svg>
