<svg width="162" height="101" viewBox="0 0 162 101" fill="none" xmlns="http://www.w3.org/2000/svg">
<g filter="url(#filter0_d_2124_32579)">
<path fill-rule="evenodd" clip-rule="evenodd" d="M109.984 39.9485C111.082 37.5856 111.711 36.5358 112.989 34.9296C114.488 33.0452 115.778 32.0428 117.021 31.7967C118.219 31.5596 119.114 31.7477 119.64 32.3476C120.957 33.8468 119.478 37.509 115.477 42.6562C113.935 44.6401 112.43 46.3963 110.955 47.9323C109.826 49.1086 109.8 49.1492 109.381 50.3836C108.66 52.5072 108.107 54.9168 108.031 56.2653C107.966 57.4243 107.977 57.5083 108.235 57.7664C108.457 57.9876 108.6 58.0276 108.987 57.9757C109.992 57.8409 111.933 56.2761 112.931 54.7949C113.954 53.2771 114.998 51.4909 115.273 50.7891C115.777 49.502 116.592 48.0176 117.221 47.2422C118.194 46.0414 119.164 45.6002 121.191 45.4357C122.133 45.3592 122.197 45.3689 122.197 45.5889C122.197 45.718 121.976 46.0396 121.706 46.3034C120.704 47.2818 119.486 49.3014 118.509 51.604C117.114 54.8923 116.724 57.904 117.647 58.2551C119.248 58.8638 123.081 54.1239 125.114 49.0215C125.819 47.2521 126.123 46.702 126.671 46.2071C127.305 45.6345 127.76 45.5152 129.661 45.4239L131.238 45.3482L130.659 45.992C129.578 47.1948 128.707 49.1176 126.809 54.4914C123.761 63.1254 123.482 63.7379 121.789 65.5189C120.837 66.5197 118.929 67.6279 117.524 67.9957C114.743 68.7238 111.854 68.0028 111.023 66.3735C110.743 65.8255 110.709 64.7466 110.952 64.1646C111.164 63.657 111.804 63.017 112.154 62.9636C112.734 62.8748 113.506 63.1095 113.905 63.4962C114.287 63.8664 114.293 63.8861 114.066 64.0449C113.937 64.1354 113.775 64.4128 113.706 64.6612C113.284 66.1797 114.014 67.1615 115.555 67.1475C116.559 67.1383 117.386 66.6994 118.34 65.6683C119.391 64.5339 120.114 63.087 121.534 59.2862C122.182 57.5504 122.738 56.0755 122.771 56.0088C122.803 55.942 122.541 56.2151 122.189 56.6157C120.267 58.8013 118.509 60.2724 117.476 60.5592C116.806 60.7453 115.322 60.7111 114.914 60.5002C113.868 59.9591 113.453 58.4404 113.74 56.1961L113.839 55.4123L113.152 56.3782C111.108 59.2516 108.727 60.7764 106.462 60.6619C105.569 60.6169 105.532 60.6026 105.085 60.1227C104.352 59.3367 104.194 58.1972 104.534 56.1302C104.633 55.5293 104.714 54.9866 104.716 54.9242C104.717 54.8618 104.356 55.3261 103.913 55.956C103.471 56.5859 102.86 57.3954 102.555 57.7548C101.744 58.711 100.292 59.9065 99.42 60.3356C98.7413 60.6697 98.5671 60.705 97.8081 60.6622C97.0695 60.6204 96.9086 60.5676 96.5909 60.2633C95.9559 59.6549 95.7934 59.0137 95.8128 57.1923C95.8222 56.3076 95.8162 55.5839 95.7996 55.5839C95.783 55.5839 95.5784 55.8708 95.3451 56.2212C94.2115 57.9242 92.412 59.6544 91.085 60.3176C90.2041 60.7577 89.0358 60.8222 88.331 60.4695C86.6734 59.6402 86.9574 56.2298 89.1409 50.7442C90.3342 47.7461 90.4683 46.9586 89.8267 46.7146C89.4823 46.5838 88.5183 46.8849 87.6224 47.4034C86.8464 47.8524 85.3581 49.3832 84.6148 50.4968C83.62 51.9872 82.6717 54.3688 81.429 58.4972L80.8261 60.5001L79.0911 60.534C78.1367 60.5526 77.2907 60.5427 77.2108 60.512C77.06 60.4542 77.8211 58.2382 79.5912 53.581C81.2945 49.0996 81.6777 47.7302 81.4096 47.0826C81.2406 46.6748 80.9703 46.5897 80.3125 46.7376C79.0785 47.0148 77.566 48.0807 76.4899 49.4313C75.4037 50.7946 74.4966 52.8355 73.1617 56.9192L71.9911 60.5001L70.1463 60.5336C68.565 60.5624 68.3014 60.5409 68.3014 60.3833C68.3014 60.1504 68.9268 58.1956 69.329 57.1713C69.4973 56.7424 69.6178 56.3742 69.5965 56.3529C69.5752 56.3317 69.2112 56.7543 68.7876 57.2921C67.8314 58.5061 66.5442 59.7088 65.6598 60.2149C65.1217 60.5227 64.8151 60.6094 64.1256 60.6486C63.082 60.7078 62.6319 60.4819 62.2066 59.6855C61.9475 59.2002 61.9293 59.0288 61.9399 57.162C61.949 55.5434 61.999 54.9844 62.2005 54.2487C62.3377 53.7479 62.4376 53.3249 62.4225 53.3085C62.4075 53.2923 62.0717 53.802 61.6764 54.4413C59.9936 57.1623 57.9776 59.3403 56.442 60.0963C55.6962 60.4633 55.5219 60.5001 54.5265 60.5001C53.5638 60.5001 53.3819 60.4648 53.0214 60.2077C52.7791 60.0348 52.4811 59.6374 52.2931 59.2366C51.9942 58.5994 51.9752 58.4504 51.981 56.7978C51.9864 55.2968 52.0345 54.8575 52.3083 53.8148C53.6732 48.6147 57.3716 44.8981 61.1762 44.9032C63.0327 44.9056 64.2244 45.4899 64.8333 46.6965L65.0345 47.0952L65.5003 46.5061C65.7564 46.1821 66.258 45.7294 66.6149 45.5004C67.2499 45.0928 67.2956 45.0829 68.7537 45.0411C69.6203 45.0162 70.2436 45.0454 70.2436 45.111C70.2436 45.173 70.1026 45.3561 69.9301 45.518C68.8381 46.5429 66.2845 52.0346 65.6295 54.7667C65.217 56.4869 65.3691 57.5279 66.0323 57.5249C66.5344 57.5227 67.5128 56.9549 68.1514 56.295C69.2479 55.1621 70.6867 53.0111 71.6719 51.0319C72.4647 49.4392 73.4131 45.8817 73.2129 45.2511C73.1453 45.0383 73.2231 45.0232 74.393 45.0239C75.8714 45.0247 76.4865 45.1688 76.7538 45.5766C76.9352 45.8536 76.9317 45.9455 76.7061 46.8444L76.4626 47.8135L77.2072 47.231C79.2854 45.6048 81.0573 44.8845 83.05 44.8556C84.2212 44.8386 84.7475 45.0827 85.104 45.8079C85.3088 46.2242 85.3214 46.3723 85.2073 47.0183C85.1358 47.4232 85.0351 47.8594 84.9834 47.9877C84.9289 48.1232 85.2178 47.9427 85.6717 47.5575C87.8168 45.7378 89.7953 44.8718 91.8433 44.8563C93.4902 44.8438 94.0356 45.2945 94.0356 46.6679C94.0356 47.2087 93.8916 47.7289 93.3535 49.1319C91.845 53.0649 91.2195 55.0559 91.1519 56.1387C91.0806 57.2813 91.1826 57.5261 91.7302 57.5261C92.1734 57.5261 93.3471 56.7324 94.1335 55.9007C95.0074 54.9769 96.6302 52.4531 97.019 51.4135C97.5813 49.9102 99.0092 47.1395 99.5991 46.4073C99.9642 45.9541 100.398 45.582 100.817 45.3632C101.419 45.0488 101.572 45.0232 102.851 45.0232H104.234L103.744 45.7411C103.178 46.5694 101.126 50.6547 100.52 52.1564C98.5427 57.0619 99.236 58.9171 102.075 56.3159C102.915 55.5459 103.583 54.6359 104.947 52.4014C105.731 51.1172 105.926 50.656 106.952 47.6555C108.31 43.6886 108.665 42.7854 109.984 39.9485ZM114.607 37.1395C115.718 34.9342 116.838 33.3571 117.641 32.8676C118.095 32.5903 118.3 32.5851 118.665 32.841C118.914 33.0154 118.942 33.1105 118.883 33.6C118.786 34.4263 117.73 36.9221 116.87 38.362C116.456 39.0547 115.658 40.277 115.096 41.0781C113.868 42.8313 110.862 46.6281 110.813 46.4893C110.726 46.2455 113.651 39.0388 114.607 37.1395ZM55.7116 55.7116C55.8252 53.9579 56.5287 52.1947 57.9807 50.0239C59.2363 48.1468 60.5857 46.9461 61.9026 46.5346C62.5796 46.323 63.3605 46.3195 63.8543 46.5259C64.2624 46.6963 64.7812 47.2455 64.7812 47.5068C64.7812 47.6665 62.4321 51.5307 61.1873 53.4187C60.2969 54.7689 58.6889 56.4796 57.8621 56.9561C57.5617 57.1292 57.0875 57.3073 56.8086 57.3519C56.362 57.4233 56.2619 57.3936 55.972 57.1037C55.6512 56.7829 55.6445 56.7473 55.7116 55.7116Z" fill="#F5F7EF"/>
<path d="M52.3129 34.6442C53.4004 33.2855 54.6267 32.4857 56.328 32.0252C57.4971 31.7087 59.4387 31.7632 60.4193 32.14C61.6084 32.597 62.1574 33.4265 62.1574 34.766C62.1574 35.7495 61.8763 36.4874 61.2702 37.0942C60.5845 37.7807 59.2163 37.8513 58.776 37.2227C58.499 36.8271 58.5376 36.6677 59.1667 35.6118C59.6067 34.8732 59.7429 34.525 59.7433 34.1385C59.7442 32.8388 58.0874 32.3608 56.7205 33.2662C55.2844 34.2173 53.9406 36.4468 52.117 40.9027C51.5362 42.3215 50.4575 45.2955 50.4575 45.4774C50.4575 45.5953 55.7343 45.4124 56.4477 45.2698C56.8381 45.1917 57.1855 45.1558 57.2196 45.19C57.3575 45.3279 56.7511 45.9658 56.1938 46.2691C55.4219 46.6893 53.9038 46.9493 51.6538 47.0466L49.8703 47.1238L49.0003 49.6242C46.5333 56.714 45.6607 58.7928 43.6196 62.4423C40.5195 67.9857 37.2431 70.5485 33.9165 70.0323C32.5509 69.8204 31.7445 69.2834 31.2687 68.2689C30.8154 67.3029 31.0555 65.8436 31.7928 65.083C32.1058 64.7601 32.2691 64.688 32.688 64.688C33.3743 64.688 33.5601 64.7741 33.7763 65.1921C33.9496 65.5273 33.9363 65.5955 33.5152 66.5282C33.1632 67.3079 33.0846 67.6104 33.1356 67.9906C33.2315 68.7054 33.502 68.9366 34.2425 68.9366C35.246 68.9366 36.3962 68.1907 37.3877 66.897C39.2251 64.4992 41.8984 58.9462 45.0693 50.9404C45.8296 49.0206 46.4517 47.3956 46.4517 47.3291C46.4517 47.1672 44.8177 47.1746 44.225 47.3392C43.4571 47.5523 43.0179 48.1126 41.7113 50.5463C40.4242 52.9436 39.8434 53.8845 39.6505 53.8845C39.4497 53.8845 39.3799 53.2874 39.5171 52.7429C39.5904 52.4515 39.8792 51.8107 40.1587 51.319C40.87 50.0678 41.6597 48.3594 42.2797 46.7304C42.5702 45.967 42.8767 45.2986 42.9608 45.2454C43.1719 45.1112 44.0288 45.1212 45.7416 45.2775C46.5424 45.3506 47.2208 45.387 47.2492 45.3586C47.2776 45.3302 47.7322 44.137 48.2593 42.707C49.8951 38.2692 50.7119 36.6447 52.3129 34.6442Z" fill="#F5F7EF"/>
<path d="M103.645 41.0094C103.302 40.1039 104.134 38.5718 105.443 37.6976C105.822 37.4446 106.796 37.4359 107.271 37.6813C107.67 37.8877 107.995 38.425 107.995 38.8778C107.995 39.3649 107.47 39.882 106.897 39.9588C106.232 40.048 105.534 40.5296 105.007 41.2637C104.769 41.5956 104.506 41.8671 104.424 41.8671C104.222 41.8671 103.79 41.3917 103.645 41.0094Z" fill="#F5F7EF"/>
</g>
<defs>
<filter id="filter0_d_2124_32579" x="0.319063" y="0.977266" width="161.639" height="99.8404" filterUnits="userSpaceOnUse" color-interpolation-filters="sRGB">
<feFlood flood-opacity="0" result="BackgroundImageFix"/>
<feColorMatrix in="SourceAlpha" type="matrix" values="0 0 0 0 0 0 0 0 0 0 0 0 0 0 0 0 0 0 127 0" result="hardAlpha"/>
<feOffset/>
<feGaussianBlur stdDeviation="15.36"/>
<feComposite in2="hardAlpha" operator="out"/>
<feColorMatrix type="matrix" values="0 0 0 0 0.8625 0 0 0 0 0.8625 0 0 0 0 0.8625 0 0 0 0.2 0"/>
<feBlend mode="normal" in2="BackgroundImageFix" result="effect1_dropShadow_2124_32579"/>
<feBlend mode="normal" in="SourceGraphic" in2="effect1_dropShadow_2124_32579" result="shape"/>
</filter>
</defs>
</svg>
