<svg width="197" height="65" viewBox="0 0 197 65" fill="none" xmlns="http://www.w3.org/2000/svg">
<g filter="url(#filter0_dii_2124_32622)">
<path fill-rule="evenodd" clip-rule="evenodd" d="M70.8104 18.4973C64.0681 18.4973 58.8679 23.9219 58.8679 30.4733C58.8679 37.0752 64.0242 42.4973 70.8104 42.4973C75.3484 42.4973 79.1753 40.0726 81.2144 36.4988L81.6633 35.7119L83.9074 31.7658C84.115 32.0702 84.3969 32.3144 84.7179 32.4803L82.2618 36.7599C84.3221 40.1903 88.0524 42.4973 92.4788 42.4973C99.2676 42.4973 104.468 37.0726 104.468 30.4733C104.468 23.9685 99.3128 18.4973 92.4788 18.4973C87.9685 18.4973 84.1483 20.9257 82.1136 24.4921L81.6664 25.276L79.5056 29.0042C79.3899 28.5365 79.2403 28.0822 79.0594 27.6447L81.0496 24.2057C78.9807 20.8072 75.2504 18.4973 70.8104 18.4973ZM86.995 32.7255C87.8071 35.012 89.8679 36.657 92.4788 36.657C95.0898 36.657 97.1781 35.012 98.003 32.7255H86.995ZM84.8968 30.7602C85.2503 26.7576 88.3435 23.566 92.5103 23.566C96.2589 23.566 99.182 26.1491 99.9931 29.582C100.055 29.8702 100.102 30.1641 100.134 30.4628C100.187 30.96 99.7852 31.3671 99.2962 31.3671H85.7117C85.3251 31.3671 84.9931 31.1126 84.8968 30.7602ZM70.7649 23.566C66.6287 23.566 63.5505 26.7108 63.1596 30.672C63.2209 31.0693 63.5751 31.3671 63.9933 31.3671H77.5778C78.0291 31.3671 78.4059 31.0204 78.4199 30.5761C77.9815 26.6602 74.8676 23.566 70.7649 23.566ZM76.3345 32.7255H65.3265C66.1387 35.012 68.1994 36.657 70.8104 36.657C72.5179 36.657 74.0018 35.9535 75.055 34.8272C75.2532 34.598 75.4774 34.3078 75.7217 33.9694C75.9694 33.5834 76.1754 33.1664 76.3345 32.7255Z" fill="url(#paint0_linear_2124_32622)"/>
<path fill-rule="evenodd" clip-rule="evenodd" d="M70.8104 18.4973C64.0681 18.4973 58.8679 23.9219 58.8679 30.4733C58.8679 37.0752 64.0242 42.4973 70.8104 42.4973C75.3484 42.4973 79.1753 40.0726 81.2144 36.4988L81.6633 35.7119L83.9074 31.7658C84.115 32.0702 84.3969 32.3144 84.7179 32.4803L82.2618 36.7599C84.3221 40.1903 88.0524 42.4973 92.4788 42.4973C99.2676 42.4973 104.468 37.0726 104.468 30.4733C104.468 23.9685 99.3128 18.4973 92.4788 18.4973C87.9685 18.4973 84.1483 20.9257 82.1136 24.4921L81.6664 25.276L79.5056 29.0042C79.3899 28.5365 79.2403 28.0822 79.0594 27.6447L81.0496 24.2057C78.9807 20.8072 75.2504 18.4973 70.8104 18.4973ZM86.995 32.7255C87.8071 35.012 89.8679 36.657 92.4788 36.657C95.0898 36.657 97.1781 35.012 98.003 32.7255H86.995ZM84.8968 30.7602C85.2503 26.7576 88.3435 23.566 92.5103 23.566C96.2589 23.566 99.182 26.1491 99.9931 29.582C100.055 29.8702 100.102 30.1641 100.134 30.4628C100.187 30.96 99.7852 31.3671 99.2962 31.3671H85.7117C85.3251 31.3671 84.9931 31.1126 84.8968 30.7602ZM70.7649 23.566C66.6287 23.566 63.5505 26.7108 63.1596 30.672C63.2209 31.0693 63.5751 31.3671 63.9933 31.3671H77.5778C78.0291 31.3671 78.4059 31.0204 78.4199 30.5761C77.9815 26.6602 74.8676 23.566 70.7649 23.566ZM76.3345 32.7255H65.3265C66.1387 35.012 68.1994 36.657 70.8104 36.657C72.5179 36.657 74.0018 35.9535 75.055 34.8272C75.2532 34.598 75.4774 34.3078 75.7217 33.9694C75.9694 33.5834 76.1754 33.1664 76.3345 32.7255Z" fill="url(#paint1_linear_2124_32622)" style="mix-blend-mode:overlay"/>
<path d="M32.9144 42.4181C34.4851 42.4181 36.4149 42.0563 37.5369 41.3326V35.5884C36.4598 36.2669 34.7993 36.6739 33.4978 36.6739C31.1642 36.6739 29.6832 35.2266 29.6832 32.739V24.8238H37.5369V19.3962H29.6832V13.6973H23.3105V19.3962H19.2266V24.8238H23.3105V32.9199C23.3105 38.5284 26.4968 42.4181 32.9144 42.4181Z" fill="url(#paint2_linear_2124_32622)"/>
<path d="M32.9144 42.4181C34.4851 42.4181 36.4149 42.0563 37.5369 41.3326V35.5884C36.4598 36.2669 34.7993 36.6739 33.4978 36.6739C31.1642 36.6739 29.6832 35.2266 29.6832 32.739V24.8238H37.5369V19.3962H29.6832V13.6973H23.3105V19.3962H19.2266V24.8238H23.3105V32.9199C23.3105 38.5284 26.4968 42.4181 32.9144 42.4181Z" fill="url(#paint3_linear_2124_32622)" style="mix-blend-mode:overlay"/>
<path d="M48.4854 41.7849V29.1658C48.4854 26.4973 50.0112 24.869 52.5244 24.869C53.6913 24.869 54.9927 25.1856 56.0698 25.8188V19.5771C54.9478 19.0796 53.3771 18.8082 51.941 18.8082C45.3439 18.8082 42.1127 23.1955 42.1127 28.9397V41.7849H48.4854Z" fill="url(#paint4_linear_2124_32622)"/>
<path d="M48.4854 41.7849V29.1658C48.4854 26.4973 50.0112 24.869 52.5244 24.869C53.6913 24.869 54.9927 25.1856 56.0698 25.8188V19.5771C54.9478 19.0796 53.3771 18.8082 51.941 18.8082C45.3439 18.8082 42.1127 23.1955 42.1127 28.9397V41.7849H48.4854Z" fill="url(#paint5_linear_2124_32622)" style="mix-blend-mode:overlay"/>
<path d="M115.522 52.0973V40.3376C117.183 41.604 119.292 42.4181 121.536 42.4181C128.447 42.4181 133.204 37.5333 133.204 30.5227C133.204 24.1001 128.043 18.763 121.177 18.763C114.266 18.763 109.149 23.7835 109.149 30.5227V52.0973H115.522ZM121.177 36.3573C117.901 36.3573 115.522 33.734 115.522 30.5679C115.522 27.4019 117.901 24.8238 121.177 24.8238C124.453 24.8238 126.831 27.4019 126.831 30.5679C126.831 33.734 124.453 36.3573 121.177 36.3573Z" fill="url(#paint6_linear_2124_32622)"/>
<path d="M115.522 52.0973V40.3376C117.183 41.604 119.292 42.4181 121.536 42.4181C128.447 42.4181 133.204 37.5333 133.204 30.5227C133.204 24.1001 128.043 18.763 121.177 18.763C114.266 18.763 109.149 23.7835 109.149 30.5227V52.0973H115.522ZM121.177 36.3573C117.901 36.3573 115.522 33.734 115.522 30.5679C115.522 27.4019 117.901 24.8238 121.177 24.8238C124.453 24.8238 126.831 27.4019 126.831 30.5679C126.831 33.734 124.453 36.3573 121.177 36.3573Z" fill="url(#paint7_linear_2124_32622)" style="mix-blend-mode:overlay"/>
<path d="M148.456 42.3729C153.169 42.3729 156.849 40.0662 158.778 36.0407L153.887 33.5531C152.855 35.6337 150.835 36.8096 148.412 36.8096C145.225 36.8096 142.936 34.8195 142.488 31.8344H159.003V29.9347C159.003 23.8287 154.919 18.5821 147.873 18.5821C141.007 18.5821 136.339 23.9192 136.339 30.387C136.339 37.5333 141.545 42.3729 148.456 42.3729ZM142.757 28.2612C143.206 25.9997 145.046 24.1906 147.828 24.1906C150.521 24.1906 152.406 25.9545 152.675 28.2612H142.757Z" fill="url(#paint8_linear_2124_32622)"/>
<path d="M148.456 42.3729C153.169 42.3729 156.849 40.0662 158.778 36.0407L153.887 33.5531C152.855 35.6337 150.835 36.8096 148.412 36.8096C145.225 36.8096 142.936 34.8195 142.488 31.8344H159.003V29.9347C159.003 23.8287 154.919 18.5821 147.873 18.5821C141.007 18.5821 136.339 23.9192 136.339 30.387C136.339 37.5333 141.545 42.3729 148.456 42.3729ZM142.757 28.2612C143.206 25.9997 145.046 24.1906 147.828 24.1906C150.521 24.1906 152.406 25.9545 152.675 28.2612H142.757Z" fill="url(#paint9_linear_2124_32622)" style="mix-blend-mode:overlay"/>
<path d="M170.042 41.7849V29.1658C170.042 26.4973 171.568 24.869 174.081 24.869C175.248 24.869 176.549 25.1856 177.627 25.8188V19.5771C176.505 19.0796 174.934 18.8082 173.498 18.8082C166.901 18.8082 163.669 23.1955 163.669 28.9397V41.7849H170.042Z" fill="url(#paint10_linear_2124_32622)"/>
<path d="M170.042 41.7849V29.1658C170.042 26.4973 171.568 24.869 174.081 24.869C175.248 24.869 176.549 25.1856 177.627 25.8188V19.5771C176.505 19.0796 174.934 18.8082 173.498 18.8082C166.901 18.8082 163.669 23.1955 163.669 28.9397V41.7849H170.042Z" fill="url(#paint11_linear_2124_32622)" style="mix-blend-mode:overlay"/>
</g>
<defs>
<filter id="filter0_dii_2124_32622" x="15.1766" y="9.64727" width="166.498" height="46.5004" filterUnits="userSpaceOnUse" color-interpolation-filters="sRGB">
<feFlood flood-opacity="0" result="BackgroundImageFix"/>
<feColorMatrix in="SourceAlpha" type="matrix" values="0 0 0 0 0 0 0 0 0 0 0 0 0 0 0 0 0 0 127 0" result="hardAlpha"/>
<feOffset/>
<feGaussianBlur stdDeviation="2.025"/>
<feComposite in2="hardAlpha" operator="out"/>
<feColorMatrix type="matrix" values="0 0 0 0 0 0 0 0 0 0 0 0 0 0 0 0 0 0 0.25 0"/>
<feBlend mode="normal" in2="BackgroundImageFix" result="effect1_dropShadow_2124_32622"/>
<feBlend mode="normal" in="SourceGraphic" in2="effect1_dropShadow_2124_32622" result="shape"/>
<feColorMatrix in="SourceAlpha" type="matrix" values="0 0 0 0 0 0 0 0 0 0 0 0 0 0 0 0 0 0 127 0" result="hardAlpha"/>
<feOffset dy="0.253125"/>
<feGaussianBlur stdDeviation="0.253125"/>
<feComposite in2="hardAlpha" operator="arithmetic" k2="-1" k3="1"/>
<feColorMatrix type="matrix" values="0 0 0 0 1 0 0 0 0 1 0 0 0 0 1 0 0 0 0.25 0"/>
<feBlend mode="normal" in2="shape" result="effect2_innerShadow_2124_32622"/>
<feColorMatrix in="SourceAlpha" type="matrix" values="0 0 0 0 0 0 0 0 0 0 0 0 0 0 0 0 0 0 127 0" result="hardAlpha"/>
<feOffset dy="-0.50625"/>
<feGaussianBlur stdDeviation="0.126562"/>
<feComposite in2="hardAlpha" operator="arithmetic" k2="-1" k3="1"/>
<feColorMatrix type="matrix" values="0 0 0 0 0 0 0 0 0 0 0 0 0 0 0 0 0 0 0.25 0"/>
<feBlend mode="normal" in2="effect2_innerShadow_2124_32622" result="effect3_innerShadow_2124_32622"/>
</filter>
<linearGradient id="paint0_linear_2124_32622" x1="98.4266" y1="13.6973" x2="98.4266" y2="52.0964" gradientUnits="userSpaceOnUse">
<stop stop-color="#515FFF"/>
<stop offset="1" stop-color="#333B93"/>
</linearGradient>
<linearGradient id="paint1_linear_2124_32622" x1="19.0831" y1="32.8973" x2="177.483" y2="32.8973" gradientUnits="userSpaceOnUse">
<stop stop-color="#F36890"/>
<stop offset="1" stop-color="#7C6BE7"/>
</linearGradient>
<linearGradient id="paint2_linear_2124_32622" x1="98.4266" y1="13.6973" x2="98.4266" y2="52.0964" gradientUnits="userSpaceOnUse">
<stop stop-color="#515FFF"/>
<stop offset="1" stop-color="#333B93"/>
</linearGradient>
<linearGradient id="paint3_linear_2124_32622" x1="19.0831" y1="32.8973" x2="177.483" y2="32.8973" gradientUnits="userSpaceOnUse">
<stop stop-color="#F36890"/>
<stop offset="1" stop-color="#7C6BE7"/>
</linearGradient>
<linearGradient id="paint4_linear_2124_32622" x1="98.4266" y1="13.6973" x2="98.4266" y2="52.0964" gradientUnits="userSpaceOnUse">
<stop stop-color="#515FFF"/>
<stop offset="1" stop-color="#333B93"/>
</linearGradient>
<linearGradient id="paint5_linear_2124_32622" x1="19.0831" y1="32.8973" x2="177.483" y2="32.8973" gradientUnits="userSpaceOnUse">
<stop stop-color="#F36890"/>
<stop offset="1" stop-color="#7C6BE7"/>
</linearGradient>
<linearGradient id="paint6_linear_2124_32622" x1="98.4266" y1="13.6973" x2="98.4266" y2="52.0964" gradientUnits="userSpaceOnUse">
<stop stop-color="#515FFF"/>
<stop offset="1" stop-color="#333B93"/>
</linearGradient>
<linearGradient id="paint7_linear_2124_32622" x1="19.0831" y1="32.8973" x2="177.483" y2="32.8973" gradientUnits="userSpaceOnUse">
<stop stop-color="#F36890"/>
<stop offset="1" stop-color="#7C6BE7"/>
</linearGradient>
<linearGradient id="paint8_linear_2124_32622" x1="98.4266" y1="13.6973" x2="98.4266" y2="52.0964" gradientUnits="userSpaceOnUse">
<stop stop-color="#515FFF"/>
<stop offset="1" stop-color="#333B93"/>
</linearGradient>
<linearGradient id="paint9_linear_2124_32622" x1="19.0831" y1="32.8973" x2="177.483" y2="32.8973" gradientUnits="userSpaceOnUse">
<stop stop-color="#F36890"/>
<stop offset="1" stop-color="#7C6BE7"/>
</linearGradient>
<linearGradient id="paint10_linear_2124_32622" x1="98.4266" y1="13.6973" x2="98.4266" y2="52.0964" gradientUnits="userSpaceOnUse">
<stop stop-color="#515FFF"/>
<stop offset="1" stop-color="#333B93"/>
</linearGradient>
<linearGradient id="paint11_linear_2124_32622" x1="19.0831" y1="32.8973" x2="177.483" y2="32.8973" gradientUnits="userSpaceOnUse">
<stop stop-color="#F36890"/>
<stop offset="1" stop-color="#7C6BE7"/>
</linearGradient>
</defs>
</svg>
