<svg width="160" height="60" viewBox="0 0 160 60" fill="none" xmlns="http://www.w3.org/2000/svg">
<path d="M30.9591 39.375C30.9398 39.3841 30.9206 39.3908 30.9014 39.3987C30.863 39.4156 30.8234 39.4314 30.7838 39.4461C30.7499 39.4585 30.716 39.4686 30.6821 39.4788C30.6629 39.4844 30.6425 39.4912 30.6233 39.4968C30.5781 39.5092 30.5329 39.5194 30.4865 39.5295C30.4752 39.5318 30.4651 39.5352 30.4538 39.5374C30.4006 39.5476 30.3452 39.5566 30.2898 39.5634C30.274 39.5656 30.2593 39.5668 30.2435 39.569C30.2107 39.5724 30.1768 39.5747 30.144 39.578C30.0931 39.5814 30.0411 39.5837 29.9891 39.5848C29.9643 39.5848 29.9405 39.5859 29.9157 39.5859C29.8659 39.5859 29.8162 39.5837 29.7653 39.5803C29.7382 39.5792 29.7111 39.578 29.6828 39.5769C29.6206 39.5724 29.5573 39.5645 29.4929 39.5555C29.4703 39.5521 29.4465 39.5476 29.4228 39.5442C29.3798 39.5374 29.3369 39.5295 29.2928 39.5205C29.2691 39.516 29.2442 39.5104 29.2205 39.5047C29.1764 39.4946 29.1334 39.4833 29.0893 39.472C29.0656 39.4653 29.043 39.4596 29.0192 39.4529C28.9695 39.4382 28.9186 39.4224 28.8678 39.4055C28.8508 39.3998 28.835 39.3953 28.818 39.3886C28.7502 39.3649 28.6824 39.3401 28.6145 39.3119C28.5987 39.3051 28.5818 39.2984 28.5659 39.2916C28.5128 39.269 28.4597 39.2465 28.4065 39.2217C28.3817 39.2104 28.3579 39.1991 28.3331 39.1867C28.2867 39.1641 28.2392 39.1416 28.1918 39.1168C28.1658 39.1033 28.1386 39.0897 28.1126 39.0762C28.0459 39.0412 27.9792 39.0051 27.9125 38.9668L27.6932 38.8405C27.6288 38.8033 27.5644 38.7638 27.5011 38.7243C27.4852 38.7142 27.4683 38.7052 27.4525 38.695C27.3801 38.6488 27.3078 38.6014 27.2366 38.5529C27.2173 38.5394 27.1981 38.5247 27.1778 38.5112C27.1258 38.4751 27.0738 38.4379 27.0218 38.3995C26.9946 38.3792 26.9686 38.3589 26.9415 38.3386C26.8974 38.3048 26.8533 38.271 26.8093 38.236C26.781 38.2135 26.7516 38.1898 26.7233 38.1661C26.6815 38.1323 26.6408 38.0973 26.599 38.0623C26.5707 38.0375 26.5413 38.0127 26.5131 37.9879C26.4724 37.9518 26.4306 37.9146 26.3899 37.8774C26.3627 37.8526 26.3356 37.8278 26.3085 37.8018C26.2644 37.7601 26.2214 37.7184 26.1785 37.6755C26.1559 37.653 26.1333 37.6315 26.1106 37.609C26.0462 37.5447 25.9829 37.4782 25.9207 37.4105C25.854 37.3383 25.7873 37.265 25.7229 37.1917C25.706 37.1725 25.6901 37.1522 25.6732 37.1331C25.6268 37.0789 25.5793 37.0248 25.5341 36.9707C25.5081 36.9391 25.4833 36.9075 25.4573 36.8771C25.4211 36.832 25.3849 36.788 25.3487 36.7429C25.3103 36.6944 25.273 36.6447 25.2357 36.5963C25.2108 36.5636 25.186 36.532 25.1611 36.4981C25.0831 36.3921 25.0062 36.285 24.9316 36.1767C24.9101 36.1452 24.8898 36.1147 24.8683 36.0831C24.8253 36.0188 24.7824 35.9534 24.7394 35.8869C24.718 35.8531 24.6965 35.8192 24.675 35.7854C24.6298 35.7132 24.5857 35.6388 24.5416 35.5655C24.5224 35.5328 24.502 35.5001 24.4828 35.4662C24.424 35.3647 24.3675 35.2621 24.3121 35.1584C24.2884 35.1133 24.2647 35.0682 24.2409 35.0219C24.2194 34.9813 24.1991 34.9407 24.1787 34.9001C24.1471 34.837 24.1154 34.7738 24.0849 34.7095C24.0747 34.6892 24.0657 34.6689 24.0555 34.6486C24.016 34.5652 23.9787 34.4817 23.9414 34.3971C23.9323 34.3757 23.9233 34.3543 23.9131 34.3317C23.886 34.2686 23.8588 34.2054 23.8328 34.1423C23.8204 34.1129 23.8091 34.0825 23.7967 34.0532C23.7741 33.9957 23.7514 33.9381 23.73 33.8806C23.7187 33.8502 23.7062 33.8186 23.6949 33.7882C23.6723 33.7284 23.652 33.6675 23.6305 33.6066C23.6203 33.5784 23.6101 33.5491 23.6 33.5209C23.5694 33.4318 23.5412 33.3438 23.5129 33.2536C23.4858 33.1656 23.4609 33.0788 23.4372 32.9908C23.4304 32.9649 23.4236 32.939 23.4168 32.9119C23.401 32.851 23.3852 32.789 23.3705 32.7281C23.3637 32.6976 23.3558 32.6683 23.349 32.6378C23.3354 32.5769 23.3219 32.516 23.3094 32.4563C23.3038 32.4303 23.2981 32.4033 23.2936 32.3773C23.2767 32.2916 23.262 32.207 23.2484 32.1213C23.2473 32.1157 23.2473 32.1101 23.2461 32.1055C23.2337 32.0255 23.2224 31.9465 23.2134 31.8676C23.21 31.8405 23.2077 31.8135 23.2043 31.7864C23.1975 31.7277 23.1919 31.6691 23.1874 31.6116C23.1851 31.5811 23.1828 31.5518 23.1806 31.5225C23.1761 31.465 23.1727 31.4075 23.1704 31.3499C23.1693 31.3218 23.167 31.2947 23.167 31.2665C23.1636 31.183 23.1625 31.1007 23.1625 31.0184L23.1919 20.4976C23.1919 20.4107 23.1941 20.3262 23.1975 20.2427C23.1987 20.2202 23.2009 20.1976 23.2021 20.175C23.2054 20.1175 23.2088 20.0589 23.2145 20.0025C23.2167 19.972 23.2201 19.9427 23.2235 19.9134C23.2281 19.8649 23.2337 19.8175 23.2405 19.7702C23.245 19.7375 23.2495 19.7059 23.2552 19.6743C23.262 19.6315 23.2687 19.5886 23.2767 19.5469C23.2834 19.5131 23.2902 19.4792 23.297 19.4454C23.3049 19.407 23.314 19.3687 23.323 19.3315C23.3321 19.2943 23.3411 19.2582 23.3513 19.2221C23.3603 19.1883 23.3705 19.1544 23.3807 19.1217C23.3942 19.0789 23.4078 19.0371 23.4225 18.9965C23.4327 18.9672 23.4428 18.939 23.4541 18.9108C23.4767 18.8522 23.5005 18.7958 23.5254 18.7405C23.5355 18.718 23.5446 18.6954 23.5547 18.674C23.583 18.6165 23.6124 18.5612 23.6429 18.5071C23.6531 18.4891 23.6633 18.4721 23.6734 18.4552C23.6949 18.4191 23.7164 18.383 23.739 18.3481C23.7492 18.3323 23.7605 18.3165 23.7707 18.3007C23.7933 18.2669 23.817 18.2342 23.8407 18.2015C23.852 18.1857 23.8634 18.171 23.8747 18.1564C23.9029 18.1203 23.9312 18.0864 23.9606 18.0526C23.9685 18.0436 23.9753 18.0346 23.9832 18.0255C24.0205 17.9838 24.0589 17.9443 24.0985 17.906C24.1087 17.8959 24.1188 17.8868 24.1301 17.8767C24.1607 17.8485 24.1912 17.8214 24.2217 17.7944C24.2353 17.7831 24.25 17.7707 24.2647 17.7594C24.2952 17.7357 24.3257 17.712 24.3562 17.6895C24.3698 17.6793 24.3834 17.6692 24.3969 17.6602C24.441 17.6297 24.4862 17.6004 24.5337 17.5733L20.8835 19.6901C20.8372 19.7172 20.792 19.7465 20.7468 19.7769C20.7332 19.786 20.7196 19.7961 20.7061 19.8063C20.6744 19.8288 20.6439 19.8514 20.6145 19.8762C20.5998 19.8875 20.5862 19.8987 20.5727 19.9111C20.541 19.9371 20.5105 19.9653 20.4811 19.9923C20.4709 20.0025 20.4596 20.0115 20.4495 20.0217C20.4099 20.06 20.3715 20.0995 20.3342 20.1412C20.3262 20.1502 20.3195 20.1593 20.3115 20.1683C20.2822 20.2021 20.2539 20.2359 20.2256 20.272C20.2143 20.2867 20.203 20.3025 20.1917 20.3171C20.168 20.3498 20.1442 20.3825 20.1216 20.4164C20.1115 20.4322 20.1002 20.448 20.09 20.4637C20.0843 20.4716 20.0787 20.4795 20.073 20.4886C20.0561 20.5156 20.0402 20.5438 20.0233 20.572C20.0131 20.5889 20.0029 20.6058 19.9928 20.6239C19.9622 20.678 19.9329 20.7333 19.9046 20.7919C19.9001 20.7998 19.8967 20.8088 19.8922 20.8167C19.8854 20.8303 19.8809 20.8449 19.8741 20.8585C19.8492 20.9137 19.8243 20.9701 19.8029 21.0288C19.7983 21.04 19.7938 21.0491 19.7893 21.0603C19.7825 21.0784 19.778 21.0975 19.7712 21.1145C19.7565 21.1551 19.7429 21.1968 19.7294 21.2396C19.7249 21.2554 19.7181 21.2701 19.7136 21.287C19.7079 21.3039 19.7045 21.3231 19.7 21.3411C19.6898 21.3772 19.6808 21.4144 19.6717 21.4505C19.6672 21.4686 19.6616 21.4866 19.657 21.5058C19.6525 21.525 19.6491 21.5453 19.6446 21.5656C19.6378 21.5994 19.631 21.6332 19.6242 21.6671C19.6209 21.6851 19.6163 21.7031 19.6129 21.7212C19.6084 21.7449 19.6062 21.7697 19.6016 21.7945C19.5971 21.8261 19.5915 21.8588 19.5869 21.8904C19.5847 21.9061 19.5824 21.9197 19.5802 21.9355C19.5756 21.967 19.5734 22.0009 19.57 22.0325C19.5666 22.0618 19.5632 22.0911 19.5609 22.1215C19.5598 22.1317 19.5587 22.1418 19.5576 22.152C19.5542 22.1982 19.5519 22.2467 19.5485 22.2941C19.5474 22.3166 19.5451 22.3381 19.544 22.3618C19.544 22.3663 19.5429 22.3696 19.5429 22.3742C19.5395 22.4486 19.5383 22.5253 19.5372 22.602C19.5372 22.6065 19.5372 22.611 19.5372 22.6155L19.5078 33.1363C19.5078 33.2085 19.5089 33.2807 19.5112 33.3528C19.5112 33.363 19.5123 33.3743 19.5123 33.3844C19.5135 33.4126 19.5146 33.4408 19.5157 33.4679C19.518 33.5051 19.518 33.5412 19.5214 33.5784C19.5225 33.5987 19.5248 33.6201 19.5259 33.6404C19.5282 33.6709 19.5304 33.7002 19.5327 33.7306C19.5349 33.7543 19.5361 33.778 19.5383 33.8017C19.5417 33.8366 19.5462 33.8716 19.5496 33.9066C19.553 33.9336 19.5553 33.9607 19.5587 33.9866C19.5598 33.999 19.5609 34.0103 19.5632 34.0227C19.5722 34.0904 19.5813 34.1581 19.5926 34.2257C19.5937 34.2314 19.5937 34.237 19.5949 34.2415V34.2438C19.6062 34.3182 19.6197 34.3915 19.6333 34.4659C19.6356 34.4761 19.6378 34.4862 19.6401 34.4975C19.6446 34.5234 19.6502 34.5494 19.6559 34.5753C19.6638 34.6137 19.6706 34.652 19.6796 34.6892C19.6842 34.7118 19.6909 34.7343 19.6955 34.758C19.7022 34.7873 19.709 34.8178 19.7158 34.8471C19.7215 34.8697 19.726 34.8922 19.7316 34.9148C19.7418 34.9531 19.752 34.9926 19.7622 35.0309C19.7689 35.0569 19.7757 35.0828 19.7825 35.1087C19.7848 35.1189 19.7882 35.129 19.7904 35.1392C19.8108 35.2136 19.8322 35.2869 19.856 35.3614C19.8571 35.3647 19.8582 35.367 19.8594 35.3704C19.8842 35.4516 19.9114 35.5339 19.9385 35.6151C19.9408 35.623 19.9442 35.6298 19.9464 35.6377C19.9566 35.667 19.9668 35.6963 19.9769 35.7245C19.9928 35.7696 20.0075 35.8136 20.0233 35.8587C20.0289 35.8745 20.0346 35.8892 20.0402 35.9049C20.0515 35.9365 20.064 35.967 20.0753 35.9985C20.0877 36.0301 20.099 36.0617 20.1103 36.0921C20.1205 36.1181 20.1318 36.1452 20.142 36.1711C20.1533 36.2004 20.1657 36.2309 20.1782 36.2602C20.1861 36.2794 20.1929 36.2985 20.2008 36.3166C20.2189 36.3606 20.2392 36.4057 20.2584 36.4496C20.2675 36.4711 20.2765 36.4925 20.2867 36.5139C20.2901 36.5207 20.2923 36.5275 20.2957 36.5342C20.3285 36.6075 20.3613 36.6808 20.3963 36.7541C20.3986 36.7575 20.3997 36.762 20.402 36.7654C20.411 36.7857 20.4212 36.806 20.4314 36.8252C20.4562 36.8782 20.4822 36.9312 20.5082 36.9842C20.5139 36.9955 20.5195 37.0056 20.5252 37.0158C20.5455 37.0564 20.567 37.0959 20.5874 37.1365C20.6055 37.1714 20.6235 37.2075 20.6428 37.2436C20.6484 37.2537 20.6541 37.2639 20.6597 37.274C20.7151 37.3778 20.7716 37.4804 20.8304 37.5819C20.8383 37.5943 20.8451 37.6078 20.853 37.6203C20.8655 37.6406 20.8779 37.6609 20.8903 37.6812C20.9344 37.7556 20.9785 37.8289 21.0237 37.9011C21.0452 37.9349 21.0667 37.9687 21.0882 38.0026C21.13 38.068 21.1729 38.1334 21.217 38.1988C21.2306 38.2191 21.243 38.2394 21.2566 38.2597C21.2645 38.271 21.2724 38.2822 21.2803 38.2935C21.3549 38.4018 21.4307 38.5101 21.5098 38.6149C21.5121 38.6183 21.5143 38.6217 21.5177 38.6251C21.5392 38.6544 21.5618 38.6826 21.5833 38.7108C21.6206 38.7604 21.6579 38.81 21.6963 38.8585C21.7008 38.8653 21.7054 38.8709 21.711 38.8777C21.7415 38.916 21.7732 38.9544 21.8048 38.9927C21.8308 39.0243 21.8557 39.0559 21.8817 39.0875C21.8851 39.092 21.8885 39.0965 21.893 39.101C21.9348 39.1506 21.9767 39.1991 22.0196 39.2487C22.0366 39.269 22.0535 39.2893 22.0716 39.3085L22.0761 39.313C22.1395 39.3841 22.2028 39.4551 22.2672 39.5239L22.2694 39.5262C22.326 39.5871 22.3825 39.6457 22.4401 39.7043C22.4469 39.7111 22.4537 39.7179 22.4605 39.7246C22.4831 39.7472 22.5057 39.7686 22.5283 39.7912C22.5588 39.8216 22.5894 39.8521 22.621 39.8825C22.6334 39.8949 22.6459 39.9051 22.6583 39.9175C22.6854 39.9434 22.7126 39.9682 22.7397 39.993C22.7634 40.0145 22.7861 40.037 22.8087 40.0573C22.8268 40.0731 22.8448 40.0878 22.8618 40.1036C22.8901 40.1284 22.9194 40.1532 22.9477 40.178C22.9658 40.1938 22.9839 40.2096 23.002 40.2254C23.0246 40.2445 23.0483 40.2637 23.0721 40.2818C23.1003 40.3054 23.1297 40.3291 23.158 40.3517C23.1715 40.363 23.1851 40.3742 23.1987 40.3844C23.2292 40.4081 23.2597 40.4306 23.2902 40.4543C23.3174 40.4746 23.3434 40.4949 23.3705 40.5152C23.3795 40.522 23.3874 40.5287 23.3965 40.5355C23.4394 40.5671 23.4824 40.5964 23.5254 40.6268C23.5446 40.6404 23.5638 40.655 23.5841 40.6686C23.5875 40.6708 23.5909 40.6731 23.5943 40.6753C23.6599 40.7205 23.7266 40.7644 23.7933 40.8062C23.7955 40.8073 23.7978 40.8095 23.8001 40.8107C23.8159 40.8208 23.8317 40.8298 23.8487 40.84C23.8973 40.8704 23.9447 40.8998 23.9945 40.9291C24.0103 40.9381 24.0261 40.9471 24.0408 40.9562L24.2601 41.0825C24.311 41.1118 24.363 41.1411 24.4139 41.1682C24.4297 41.1761 24.4444 41.184 24.4602 41.1919C24.4862 41.2054 24.5133 41.2189 24.5393 41.2324C24.562 41.2437 24.5846 41.2561 24.6072 41.2674C24.632 41.2798 24.6569 41.29 24.6807 41.3024C24.7055 41.3137 24.7293 41.3261 24.7541 41.3373C24.7666 41.343 24.7801 41.3497 24.7937 41.3554C24.8344 41.3734 24.874 41.3903 24.9147 41.4061C24.9305 41.4129 24.9474 41.4208 24.9633 41.4264C24.9678 41.4275 24.9712 41.4298 24.9757 41.4321C25.0356 41.4557 25.0955 41.4783 25.1543 41.4986C25.1588 41.4997 25.1633 41.5009 25.1679 41.5031C25.1848 41.5087 25.2018 41.5144 25.2176 41.52C25.2549 41.5324 25.2933 41.546 25.3306 41.5572C25.3442 41.5606 25.3566 41.564 25.3691 41.5674C25.3928 41.5742 25.4154 41.5809 25.4392 41.5866C25.4618 41.5922 25.4844 41.6001 25.507 41.6046C25.5285 41.6102 25.55 41.6136 25.5714 41.6193C25.5963 41.6249 25.62 41.6305 25.6438 41.6351C25.6573 41.6373 25.6709 41.6418 25.6845 41.6441C25.715 41.6497 25.7444 41.6542 25.7738 41.6587C25.7975 41.6621 25.8201 41.6666 25.8439 41.67C25.8506 41.6711 25.8586 41.6723 25.8653 41.6734C25.9219 41.6813 25.9773 41.6869 26.0326 41.6914C26.0417 41.6926 26.0507 41.6926 26.0598 41.6937C26.079 41.6948 26.0971 41.6948 26.1152 41.696C26.166 41.6982 26.2158 41.7005 26.2655 41.7016C26.2734 41.7016 26.2825 41.7027 26.2915 41.7027C26.3073 41.7027 26.3232 41.7005 26.339 41.7005C26.391 41.6993 26.443 41.6971 26.4939 41.6937C26.5074 41.6926 26.521 41.6926 26.5346 41.6914C26.5549 41.6892 26.5741 41.6869 26.5933 41.6847C26.6092 41.6824 26.6239 41.6813 26.6397 41.679C26.6939 41.6723 26.7482 41.6644 26.8002 41.6531L26.8036 41.652C26.8149 41.6497 26.8251 41.6463 26.8364 41.6441C26.8827 41.6339 26.9279 41.6238 26.9732 41.6114C26.9935 41.6057 27.0127 41.599 27.0319 41.5933C27.0602 41.5843 27.0896 41.5764 27.1179 41.5674C27.1235 41.5651 27.1292 41.5629 27.1348 41.5606C27.1744 41.546 27.2139 41.5302 27.2524 41.5133C27.2716 41.5054 27.2908 41.4986 27.31 41.4896C27.3666 41.4636 27.4231 41.4354 27.4773 41.405L31.1275 39.2882C31.0721 39.3209 31.0156 39.3491 30.9591 39.375Z" fill="url(#paint0_linear_2124_32568)"/>
<path d="M37.0713 35.7583C37.0521 35.7674 37.0328 35.7741 37.0136 35.782C36.9752 35.7989 36.9356 35.8147 36.8961 35.8294C36.8622 35.8418 36.8282 35.8519 36.7943 35.8621C36.7751 35.8677 36.7548 35.8745 36.7355 35.8801C36.6903 35.8925 36.6451 35.9027 36.5988 35.9128C36.5875 35.9151 36.5773 35.9185 36.566 35.9207C36.5128 35.9309 36.4575 35.9399 36.4021 35.9467C36.3862 35.9489 36.3715 35.9501 36.3557 35.9523C36.3229 35.9557 36.289 35.9579 36.2562 35.9613C36.2054 35.9647 36.1534 35.967 36.1014 35.9681C36.0765 35.9681 36.0528 35.9692 36.0279 35.9692C35.9782 35.9692 35.9284 35.967 35.8775 35.9636C35.8504 35.9625 35.8233 35.9613 35.795 35.9602C35.7329 35.9557 35.6695 35.9478 35.6051 35.9388C35.5825 35.9354 35.5588 35.9309 35.535 35.9275C35.4921 35.9207 35.4491 35.9128 35.405 35.9038C35.3813 35.8993 35.3564 35.8937 35.3327 35.888C35.2886 35.8779 35.2456 35.8666 35.2016 35.8553C35.1778 35.8486 35.1552 35.8429 35.1315 35.8362C35.0817 35.8215 35.0309 35.8057 34.98 35.7888C34.963 35.7831 34.9472 35.7786 34.9302 35.7719C34.8624 35.7482 34.7946 35.7234 34.7268 35.6952C34.7109 35.6884 34.694 35.6816 34.6782 35.6749C34.625 35.6523 34.5719 35.6298 34.5188 35.605C34.4939 35.5937 34.4702 35.5824 34.4453 35.57C34.3989 35.5474 34.3515 35.5249 34.304 35.5001C34.278 35.4865 34.2509 35.473 34.2249 35.4595C34.1582 35.4245 34.0915 35.3884 34.0248 35.3501L33.8055 35.2238C33.741 35.1866 33.6766 35.1471 33.6133 35.1076C33.5975 35.0975 33.5805 35.0885 33.5647 35.0783C33.4923 35.0321 33.42 34.9847 33.3488 34.9362C33.3296 34.9227 33.3103 34.908 33.29 34.8945C33.238 34.8584 33.186 34.8212 33.134 34.7828C33.1069 34.7625 33.0809 34.7422 33.0537 34.7219C33.0097 34.6881 32.9656 34.6543 32.9215 34.6193C32.8932 34.5968 32.8638 34.5731 32.8356 34.5494C32.7937 34.5156 32.753 34.4806 32.7112 34.4456C32.683 34.4208 32.6536 34.396 32.6253 34.3712C32.5846 34.3351 32.5428 34.2979 32.5021 34.2607C32.475 34.2359 32.4478 34.2111 32.4207 34.1851C32.3766 34.1434 32.3337 34.1017 32.2907 34.0588C32.2681 34.0363 32.2455 34.0148 32.2229 33.9923C32.1584 33.928 32.0951 33.8615 32.033 33.7938C31.9663 33.7216 31.8996 33.6483 31.8351 33.575C31.8182 33.5558 31.8024 33.5355 31.7854 33.5164C31.739 33.4622 31.6916 33.4081 31.6464 33.354C31.6204 33.3224 31.5955 33.2908 31.5695 33.2604C31.5333 33.2153 31.4971 33.1713 31.461 33.1262C31.4225 33.0777 31.3852 33.028 31.3479 32.9796C31.3231 32.9468 31.2982 32.9153 31.2733 32.8814C31.1953 32.7754 31.1184 32.6683 31.0438 32.56C31.0224 32.5285 31.002 32.498 30.9805 32.4664C30.9376 32.4021 30.8946 32.3367 30.8517 32.2702C30.8302 32.2364 30.8087 32.2025 30.7872 32.1687C30.742 32.0965 30.6979 32.0221 30.6538 31.9488C30.6346 31.9161 30.6143 31.8834 30.5951 31.8495C30.5363 31.748 30.4798 31.6454 30.4244 31.5417C30.4006 31.4966 30.3769 31.4514 30.3531 31.4052C30.3317 31.3646 30.3113 31.324 30.291 31.2834C30.2593 31.2203 30.2277 31.1571 30.1971 31.0928C30.187 31.0725 30.1779 31.0522 30.1678 31.0319C30.1282 30.9485 30.0909 30.865 30.0536 30.7804C30.0445 30.759 30.0355 30.7376 30.0253 30.715C29.9982 30.6519 29.9711 30.5887 29.9451 30.5256C29.9326 30.4962 29.9213 30.4658 29.9089 30.4365C29.8863 30.379 29.8637 30.3214 29.8422 30.2639C29.8309 30.2335 29.8185 30.2019 29.8071 30.1714C29.7845 30.1117 29.7642 30.0508 29.7427 29.9899C29.7325 29.9617 29.7224 29.9324 29.7122 29.9042C29.6817 29.8151 29.6534 29.7271 29.6251 29.6369C29.598 29.5489 29.5731 29.4621 29.5494 29.3741C29.5426 29.3482 29.5358 29.3223 29.5291 29.2952C29.5132 29.2343 29.4974 29.1723 29.4827 29.1114C29.4759 29.0809 29.468 29.0516 29.4612 29.0211C29.4477 28.9602 29.4341 28.8993 29.4217 28.8396C29.416 28.8136 29.4104 28.7866 29.4058 28.7606C29.3889 28.6749 29.3742 28.5903 29.3606 28.5046C29.3595 28.499 29.3595 28.4934 29.3584 28.4888C29.3459 28.4088 29.3346 28.3298 29.3256 28.2509C29.3222 28.2238 29.3199 28.1968 29.3165 28.1697C29.3098 28.111 29.3041 28.0524 29.2996 27.9949C29.2973 27.9644 29.2951 27.9351 29.2928 27.9058C29.2883 27.8483 29.2849 27.7908 29.2826 27.7332C29.2815 27.7051 29.2792 27.678 29.2792 27.6498C29.2758 27.5663 29.2747 27.484 29.2747 27.4017L29.3041 16.8809C29.3041 16.794 29.3064 16.7095 29.3098 16.626C29.3109 16.6035 29.3131 16.5809 29.3143 16.5583C29.3177 16.5008 29.3211 16.4422 29.3267 16.3858C29.329 16.3553 29.3324 16.326 29.3358 16.2967C29.3403 16.2482 29.3459 16.2008 29.3527 16.1535C29.3572 16.1208 29.3618 16.0892 29.3674 16.0576C29.3742 16.0148 29.381 15.9719 29.3889 15.9302C29.3957 15.8963 29.4025 15.8625 29.4092 15.8287C29.4171 15.7903 29.4262 15.752 29.4352 15.7148C29.4443 15.6776 29.4533 15.6415 29.4635 15.6054C29.4725 15.5716 29.4827 15.5377 29.4929 15.505C29.5065 15.4622 29.52 15.4204 29.5347 15.3798C29.5449 15.3505 29.5551 15.3223 29.5664 15.2941C29.589 15.2355 29.6127 15.1791 29.6376 15.1238C29.6478 15.1013 29.6568 15.0787 29.667 15.0573C29.6952 14.9998 29.7246 14.9445 29.7551 14.8904C29.7653 14.8723 29.7755 14.8554 29.7857 14.8385C29.8071 14.8024 29.8286 14.7663 29.8512 14.7314C29.8614 14.7156 29.8727 14.6998 29.8829 14.684C29.9055 14.6502 29.9292 14.6175 29.953 14.5848C29.9643 14.569 29.9756 14.5543 29.9869 14.5397C30.0151 14.5036 30.0434 14.4697 30.0728 14.4359C30.0807 14.4269 30.0875 14.4179 30.0954 14.4088C30.1327 14.3671 30.1711 14.3276 30.2107 14.2893C30.2209 14.2792 30.2311 14.2701 30.2424 14.26C30.2729 14.2318 30.3034 14.2047 30.3339 14.1777C30.3475 14.1664 30.3622 14.154 30.3769 14.1427C30.4074 14.119 30.4379 14.0953 30.4684 14.0728C30.482 14.0626 30.4956 14.0525 30.5091 14.0435C30.5532 14.013 30.5984 13.9837 30.6459 13.9566L26.9958 16.0734C26.9494 16.1005 26.9042 16.1298 26.859 16.1602C26.8454 16.1693 26.8319 16.1794 26.8183 16.1896C26.7866 16.2121 26.7561 16.2347 26.7267 16.2595C26.712 16.2708 26.6985 16.282 26.6849 16.2944C26.6533 16.3204 26.6227 16.3486 26.5933 16.3756C26.5832 16.3858 26.5719 16.3948 26.5617 16.405C26.5221 16.4433 26.4837 16.4828 26.4464 16.5245C26.4385 16.5335 26.4317 16.5426 26.4238 16.5516C26.3944 16.5854 26.3661 16.6192 26.3379 16.6553C26.3266 16.67 26.3153 16.6858 26.3039 16.7004C26.2802 16.7331 26.2565 16.7658 26.2339 16.7997C26.2237 16.8155 26.2124 16.8313 26.2022 16.847C26.1966 16.8549 26.1909 16.8628 26.1853 16.8719C26.1683 16.8989 26.1525 16.9271 26.1355 16.9553C26.1253 16.9722 26.1152 16.9891 26.105 17.0072C26.0745 17.0613 26.0451 17.1166 26.0168 17.1752C26.0123 17.1831 26.0089 17.1921 26.0044 17.2C25.9976 17.2136 25.9931 17.2282 25.9863 17.2418C25.9614 17.297 25.9366 17.3534 25.9151 17.412C25.9106 17.4233 25.906 17.4323 25.9015 17.4436C25.8947 17.4617 25.8902 17.4808 25.8834 17.4978C25.8687 17.5384 25.8552 17.5801 25.8416 17.6229C25.8371 17.6387 25.8303 17.6534 25.8258 17.6703C25.8201 17.6872 25.8167 17.7064 25.8122 17.7244C25.802 17.7605 25.793 17.7977 25.784 17.8338C25.7794 17.8519 25.7738 17.8699 25.7693 17.8891C25.7647 17.9083 25.7613 17.9286 25.7568 17.9489C25.75 17.9827 25.7433 18.0165 25.7365 18.0504C25.7331 18.0684 25.7286 18.0864 25.7252 18.1045C25.7206 18.1282 25.7184 18.153 25.7139 18.1778C25.7093 18.2094 25.7037 18.2421 25.6992 18.2737C25.6969 18.2894 25.6946 18.303 25.6924 18.3188C25.6879 18.3503 25.6856 18.3842 25.6822 18.4157C25.6788 18.4451 25.6754 18.4744 25.6732 18.5048C25.672 18.515 25.6709 18.5251 25.6698 18.5353C25.6664 18.5815 25.6641 18.63 25.6607 18.6774C25.6596 18.6999 25.6573 18.7214 25.6562 18.7451C25.6562 18.7496 25.6551 18.7529 25.6551 18.7575C25.6517 18.8319 25.6506 18.9086 25.6494 18.9853C25.6494 18.9898 25.6494 18.9943 25.6494 18.9988L25.62 29.5196C25.62 29.5918 25.6212 29.664 25.6234 29.7361C25.6234 29.7463 25.6246 29.7576 25.6246 29.7677C25.6257 29.7959 25.6268 29.8241 25.628 29.8512C25.6302 29.8884 25.6302 29.9245 25.6336 29.9617C25.6347 29.982 25.637 30.0034 25.6381 30.0237C25.6404 30.0542 25.6426 30.0835 25.6449 30.1139C25.6472 30.1376 25.6483 30.1613 25.6506 30.185C25.654 30.2199 25.6585 30.2549 25.6619 30.2899C25.6653 30.3169 25.6675 30.344 25.6709 30.3699C25.672 30.3823 25.6732 30.3936 25.6754 30.406C25.6845 30.4737 25.6935 30.5414 25.7048 30.609C25.706 30.6147 25.706 30.6203 25.7071 30.6248V30.6271C25.7184 30.7015 25.732 30.7748 25.7455 30.8492C25.7478 30.8594 25.75 30.8695 25.7523 30.8808C25.7568 30.9067 25.7625 30.9327 25.7681 30.9586C25.776 30.997 25.7828 31.0353 25.7919 31.0725C25.7964 31.0951 25.8032 31.1176 25.8077 31.1413C25.8145 31.1706 25.8213 31.2011 25.828 31.2304C25.8337 31.253 25.8382 31.2755 25.8439 31.2981C25.854 31.3364 25.8642 31.3759 25.8744 31.4142C25.8812 31.4402 25.888 31.4661 25.8947 31.492C25.897 31.5022 25.9004 31.5123 25.9026 31.5225C25.923 31.5969 25.9445 31.6702 25.9682 31.7447C25.9693 31.748 25.9705 31.7503 25.9716 31.7537C25.9965 31.8349 26.0236 31.9172 26.0507 31.9984C26.053 32.0063 26.0564 32.0131 26.0586 32.021C26.0688 32.0503 26.079 32.0796 26.0892 32.1078C26.105 32.1529 26.1197 32.1969 26.1355 32.242C26.1412 32.2578 26.1468 32.2725 26.1525 32.2882C26.1638 32.3198 26.1762 32.3503 26.1875 32.3818C26.1999 32.4134 26.2113 32.445 26.2226 32.4754C26.2327 32.5014 26.244 32.5285 26.2542 32.5544C26.2655 32.5837 26.2779 32.6142 26.2904 32.6435C26.2983 32.6627 26.3051 32.6818 26.313 32.6999C26.3311 32.7439 26.3514 32.789 26.3706 32.8329C26.3797 32.8544 26.3887 32.8758 26.3989 32.8972C26.4023 32.904 26.4046 32.9108 26.4079 32.9175C26.4407 32.9908 26.4735 33.0641 26.5086 33.1374C26.5108 33.1408 26.5119 33.1453 26.5142 33.1487C26.5233 33.169 26.5334 33.1893 26.5436 33.2085C26.5685 33.2615 26.5945 33.3145 26.6205 33.3675C26.6261 33.3788 26.6318 33.3889 26.6374 33.3991C26.6578 33.4397 26.6793 33.4791 26.6996 33.5197C26.7177 33.5547 26.7358 33.5908 26.755 33.6269C26.7606 33.637 26.7663 33.6472 26.7719 33.6573C26.8273 33.7611 26.8839 33.8637 26.9426 33.9652C26.9506 33.9776 26.9573 33.9912 26.9652 34.0036C26.9777 34.0239 26.9901 34.0442 27.0026 34.0645C27.0466 34.1389 27.0907 34.2122 27.1359 34.2844C27.1574 34.3182 27.1789 34.352 27.2004 34.3859C27.2422 34.4513 27.2852 34.5167 27.3281 34.5821C27.3417 34.6024 27.3541 34.6227 27.3677 34.643C27.3756 34.6543 27.3835 34.6655 27.3914 34.6768C27.466 34.7851 27.5418 34.8934 27.6209 34.9982C27.6232 35.0016 27.6254 35.005 27.6288 35.0084C27.6503 35.0377 27.6729 35.0659 27.6944 35.0941C27.7317 35.1437 27.769 35.1933 27.8074 35.2418C27.8119 35.2486 27.8165 35.2542 27.8221 35.261C27.8526 35.2993 27.8843 35.3377 27.9159 35.376C27.9419 35.4076 27.9668 35.4392 27.9928 35.4708C27.9962 35.4753 27.9996 35.4798 28.0041 35.4843C28.0459 35.5339 28.0878 35.5824 28.1307 35.632C28.1477 35.6523 28.1646 35.6726 28.1827 35.6918L28.1872 35.6963C28.2505 35.7674 28.3139 35.8384 28.3783 35.9072L28.3805 35.9095C28.4371 35.9704 28.4936 36.029 28.5512 36.0876C28.558 36.0944 28.5648 36.1012 28.5716 36.1079C28.5942 36.1305 28.6168 36.1519 28.6394 36.1745C28.6699 36.2049 28.7005 36.2354 28.7321 36.2658C28.7445 36.2782 28.757 36.2884 28.7694 36.3008C28.7965 36.3267 28.8237 36.3515 28.8508 36.3763C28.8745 36.3978 28.8972 36.4203 28.9198 36.4406C28.9378 36.4564 28.9559 36.4711 28.9729 36.4869C29.0012 36.5117 29.0305 36.5365 29.0588 36.5613C29.0769 36.5771 29.095 36.5929 29.1131 36.6087C29.1357 36.6278 29.1594 36.647 29.1831 36.665C29.2114 36.6887 29.2408 36.7124 29.2691 36.735C29.2826 36.7463 29.2962 36.7575 29.3098 36.7677C29.3403 36.7914 29.3708 36.8139 29.4013 36.8376C29.4285 36.8579 29.4545 36.8782 29.4816 36.8985C29.4906 36.9053 29.4985 36.912 29.5076 36.9188C29.5505 36.9504 29.5935 36.9797 29.6365 37.0101C29.6557 37.0237 29.6749 37.0383 29.6952 37.0519C29.6986 37.0541 29.702 37.0564 29.7054 37.0586C29.771 37.1037 29.8377 37.1477 29.9044 37.1895C29.9066 37.1906 29.9089 37.1928 29.9111 37.194C29.927 37.2041 29.9428 37.2131 29.9598 37.2233C30.0084 37.2537 30.0558 37.2831 30.1056 37.3124C30.1214 37.3214 30.1372 37.3304 30.1519 37.3394L30.3712 37.4658C30.4221 37.4951 30.4741 37.5244 30.525 37.5515C30.5408 37.5594 30.5555 37.5673 30.5713 37.5751C30.5973 37.5887 30.6244 37.6022 30.6504 37.6157C30.6731 37.627 30.6957 37.6394 30.7183 37.6507C30.7431 37.6631 30.768 37.6733 30.7917 37.6857C30.8166 37.6969 30.8404 37.7094 30.8652 37.7206C30.8777 37.7263 30.8912 37.733 30.9048 37.7387C30.9455 37.7567 30.9851 37.7736 31.0257 37.7894C31.0416 37.7962 31.0585 37.8041 31.0744 37.8097C31.0789 37.8109 31.0823 37.8131 31.0868 37.8154C31.1467 37.839 31.2066 37.8616 31.2654 37.8819C31.2699 37.883 31.2744 37.8842 31.279 37.8864C31.2959 37.892 31.3129 37.8977 31.3287 37.9033C31.366 37.9157 31.4044 37.9293 31.4417 37.9405C31.4553 37.9439 31.4677 37.9473 31.4802 37.9507C31.5039 37.9575 31.5265 37.9642 31.5503 37.9699C31.5729 37.9755 31.5955 37.9834 31.6181 37.9879C31.6396 37.9935 31.661 37.9969 31.6825 38.0026C31.7074 38.0082 31.7311 38.0138 31.7549 38.0184C31.7684 38.0206 31.782 38.0251 31.7956 38.0274C31.8261 38.033 31.8555 38.0375 31.8849 38.042C31.9086 38.0454 31.9312 38.0499 31.955 38.0533C31.9617 38.0544 31.9697 38.0556 31.9764 38.0567C32.033 38.0646 32.0884 38.0702 32.1437 38.0747C32.1528 38.0759 32.1618 38.0759 32.1709 38.077C32.1901 38.0781 32.2082 38.0781 32.2263 38.0793C32.2771 38.0815 32.3269 38.0838 32.3766 38.0849C32.3845 38.0849 32.3936 38.086 32.4026 38.086C32.4184 38.086 32.4343 38.0838 32.4501 38.0838C32.5021 38.0826 32.5541 38.0804 32.605 38.077C32.6185 38.0759 32.6321 38.0759 32.6457 38.0747C32.666 38.0725 32.6852 38.0702 32.7044 38.068C32.7203 38.0657 32.735 38.0646 32.7508 38.0623C32.805 38.0556 32.8593 38.0477 32.9113 38.0364L32.9147 38.0353C32.926 38.033 32.9362 38.0296 32.9475 38.0274C32.9938 38.0172 33.039 38.0071 33.0843 37.9947C33.1046 37.989 33.1238 37.9823 33.143 37.9766C33.1713 37.9676 33.2007 37.9597 33.229 37.9507C33.2346 37.9484 33.2403 37.9462 33.2459 37.9439C33.2855 37.9293 33.325 37.9135 33.3635 37.8966C33.3827 37.8887 33.4019 37.8819 33.4211 37.8729C33.4776 37.8469 33.5342 37.8187 33.5884 37.7883L37.2386 35.6715C37.1832 35.7042 37.1278 35.7324 37.0713 35.7583Z" fill="url(#paint1_linear_2124_32568)"/>
<path d="M53.9956 37.0104C55.0772 37.0104 56.309 36.8605 57.3906 35.8114L57.5408 35.6616V36.7406H61.1762V23.0129H57.5408V24.2118L57.3906 24.0919C56.3991 23.1927 55.2574 22.7431 53.9956 22.7431C52.0727 22.7431 50.2701 23.4625 48.9181 24.8113C47.5661 26.19 46.815 27.9884 46.815 29.8767C46.815 31.7651 47.5661 33.5634 48.9181 34.9422C50.3001 36.291 52.1028 37.0104 53.9956 37.0104ZM53.9956 26.25C55.9184 26.25 57.5408 27.9285 57.5408 29.8767C57.5408 31.855 55.9184 33.5035 53.9956 33.5035C52.0727 33.5035 50.4503 31.855 50.4503 29.8767C50.4503 27.9285 52.0727 26.25 53.9956 26.25Z" fill="#F5F7EF"/>
<path d="M68.726 36.7406V29.4571C68.726 27.8086 70.1681 26.4298 71.9407 26.4298H72.5116L73.4129 22.6832H72.5116C71.43 22.6832 69.8076 23.0428 68.726 24.1219V23.0129H64.9404V36.7406H68.726Z" fill="#F5F7EF"/>
<path d="M81.5753 37.0104C82.6569 37.0104 83.8887 36.8605 84.9703 35.8114L85.1206 35.6616V36.7406H88.7559V23.0129H85.1206V24.2118L84.9703 24.0919C83.9789 23.1927 82.8372 22.7431 81.5753 22.7431C79.6525 22.7431 77.8498 23.4625 76.4978 24.8113C75.1458 26.19 74.3947 27.9884 74.3947 29.8767C74.3947 31.7651 75.1458 33.5634 76.4978 34.9422C77.8799 36.291 79.6825 37.0104 81.5753 37.0104ZM81.5753 26.25C83.4982 26.25 85.1206 27.9285 85.1206 29.8767C85.1206 31.855 83.4982 33.5035 81.5753 33.5035C79.6525 33.5035 78.0301 31.855 78.0301 29.8767C78.0301 27.9285 79.6525 26.25 81.5753 26.25Z" fill="#F5F7EF"/>
<path d="M115.079 36.7406V29.3972C115.079 27.6287 114.388 25.9502 113.126 24.6614C111.864 23.4325 110.182 22.7431 108.409 22.7431C107.538 22.7431 106.667 22.923 105.826 23.2826C105.014 23.6423 104.293 24.1519 103.662 24.7813C103.632 24.8113 103.632 24.8113 103.602 24.8412C103.572 24.8113 103.542 24.8113 103.542 24.7813C102.881 24.1519 102.16 23.6423 101.379 23.2826C100.538 22.923 99.6665 22.7431 98.7952 22.7431C97.8037 22.7431 96.8123 23.0728 95.8809 24.002V23.0129H92.1254V36.7406H95.8809V29.3972C95.8809 27.8086 97.2028 26.3998 98.7952 26.3998C100.388 26.3998 101.709 27.7786 101.709 29.3972V36.7406H105.465V29.3972C105.465 27.7786 106.787 26.3998 108.409 26.3998C109.972 26.3998 111.324 27.8086 111.324 29.3972V36.7406H115.079Z" fill="#F5F7EF"/>
<path d="M122.724 36.7406V23.0129H118.818V36.7406H122.724ZM120.771 21.3643C122.033 21.3643 123.084 20.3153 123.084 19.0564C123.084 17.7975 122.033 16.7485 120.771 16.7485C120.14 16.7485 119.569 16.9883 119.119 17.4378C118.668 17.8575 118.428 18.427 118.428 19.0564C118.428 20.3153 119.479 21.3643 120.771 21.3643Z" fill="#F5F7EF"/>
<path d="M133.214 37.0104C134.296 37.0104 135.527 36.8605 136.609 35.8114L136.759 35.6616V36.7406H140.395V14.7403H136.759V24.2118L136.609 24.0919C135.618 23.1927 134.476 22.7431 133.214 22.7431C131.291 22.7431 129.489 23.4625 128.137 24.8113C126.785 26.19 126.033 27.9884 126.033 29.8767C126.033 31.7651 126.785 33.5634 128.137 34.9422C129.519 36.291 131.321 37.0104 133.214 37.0104ZM133.214 26.25C135.137 26.25 136.759 27.9285 136.759 29.8767C136.759 31.855 135.137 33.5035 133.214 33.5035C131.291 33.5035 129.669 31.855 129.669 29.8767C129.669 27.9285 131.291 26.25 133.214 26.25Z" fill="#F5F7EF"/>
<path d="M45.1697 41.5697C45.1459 41.5663 45.1222 41.5618 45.0996 41.5584C45.0566 41.5516 45.0137 41.5437 44.9696 41.5347C44.9458 41.5302 44.921 41.5245 44.8961 41.5189C44.8531 41.5088 44.8091 41.4986 44.765 41.4862C44.7412 41.4794 44.7175 41.4738 44.6949 41.467C44.6452 41.4524 44.5954 41.4366 44.5445 41.4197C44.5276 41.414 44.5095 41.4084 44.4925 41.4027C44.4247 41.3791 44.3569 41.3543 44.2879 41.3261C44.2732 41.3204 44.2574 41.3125 44.2416 41.3069C44.1873 41.2843 44.1331 41.2607 44.0788 41.2358C44.0551 41.2246 44.0302 41.2133 44.0065 41.202C43.959 41.1795 43.9126 41.1569 43.8652 41.1321C43.8392 41.1186 43.8132 41.105 43.7872 41.0915C43.7205 41.0565 43.6549 41.0204 43.5871 40.9821L43.3678 40.8558C43.3022 40.8186 43.2378 40.7791 43.1733 40.7385C43.1586 40.7295 43.1428 40.7205 43.1281 40.7103C43.0558 40.6641 42.9834 40.6167 42.9122 40.5682C42.8919 40.5547 42.8715 40.5389 42.8512 40.5254C42.8003 40.4893 42.7483 40.4532 42.6986 40.416C42.6714 40.3957 42.6443 40.3754 42.6183 40.3551C42.5742 40.3212 42.5301 40.2874 42.4872 40.2536C42.4589 40.231 42.4295 40.2073 42.4012 40.1836C42.3594 40.1498 42.3187 40.1149 42.2769 40.0799C42.2486 40.0551 42.2192 40.0303 42.191 40.0055C42.1492 39.9694 42.1085 39.9322 42.0678 39.8938C42.0406 39.869 42.0135 39.8442 41.9875 39.8194C41.9434 39.7777 41.8993 39.7348 41.8564 39.692C41.8349 39.6705 41.8123 39.6491 41.7908 39.6265C41.7264 39.5611 41.662 39.4957 41.5998 39.4269C41.5331 39.3548 41.4664 39.2814 41.402 39.2081C41.385 39.189 41.3692 39.1698 41.3522 39.1506C41.3047 39.0965 41.2584 39.0412 41.212 38.986C41.186 38.9544 41.1612 38.9228 41.1352 38.8912C41.099 38.8461 41.0628 38.8022 41.0266 38.757C40.9871 38.7063 40.9486 38.6555 40.9091 38.6037C40.8853 38.5732 40.8616 38.5428 40.839 38.5112C40.761 38.4052 40.6841 38.2969 40.6095 38.1887C40.588 38.1582 40.5677 38.1266 40.5462 38.0962C40.5021 38.0308 40.4592 37.9642 40.4162 37.8977C40.3947 37.865 40.3733 37.8312 40.3529 37.7984C40.3054 37.7229 40.2591 37.6462 40.2127 37.5684C40.1958 37.5402 40.1788 37.512 40.1619 37.4838C40.1042 37.3834 40.0477 37.2819 39.9923 37.1793C39.9674 37.1331 39.9437 37.0868 39.92 37.0406C39.8996 37.0011 39.8781 36.9605 39.8578 36.9211C39.825 36.8556 39.7922 36.7891 39.7606 36.7226C39.7527 36.7045 39.7436 36.6876 39.7346 36.6696C39.695 36.5861 39.6577 36.5027 39.6204 36.4181C39.6102 36.3955 39.6012 36.373 39.591 36.3504C39.5639 36.2884 39.5379 36.2264 39.5119 36.1632C39.4994 36.1339 39.4881 36.1034 39.4757 36.0741C39.4531 36.0166 39.4305 35.9591 39.409 35.9016C39.3977 35.87 39.3853 35.8395 39.374 35.808C39.3525 35.7482 39.331 35.6884 39.3107 35.6287C39.3005 35.5993 39.2892 35.57 39.2801 35.5407C39.2507 35.4527 39.2214 35.3636 39.1942 35.2745C39.1671 35.1866 39.1411 35.0986 39.1174 35.0106C39.1106 34.9858 39.1038 34.9599 39.097 34.9351C39.0801 34.8731 39.0654 34.811 39.0495 34.749C39.0427 34.7197 39.036 34.6892 39.0292 34.6599C39.0156 34.599 39.0021 34.5381 38.9896 34.4772C38.984 34.4513 38.9783 34.4253 38.9738 34.3994C38.9568 34.3137 38.9421 34.228 38.9286 34.1434C38.9274 34.1389 38.9274 34.1355 38.9263 34.131C38.9139 34.0498 38.9026 33.9697 38.8924 33.8885C38.889 33.8615 38.8867 33.8355 38.8834 33.8085C38.8766 33.7498 38.8709 33.6912 38.8664 33.6325C38.8641 33.6021 38.8619 33.5728 38.8596 33.5423C38.8551 33.4848 38.8517 33.4273 38.8494 33.3698C38.8483 33.3416 38.8461 33.3134 38.8461 33.2863C38.8427 33.204 38.8415 33.1205 38.8415 33.0382L38.8449 22.5456C38.8449 22.4723 38.8438 22.3978 38.8415 22.3234C38.8415 22.3121 38.8404 22.302 38.8404 22.2907C38.8393 22.2625 38.8381 22.2332 38.8359 22.2039C38.8336 22.1667 38.8325 22.1283 38.8302 22.0911C38.8291 22.0697 38.8268 22.0482 38.8246 22.0268C38.8223 21.9964 38.8201 21.9648 38.8167 21.9343C38.8144 21.9107 38.8133 21.8858 38.811 21.8622C38.8076 21.8261 38.8031 21.7889 38.7986 21.7528C38.7952 21.7257 38.7929 21.6975 38.7895 21.6704C38.7884 21.658 38.7873 21.6468 38.785 21.6344C38.776 21.5633 38.7658 21.4911 38.7545 21.4201C38.7534 21.4156 38.7534 21.4122 38.7522 21.4077V21.4054C38.7398 21.3287 38.7274 21.252 38.7127 21.1754C38.7104 21.1641 38.7081 21.1539 38.7059 21.1427C38.7002 21.1156 38.6946 21.0885 38.6889 21.0615C38.681 21.022 38.6742 20.9836 38.6652 20.9442C38.6595 20.9205 38.6539 20.8968 38.6482 20.8731C38.6414 20.8427 38.6347 20.8111 38.6267 20.7806C38.6211 20.7581 38.6166 20.7344 38.6109 20.7119C38.6008 20.6713 38.5894 20.6307 38.5781 20.5889C38.5714 20.5619 38.5646 20.5359 38.5567 20.5089C38.5544 20.4987 38.551 20.4886 38.5487 20.4784C38.5273 20.4017 38.5047 20.3239 38.4809 20.2472C38.4798 20.2438 38.4787 20.2405 38.4775 20.2371C38.4515 20.1525 38.4244 20.0679 38.3961 19.9833C38.3939 19.9766 38.3905 19.9687 38.3882 19.9619C38.3781 19.9315 38.3668 19.901 38.3566 19.8706C38.3396 19.8232 38.3238 19.7758 38.3068 19.7273C38.3012 19.7127 38.2955 19.698 38.291 19.6833C38.2786 19.6506 38.2661 19.6191 38.2548 19.5864C38.2413 19.5525 38.2288 19.5176 38.2164 19.4837C38.2074 19.4589 38.1961 19.4352 38.187 19.4104C38.1746 19.3777 38.161 19.3461 38.1486 19.3134C38.1395 19.292 38.1316 19.2695 38.1214 19.248C38.1056 19.2086 38.0875 19.1702 38.0706 19.1307C38.0593 19.1037 38.048 19.0766 38.0355 19.0495C38.031 19.0394 38.0265 19.0281 38.022 19.018C37.9892 18.9424 37.9541 18.868 37.9191 18.7935C37.918 18.7913 37.9168 18.789 37.9157 18.7868V18.7857C37.8773 18.7045 37.8388 18.6233 37.7981 18.5432C37.7948 18.5364 37.7914 18.5308 37.788 18.524C37.7654 18.4789 37.7416 18.4349 37.719 18.3898C37.6975 18.3481 37.6772 18.3075 37.6546 18.2658C37.6512 18.259 37.6478 18.2534 37.6444 18.2466C37.5913 18.1462 37.5359 18.047 37.4794 17.9477C37.4647 17.9207 37.4488 17.8947 37.433 17.8677C37.4195 17.844 37.4048 17.8203 37.3901 17.7977C37.3505 17.7301 37.3098 17.6635 37.268 17.597C37.2454 17.5598 37.2216 17.5237 37.199 17.4865C37.1572 17.4211 37.1142 17.3557 37.0701 17.2903C37.0555 17.2677 37.0408 17.244 37.0249 17.2215L36.7604 16.8482C36.7367 16.8166 36.7129 16.7861 36.6892 16.7557C36.653 16.7083 36.618 16.6621 36.5818 16.6147C36.575 16.6068 36.5694 16.5978 36.5626 16.5899C36.5332 16.5527 36.5027 16.5155 36.4722 16.4783C36.4462 16.4456 36.4202 16.4129 36.393 16.3813C36.3874 16.3756 36.3828 16.3689 36.3783 16.3621C36.3388 16.3147 36.2981 16.2674 36.2574 16.2211C36.2382 16.1986 36.2201 16.176 36.2008 16.1546C36.1986 16.1523 36.1963 16.149 36.1941 16.1467C36.1308 16.0745 36.0663 16.0035 36.0008 15.9336L35.9985 15.9313C35.9397 15.8682 35.8809 15.8073 35.8222 15.7464C35.8154 15.7396 35.8086 15.7328 35.8018 15.7261C35.7781 15.7024 35.7555 15.6798 35.7317 15.6561C35.7001 15.6246 35.6684 15.5919 35.6356 15.5614C35.6232 15.549 35.6108 15.5377 35.5983 15.5264C35.5701 15.5005 35.5418 15.4746 35.5135 15.4486C35.4887 15.4261 35.4649 15.4035 35.4401 15.381C35.422 15.3652 35.4039 15.3505 35.3869 15.3347C35.3575 15.3088 35.3282 15.2829 35.2976 15.2569C35.2784 15.24 35.2592 15.2231 35.24 15.2062C35.2162 15.187 35.1925 15.1678 35.1699 15.1486C35.1405 15.1238 35.1111 15.1002 35.0806 15.0765C35.0659 15.0652 35.0523 15.0528 35.0376 15.0415C35.0071 15.0178 34.9766 14.9953 34.9461 14.9716C34.9178 14.9502 34.8907 14.9287 34.8624 14.9084C34.8534 14.9017 34.8432 14.8938 34.8342 14.887C34.7912 14.8554 34.7482 14.825 34.7042 14.7945C34.6827 14.7799 34.6623 14.7641 34.642 14.7506C34.6386 14.7483 34.6341 14.7449 34.6307 14.7427C34.5629 14.6964 34.495 14.6513 34.4261 14.6085C34.4238 14.6073 34.4216 14.6062 34.4193 14.6039C34.4046 14.5938 34.3888 14.5859 34.3729 14.5758C34.3221 14.5442 34.2712 14.5126 34.2192 14.4821C34.2034 14.4731 34.1876 14.463 34.1706 14.454L33.9513 14.3276C33.8982 14.2972 33.8462 14.2679 33.7942 14.2397C33.7783 14.2307 33.7614 14.2228 33.7456 14.2149C33.7184 14.2002 33.6913 14.1867 33.6642 14.1731C33.6416 14.1619 33.6178 14.1495 33.5952 14.1382C33.5692 14.1258 33.5432 14.1134 33.5172 14.1021C33.4923 14.0897 33.4675 14.0784 33.4426 14.0671C33.4302 14.0615 33.4166 14.0547 33.403 14.0491C33.3601 14.0299 33.3171 14.0119 33.2742 13.995C33.2583 13.9882 33.2425 13.9814 33.2267 13.9747C33.2233 13.9735 33.2188 13.9713 33.2154 13.9701C33.1532 13.9453 33.0922 13.9228 33.0311 13.9014C33.0255 13.8991 33.021 13.898 33.0164 13.8968C32.9983 13.8901 32.9803 13.8856 32.9622 13.8788C32.9249 13.8664 32.8864 13.8529 32.8491 13.8416C32.8356 13.8371 32.822 13.8337 32.8073 13.8303C32.7824 13.8235 32.7587 13.8168 32.7338 13.81C32.7112 13.8044 32.6886 13.7965 32.666 13.7908C32.6434 13.7852 32.6208 13.7807 32.5993 13.7762C32.5744 13.7705 32.5484 13.7649 32.5236 13.7593C32.51 13.7559 32.4953 13.7525 32.4817 13.7502C32.4512 13.7446 32.4207 13.7401 32.389 13.7356C32.3642 13.7311 32.3404 13.7266 32.3156 13.7232C32.3077 13.722 32.2997 13.7209 32.293 13.7198C32.2353 13.7119 32.1777 13.7063 32.12 13.7017C32.1098 13.7006 32.0997 13.7006 32.0895 13.6995C32.068 13.6984 32.0477 13.6984 32.0262 13.6972C31.7605 13.6645 31.3649 13.6916 31.0563 13.7683C30.7477 13.845 29.7902 14.4348 29.7902 14.4348L23.8317 17.9365L21.0814 19.5311C21.139 19.4973 21.1978 19.4668 21.2588 19.4386C21.2781 19.4296 21.2995 19.4217 21.3188 19.4127C21.3606 19.3946 21.4024 19.3777 21.4454 19.3619C21.477 19.3507 21.5098 19.3394 21.5415 19.3292C21.5629 19.3225 21.5844 19.3157 21.607 19.3089C21.6455 19.2977 21.685 19.2886 21.7235 19.2796C21.7427 19.2751 21.7619 19.2706 21.7811 19.2661C21.8354 19.2548 21.8908 19.2458 21.9473 19.239C21.9608 19.2368 21.9755 19.2356 21.9891 19.2345C22.0264 19.23 22.0637 19.2266 22.101 19.2243C22.1519 19.221 22.2028 19.2187 22.2548 19.2176C22.2808 19.2176 22.3056 19.2165 22.3316 19.2165C22.3791 19.2165 22.4266 19.2187 22.4752 19.221C22.5068 19.2221 22.5374 19.2232 22.569 19.2255C22.6334 19.23 22.699 19.2379 22.7646 19.248C22.7883 19.2514 22.8132 19.2559 22.8381 19.2604C22.8821 19.2683 22.9262 19.2751 22.9714 19.2852C22.9963 19.2909 23.0223 19.2965 23.0472 19.3022C23.0924 19.3123 23.1376 19.3236 23.1828 19.336C23.2077 19.3428 23.2314 19.3495 23.2563 19.3563C23.3072 19.371 23.3592 19.3879 23.4112 19.4048C23.4293 19.4104 23.4474 19.4161 23.4654 19.4228C23.5355 19.4465 23.6056 19.4736 23.6757 19.5018C23.6915 19.5085 23.7074 19.5153 23.7232 19.5221C23.7786 19.5446 23.8351 19.5694 23.8916 19.5954C23.9165 19.6067 23.9414 19.6191 23.9674 19.6303C24.016 19.6529 24.0646 19.6777 24.1132 19.7025C24.1403 19.7161 24.1674 19.7296 24.1946 19.7442C24.2635 19.7803 24.3314 19.8175 24.4003 19.857L24.6196 19.9833C24.6874 20.0228 24.7541 20.0634 24.8208 20.1051C24.8367 20.1141 24.8513 20.1232 24.8672 20.1333C24.9418 20.1807 25.0164 20.2292 25.0899 20.2799C25.1113 20.2946 25.1317 20.3092 25.152 20.3239C25.2052 20.3611 25.2572 20.3983 25.3103 20.4378C25.3386 20.4581 25.3657 20.4795 25.394 20.501C25.4392 20.5359 25.4844 20.5709 25.5296 20.6058C25.559 20.6295 25.5895 20.6543 25.6189 20.678C25.6619 20.713 25.7048 20.7491 25.7466 20.7852C25.776 20.8111 25.8066 20.8359 25.836 20.863C25.8789 20.9002 25.9207 20.9385 25.9626 20.9769C25.9908 21.0028 26.0191 21.0288 26.0473 21.0547C26.0926 21.0975 26.1366 21.1404 26.1819 21.1844C26.2056 21.2069 26.2282 21.2295 26.2519 21.2532C26.3186 21.3197 26.3842 21.3885 26.4486 21.4584C26.5165 21.5317 26.5843 21.6062 26.651 21.6817C26.6702 21.7032 26.6883 21.7257 26.7064 21.7471C26.7527 21.8001 26.7991 21.8543 26.8443 21.9084C26.8703 21.94 26.8963 21.9727 26.9234 22.0054C26.9607 22.0505 26.9969 22.0967 27.0331 22.143C27.0692 22.1892 27.1054 22.2366 27.1405 22.2839C27.1687 22.32 27.1959 22.3561 27.223 22.3933C27.3021 22.5005 27.3801 22.6099 27.4559 22.7215C27.4773 22.7531 27.4988 22.7858 27.5203 22.8185C27.5632 22.8839 27.6062 22.9482 27.6492 23.0147C27.6729 23.0508 27.6955 23.088 27.7181 23.1252C27.7599 23.1918 27.8006 23.2583 27.8402 23.326C27.8696 23.3756 27.9001 23.4252 27.9284 23.476C27.9849 23.5752 28.0403 23.6745 28.0934 23.7748C28.1183 23.8222 28.142 23.8684 28.1669 23.9158C28.1906 23.9609 28.2144 24.006 28.237 24.0511C28.2811 24.138 28.3229 24.2259 28.3647 24.3139C28.3658 24.3162 28.367 24.3195 28.3681 24.3218C28.4077 24.4064 28.4461 24.491 28.4834 24.5767C28.4958 24.6037 28.5072 24.6319 28.5185 24.659C28.5445 24.7199 28.5705 24.7808 28.5953 24.8428C28.6089 24.8744 28.6213 24.9071 28.6338 24.9387C28.6575 24.9973 28.6801 25.056 28.7027 25.1157C28.7152 25.1484 28.7276 25.18 28.7389 25.2127C28.7615 25.2747 28.783 25.3356 28.8045 25.3977C28.8146 25.4281 28.8259 25.4586 28.8361 25.489C28.8666 25.5804 28.8972 25.6728 28.9254 25.7642C28.9537 25.8555 28.9797 25.9458 29.0045 26.036C29.0113 26.063 29.0181 26.089 29.026 26.1161C29.043 26.1803 29.0588 26.2435 29.0746 26.3066C29.0825 26.3371 29.0893 26.3687 29.0961 26.3991C29.1108 26.4623 29.1244 26.5254 29.1368 26.5875C29.1425 26.6145 29.1481 26.6416 29.1538 26.6687C29.1707 26.7566 29.1865 26.8457 29.2001 26.9337C29.2012 26.9382 29.2012 26.9416 29.2024 26.9461C29.2159 27.0295 29.2272 27.113 29.2374 27.1964C29.2408 27.2246 29.2431 27.2517 29.2465 27.2788C29.2532 27.3397 29.2589 27.3994 29.2645 27.4603C29.2668 27.4908 29.2702 27.5224 29.2725 27.5528C29.277 27.6126 29.2804 27.6712 29.2826 27.731C29.2838 27.7603 29.286 27.7885 29.2871 27.8178C29.2905 27.9035 29.2917 27.9881 29.2917 28.0727L29.2883 38.5665C29.2883 38.6386 29.2894 38.7108 29.2917 38.783C29.2917 38.7931 29.2928 38.8044 29.2928 38.8146C29.2939 38.8428 29.2951 38.8698 29.2962 38.898C29.2985 38.9352 29.2996 38.9713 29.3018 39.0085C29.303 39.0288 29.3052 39.0503 29.3064 39.0706C29.3086 39.0999 29.3109 39.1303 29.3131 39.1596C29.3154 39.1833 29.3165 39.207 29.3188 39.2307C29.3222 39.2657 29.3267 39.3006 29.3301 39.3356C29.3335 39.3626 29.3358 39.3897 29.3391 39.4156C29.3403 39.4269 29.3414 39.4393 29.3425 39.4506C29.3516 39.5194 29.3618 39.5882 29.3719 39.657C29.3731 39.6615 29.3731 39.6649 29.3742 39.6694V39.6716C29.3855 39.745 29.3991 39.8194 29.4126 39.8938C29.4149 39.904 29.4171 39.9152 29.4194 39.9254C29.4239 39.9513 29.4296 39.9773 29.4352 40.0043C29.4431 40.0416 29.4499 40.0799 29.4578 40.1171C29.4624 40.1408 29.4691 40.1633 29.4737 40.187C29.4805 40.2164 29.4872 40.2468 29.494 40.2761C29.4997 40.2976 29.5042 40.3201 29.5098 40.3415C29.52 40.3821 29.5313 40.4216 29.5415 40.4622C29.5483 40.487 29.5539 40.513 29.5618 40.5378C29.5641 40.5468 29.5664 40.5569 29.5698 40.566C29.5901 40.6404 29.6127 40.7148 29.6353 40.7904C29.6365 40.7938 29.6376 40.7983 29.6387 40.8017C29.6636 40.8829 29.6896 40.9641 29.7167 41.0453C29.719 41.0531 29.7224 41.0599 29.7246 41.0678C29.7348 41.0971 29.745 41.1265 29.7551 41.1558C29.771 41.2009 29.7857 41.2449 29.8015 41.29C29.8071 41.3046 29.8128 41.3204 29.8184 41.3351C29.8298 41.3667 29.8422 41.3982 29.8535 41.4287C29.8659 41.4603 29.8772 41.493 29.8897 41.5245C29.8998 41.5505 29.91 41.5753 29.9202 41.6012C29.9326 41.6317 29.9439 41.661 29.9564 41.6915C29.9643 41.7106 29.9722 41.7309 29.9801 41.7501C29.9982 41.793 30.0163 41.8358 30.0355 41.8775C30.0457 41.9001 30.0547 41.9238 30.0649 41.9463C30.0683 41.9542 30.0717 41.961 30.0751 41.9689C30.1078 42.0422 30.1406 42.1155 30.1757 42.1888C30.1768 42.1922 30.1791 42.1944 30.1802 42.1978C30.1892 42.2159 30.1971 42.2339 30.2062 42.2519C30.2333 42.3083 30.2593 42.3636 30.2876 42.42C30.2921 42.4301 30.2978 42.4403 30.3034 42.4493C30.3238 42.4899 30.3441 42.5294 30.3656 42.5688C30.3848 42.6049 30.4029 42.6422 30.4221 42.6782C30.4278 42.6884 30.4334 42.6974 30.4379 42.7076C30.4933 42.8102 30.5487 42.9117 30.6075 43.0121C30.6131 43.0222 30.6188 43.0324 30.6244 43.0414C30.6357 43.0605 30.6471 43.0786 30.6584 43.0966C30.7036 43.1745 30.7511 43.2511 30.7985 43.3267C30.8189 43.3605 30.8404 43.3932 30.8618 43.4259C30.9014 43.488 30.941 43.5511 30.9828 43.6109C30.9986 43.6346 31.0144 43.6583 31.0303 43.6819L31.2688 44.027C31.2948 44.0191 31.2846 44.0406 31.2914 44.0485C31.3117 44.0767 31.3332 44.1037 31.3547 44.1308C31.3943 44.1827 31.4327 44.2345 31.4723 44.2853C31.4768 44.2909 31.4813 44.2966 31.4858 44.3022C31.5175 44.3417 31.5491 44.38 31.5808 44.4195C31.6068 44.4511 31.6317 44.4826 31.6577 44.5142C31.661 44.5187 31.6644 44.5232 31.6678 44.5266C31.7108 44.5774 31.7537 44.6281 31.7978 44.6777C31.8148 44.6969 31.8306 44.7161 31.8464 44.7353L31.8498 44.7398C31.9131 44.8119 31.9764 44.8819 32.042 44.9518L32.0443 44.954C32.1008 45.0149 32.1584 45.0758 32.2161 45.1345C32.2229 45.1413 32.2285 45.1469 32.2353 45.1537C32.2568 45.1762 32.2794 45.1976 32.3009 45.2191C32.3325 45.2506 32.3642 45.2822 32.3958 45.3127C32.4083 45.3239 32.4196 45.3352 32.432 45.3465C32.4591 45.3713 32.4863 45.3961 32.5134 45.4221C32.5371 45.4435 32.5609 45.466 32.5846 45.4875C32.6016 45.5033 32.6197 45.5168 32.6366 45.5326C32.6649 45.5574 32.6943 45.5822 32.7225 45.607C32.7417 45.6228 32.7598 45.6397 32.7779 45.6555C32.8005 45.6747 32.8231 45.6927 32.8457 45.7108C32.874 45.7345 32.9023 45.7581 32.9317 45.7807C32.9452 45.792 32.9599 45.8032 32.9735 45.8145C33.0029 45.8382 33.0334 45.8596 33.0628 45.8822C33.0899 45.9025 33.1159 45.9239 33.143 45.9431C33.1521 45.9499 33.1611 45.9566 33.1702 45.9634C33.212 45.9938 33.2538 46.0232 33.2968 46.0525C33.3171 46.066 33.3363 46.0818 33.3567 46.0953C33.3601 46.0976 33.3635 46.101 33.368 46.1032C33.4336 46.1483 33.4991 46.1912 33.5658 46.234C33.5681 46.2352 33.5703 46.2363 33.5726 46.2386C33.5873 46.2476 33.6031 46.2566 33.6178 46.2667C33.6664 46.2972 33.7162 46.3276 33.7659 46.357C33.7817 46.366 33.7964 46.375 33.8123 46.384L34.0316 46.5103C34.0824 46.5397 34.1333 46.5679 34.1842 46.5961C34.2 46.6051 34.2158 46.6118 34.2316 46.6209C34.2576 46.6344 34.2836 46.6479 34.3108 46.6615C34.3334 46.6727 34.3549 46.6851 34.3775 46.6953C34.4023 46.7077 34.4272 46.719 34.4521 46.7303C34.4769 46.7415 34.5007 46.7539 34.5256 46.7641C34.538 46.7697 34.5504 46.7765 34.564 46.7821C34.6058 46.8013 34.6476 46.8182 34.6883 46.8351C34.7042 46.8419 34.7189 46.8487 34.7347 46.8543C34.7381 46.8554 34.7415 46.8577 34.746 46.8588C34.8059 46.8825 34.8658 46.9051 34.9246 46.9254C34.9291 46.9276 34.9348 46.9287 34.9393 46.9299C34.9574 46.9355 34.9743 46.9411 34.9913 46.9468C35.0275 46.9592 35.0648 46.9716 35.1009 46.9829C35.1145 46.9874 35.1269 46.9896 35.1405 46.9942C35.1642 47.0009 35.188 47.0077 35.2117 47.0133C35.2332 47.019 35.2558 47.0257 35.2773 47.0314C35.2988 47.037 35.3202 47.0404 35.3417 47.046C35.3666 47.0517 35.3903 47.0573 35.4152 47.0618C35.4288 47.0641 35.4423 47.0686 35.4548 47.0708C35.4842 47.0765 35.5135 47.081 35.5441 47.0855C35.5678 47.0889 35.5915 47.0934 35.6153 47.0968C35.6221 47.0979 35.63 47.099 35.6368 47.1002C35.6922 47.1081 35.8041 47.1182 35.8041 47.1182L39.4531 45.0025C39.3909 44.998 39.3276 44.9901 39.2643 44.9811C39.2406 44.9777 39.2168 44.9732 39.1942 44.9698C39.1513 44.9631 39.1083 44.9552 39.0642 44.9462C39.0394 44.9416 39.0156 44.936 38.9907 44.9304C38.9478 44.9202 38.9037 44.9101 38.8596 44.8977C38.8359 44.8909 38.8121 44.8853 38.7895 44.8785C38.7398 44.8638 38.6901 44.848 38.6392 44.8311C38.6222 44.8255 38.6041 44.8198 38.5872 44.8142C38.5194 44.7905 38.4515 44.7657 38.3826 44.7375C38.3679 44.7319 38.3521 44.724 38.3362 44.7183C38.282 44.6958 38.2277 44.6721 38.1734 44.6473C38.1497 44.636 38.1248 44.6247 38.1011 44.6135C38.0536 44.5909 38.0073 44.5684 37.9598 44.5435C37.9338 44.53 37.9078 44.5165 37.8818 44.5029C37.8151 44.468 37.7495 44.4319 37.6817 44.3935L37.4624 44.2672C37.3968 44.23 37.3324 44.1906 37.268 44.15C37.2533 44.1409 37.2375 44.1319 37.2228 44.1218C37.1504 44.0755 37.0781 44.0282 37.0068 43.9797C36.9865 43.9661 36.9661 43.9503 36.9458 43.9368C36.8949 43.9007 36.8429 43.8646 36.7932 43.8274C36.7661 43.8071 36.7389 43.7868 36.7129 43.7665C36.6688 43.7327 36.6248 43.6989 36.5818 43.665C36.5535 43.6425 36.5242 43.6188 36.4959 43.5951C36.4541 43.5613 36.4134 43.5263 36.3715 43.4913C36.3433 43.4665 36.3139 43.4417 36.2856 43.4169C36.2449 43.3808 36.2031 43.3436 36.1624 43.3053C36.1353 43.2805 36.1082 43.2556 36.0822 43.2308C36.0381 43.1891 35.994 43.1463 35.951 43.1034C35.9295 43.082 35.9069 43.0605 35.8855 43.038C35.821 42.9726 35.7566 42.9072 35.6944 42.8384C35.6277 42.7662 35.561 42.6929 35.4966 42.6196C35.4796 42.6004 35.4638 42.5813 35.4469 42.5621C35.3994 42.5079 35.353 42.4527 35.3067 42.3974C35.2807 42.3659 35.2558 42.3343 35.2298 42.3027C35.1936 42.2576 35.1575 42.2136 35.1213 42.1685C35.0817 42.1177 35.0433 42.067 35.0037 42.0151C34.98 41.9847 34.9562 41.9542 34.9336 41.9226C34.8545 41.8166 34.7788 41.7084 34.7042 41.6001C34.6827 41.5697 34.6623 41.5381 34.6409 41.5076C34.5968 41.4422 34.5538 41.3757 34.5109 41.3091C34.4894 41.2764 34.4679 41.2426 34.4476 41.2099C34.4001 41.1343 34.3537 41.0577 34.3074 40.9798C34.2904 40.9516 34.2735 40.9235 34.2565 40.8953C34.1977 40.7949 34.1423 40.6934 34.0869 40.5908C34.0621 40.5445 34.0383 40.4983 34.0146 40.4521C33.9943 40.4126 33.9728 40.372 33.9524 40.3325C33.9196 40.2671 33.8869 40.2006 33.8552 40.134C33.8473 40.116 33.8383 40.0991 33.8292 40.081C33.7896 39.9976 33.7523 39.9141 33.715 39.8295C33.7049 39.807 33.6958 39.7844 33.6856 39.7619C33.6585 39.6998 33.6325 39.6378 33.6065 39.5747C33.5941 39.5453 33.5828 39.5149 33.5703 39.4856C33.5477 39.4281 33.5251 39.3705 33.5036 39.313C33.4923 39.2814 33.4799 39.2499 33.4686 39.2194C33.4471 39.1596 33.4256 39.0999 33.4053 39.0401C33.3951 39.0108 33.3838 38.9815 33.3748 38.9521C33.3454 38.8642 33.316 38.7751 33.2889 38.686C33.2617 38.598 33.2357 38.5101 33.212 38.4221C33.2052 38.3973 33.1984 38.3713 33.1916 38.3465C33.1464 38.1932 33.1125 38.0342 33.082 37.8763C33.0775 37.8548 33.073 37.8323 33.0684 37.8109C33.0605 37.7669 33.0526 37.724 33.0458 37.6812C33.0379 37.6394 33.03 37.5966 33.0232 37.5549C33.0221 37.5503 33.0221 37.547 33.021 37.5424C33.0085 37.4613 32.9972 37.3812 32.987 37.3C32.9837 37.2729 32.9814 37.247 32.978 37.2199C32.9712 37.1613 32.9656 37.1026 32.961 37.044C32.9588 37.0135 32.9565 36.9842 32.9543 36.9538C32.9497 36.8962 32.9463 36.8387 32.9441 36.7812C32.943 36.753 32.9407 36.7248 32.9407 36.6978C32.9373 36.6154 32.9362 36.532 32.9362 36.4497L32.9475 36.3673C32.952 35.5317 33.0356 33.6743 33.0368 33.3653C33.0368 33.2006 33.1216 33.0472 33.2606 32.9593L34.7482 32.0119C34.9257 31.8992 35.1586 32.0266 35.1586 32.2364V33.716C35.1563 35.5373 35.2773 36.1519 35.405 36.8895C35.4084 36.9041 35.4118 36.9177 35.4152 36.9323C35.4254 36.9729 35.4367 37.0124 35.4469 37.053C35.4536 37.0778 35.4593 37.1038 35.4672 37.1286C35.4695 37.1376 35.4717 37.1477 35.4751 37.1568C35.4955 37.2312 35.5181 37.3056 35.5407 37.3812C35.5418 37.3846 35.5429 37.3891 35.5441 37.3925C35.5689 37.4737 35.5949 37.5549 35.6221 37.6361C35.6243 37.6439 35.6277 37.6507 35.63 37.6586C35.6402 37.6879 35.6503 37.7173 35.6605 37.7466C35.6763 37.7917 35.691 37.8357 35.7069 37.8808C35.7125 37.8954 35.7182 37.9112 35.7238 37.9259C35.7351 37.9575 35.7475 37.989 35.7589 38.0195C35.7713 38.0511 35.7826 38.0838 35.795 38.1153C35.8052 38.1413 35.8154 38.1661 35.8255 38.192C35.838 38.2225 35.8493 38.2518 35.8617 38.2823C35.8696 38.3014 35.8775 38.3217 35.8855 38.3409C35.9035 38.3838 35.9216 38.4266 35.9408 38.4683C35.951 38.4909 35.9601 38.5146 35.9702 38.5371C35.9736 38.545 35.977 38.5518 35.9804 38.5597C36.0132 38.633 36.046 38.7063 36.081 38.7796C36.0822 38.783 36.0844 38.7852 36.0855 38.7886C36.0935 38.8067 36.1025 38.8247 36.1115 38.8428C36.1387 38.8991 36.1647 38.9544 36.1929 39.0108C36.1975 39.0209 36.2031 39.0311 36.2088 39.0401C36.2291 39.0807 36.2495 39.1202 36.2709 39.1596C36.2902 39.1957 36.3082 39.233 36.3275 39.269C36.3331 39.2792 36.3388 39.2882 36.3433 39.2984C36.3987 39.401 36.4541 39.5025 36.5128 39.6029C36.5185 39.613 36.5242 39.6232 36.5298 39.6333C36.5411 39.6525 36.5524 39.6705 36.5637 39.6886C36.6089 39.7664 36.6564 39.8431 36.7039 39.9186C36.7242 39.9525 36.7457 39.9852 36.7672 40.0179C36.8068 40.0799 36.8463 40.1431 36.8881 40.2028C36.904 40.2265 36.9198 40.2502 36.9356 40.2739L37.1956 40.6404C37.216 40.6686 37.2375 40.6956 37.2589 40.7227C37.2985 40.7746 37.3369 40.8265 37.3765 40.8772C37.381 40.8829 37.3855 40.8885 37.3901 40.8941C37.4217 40.9336 37.4534 40.9719 37.485 41.0114C37.511 41.043 37.5359 41.0746 37.5619 41.1062C37.5653 41.1107 37.5687 41.1152 37.5721 41.1186C37.615 41.1693 37.658 41.2201 37.7021 41.2697C37.719 41.2888 37.7348 41.308 37.7518 41.3272L37.7552 41.3317C37.8185 41.4039 37.8818 41.4738 37.9474 41.5437L37.9496 41.546C38.0061 41.6069 38.0638 41.6678 38.1214 41.7264C38.1282 41.7332 38.1339 41.7388 38.1407 41.7456C38.1621 41.7681 38.1847 41.7896 38.2062 41.811C38.2379 41.8426 38.2695 41.8742 38.3012 41.9046C38.3136 41.9159 38.3249 41.9272 38.3374 41.9384C38.3645 41.9632 38.3916 41.9881 38.4187 42.014C38.4425 42.0354 38.4662 42.058 38.49 42.0794C38.5069 42.0952 38.525 42.1087 38.542 42.1245C38.5702 42.1493 38.5996 42.1741 38.6279 42.1989C38.6471 42.2147 38.6652 42.2316 38.6833 42.2474C38.7059 42.2666 38.7285 42.2847 38.7511 42.3027C38.7794 42.3264 38.8076 42.3501 38.837 42.3726C38.8506 42.3839 38.8653 42.3952 38.8788 42.4064C38.9082 42.4301 38.9387 42.4516 38.9681 42.4741C38.9953 42.4944 39.0213 42.5158 39.0484 42.535C39.0574 42.5418 39.0665 42.5485 39.0755 42.5553C39.1174 42.5858 39.1592 42.6151 39.2021 42.6444C39.2225 42.6579 39.2417 42.6737 39.262 42.6873C39.2654 42.6895 39.2688 42.6929 39.2734 42.6952C39.3389 42.7403 39.4045 42.7831 39.4712 42.826C39.4734 42.8271 39.4757 42.8282 39.478 42.8305C39.4927 42.8395 39.5085 42.8485 39.5232 42.8587C39.5718 42.8891 39.6215 42.9196 39.6713 42.9489C39.6871 42.9579 39.7018 42.9669 39.7176 42.976L39.9369 43.1023C39.9878 43.1316 40.0387 43.1598 40.0895 43.188C40.1053 43.197 40.1212 43.2038 40.137 43.2128C40.163 43.2263 40.189 43.2399 40.2161 43.2534C40.2387 43.2647 40.2602 43.2771 40.2828 43.2872C40.3077 43.2996 40.3326 43.3109 40.3574 43.3222C40.3823 43.3335 40.406 43.3459 40.4309 43.356C40.4433 43.3617 40.4558 43.3684 40.4682 43.3741C40.51 43.3932 40.5519 43.4102 40.5926 43.4271C40.6073 43.4338 40.6231 43.4406 40.6389 43.4462C40.6423 43.4474 40.6468 43.4496 40.6502 43.4507C40.7101 43.4744 40.77 43.497 40.8288 43.5173C40.8333 43.5195 40.839 43.5207 40.8435 43.5218C40.8616 43.5274 40.8786 43.5331 40.8955 43.5387C40.9328 43.5511 40.969 43.5635 41.0052 43.5748C41.0187 43.5793 41.0312 43.5816 41.0447 43.5861C41.0685 43.5928 41.0922 43.5996 41.116 43.6053C41.1374 43.6109 41.16 43.6177 41.1815 43.6233C41.203 43.6289 41.2245 43.6323 41.246 43.638C41.2708 43.6436 41.2946 43.6492 41.3194 43.6537C41.333 43.656 41.3466 43.6605 41.3601 43.6628C41.3895 43.6684 41.4189 43.6729 41.4494 43.6774C41.4732 43.6808 41.4969 43.6853 41.5206 43.6887C41.5274 43.6898 41.5353 43.691 41.5421 43.6921C41.5975 43.7 41.6529 43.7056 41.7083 43.7101H41.7094L45.3585 41.5945C45.2963 41.5866 45.233 41.5787 45.1697 41.5697ZM35.1145 28.1629C35.1145 28.3276 35.0297 28.481 34.8907 28.5689L33.403 29.5162C33.2256 29.629 32.9927 29.5016 32.9927 29.2918V27.8122C32.995 25.8702 32.9056 24.8349 32.5405 23.4568C32.3868 22.876 32.1471 22.3279 31.8984 21.8588C31.7944 21.6626 31.8566 21.4201 32.042 21.2972L33.4912 20.3442C33.6653 20.2292 33.9016 20.2889 33.9999 20.4728C34.2554 20.9498 34.5029 21.5114 34.6612 22.1069C35.0263 23.485 35.11 24.5203 35.1134 26.4623C35.1156 27.2494 35.1156 27.8438 35.1145 28.1629Z" fill="url(#paint2_linear_2124_32568)"/>
<path d="M33.1283 38.0669C33.1148 38.006 33.1012 37.9451 33.0888 37.8842C33.0877 37.8796 33.0865 37.8751 33.0865 37.8717C33.117 38.0296 33.151 38.1887 33.1962 38.342C33.1792 38.28 33.1645 38.218 33.1487 38.1559C33.1419 38.1255 33.1351 38.0962 33.1283 38.0669Z" fill="#212226"/>
<path d="M33.073 37.8052C33.0775 37.8266 33.082 37.8492 33.0865 37.8706C33.0741 37.8052 33.0605 37.7398 33.0504 37.6755C33.0571 37.7184 33.0639 37.7623 33.073 37.8052Z" fill="#212226"/>
<defs>
<linearGradient id="paint0_linear_2124_32568" x1="79.9803" y1="18.5241" x2="79.9803" y2="45.5161" gradientUnits="userSpaceOnUse">
<stop stop-color="#704076"/>
<stop offset="1" stop-color="#473292"/>
</linearGradient>
<linearGradient id="paint1_linear_2124_32568" x1="79.9812" y1="18.5237" x2="79.9812" y2="45.5157" gradientUnits="userSpaceOnUse">
<stop stop-color="#704076"/>
<stop offset="1" stop-color="#473292"/>
</linearGradient>
<linearGradient id="paint2_linear_2124_32568" x1="79.9634" y1="11.4646" x2="79.9634" y2="49.4322" gradientUnits="userSpaceOnUse">
<stop offset="0.0382" stop-color="#FCD4FF"/>
<stop offset="0.4448" stop-color="#FB7EFF"/>
<stop offset="0.7811" stop-color="#7400FF"/>
</linearGradient>
</defs>
</svg>
