<svg width="264" height="52" viewBox="0 0 264 52" fill="none" xmlns="http://www.w3.org/2000/svg">
<path d="M69.8181 21.0736C71.3775 21.0736 72.7853 21.4635 74.0415 22.2432C75.3193 23.0229 76.3156 24.1058 77.0303 25.4919C77.7667 26.8564 78.1349 28.3833 78.1349 30.0726C78.1349 31.762 77.7451 33.2997 76.9654 34.6858C76.1857 36.0503 75.1027 37.1332 73.7166 37.9346C72.3522 38.7143 70.8361 39.1041 69.1684 39.1041C67.5007 39.1041 65.9846 38.7143 64.6202 37.9346C63.2774 37.1332 62.2053 36.0503 61.4039 34.6858C60.6242 33.2997 60.2344 31.762 60.2344 30.0726V15.2584C60.2344 14.7603 60.386 14.3596 60.6892 14.0564C61.0141 13.7532 61.4147 13.6016 61.8912 13.6016C62.3894 13.6016 62.79 13.7532 63.0933 14.0564C63.3965 14.3596 63.5481 14.7603 63.5481 15.2584V24.03C64.3061 23.0987 65.2266 22.3731 66.3095 21.8533C67.3924 21.3335 68.562 21.0736 69.8181 21.0736ZM69.1684 36.1802C70.2513 36.1802 71.2259 35.9203 72.0923 35.4005C72.9802 34.8591 73.6733 34.1227 74.1714 33.1914C74.6912 32.2601 74.9511 31.2205 74.9511 30.0726C74.9511 28.9247 74.6912 27.896 74.1714 26.9863C73.6733 26.055 72.9802 25.3295 72.0923 24.8097C71.2259 24.2682 70.2513 23.9975 69.1684 23.9975C68.0855 23.9975 67.1 24.2682 66.212 24.8097C65.3457 25.3295 64.6635 26.055 64.1653 26.9863C63.6672 27.896 63.4181 28.9247 63.4181 30.0726C63.4181 31.2205 63.6672 32.2601 64.1653 33.1914C64.6635 34.1227 65.3457 34.8591 66.212 35.4005C67.1 35.9203 68.0855 36.1802 69.1684 36.1802Z" fill="#BBDEF0"/>
<path d="M87.3004 38.9742C86.3691 38.9742 85.5244 38.7251 84.7664 38.2269C84.03 37.7071 83.4561 36.9924 83.0445 36.0828C82.633 35.1515 82.4273 34.1119 82.4273 32.964V15.2259C82.4273 14.7494 82.5789 14.3596 82.8821 14.0564C83.1853 13.7532 83.5752 13.6016 84.0517 13.6016C84.5281 13.6016 84.918 13.7532 85.2212 14.0564C85.5244 14.3596 85.676 14.7494 85.676 15.2259V32.964C85.676 33.7654 85.8276 34.4259 86.1308 34.9457C86.4341 35.4655 86.8239 35.7254 87.3004 35.7254H88.1126C88.5457 35.7254 88.8923 35.877 89.1522 36.1802C89.4337 36.4835 89.5745 36.8733 89.5745 37.3498C89.5745 37.8263 89.3688 38.2161 88.9572 38.5193C88.5457 38.8225 88.0151 38.9742 87.3654 38.9742H87.3004Z" fill="#BBDEF0"/>
<path d="M99.8903 39.1041C98.1576 39.1041 96.609 38.7251 95.2446 37.967C93.8801 37.1873 92.8188 36.1153 92.0608 34.7508C91.3028 33.3863 90.9237 31.8378 90.9237 30.1051C90.9237 28.3508 91.3028 26.7914 92.0608 25.4269C92.8188 24.0625 93.8801 23.0012 95.2446 22.2432C96.609 21.4635 98.1576 21.0736 99.8903 21.0736C101.601 21.0736 103.128 21.4635 104.471 22.2432C105.835 23.0012 106.897 24.0625 107.655 25.4269C108.434 26.7914 108.824 28.3508 108.824 30.1051C108.824 31.8378 108.445 33.3863 107.687 34.7508C106.929 36.1153 105.868 37.1873 104.503 37.967C103.161 38.7251 101.623 39.1041 99.8903 39.1041ZM99.8903 36.1802C100.995 36.1802 101.98 35.9203 102.847 35.4005C103.735 34.8808 104.417 34.166 104.893 33.2564C105.391 32.3251 105.641 31.2747 105.641 30.1051C105.641 28.9356 105.391 27.8852 104.893 26.9538C104.417 26.0225 103.735 25.297 102.847 24.7772C101.98 24.2574 100.995 23.9975 99.8903 23.9975C98.7857 23.9975 97.7894 24.2574 96.9014 24.7772C96.0351 25.297 95.3529 26.0225 94.8547 26.9538C94.3566 27.8852 94.1075 28.9356 94.1075 30.1051C94.1075 31.2747 94.3566 32.3251 94.8547 33.2564C95.3529 34.166 96.0351 34.8808 96.9014 35.4005C97.7894 35.9203 98.7857 36.1802 99.8903 36.1802Z" fill="#BBDEF0"/>
<path d="M121.813 39.1041C120.102 39.1041 118.564 38.7143 117.2 37.9346C115.835 37.1549 114.763 36.0828 113.983 34.7183C113.225 33.3322 112.846 31.7945 112.846 30.1051C112.846 28.3725 113.215 26.8239 113.951 25.4594C114.709 24.0733 115.759 23.0012 117.102 22.2432C118.445 21.4635 119.961 21.0736 121.65 21.0736C124.206 21.0736 126.329 22.0483 128.018 23.9975C128.235 24.2357 128.343 24.5173 128.343 24.8422C128.343 25.3187 128.105 25.7193 127.628 26.0442C127.412 26.1958 127.162 26.2716 126.881 26.2716C126.383 26.2716 125.96 26.0767 125.614 25.6868C125.072 25.1021 124.477 24.6797 123.827 24.4198C123.199 24.1383 122.473 23.9975 121.65 23.9975C119.983 23.9975 118.629 24.5606 117.59 25.6868C116.55 26.7914 116.03 28.2642 116.03 30.1051C116.03 31.2747 116.268 32.3251 116.745 33.2564C117.243 34.166 117.925 34.8808 118.792 35.4005C119.68 35.9203 120.687 36.1802 121.813 36.1802C123.286 36.1802 124.477 35.8012 125.386 35.0432C125.798 34.74 126.199 34.5884 126.589 34.5884C126.892 34.5884 127.173 34.6858 127.433 34.8808C127.845 35.2273 128.05 35.6171 128.05 36.0503C128.05 36.3752 127.92 36.6676 127.661 36.9275C126.101 38.3786 124.152 39.1041 121.813 39.1041Z" fill="#BBDEF0"/>
<path d="M146.685 36.6351C146.923 36.895 147.042 37.2198 147.042 37.6097C147.042 38.0862 146.847 38.4868 146.457 38.8117C146.132 39.0716 145.786 39.2016 145.418 39.2016C144.941 39.2016 144.551 39.0066 144.248 38.6168L138.076 30.9823L136.451 32.4117V37.3823C136.451 37.8588 136.3 38.2486 135.996 38.5518C135.715 38.8334 135.336 38.9742 134.859 38.9742C134.383 38.9742 133.993 38.8334 133.69 38.5518C133.408 38.2486 133.267 37.8588 133.267 37.3823V15.1934C133.267 14.717 133.408 14.3379 133.69 14.0564C133.993 13.7532 134.383 13.6016 134.859 13.6016C135.336 13.6016 135.715 13.7532 135.996 14.0564C136.3 14.3379 136.451 14.717 136.451 15.1934V28.4158L144.346 21.366C144.627 21.0845 144.963 20.9437 145.353 20.9437C145.808 20.9437 146.176 21.117 146.457 21.4635C146.739 21.745 146.88 22.0808 146.88 22.4706C146.88 22.9254 146.706 23.2936 146.36 23.5752L140.382 28.9031L146.685 36.6351Z" fill="#BBDEF0"/>
<path d="M158.229 39.1041C156.756 39.1041 155.37 38.8767 154.07 38.4219C152.771 37.967 151.753 37.3714 151.016 36.6351C150.735 36.3535 150.594 36.0178 150.594 35.628C150.594 35.1082 150.811 34.6858 151.244 34.361C151.655 34.0577 152.034 33.9061 152.381 33.9061C152.814 33.9061 153.226 34.1011 153.615 34.4909C154.027 34.9457 154.644 35.3464 155.467 35.6929C156.29 36.0178 157.167 36.1802 158.099 36.1802C159.333 36.1802 160.286 35.9745 160.958 35.563C161.651 35.1515 161.997 34.5992 161.997 33.9061C161.997 33.2347 161.661 32.6824 160.99 32.2493C160.319 31.7945 159.182 31.4154 157.579 31.1122C153.421 30.3109 151.341 28.5999 151.341 25.9792C151.341 24.918 151.655 24.0192 152.283 23.2828C152.912 22.5464 153.735 21.9941 154.752 21.6259C155.77 21.2577 156.853 21.0736 158.001 21.0736C159.409 21.0736 160.665 21.3011 161.77 21.7559C162.896 22.2107 163.784 22.8388 164.434 23.6401C164.715 23.9867 164.856 24.3332 164.856 24.6797C164.856 25.0479 164.672 25.3836 164.304 25.6868C164.066 25.8601 163.762 25.9467 163.394 25.9467C162.831 25.9467 162.322 25.741 161.867 25.3295C161.326 24.8313 160.752 24.4848 160.145 24.2899C159.539 24.0733 158.803 23.965 157.936 23.965C156.94 23.965 156.117 24.1383 155.467 24.4848C154.839 24.8097 154.525 25.2753 154.525 25.8818C154.525 26.3149 154.633 26.6831 154.85 26.9863C155.067 27.2679 155.478 27.5386 156.084 27.7985C156.691 28.0368 157.568 28.275 158.716 28.5132C161.077 28.9897 162.744 29.6503 163.719 30.495C164.715 31.3396 165.213 32.4334 165.213 33.7762C165.213 34.7725 164.943 35.6821 164.401 36.5051C163.86 37.3065 163.058 37.9454 161.997 38.4219C160.958 38.8767 159.701 39.1041 158.229 39.1041Z" fill="#BBDEF0"/>
<path d="M185.355 29.8127C185.355 30.2242 185.214 30.5708 184.932 30.8523C184.651 31.1122 184.293 31.2422 183.86 31.2422H171.515C171.753 32.7582 172.435 33.9819 173.562 34.9132C174.71 35.8445 176.106 36.3102 177.753 36.3102C178.402 36.3102 179.074 36.1911 179.767 35.9528C180.481 35.7146 181.066 35.4222 181.521 35.0757C181.824 34.8374 182.182 34.7183 182.593 34.7183C183.005 34.7183 183.33 34.8266 183.568 35.0432C183.958 35.3681 184.153 35.7363 184.153 36.1478C184.153 36.5376 183.979 36.8625 183.633 37.1224C182.896 37.7071 181.976 38.1836 180.871 38.5518C179.788 38.92 178.749 39.1041 177.753 39.1041C175.977 39.1041 174.385 38.7251 172.977 37.967C171.569 37.1873 170.465 36.1153 169.663 34.7508C168.883 33.3863 168.494 31.8378 168.494 30.1051C168.494 28.3725 168.862 26.8239 169.598 25.4594C170.356 24.0733 171.396 23.0012 172.717 22.2432C174.06 21.4635 175.576 21.0736 177.265 21.0736C178.933 21.0736 180.373 21.4418 181.586 22.1782C182.799 22.9146 183.73 23.9434 184.38 25.2645C185.03 26.5857 185.355 28.1017 185.355 29.8127ZM177.265 23.8676C175.684 23.8676 174.395 24.3007 173.399 25.167C172.425 26.0334 171.807 27.1921 171.547 28.6432H182.366C182.171 27.1921 181.629 26.0334 180.741 25.167C179.853 24.3007 178.695 23.8676 177.265 23.8676Z" fill="#BBDEF0"/>
<path d="M204.898 29.8127C204.898 30.2242 204.757 30.5708 204.475 30.8523C204.194 31.1122 203.836 31.2422 203.403 31.2422H191.058C191.296 32.7582 191.979 33.9819 193.105 34.9132C194.253 35.8445 195.65 36.3102 197.296 36.3102C197.945 36.3102 198.617 36.1911 199.31 35.9528C200.025 35.7146 200.609 35.4222 201.064 35.0757C201.367 34.8374 201.725 34.7183 202.136 34.7183C202.548 34.7183 202.873 34.8266 203.111 35.0432C203.501 35.3681 203.696 35.7363 203.696 36.1478C203.696 36.5376 203.522 36.8625 203.176 37.1224C202.44 37.7071 201.519 38.1836 200.414 38.5518C199.332 38.92 198.292 39.1041 197.296 39.1041C195.52 39.1041 193.928 38.7251 192.52 37.967C191.112 37.1873 190.008 36.1153 189.206 34.7508C188.427 33.3863 188.037 31.8378 188.037 30.1051C188.037 28.3725 188.405 26.8239 189.141 25.4594C189.899 24.0733 190.939 23.0012 192.26 22.2432C193.603 21.4635 195.119 21.0736 196.808 21.0736C198.476 21.0736 199.916 21.4418 201.129 22.1782C202.342 22.9146 203.273 23.9434 203.923 25.2645C204.573 26.5857 204.898 28.1017 204.898 29.8127ZM196.808 23.8676C195.227 23.8676 193.939 24.3007 192.942 25.167C191.968 26.0334 191.35 27.1921 191.091 28.6432H201.909C201.714 27.1921 201.173 26.0334 200.285 25.167C199.397 24.3007 198.238 23.8676 196.808 23.8676Z" fill="#BBDEF0"/>
<path d="M223.824 13.6016C224.322 13.6016 224.722 13.7532 225.026 14.0564C225.329 14.3596 225.48 14.7603 225.48 15.2584V30.0726C225.48 31.762 225.08 33.2997 224.278 34.6858C223.499 36.0503 222.427 37.1332 221.062 37.9346C219.719 38.7143 218.214 39.1041 216.546 39.1041C214.879 39.1041 213.352 38.7143 211.966 37.9346C210.601 37.1332 209.529 36.0503 208.749 34.6858C207.97 33.2997 207.58 31.762 207.58 30.0726C207.58 28.3833 207.937 26.8564 208.652 25.4919C209.388 24.1058 210.385 23.0229 211.641 22.2432C212.919 21.4635 214.337 21.0736 215.897 21.0736C217.153 21.0736 218.322 21.3335 219.405 21.8533C220.488 22.3731 221.409 23.0987 222.167 24.03V15.2584C222.167 14.7603 222.318 14.3596 222.622 14.0564C222.946 13.7532 223.347 13.6016 223.824 13.6016ZM216.546 36.1802C217.629 36.1802 218.604 35.9203 219.47 35.4005C220.358 34.8591 221.051 34.1227 221.55 33.1914C222.048 32.2601 222.297 31.2205 222.297 30.0726C222.297 28.9247 222.048 27.896 221.55 26.9863C221.051 26.055 220.358 25.3295 219.47 24.8097C218.604 24.2682 217.629 23.9975 216.546 23.9975C215.464 23.9975 214.478 24.2682 213.59 24.8097C212.724 25.3295 212.031 26.055 211.511 26.9863C211.013 27.896 210.764 28.9247 210.764 30.0726C210.764 31.2205 211.013 32.2601 211.511 33.1914C212.031 34.1227 212.724 34.8591 213.59 35.4005C214.478 35.9203 215.464 36.1802 216.546 36.1802Z" fill="#BBDEF0"/>
<path d="M237.797 39.1041C236.324 39.1041 234.938 38.8767 233.639 38.4219C232.339 37.967 231.321 37.3714 230.585 36.6351C230.303 36.3535 230.163 36.0178 230.163 35.628C230.163 35.1082 230.379 34.6858 230.812 34.361C231.224 34.0577 231.603 33.9061 231.95 33.9061C232.383 33.9061 232.794 34.1011 233.184 34.4909C233.596 34.9457 234.213 35.3464 235.036 35.6929C235.859 36.0178 236.736 36.1802 237.667 36.1802C238.902 36.1802 239.855 35.9745 240.526 35.563C241.219 35.1515 241.566 34.5992 241.566 33.9061C241.566 33.2347 241.23 32.6824 240.559 32.2493C239.887 31.7945 238.75 31.4154 237.148 31.1122C232.989 30.3109 230.91 28.5999 230.91 25.9792C230.91 24.918 231.224 24.0192 231.852 23.2828C232.48 22.5464 233.303 21.9941 234.321 21.6259C235.339 21.2577 236.422 21.0736 237.57 21.0736C238.978 21.0736 240.234 21.3011 241.338 21.7559C242.465 22.2107 243.353 22.8388 244.002 23.6401C244.284 23.9867 244.425 24.3332 244.425 24.6797C244.425 25.0479 244.241 25.3836 243.872 25.6868C243.634 25.8601 243.331 25.9467 242.963 25.9467C242.4 25.9467 241.891 25.741 241.436 25.3295C240.894 24.8313 240.32 24.4848 239.714 24.2899C239.108 24.0733 238.371 23.965 237.505 23.965C236.509 23.965 235.686 24.1383 235.036 24.4848C234.408 24.8097 234.094 25.2753 234.094 25.8818C234.094 26.3149 234.202 26.6831 234.419 26.9863C234.635 27.2679 235.047 27.5386 235.653 27.7985C236.26 28.0368 237.137 28.275 238.285 28.5132C240.645 28.9897 242.313 29.6503 243.288 30.495C244.284 31.3396 244.782 32.4334 244.782 33.7762C244.782 34.7725 244.511 35.6821 243.97 36.5051C243.428 37.3065 242.627 37.9454 241.566 38.4219C240.526 38.8767 239.27 39.1041 237.797 39.1041Z" fill="#BBDEF0"/>
<path d="M26.491 39.159C31.1368 41.3737 37.1467 40.0268 41.3055 35.868C46.1851 30.9884 47.2301 23.4428 43.0476 18.7081C42.5487 18.1433 41.8616 17.7966 41.1286 17.7167C39.9235 17.5851 38.2668 17.579 36.6264 17.9502C37.0277 17.3426 37.2086 16.6298 37.2117 16.0024C37.2178 14.7817 36.5351 13.1901 34.7712 12.8225C30.6016 11.9536 25.8608 13.4541 22.3762 16.9387C17.6195 21.6954 16.4931 28.9611 20.299 33.7064C20.8147 34.3493 21.5958 34.6289 22.087 34.7495C22.6045 34.8765 23.3011 34.9482 23.9388 34.7759C24.1333 34.727 24.3233 34.6763 24.5091 34.6236C24.3302 35.223 24.3537 35.8328 24.4564 36.3448C24.6565 37.3422 25.3018 38.5921 26.491 39.159Z" stroke="#BBDEF0" stroke-width="3.2508" stroke-linecap="round" stroke-linejoin="round"/>
</svg>
