<svg width="198" height="65" viewBox="0 0 198 65" fill="none" xmlns="http://www.w3.org/2000/svg">
<g clip-path="url(#clip0_2124_32534)">
<path d="M40.8115 16.6921C37.6785 16.6921 35.1388 19.2318 35.1388 22.3648V51.6012H31.6479V22.3648C31.6479 17.3039 35.7506 13.2012 40.8115 13.2012C50.2104 13.2012 57.8297 20.8205 57.8297 30.2194C57.8297 39.4728 50.4444 47.0012 41.2467 47.2321L40.4721 43.7466H40.8115C48.2824 43.7466 54.3388 37.6903 54.3388 30.2194C54.3388 22.7484 48.2824 16.6921 40.8115 16.6921Z" fill="#4038FF"/>
<path d="M39.8903 41.1284H40.8115C46.8364 41.1284 51.7206 36.2443 51.7206 30.2194C51.7206 24.1944 46.8364 19.3103 40.8115 19.3103C39.1245 19.3103 37.757 20.6778 37.757 22.3648V22.8012H40.8115C44.9085 22.8012 48.2297 26.1224 48.2297 30.2194C48.2297 34.3163 44.9085 37.6375 40.8115 37.6375H39.1145L39.8903 41.1284Z" fill="#4038FF"/>
<path d="M38.5327 35.0194H40.8115C43.4625 35.0194 45.6115 32.8703 45.6115 30.2194C45.6115 27.5684 43.4625 25.4194 40.8115 25.4194H37.757V28.9103H40.8115C41.5345 28.9103 42.1206 29.4964 42.1206 30.2194C42.1206 30.9423 41.5345 31.5284 40.8115 31.5284H37.757L38.5327 35.0194Z" fill="#4038FF"/>
<path d="M29.0832 21.2348C29.0478 21.6067 29.0297 21.9836 29.0297 22.3648V51.6012H25.5388V28.4739C25.5388 25.5306 26.9264 22.9114 29.0832 21.2348Z" fill="#4038FF"/>
<path d="M19.4297 34.583C19.4297 31.6397 20.8173 29.0205 22.9741 27.3439C22.9387 27.7158 22.9206 28.0927 22.9206 28.4739V51.6012H19.4297V34.583Z" fill="#4038FF"/>
<path d="M87.1526 41.8925L87.1526 24.4365H90.647V41.8925H87.1526Z" fill="#F5F7EF"/>
<path d="M87.1526 18.1543V21.6525H90.647V18.1543H87.1526Z" fill="#F5F7EF"/>
<path fill-rule="evenodd" clip-rule="evenodd" d="M82.9923 39.3379C84.4976 37.6944 85.2515 35.5607 85.254 32.9368C85.2566 30.3128 84.4976 28.1855 82.977 26.5548C82.2584 25.7604 81.3771 25.1301 80.3932 24.7067C79.4092 24.2833 78.3456 24.0768 77.2747 24.1011C76.276 24.0887 75.2874 24.3027 74.3832 24.727C73.6826 25.0234 73.0403 25.4421 72.4863 25.9635L71.9602 26.6086H71.7913V24.439H68.3008V47.1289H71.7913V39.1114H71.9602C72.0265 39.2088 72.0983 39.3024 72.1753 39.3917C72.3788 39.6216 72.5955 39.8396 72.8242 40.0445C73.1477 40.3498 73.5015 40.6213 73.8802 40.8547C74.9146 41.4426 76.0812 41.7583 77.2708 41.7724C78.3426 41.7979 79.4074 41.5942 80.3941 41.1751C81.3808 40.7559 82.2667 40.1308 82.9923 39.3418V39.3379ZM80.65 28.8088C81.6023 29.8328 82.0784 31.2101 82.0784 32.9406C82.0784 34.6711 81.6023 36.0497 80.65 37.0762C79.6597 38.058 78.3217 38.6089 76.9272 38.6089C75.5327 38.6089 74.1946 38.058 73.2044 37.0762C72.2469 36.0522 71.7695 34.6737 71.7721 32.9406C71.7746 31.2075 72.2521 29.8303 73.2044 28.8088C74.1936 27.8252 75.5321 27.273 76.9272 27.273C78.3223 27.273 79.6607 27.8252 80.65 28.8088Z" fill="#F5F7EF"/>
<path fill-rule="evenodd" clip-rule="evenodd" d="M93.3567 36.3501C93.7912 37.4338 94.4427 38.4171 95.2712 39.2397C96.518 40.4603 98.0967 41.2865 99.8101 41.6154C101.524 41.9443 103.296 41.7613 104.906 41.0892C106.516 40.417 107.893 39.2856 108.864 37.836C109.835 36.3865 110.357 34.683 110.366 32.9383C110.391 31.7658 110.181 30.6001 109.749 29.5097C109.317 28.4193 108.672 27.426 107.852 26.5881C107.031 25.7502 106.052 25.0846 104.97 24.6301C103.889 24.1756 102.728 23.9415 101.555 23.9415C100.383 23.9415 99.2216 24.1756 98.1404 24.6301C97.0593 25.0846 96.0797 25.7502 95.2591 26.5881C94.4385 27.426 93.7934 28.4193 93.3616 29.5097C92.9298 30.6001 92.72 31.7658 92.7445 32.9383C92.7139 34.1054 92.9222 35.2665 93.3567 36.3501ZM96.4002 32.9383C96.3976 31.2077 96.8751 29.8305 97.8325 28.8065C98.8218 27.8228 100.16 27.2706 101.555 27.2706C102.951 27.2706 104.289 27.8228 105.278 28.8065C106.231 29.8279 106.707 31.2052 106.707 32.9383C106.707 34.6714 106.231 36.05 105.278 37.074C104.288 38.0558 102.95 38.6067 101.555 38.6067C100.161 38.6067 98.8228 38.0558 97.8325 37.074C96.8802 36.0474 96.4028 34.6689 96.4002 32.9383Z" fill="#F5F7EF"/>
<path fill-rule="evenodd" clip-rule="evenodd" d="M131.89 39.2387C131.072 38.4161 130.428 37.4327 129.999 36.3491C129.57 35.2654 129.364 34.1044 129.395 32.9372C129.37 31.7647 129.578 30.5991 130.004 29.5087C130.43 28.4182 131.067 27.425 131.878 26.5871C132.688 25.7492 133.655 25.0835 134.723 24.629C135.791 24.1746 136.937 23.9405 138.095 23.9405C139.254 23.9405 140.4 24.1746 141.468 24.629C142.535 25.0835 143.503 25.7492 144.313 26.5871C145.123 27.425 145.761 28.4182 146.187 29.5087C146.613 30.5991 146.821 31.7647 146.796 32.9372C146.794 33.3244 146.767 33.7095 146.716 34.0903L133.083 34.0903C133.253 35.2915 133.698 36.2857 134.419 37.0729C135.397 38.0548 136.718 38.6056 138.095 38.6056C139.473 38.6056 140.794 38.0548 141.772 37.0729C142.016 36.8067 142.229 36.5165 142.41 36.2023H146.164C145.938 36.7723 145.653 37.3197 145.313 37.835C144.354 39.2845 142.994 40.416 141.404 41.0881C139.814 41.7602 138.064 41.9433 136.372 41.6144C134.68 41.2855 133.121 40.4592 131.89 39.2387ZM134.419 28.8054C133.875 29.3942 133.488 30.0999 133.258 30.9223H142.928C142.699 30.0988 142.313 29.3932 141.772 28.8054C140.795 27.8217 139.473 27.2695 138.095 27.2695C136.718 27.2695 135.396 27.8217 134.419 28.8054Z" fill="#F5F7EF"/>
<path fill-rule="evenodd" clip-rule="evenodd" d="M149.064 36.3491C149.493 37.4327 150.136 38.4161 150.955 39.2387C152.186 40.4592 153.745 41.2855 155.437 41.6144C157.129 41.9433 158.879 41.7602 160.469 41.0881C162.059 40.416 163.418 39.2845 164.377 37.835C164.718 37.3197 165.003 36.7722 165.229 36.2023H161.475C161.294 36.5165 161.081 36.8067 160.837 37.0729C159.859 38.0548 158.537 38.6056 157.16 38.6056C155.783 38.6056 154.462 38.0548 153.484 37.0729C152.763 36.2857 152.317 35.2915 152.148 34.0903L165.781 34.0903C165.832 33.7095 165.859 33.3244 165.861 32.9372C165.885 31.7647 165.678 30.5991 165.252 29.5087C164.825 28.4182 164.188 27.425 163.378 26.5871C162.568 25.7492 161.6 25.0835 160.533 24.629C159.465 24.1746 158.318 23.9405 157.16 23.9405C156.002 23.9405 154.856 24.1746 153.788 24.629C152.72 25.0835 151.753 25.7492 150.943 26.5871C150.132 27.425 149.495 28.4182 149.069 29.5087C148.642 30.5991 148.435 31.7647 148.459 32.9372C148.429 34.1044 148.635 35.2654 149.064 36.3491ZM152.323 30.9223C152.553 30.0999 152.94 29.3942 153.484 28.8054C154.461 27.8217 155.782 27.2695 157.16 27.2695C158.538 27.2695 159.86 27.8217 160.837 28.8054C161.378 29.3932 161.763 30.0988 161.993 30.9223H152.323Z" fill="#F5F7EF"/>
<path d="M171.366 27.6046L171.328 41.8932H167.837L167.872 26.9633C167.873 26.2928 168.14 25.6501 168.614 25.1764C169.089 24.7026 169.732 24.4366 170.402 24.4366H178.178V27.6046H171.366Z" fill="#F5F7EF"/>
<path d="M112.463 24.4365V41.8932H115.915V32.0935C115.873 30.8215 116.326 29.5829 117.178 28.6375C117.561 28.2016 118.034 27.8537 118.565 27.6177C119.095 27.3818 119.67 27.2633 120.25 27.2704C122.687 27.2704 123.906 28.6605 123.906 31.4407V41.8932H127.396L127.396 31.2525C127.389 28.9937 126.838 27.2423 125.743 25.9982L125.743 25.9974C125.483 25.7251 125.204 25.4717 124.908 25.2391C124.427 24.8799 123.886 24.6082 123.311 24.4365C122.596 24.2078 121.849 24.095 121.099 24.1024C120.448 24.0992 119.801 24.195 119.179 24.3866C118.68 24.5295 118.204 24.7429 117.766 25.0202C117.421 25.2567 117.105 25.5311 116.821 25.8381C116.622 26.0361 116.443 26.2535 116.287 26.4871C116.222 26.61 116.164 26.706 116.122 26.7712H115.953V24.4365H112.463Z" fill="#F5F7EF"/>
</g>
<defs>
<clipPath id="clip0_2124_32534">
<rect width="158.836" height="38.4" fill="white" transform="translate(19.4297 13.2012)"/>
</clipPath>
</defs>
</svg>
