<svg width="180" height="84" viewBox="0 0 180 84" fill="none" xmlns="http://www.w3.org/2000/svg">
<rect width="26.0527" height="22.2422" rx="5.70197" transform="matrix(0.999009 0.0445024 -0.0347233 0.999397 77.4023 13)" fill="white" fill-opacity="0.32"/>
<g filter="url(#filter0_i_2124_32625)">
<path d="M85.2936 19.334L81.5039 30.0535H85.2936L86.6471 26.072L88.2713 30.0535H92.061L88.2713 19.334H85.2936Z" fill="#F5F7EF"/>
<path d="M94.768 19.334H90.9782L94.768 30.0535H98.5577L94.768 19.334Z" fill="#F5F7EF"/>
</g>
<path d="M39.7914 50.7818V66.793H35.8912V57.1909L32.3104 66.793H29.1629L25.5593 57.168V66.793H21.6591V50.7818H26.2663L30.7595 61.8665L35.207 50.7818H39.7914ZM54.593 60.2243C54.593 60.5892 54.5702 60.9694 54.5246 61.3647H45.6979C45.7587 62.1554 46.0096 62.7636 46.4506 63.1893C46.9067 63.5999 47.4617 63.8051 48.1155 63.8051C49.0887 63.8051 49.7653 63.3946 50.1454 62.5735H54.2965C54.0836 63.4098 53.6959 64.1625 53.1333 64.8315C52.5859 65.5005 51.8941 66.0251 51.0578 66.4052C50.2215 66.7854 49.2864 66.9754 48.2524 66.9754C47.0056 66.9754 45.8956 66.7093 44.9224 66.1772C43.9493 65.645 43.189 64.8847 42.6417 63.8964C42.0943 62.908 41.8206 61.7524 41.8206 60.4296C41.8206 59.1067 42.0867 57.9511 42.6188 56.9628C43.1662 55.9744 43.9265 55.2142 44.8996 54.682C45.8728 54.1498 46.9904 53.8837 48.2524 53.8837C49.484 53.8837 50.5788 54.1422 51.5367 54.6592C52.4947 55.1762 53.2397 55.9136 53.7719 56.8715C54.3193 57.8295 54.593 58.9471 54.593 60.2243ZM50.6016 59.1979C50.6016 58.5289 50.3735 57.9967 49.9174 57.6014C49.4612 57.2061 48.891 57.0084 48.2068 57.0084C47.553 57.0084 46.998 57.1985 46.5418 57.5786C46.1009 57.9587 45.8272 58.4985 45.7207 59.1979H50.6016ZM60.5507 56.1873C61.0068 55.4879 61.577 54.9405 62.2612 54.5451C62.9455 54.1346 63.7057 53.9293 64.542 53.9293V58.0576H63.4701C62.4969 58.0576 61.7671 58.2704 61.2805 58.6962C60.7939 59.1067 60.5507 59.8366 60.5507 60.8857V66.793H56.6505V54.0662H60.5507V56.1873ZM65.6308 60.4296C65.6308 59.1067 65.8968 57.9511 66.429 56.9628C66.9764 55.9744 67.7291 55.2142 68.687 54.682C69.6601 54.1498 70.7701 53.8837 72.017 53.8837C73.6135 53.8837 74.944 54.3019 76.0083 55.1381C77.0879 55.9744 77.795 57.1528 78.1295 58.6734H73.9784C73.6287 57.7002 72.9521 57.2137 71.9485 57.2137C71.2339 57.2137 70.6637 57.495 70.2379 58.0576C69.8122 58.6049 69.5993 59.3956 69.5993 60.4296C69.5993 61.4635 69.8122 62.2618 70.2379 62.8244C70.6637 63.3718 71.2339 63.6455 71.9485 63.6455C72.9521 63.6455 73.6287 63.1589 73.9784 62.1858H78.1295C77.795 63.6759 77.0879 64.8467 76.0083 65.6982C74.9288 66.5497 73.5983 66.9754 72.017 66.9754C70.7701 66.9754 69.6601 66.7093 68.687 66.1772C67.7291 65.645 66.9764 64.8847 66.429 63.8964C65.8968 62.908 65.6308 61.7524 65.6308 60.4296ZM92.7828 54.0662V66.793H88.8827V65.0596C88.4873 65.6222 87.9475 66.0783 87.2633 66.428C86.5943 66.7626 85.8492 66.9298 85.0281 66.9298C84.055 66.9298 83.1959 66.7169 82.4509 66.2912C81.7058 65.8502 81.128 65.2192 80.7175 64.3981C80.3069 63.5771 80.1016 62.6115 80.1016 61.5015V54.0662H83.979V60.977C83.979 61.8285 84.1995 62.4899 84.6404 62.9612C85.0814 63.4326 85.6744 63.6683 86.4194 63.6683C87.1797 63.6683 87.7803 63.4326 88.2212 62.9612C88.6622 62.4899 88.8827 61.8285 88.8827 60.977V54.0662H92.7828ZM99.4844 56.1873C99.9406 55.4879 100.511 54.9405 101.195 54.5451C101.879 54.1346 102.64 53.9293 103.476 53.9293V58.0576H102.404C101.431 58.0576 100.701 58.2704 100.214 58.6962C99.7277 59.1067 99.4844 59.8366 99.4844 60.8857V66.793H95.5843V54.0662H99.4844V56.1873ZM117.337 60.2243C117.337 60.5892 117.314 60.9694 117.269 61.3647H108.442C108.503 62.1554 108.754 62.7636 109.195 63.1893C109.651 63.5999 110.206 63.8051 110.859 63.8051C111.833 63.8051 112.509 63.3946 112.889 62.5735H117.04C116.828 63.4098 116.44 64.1625 115.877 64.8315C115.33 65.5005 114.638 66.0251 113.802 66.4052C112.965 66.7854 112.03 66.9754 110.996 66.9754C109.75 66.9754 108.64 66.7093 107.666 66.1772C106.693 65.645 105.933 64.8847 105.386 63.8964C104.838 62.908 104.565 61.7524 104.565 60.4296C104.565 59.1067 104.831 57.9511 105.363 56.9628C105.91 55.9744 106.67 55.2142 107.644 54.682C108.617 54.1498 109.734 53.8837 110.996 53.8837C112.228 53.8837 113.323 54.1422 114.281 54.6592C115.239 55.1762 115.984 55.9136 116.516 56.8715C117.063 57.8295 117.337 58.9471 117.337 60.2243ZM113.346 59.1979C113.346 58.5289 113.117 57.9967 112.661 57.6014C112.205 57.2061 111.635 57.0084 110.951 57.0084C110.297 57.0084 109.742 57.1985 109.286 57.5786C108.845 57.9587 108.571 58.4985 108.465 59.1979H113.346ZM123.295 63.7823H128.404V66.793H119.394V50.7818H123.295V63.7823ZM129.488 60.4068C129.488 59.0991 129.732 57.9511 130.218 56.9628C130.72 55.9744 131.397 55.2142 132.248 54.682C133.1 54.1498 134.05 53.8837 135.099 53.8837C135.996 53.8837 136.779 54.0662 137.448 54.4311C138.133 54.796 138.657 55.275 139.022 55.868V54.0662H142.922V66.793H139.022V64.9911C138.642 65.5842 138.11 66.0631 137.426 66.428C136.756 66.793 135.973 66.9754 135.076 66.9754C134.042 66.9754 133.1 66.7093 132.248 66.1772C131.397 65.6298 130.72 64.8619 130.218 63.8736C129.732 62.87 129.488 61.7144 129.488 60.4068ZM139.022 60.4296C139.022 59.4564 138.748 58.6886 138.201 58.126C137.669 57.5634 137.015 57.2821 136.239 57.2821C135.464 57.2821 134.803 57.5634 134.255 58.126C133.723 58.6734 133.457 59.4336 133.457 60.4068C133.457 61.3799 133.723 62.1554 134.255 62.7332C134.803 63.2958 135.464 63.5771 136.239 63.5771C137.015 63.5771 137.669 63.2958 138.201 62.7332C138.748 62.1706 139.022 61.4027 139.022 60.4296ZM149.644 55.868C150.009 55.275 150.533 54.796 151.218 54.4311C151.902 54.0662 152.685 53.8837 153.567 53.8837C154.616 53.8837 155.566 54.1498 156.418 54.682C157.269 55.2142 157.938 55.9744 158.425 56.9628C158.927 57.9511 159.178 59.0991 159.178 60.4068C159.178 61.7144 158.927 62.87 158.425 63.8736C157.938 64.8619 157.269 65.6298 156.418 66.1772C155.566 66.7093 154.616 66.9754 153.567 66.9754C152.67 66.9754 151.887 66.8006 151.218 66.4509C150.549 66.0859 150.024 65.607 149.644 65.014V66.793H145.744V49.9151H149.644V55.868ZM155.209 60.4068C155.209 59.4336 154.935 58.6734 154.388 58.126C153.856 57.5634 153.194 57.2821 152.404 57.2821C151.628 57.2821 150.967 57.5634 150.419 58.126C149.887 58.6886 149.621 59.4564 149.621 60.4296C149.621 61.4027 149.887 62.1706 150.419 62.7332C150.967 63.2958 151.628 63.5771 152.404 63.5771C153.179 63.5771 153.841 63.2958 154.388 62.7332C154.935 62.1554 155.209 61.3799 155.209 60.4068Z" fill="#F5F7EF"/>
<defs>
<filter id="filter0_i_2124_32625" x="81.5039" y="19.334" width="17.0547" height="11.8591" filterUnits="userSpaceOnUse" color-interpolation-filters="sRGB">
<feFlood flood-opacity="0" result="BackgroundImageFix"/>
<feBlend mode="normal" in="SourceGraphic" in2="BackgroundImageFix" result="shape"/>
<feColorMatrix in="SourceAlpha" type="matrix" values="0 0 0 0 0 0 0 0 0 0 0 0 0 0 0 0 0 0 127 0" result="hardAlpha"/>
<feOffset dy="1.14039"/>
<feGaussianBlur stdDeviation="0.855295"/>
<feComposite in2="hardAlpha" operator="arithmetic" k2="-1" k3="1"/>
<feColorMatrix type="matrix" values="0 0 0 0 0 0 0 0 0 0 0 0 0 0 0 0 0 0 0.08 0"/>
<feBlend mode="normal" in2="shape" result="effect1_innerShadow_2124_32625"/>
</filter>
</defs>
</svg>
