<svg width="206" height="58" viewBox="0 0 206 58" fill="none" xmlns="http://www.w3.org/2000/svg">
<path d="M43.6339 19.7919C41.4542 17.4547 35.2455 13.9608 28.0452 18.0607C21.5218 21.7749 19.1846 30.494 23.3238 37.2773C23.3238 37.2852 23.3316 37.2852 23.3316 37.293L23.3238 37.2852C23.6464 37.8203 24.0084 38.3396 24.4097 38.8433C26.6603 41.6604 29.9968 42.6834 33.0342 42.8172C37.5039 43.0139 41.588 41.204 42.666 39.7876C43.8385 38.2295 43.1539 36.2071 41.6588 34.9637C41.6588 34.9716 41.6667 34.9716 41.6667 34.9795C41.6588 34.9716 41.6588 34.9716 41.6509 34.9637C40.8561 34.3106 39.8332 33.8699 38.7315 33.8306C37.0711 33.7755 35.4737 34.3893 33.7503 34.4444C32.6644 34.4759 31.5549 34.3106 30.7365 33.7834C30.1148 33.3899 29.6584 32.784 29.4932 31.9184C29.1076 29.896 30.1305 27.0394 32.4126 25.3476C35.2297 23.2544 37.6849 23.3173 40.5335 26.2132C41.3519 27.0552 42.8392 28.81 44.9717 27.8028C46.5534 27.0552 46.4432 24.482 45.2392 22.0976C44.8222 21.2792 44.2792 20.4844 43.6339 19.7919Z" fill="#CBF9FF"/>
<path d="M33.7275 44.7998C33.4756 44.7998 33.216 44.7919 32.9484 44.784C31.0441 44.6975 29.2657 44.3198 27.6682 43.6509C25.7403 42.8482 24.1272 41.6442 22.876 40.0704C22.4196 39.5038 22.0104 38.9057 21.6405 38.2998C21.6169 38.2605 21.6012 38.229 21.5776 38.1896C19.3506 34.4754 18.7211 30.1394 19.7991 25.953C20.3185 23.9542 21.1998 22.105 22.4196 20.4682C23.6865 18.7763 25.2524 17.3834 27.0702 16.3447C30.6428 14.3144 34.4829 13.7085 38.1814 14.5977C40.8411 15.2351 43.4222 16.6752 45.0747 18.4458C45.8301 19.2563 46.4754 20.1849 46.9948 21.2C48.1043 23.3955 48.4112 25.5989 47.8446 27.2593C47.4826 28.3216 46.7823 29.1243 45.8223 29.5729C44.3901 30.2496 42.895 30.226 41.5021 29.5178C40.4949 28.9984 39.7552 28.2351 39.2673 27.7236C39.2201 27.6764 39.1729 27.6292 39.1335 27.5819C36.8358 25.2448 35.4665 25.5281 33.5937 26.9209C31.9254 28.1564 31.1857 30.2417 31.4297 31.548C31.4926 31.8864 31.6421 32.028 31.7917 32.1225C31.7995 32.1225 31.7995 32.1303 31.8074 32.1303C32.1851 32.3743 32.8776 32.5002 33.696 32.4766C34.3334 32.453 35.0023 32.3271 35.7105 32.2012C36.6862 32.0202 37.6856 31.8313 38.7952 31.8707C40.2195 31.9179 41.6202 32.4451 42.7769 33.3501C42.8241 33.3815 42.8714 33.4209 42.9186 33.4524C43.9966 34.3495 44.7678 35.5377 45.0747 36.7889C45.4446 38.2841 45.1455 39.7714 44.2406 40.9753L44.2327 40.9832C43.1389 42.4233 40.967 43.344 39.7788 43.7689C38.4017 44.2489 36.277 44.7998 33.7275 44.7998ZM25.0793 36.3797C25.339 36.7968 25.6301 37.2139 25.9449 37.6152C27.9437 40.1176 30.9497 40.755 33.1137 40.8494C37.1033 41.0226 40.5106 39.3543 41.0929 38.5988C41.5887 37.9378 41.03 37.0486 40.487 36.5528C40.4634 36.5371 40.4319 36.5135 40.4083 36.4899C40.4005 36.482 40.3926 36.4742 40.3847 36.4663C39.8811 36.0571 39.2673 35.8131 38.6614 35.7895C37.9846 35.7659 37.2371 35.9076 36.4344 36.0571C35.6475 36.2066 34.7583 36.3718 33.814 36.4033C32.1458 36.4505 30.7529 36.1279 29.6749 35.4354C28.5496 34.7193 27.8178 33.6255 27.5581 32.2799C27.2905 30.8791 27.4951 29.266 28.1325 27.7393C28.8014 26.1419 29.8716 24.7648 31.233 23.7575C33.0901 22.3804 34.8527 21.7823 36.6233 21.9397C38.4411 22.0971 40.1723 23.0414 41.9271 24.8198L41.9349 24.8277C41.99 24.8828 42.0372 24.9379 42.0923 24.993C43.1704 26.1183 43.5638 26.252 44.0832 26.0238C44.2327 25.7405 44.2721 24.5523 43.4694 22.9706C43.1232 22.2938 42.6825 21.6564 42.1789 21.1213C41.2897 20.1691 39.5349 18.9573 37.2449 18.4143C34.4986 17.7533 31.7208 18.2097 28.9981 19.7599C26.3069 21.2944 24.3868 23.8362 23.5921 26.9288C22.7737 30.108 23.2615 33.413 24.977 36.2302C24.9849 36.2459 24.9928 36.2538 25.0006 36.2696C25.04 36.3089 25.0636 36.3482 25.0793 36.3797Z" fill="#F5F7EF"/>
<path d="M62.9274 18.4556C62.9352 18.4635 62.9431 18.4714 62.951 18.4871C62.9352 18.4793 62.9195 18.4714 62.9037 18.4635C62.4788 18.2747 61.9988 18.1409 61.4794 18.0779C59.5358 17.8261 57.4741 17.6058 56.7186 25.1838L53.87 25.113C53.87 25.113 53.87 25.1051 53.87 25.0973C53.8779 25.0973 53.8858 25.0973 53.8858 25.0973C53.8858 25.0973 53.9644 22.2014 53.5789 20.3206C53.4057 19.455 52.9336 18.8176 52.0523 18.4478C52.0601 18.4556 52.0601 18.4635 52.068 18.4714C52.0601 18.4714 52.0523 18.4635 52.0444 18.4635C51.4227 18.196 50.5886 18.0701 49.5105 18.0779C48.3774 18.0858 46.9609 18.2196 46.8901 21.4223C46.8193 24.6251 47.0082 35.8073 47.2285 38.1916C47.3229 39.1595 47.7006 39.9229 48.1649 40.513C48.2987 40.6783 48.4325 40.8278 48.5741 40.9616C49.18 41.5518 49.8489 41.9059 50.2424 42.0397C51.5172 42.4725 53.3743 42.0397 53.9723 40.0881C54.6963 37.7273 54.4287 34.2413 54.4287 34.2413C54.4287 34.2413 56.9075 33.9265 57.3167 33.9265C57.3167 33.9265 57.1514 37.7037 58.1115 39.3641C58.3397 39.7655 58.5679 40.096 58.7882 40.3714C59.4886 41.237 60.2125 41.536 61.3063 41.6462C62.2191 41.7328 65.2802 41.717 65.351 38.4198C65.351 38.3175 65.351 38.2074 65.3589 38.0815C65.3904 34.3515 64.8946 22.6263 64.8946 21.0997C64.8946 19.9351 64.1156 18.9829 62.9274 18.4556Z" fill="#CBF9FF"/>
<path d="M51.1973 44.1647C50.6622 44.1647 50.1271 44.0781 49.6156 43.905H49.6078C48.7972 43.6296 47.9002 43.0551 47.2077 42.3784C47.0031 42.1817 46.8142 41.9692 46.6332 41.7489C46.6175 41.7252 46.5939 41.7016 46.5782 41.678C45.8463 40.7259 45.3978 39.5927 45.2797 38.3966V38.3887C45.0437 35.8155 44.8627 24.5782 44.9335 21.3912C44.9807 19.3688 45.5001 17.9602 46.5309 17.071C47.6169 16.1346 48.8995 16.1267 49.5133 16.1188C50.7173 16.111 51.7088 16.2526 52.5351 16.5438C52.6374 16.5674 52.7318 16.5989 52.8341 16.6382C54.282 17.2441 55.2184 18.3852 55.5253 19.9354C55.5568 20.0849 55.5804 20.2423 55.6119 20.3997C56.1076 18.7786 56.7844 17.6691 57.6736 16.9608C59.1294 15.8041 60.7661 16.0087 61.7419 16.1346C62.34 16.2054 62.9223 16.3549 63.4574 16.5674C63.5518 16.591 63.6462 16.6303 63.7407 16.6697C65.7079 17.5432 66.8804 19.2036 66.8804 21.1158C66.8804 21.6352 66.9513 23.6025 67.0299 25.8845C67.1716 30.0316 67.3683 35.7053 67.3447 38.1212C67.3447 38.2471 67.3447 38.373 67.3368 38.4831C67.2975 40.4898 66.424 41.678 65.7079 42.3154C64.1105 43.7319 61.978 43.7004 61.136 43.6217H61.1281C59.9241 43.5037 58.5234 43.1653 57.2801 41.6308L57.2723 41.623C56.9732 41.2452 56.6821 40.8203 56.4224 40.3639C56.3122 40.1671 56.2099 39.9547 56.1155 39.7265C56.0447 40.057 55.966 40.3796 55.8716 40.6865C55.4702 42.0007 54.6046 43.0551 53.4479 43.6453C52.7475 43.9837 51.9764 44.1647 51.1973 44.1647ZM50.8826 40.175C51.0793 40.238 51.394 40.2537 51.6458 40.1199C51.7796 40.0491 51.9685 39.9153 52.0944 39.5061C52.598 37.8615 52.5351 35.2489 52.4721 34.3833C52.3934 33.3367 53.1489 32.416 54.1876 32.2822C55.3758 32.1327 56.8788 31.9517 57.3195 31.9517C57.8546 31.9517 58.3661 32.172 58.7438 32.5576C59.1136 32.9432 59.3104 33.4704 59.2868 34.0055C59.2317 35.3512 59.3812 37.6175 59.8218 38.373C59.8218 38.3808 59.8297 38.3808 59.8297 38.3887C59.9871 38.6641 60.1524 38.9159 60.3255 39.1363C60.6009 39.4747 60.774 39.6163 61.5058 39.6871C62.0331 39.7343 62.7492 39.6556 63.0797 39.3566C63.2764 39.1835 63.3787 38.853 63.3944 38.373C63.3944 38.2785 63.3944 38.1762 63.4023 38.0661C63.4259 35.7368 63.2292 30.1103 63.0875 26.0026C63.001 23.5002 62.938 21.6902 62.938 21.1C62.938 20.7459 62.576 20.4862 62.3242 20.3446C62.2613 20.321 62.1983 20.2974 62.1432 20.2738L62.1118 20.258C61.8521 20.1479 61.5688 20.0692 61.254 20.0298C61.2462 20.0298 61.2462 20.0298 61.2383 20.0298C60.5852 19.9433 60.2547 19.9275 60.113 20.0298C59.9478 20.1557 59.1215 21.0214 58.6887 25.3809C58.5864 26.4039 57.7129 27.1751 56.6821 27.1515L53.8335 27.0806C53.3062 27.0649 52.8105 26.8446 52.4564 26.4668C52.0944 26.0891 51.9055 25.5776 51.9213 25.0583C51.9213 24.9796 51.9291 24.9009 51.9449 24.8222C51.9527 23.9251 51.9291 21.9578 51.6695 20.7223V20.7145C51.6301 20.5177 51.5829 20.4233 51.4649 20.3525C51.4098 20.3367 51.3547 20.3131 51.3075 20.2895C51.2996 20.2816 51.2839 20.2816 51.276 20.2738C51.0242 20.1715 50.5206 20.0456 49.5448 20.0534C49.3323 20.0534 49.1828 20.0613 49.0963 20.077C49.0333 20.203 48.8917 20.5807 48.8759 21.4699C48.8051 24.712 49.0018 35.7919 49.2064 38.011C49.2536 38.4989 49.4268 38.9159 49.7258 39.2937C49.7337 39.3094 49.7494 39.3173 49.7573 39.333C49.8202 39.4117 49.891 39.4825 49.9619 39.5533C50.3475 39.9311 50.7566 40.1278 50.8826 40.175ZM62.1039 20.258C62.1118 20.258 62.1118 20.258 62.1039 20.258V20.258Z" fill="#F5F7EF"/>
<path d="M84.8039 20.2016C82.5062 18.2973 79.4765 17.4316 76.9112 17.5497C70.8835 17.8408 66.4453 23.4358 66.4453 29.7076C66.4453 33.8075 69.349 37.6555 72.7485 39.7959C72.7642 39.8038 72.7799 39.8117 72.7957 39.8274C72.7799 39.8195 72.7563 39.8195 72.7406 39.8117C74.5505 40.9527 76.502 41.6059 78.2254 41.5586C82.215 41.4406 85.52 39.2844 87.2906 35.822C88.0381 34.3662 88.5103 32.6822 88.6441 30.825C88.8565 27.8819 88.2506 24.6005 86.724 22.3184C86.181 21.5079 85.5279 20.8075 84.8039 20.2016ZM81.491 30.6204C80.2635 33.4612 78.2175 33.8468 76.4627 33.6029C76.2345 33.5714 76.022 33.5084 75.8332 33.4061C74.999 32.9812 74.5584 31.9739 74.5505 30.7936C74.5426 29.983 74.7472 29.0859 75.1643 28.2361C75.4318 27.701 75.7545 27.2603 76.1086 26.914C76.9348 26.1035 77.9342 25.773 78.7841 25.6864C78.9021 25.6786 79.0201 25.6707 79.1382 25.6707C79.3664 25.6707 79.5788 25.6786 79.7598 25.71C79.9487 25.7415 80.1061 25.7809 80.2399 25.8281C80.3028 25.8517 80.3658 25.8753 80.413 25.9068C80.4917 25.9461 80.5625 25.9933 80.6412 26.0484C81.6327 26.7488 82.4668 28.3698 81.491 30.6204Z" fill="#CBF9FF"/>
<path d="M78.0586 43.5267C76.052 43.5267 73.8015 42.8028 71.6925 41.4729C71.6138 41.4257 71.5351 41.3706 71.4643 41.3076C69.56 40.0643 67.9075 38.4275 66.6799 36.5703C65.2399 34.3906 64.4766 32.0141 64.4766 29.7084C64.4766 26.1673 65.6963 22.7599 67.9075 20.1237C70.221 17.3616 73.3844 15.7563 76.8153 15.591C80.081 15.4415 83.5355 16.5983 86.0615 18.6915L86.0694 18.6994C86.9743 19.4548 87.7455 20.3047 88.3593 21.2333C90.0275 23.7278 90.8695 27.3712 90.6099 30.9753C90.4603 33.0685 89.9331 35.0044 89.0439 36.7356C88.0131 38.7501 86.4943 40.442 84.6529 41.6145C82.788 42.8028 80.5846 43.4716 78.2868 43.5346C78.2081 43.5267 78.1373 43.5267 78.0586 43.5267ZM74.0454 38.3016C75.4776 39.1593 76.9727 39.6236 78.1767 39.5921C81.3873 39.4977 84.0785 37.7979 85.5422 34.9336C86.1874 33.6745 86.573 32.2423 86.691 30.6842C86.8878 27.9614 86.274 25.1757 85.1015 23.413C84.6923 22.7992 84.1729 22.2248 83.5591 21.7133C81.7965 20.2496 79.2862 19.4076 77.012 19.5178C72.2748 19.746 68.4269 24.318 68.4269 29.7084C68.4269 33.1787 71.126 36.4366 73.8015 38.1285C73.8172 38.1363 73.8329 38.1521 73.8487 38.1599C73.9116 38.1993 73.9824 38.2465 74.0454 38.3016ZM77.3032 35.6339C76.9412 35.6339 76.5714 35.6103 76.1937 35.5552C75.7294 35.4923 75.3044 35.3585 74.9189 35.1539C73.4709 34.3984 72.5975 32.7774 72.5817 30.8101C72.5739 29.6612 72.8572 28.4651 73.4001 27.3712C73.7542 26.663 74.2028 26.0413 74.7379 25.5141C75.7687 24.5068 77.138 23.8773 78.6016 23.7357C78.7669 23.7199 78.94 23.7121 79.1131 23.7042C79.4357 23.6963 79.7505 23.7199 80.0574 23.7671C80.3722 23.8144 80.6712 23.8852 80.9309 23.9875C81.0725 24.0426 81.2141 24.1055 81.3401 24.1685C81.5132 24.2629 81.6627 24.3573 81.7807 24.436C81.7807 24.436 81.7886 24.436 81.7886 24.4439C83.5198 25.6636 84.6608 28.2919 83.3073 31.4003C82.1034 34.1545 80.0023 35.6339 77.3032 35.6339ZM76.7288 31.6521C76.7288 31.6521 76.7366 31.6521 76.7288 31.6521C77.9563 31.8252 78.9321 31.5813 79.6797 29.8343C80.3092 28.3864 79.6875 27.7962 79.5144 27.6624C79.4987 27.6624 79.4829 27.6545 79.4593 27.6545C79.3964 27.6467 79.2941 27.6309 79.1524 27.6388C79.0895 27.6388 79.0187 27.6467 78.9557 27.6467C78.5544 27.686 77.9721 27.8355 77.4685 28.3234C77.2481 28.5359 77.0671 28.7956 76.9097 29.1103C76.6422 29.6533 76.4927 30.2435 76.5006 30.7786C76.5163 31.3295 76.6815 31.597 76.7288 31.6521Z" fill="#F5F7EF"/>
<path d="M109.722 38.4118C111.005 35.6261 111.186 30.2829 111.099 25.766C111.005 21.0602 110.462 18.5657 108.754 17.645C108.526 17.5191 108.274 17.4246 107.999 17.3538C105.937 16.8423 104.285 17.2437 103.38 19.266C102.475 21.2884 102.656 28.5753 102.656 28.5753C102.561 28.4809 96.0065 21.7842 94.6451 20.5645C94.0628 20.053 93.3389 19.7697 92.6228 19.7067C91.2929 19.5966 89.9787 20.2418 89.6246 21.5796C89.0817 23.6413 89.2941 35.1146 89.4043 37.2078C89.4594 38.3017 89.782 39.4034 90.4037 40.206C90.4037 40.2139 90.4115 40.2139 90.4115 40.2218C90.4037 40.2218 90.3958 40.2139 90.3958 40.2139C90.9703 40.9536 91.7965 41.4415 92.8982 41.4415C93.9054 41.4415 94.5428 41.1818 94.9284 40.7805C95.432 40.2611 95.5107 39.4978 95.432 38.7266C95.3376 37.8531 95.4163 35.6497 95.495 34.1546C95.5343 33.2969 95.5737 32.6752 95.5737 32.6752C95.5737 32.6673 95.5737 32.6673 95.5737 32.6673C95.6602 32.7617 100.744 38.3489 102.805 40.0408C102.86 40.088 102.916 40.1352 102.971 40.1745C104.914 41.6933 107.086 41.473 108.888 39.6709C108.983 39.5765 109.077 39.4663 109.164 39.3561C109.305 39.1752 109.439 38.9627 109.557 38.7345C109.604 38.64 109.659 38.5377 109.707 38.4433C109.714 38.4354 109.714 38.4276 109.722 38.4118Z" fill="#CBF9FF"/>
<path d="M92.8973 43.4167C91.2763 43.4167 89.8362 42.7085 88.8447 41.4258C88.7896 41.355 88.7424 41.2842 88.7031 41.2134C87.9634 40.1668 87.5227 38.7896 87.444 37.3102C87.3889 36.3345 87.0348 23.7201 87.7273 21.0839C88.3017 18.9199 90.3792 17.5506 92.7871 17.7552H92.795C93.9596 17.8575 95.077 18.3297 95.9426 19.093C95.9505 19.1009 95.9505 19.1009 95.9584 19.1087C96.6666 19.7462 98.6181 21.6977 100.743 23.8381C100.9 20.3757 101.294 19.1166 101.585 18.4713C102.293 16.8818 104.134 14.3794 108.47 15.4496C108.478 15.4496 108.478 15.4496 108.486 15.4574C108.935 15.5755 109.328 15.725 109.69 15.9296C112.358 17.3775 112.956 20.7534 113.058 25.7346C113.176 32.2897 112.664 36.7122 111.5 39.2382C111.492 39.2539 111.484 39.2697 111.476 39.2933C111.413 39.4192 111.35 39.553 111.287 39.671C111.114 39.9936 110.925 40.2927 110.721 40.5602C110.579 40.7412 110.43 40.9143 110.272 41.0717C107.746 43.5977 104.496 43.8574 101.781 41.7563C101.679 41.6855 101.601 41.6147 101.538 41.5596C100.515 40.7176 98.8542 39.0415 97.3512 37.4755C97.3512 38.1365 97.3669 38.4277 97.3827 38.53V38.5378C97.5401 40.0645 97.1938 41.2763 96.3439 42.1577C95.5492 42.9918 94.3845 43.4167 92.8973 43.4167ZM92.0474 39.128C92.2756 39.372 92.5353 39.4821 92.8973 39.4821C93.2121 39.4821 93.3852 39.4428 93.4796 39.4192C93.4953 39.3405 93.5032 39.191 93.4796 38.9392C93.4481 38.6401 93.3537 37.743 93.5347 34.0602C93.574 33.3205 93.6055 32.7618 93.6134 32.6044C93.6134 32.5887 93.6134 32.573 93.6134 32.5572C93.6134 32.5572 93.6134 32.5494 93.6134 32.5415C93.6606 31.7546 94.1799 31.0778 94.9196 30.8103C95.6672 30.5506 96.4935 30.7552 97.0207 31.3375L97.0443 31.3611C99.405 33.9422 102.655 37.3732 104.056 38.5221C104.064 38.53 104.079 38.5378 104.087 38.5457C104.103 38.5614 104.119 38.5693 104.134 38.585C104.15 38.6008 104.166 38.6087 104.182 38.6244C104.898 39.1831 106.023 39.7576 107.494 38.2782C107.526 38.2467 107.565 38.2073 107.597 38.1522C107.668 38.0578 107.738 37.9398 107.817 37.806C107.849 37.743 107.88 37.6801 107.919 37.6093L107.935 37.5778C108.557 36.2322 109.257 33.0923 109.131 25.7976C109.1 24.3733 109.013 20.0216 107.817 19.3763C107.809 19.3763 107.809 19.3684 107.801 19.3684C107.731 19.3291 107.636 19.2897 107.51 19.2583C105.858 18.8491 105.488 19.3606 105.173 20.0688C105.102 20.2183 104.764 21.1547 104.646 24.7274C104.583 26.7261 104.622 28.5125 104.622 28.5282C104.646 29.3309 104.174 30.0706 103.434 30.3853C102.694 30.7001 101.837 30.5348 101.27 29.9683C101.262 29.9604 101.191 29.8896 101.073 29.7715C96.9263 25.5458 94.117 22.7286 93.3458 22.044C93.1019 21.8394 92.795 21.7056 92.4645 21.6741C92.4015 21.6662 91.654 21.6269 91.5359 22.0912C91.4887 22.2722 91.2448 23.484 91.2448 29.3938C91.2448 32.7304 91.3235 36.0748 91.3785 37.1135C91.4179 37.8689 91.6304 38.5693 91.9609 38.9942C91.9609 39.0021 91.9687 39.0021 91.9687 39.01C91.9923 39.0493 92.0238 39.0887 92.0474 39.128ZM91.9609 39.0021C91.9609 39.0021 91.9609 39.01 91.9609 39.0021C91.9609 39.01 91.9609 39.0021 91.9609 39.0021ZM104.119 38.5772C104.119 38.585 104.119 38.585 104.119 38.5772C104.119 38.585 104.119 38.585 104.119 38.5772Z" fill="#F5F7EF"/>
<path d="M134.505 19.291C134.269 18.8109 133.875 18.2837 133.262 17.843C133.23 17.8273 133.207 17.8037 133.175 17.788C132.215 17.1348 130.665 16.6941 129.099 16.883C125.77 17.2922 122.882 19.9599 120.199 21.337C120.199 21.337 119.341 18.386 118.421 17.2922C118.027 16.8279 117.531 16.4895 116.988 16.3085C116.296 16.0803 115.517 16.1275 114.761 16.5289C113.416 17.2528 112.621 19.0077 112.692 24.5633C112.763 30.119 113.266 36.2806 113.699 37.8938C113.833 38.4053 114.132 38.8853 114.517 39.3024L114.525 39.3102C114.517 39.3102 114.517 39.3024 114.51 39.3024C115.328 40.1916 116.532 40.8054 117.35 40.8998C117.539 40.9234 117.752 40.9392 117.98 40.9392C119.184 40.947 120.75 40.5693 120.994 38.9247C121.12 38.122 121.293 35.8557 121.238 34.2582C121.175 32.1335 120.947 30.6226 121.718 30.5833C121.765 30.5833 121.82 30.5833 121.883 30.599H121.891C121.891 30.6069 121.891 30.6069 121.891 30.6069C122.032 30.8508 126.486 38.4997 129.469 40.3962C129.555 40.4591 129.65 40.5142 129.736 40.5615C131.696 41.6946 132.585 40.9077 133.388 39.869C134.23 38.783 133.647 36.619 132.325 33.731C131.491 31.9053 129.524 28.4586 128.863 27.3176C128.737 27.1051 128.792 26.8297 128.997 26.688C129.587 26.2474 130.854 25.2794 132.546 24.28C133.608 23.6584 135.15 22.4308 134.859 20.3848C134.82 20.1094 134.725 19.7159 134.505 19.291Z" fill="#CBF9FF"/>
<path d="M131.447 43.0797C130.605 43.0797 129.716 42.8121 128.779 42.2692C128.63 42.1826 128.496 42.1039 128.37 42.0174C126.938 41.0888 125.238 39.2081 123.192 36.265C123.145 37.4532 123.043 38.61 122.948 39.2159C122.602 41.4901 120.721 42.8987 118.03 42.8987C118.014 42.8987 117.991 42.8987 117.975 42.8987C117.692 42.8987 117.409 42.883 117.133 42.8436C115.787 42.6862 114.151 41.797 113.073 40.6245C113.033 40.5773 112.994 40.5379 112.955 40.4907C112.388 39.8376 112.002 39.1372 111.806 38.3897C111.302 36.5089 110.806 30.064 110.736 24.5792C110.673 19.598 111.168 16.2221 113.844 14.7899C113.844 14.7899 113.852 14.7899 113.852 14.782C115.048 14.1446 116.386 14.0266 117.621 14.4279C118.518 14.7269 119.313 15.2699 119.935 16.0096C120.446 16.6234 120.902 17.5284 121.272 18.4097C121.422 18.3153 121.579 18.213 121.729 18.1107C123.798 16.7729 126.135 15.2542 128.874 14.9158C130.747 14.6876 132.793 15.144 134.241 16.104C134.272 16.1198 134.296 16.1434 134.327 16.1591C134.359 16.1827 134.39 16.1985 134.422 16.2221C135.224 16.7965 135.854 17.5284 136.279 18.3861C136.617 19.0629 136.759 19.6767 136.822 20.0701C136.822 20.078 136.822 20.078 136.822 20.0859C137.16 22.4388 135.995 24.5241 133.556 25.9563C132.635 26.4993 131.856 27.0344 131.242 27.4672C132.084 28.9545 133.446 31.3939 134.13 32.8891C135.507 35.903 136.562 38.9798 134.957 41.0494C134.414 41.7498 133.713 42.521 132.62 42.8751C132.234 43.0246 131.848 43.0797 131.447 43.0797ZM130.629 38.7989C130.636 38.7989 130.652 38.8146 130.684 38.8303C130.699 38.8382 130.715 38.8461 130.723 38.8539C131.109 39.0743 131.321 39.1294 131.4 39.1451C131.455 39.1058 131.573 38.9956 131.801 38.7044C131.84 38.5313 131.943 37.6027 130.542 34.5495C129.669 32.6294 127.442 28.7735 127.166 28.3092C126.529 27.2311 126.828 25.8304 127.835 25.0986L127.945 25.0199C128.622 24.5162 129.873 23.5719 131.549 22.5883C131.549 22.5883 131.557 22.5883 131.557 22.5804C133.052 21.7069 132.958 20.9593 132.919 20.6682C132.911 20.5895 132.871 20.4006 132.753 20.1724C132.753 20.1724 132.753 20.1646 132.745 20.1646C132.612 19.897 132.415 19.6688 132.163 19.4721C132.155 19.4642 132.139 19.4563 132.132 19.4485C132.108 19.4327 132.092 19.4249 132.069 19.4091C131.502 19.0235 130.44 18.7009 129.338 18.8347C127.505 19.0629 125.647 20.259 123.861 21.4236C122.964 22.006 122.036 22.6119 121.107 23.084C120.344 23.4775 119.423 23.328 118.817 22.7221C118.581 22.486 118.416 22.2027 118.321 21.88C117.959 20.6446 117.314 19.0078 116.929 18.5514C116.771 18.3704 116.582 18.2366 116.378 18.1658C116.165 18.095 115.945 18.1264 115.701 18.2523C115.591 18.3153 115.331 18.4569 115.095 19.2753C114.78 20.3455 114.639 22.1083 114.67 24.5241C114.749 30.4181 115.284 36.1627 115.607 37.3667C115.607 37.3745 115.607 37.3745 115.607 37.3824C115.646 37.5398 115.772 37.7444 115.953 37.9411L115.961 37.949C115.992 37.9805 116.024 38.0119 116.047 38.0513C116.582 38.5864 117.306 38.9012 117.574 38.9326C117.708 38.9484 117.849 38.9562 117.991 38.9562C118.384 38.9562 118.738 38.9012 118.935 38.791C119.022 38.7438 119.03 38.7438 119.045 38.6179C119.045 38.61 119.045 38.61 119.045 38.6021C119.155 37.9175 119.321 35.7771 119.266 34.3055C119.258 33.9593 119.242 33.6367 119.226 33.3219C119.148 31.5828 119.085 30.3237 119.95 29.3794C120.383 28.9073 120.981 28.6318 121.634 28.6004C121.642 28.6004 121.65 28.6004 121.658 28.6004C121.807 28.5925 121.965 28.6082 122.122 28.624C122.13 28.624 122.13 28.624 122.138 28.624C122.169 28.6318 122.201 28.6318 122.232 28.6397C122.862 28.7499 123.373 29.1591 123.649 29.6942C125.341 32.5979 128.653 37.5162 130.518 38.7123C130.566 38.7516 130.597 38.7752 130.629 38.7989ZM131.84 38.6651C131.84 38.6651 131.833 38.6651 131.84 38.6651C131.833 38.6651 131.84 38.6651 131.84 38.6651ZM115.441 37.5634C115.441 37.5634 115.449 37.5713 115.441 37.5634C115.449 37.5713 115.441 37.5634 115.441 37.5634ZM130.558 26.3104C130.566 26.3183 130.566 26.3183 130.558 26.3104C130.566 26.3183 130.566 26.3183 130.558 26.3104Z" fill="#F5F7EF"/>
<path d="M157.561 16.096C157.364 15.8914 157.128 15.7104 156.861 15.5452C156.861 15.5452 156.861 15.5452 156.861 15.553C156.569 15.3799 156.231 15.2225 155.853 15.0887C154.169 14.5064 152.265 13.9792 146.127 21.4471C145.962 21.329 141.744 18.26 140.548 17.4652C139.981 17.0954 139.155 16.8436 138.321 16.8514C138.258 16.8514 138.203 16.8514 138.14 16.8514C137.188 16.8908 136.244 17.2685 135.708 18.1656C134.67 19.8968 135.205 21.754 136.574 23.0288C137.943 24.3036 142.13 28.2933 142.177 28.5844C142.232 28.8677 141.964 32.8417 142.012 34.6201C142.059 36.1153 142.618 38.4682 144.05 39.743C144.325 39.9948 144.64 40.1994 144.978 40.3489C147.095 41.2854 148.779 40.1994 149.023 37.579C149.267 34.9585 149.338 30.7721 149.338 30.7721C149.338 30.7721 157.207 21.4628 158.002 19.4876C158.041 19.3853 158.08 19.283 158.112 19.1807C158.513 17.9689 158.34 16.8987 157.561 16.096Z" fill="#CBF9FF"/>
<path d="M146.405 42.6453C145.689 42.6453 144.934 42.4801 144.179 42.1417C143.643 41.9056 143.156 41.5909 142.731 41.1974C140.85 39.5134 140.102 36.6333 140.039 34.6738V34.666C140.008 33.5721 140.087 31.8094 140.15 30.3851C140.165 30.0231 140.181 29.6061 140.197 29.2755C139.245 28.2762 136.766 25.8918 135.223 24.4596C133.044 22.4293 132.564 19.5571 134.012 17.1412C134.83 15.772 136.302 14.9457 138.049 14.8749C138.135 14.8749 138.229 14.867 138.332 14.867C139.512 14.867 140.708 15.2054 141.621 15.8113C141.629 15.8113 141.629 15.8192 141.637 15.8192C142.416 16.3464 144.391 17.7629 145.792 18.7701C148.192 16.0081 150.112 14.3083 151.772 13.4742C153.834 12.4433 155.29 12.7974 156.486 13.2145C156.934 13.3719 157.359 13.5607 157.737 13.7732C157.784 13.7968 157.824 13.8204 157.871 13.844C158.28 14.0958 158.65 14.3791 158.965 14.7018C160.239 16.0081 160.609 17.8573 159.972 19.7774C159.925 19.9191 159.877 20.0607 159.814 20.1945C159.633 20.643 159.209 21.6975 154.896 27.08C153.425 28.9136 151.985 30.6448 151.284 31.4868C151.253 32.8088 151.166 35.7047 150.977 37.7428C150.796 39.718 149.939 41.2525 148.577 42.0473C147.924 42.4486 147.185 42.6453 146.405 42.6453ZM143.974 34.5637C144.013 35.8385 144.501 37.5146 145.351 38.2779C145.359 38.2858 145.367 38.2858 145.367 38.2937C145.485 38.4038 145.619 38.4904 145.76 38.5534C146.114 38.7107 146.437 38.7579 146.579 38.6793C146.72 38.6006 146.972 38.2386 147.051 37.4044C147.287 34.8863 147.358 30.7864 147.358 30.7471C147.366 30.2907 147.531 29.8579 147.822 29.5116C151.481 25.1757 155.715 19.8325 156.163 18.7623C156.187 18.6993 156.21 18.6364 156.234 18.5734C156.478 17.8258 156.258 17.5898 156.147 17.4796C156.084 17.4088 155.998 17.3458 155.904 17.2829C155.888 17.275 155.872 17.2671 155.856 17.2514C155.667 17.1412 155.447 17.0389 155.203 16.9524C154.558 16.732 154.29 16.6376 153.543 17.0153C152.166 17.7078 150.183 19.62 147.649 22.7048C146.988 23.5074 145.815 23.6569 144.973 23.051C143.36 21.8785 140.394 19.7381 139.457 19.1164C139.237 18.9747 138.788 18.8252 138.324 18.8252C138.316 18.8252 138.316 18.8252 138.308 18.8252C138.277 18.8252 138.253 18.8252 138.222 18.8252C137.93 18.841 137.553 18.9118 137.395 19.1793C136.75 20.2574 137.443 21.1545 137.915 21.5952C138.544 22.1854 139.953 23.5153 141.243 24.7744C141.936 25.4511 142.487 26.002 142.888 26.4112C143.604 27.1587 143.998 27.5837 144.116 28.2368C144.179 28.5594 144.171 28.8349 144.092 30.574C144.029 31.8488 143.95 33.6036 143.974 34.5637Z" fill="#F5F7EF"/>
<path d="M165.909 24.5386C166.821 22.2251 167.451 20.9738 168.002 20.0138C168.545 19.0695 168.765 16.7245 166.782 15.7093C166.751 15.6936 166.711 15.6779 166.68 15.6621C165.783 15.2451 163.501 14.7965 161.746 17.6609C159.991 20.5174 159.511 23.0198 161.195 24.995C161.25 25.058 161.313 25.1209 161.368 25.1839C163.021 26.9623 165.027 26.7735 165.909 24.5386Z" fill="#CBF9FF"/>
<path d="M163.675 28.3482C162.361 28.3482 161.031 27.7029 159.929 26.5225C159.913 26.5068 159.906 26.4911 159.89 26.4753C159.874 26.4596 159.866 26.4438 159.85 26.4281C159.803 26.3809 159.764 26.3337 159.717 26.2865C159.709 26.2786 159.709 26.2707 159.701 26.2707C158.528 24.9015 158.033 23.2804 158.229 21.4548C158.387 19.9832 158.985 18.4015 160.079 16.6309C162.125 13.2944 165.288 12.838 167.515 13.8767C167.523 13.8767 167.531 13.8846 167.539 13.8846C167.586 13.9082 167.633 13.9239 167.672 13.9475C167.68 13.9475 167.68 13.9554 167.688 13.9554C168.908 14.5771 169.758 15.5922 170.135 16.8906C170.537 18.2441 170.371 19.8573 169.71 20.9983C169.262 21.7853 168.672 22.9106 167.743 25.2635C167.082 26.9317 165.902 28.0019 164.415 28.2852C164.171 28.3246 163.927 28.3482 163.675 28.3482ZM162.825 23.8627C163.297 24.3585 163.628 24.4293 163.683 24.4136C163.706 24.4057 163.903 24.2798 164.084 23.8155C165.107 21.2265 165.776 19.9439 166.303 19.031C166.374 18.8973 166.492 18.4172 166.358 17.9923C166.287 17.7562 166.154 17.5988 165.918 17.4729C165.894 17.4651 165.87 17.4493 165.847 17.4415C165.359 17.2211 164.407 17.0952 163.431 18.6848C161.346 22.0764 162.274 23.2096 162.691 23.6975C162.699 23.7132 162.715 23.7211 162.731 23.7368C162.754 23.784 162.794 23.8234 162.825 23.8627Z" fill="#F5F7EF"/>
<path d="M178.393 22.7124C178.889 22.7439 179.463 22.9091 180.061 23.2082C181.14 23.759 182.084 23.9085 182.831 23.7433C183.398 23.6174 183.847 23.3105 184.138 22.8462C184.901 21.6343 184.586 20.1313 183.831 19.0532C183.784 18.9824 183.736 18.9116 183.681 18.8486C182.131 16.9128 179.416 16.2518 177.347 16.3934C174.829 16.5666 172.696 17.2276 170.996 18.8958C168.588 21.2802 168.698 23.7275 169.391 25.3958C169.399 25.4116 169.407 25.4273 169.407 25.443C169.399 25.4273 169.391 25.4194 169.383 25.4037C169.446 25.5453 169.509 25.687 169.572 25.8129C170.705 28.0477 174.915 31.2977 175.033 31.6361C175.033 31.6282 175.033 31.6204 175.033 31.6125C175.033 31.6204 175.041 31.6204 175.041 31.6282C175.159 31.9666 174.939 32.6906 174.002 33.1942C173.066 33.6978 171.5 33.4145 169.021 32.305C166.542 31.1954 165.409 32.667 164.591 33.5798C163.772 34.5005 163.505 36.0901 165.024 37.9866C165.441 38.4981 165.881 38.9702 166.361 39.3873L166.369 39.3951C166.361 39.3951 166.361 39.3873 166.354 39.3873C168.305 41.0949 170.823 42.0156 174.168 42.0235C174.514 42.0235 174.868 42.0156 175.23 41.9999C181.352 41.693 184.161 37.2232 183.965 33.1942C183.854 31.1167 182.627 29.4012 181.226 28.0005C179.511 26.2929 177.559 25.0574 177.15 24.2233C177.15 24.2233 177.15 24.2154 177.142 24.2154C177.142 24.2154 177.142 24.2154 177.15 24.2154C177.032 23.9794 176.977 23.7669 176.977 23.5859C176.969 22.9642 177.559 22.6495 178.393 22.7124Z" fill="#CBF9FF"/>
<path d="M174.23 43.9906C174.207 43.9906 174.183 43.9906 174.16 43.9906C170.422 43.9749 167.447 42.9597 165.063 40.8665C165.024 40.8351 164.992 40.7957 164.953 40.7642C164.465 40.3236 163.985 39.8199 163.505 39.2297C163.505 39.2219 163.497 39.2219 163.497 39.214C162.521 37.9943 162.01 36.7352 161.97 35.4683C161.939 34.28 162.348 33.1468 163.127 32.2734C163.127 32.2734 163.127 32.2655 163.135 32.2655C163.174 32.2261 163.206 32.1789 163.245 32.1396C163.71 31.6123 164.418 30.8176 165.488 30.3375C166.81 29.7473 168.266 29.8103 169.832 30.5107C170.65 30.8805 171.28 31.1087 171.752 31.2504C170.107 29.7316 168.565 28.1656 167.825 26.702C167.825 26.702 167.825 26.6941 167.817 26.6941C167.731 26.5288 167.66 26.3557 167.589 26.2062C167.55 26.1196 167.518 26.0252 167.495 25.9386C166.912 24.3963 166.188 20.9023 169.619 17.5028L169.627 17.495C171.524 15.63 173.939 14.6621 177.221 14.4339C179.707 14.2607 183.115 15.0083 185.208 17.5973C185.326 17.7311 185.413 17.857 185.468 17.9514C186.774 19.8321 186.908 22.1614 185.814 23.9005C185.814 23.9005 185.814 23.9084 185.806 23.9084C185.232 24.8055 184.327 25.435 183.264 25.6711C182.768 25.7813 182.249 25.8049 181.714 25.7577C182.013 26.0252 182.328 26.3164 182.627 26.6154C184.736 28.7243 185.822 30.849 185.94 33.0996V33.1075C186.066 35.7201 185.161 38.3327 183.461 40.2921C182.1 41.8502 179.589 43.7624 175.34 43.9749C174.962 43.9827 174.592 43.9906 174.23 43.9906ZM167.762 38.0021C169.391 39.3793 171.492 40.0481 174.175 40.056C174.482 40.056 174.805 40.0481 175.135 40.0324C180.069 39.7885 182.155 36.3654 182.005 33.2885C181.934 32.0373 181.25 30.794 179.841 29.3854C179.164 28.7165 178.417 28.0948 177.764 27.5518C176.631 26.6154 175.812 25.9386 175.395 25.0809C175.387 25.0652 175.379 25.0494 175.372 25.0258C175.356 24.9943 175.34 24.9629 175.332 24.9314C175.135 24.4907 175.033 24.05 175.025 23.6172V23.6094C175.01 22.8303 175.309 22.1063 175.867 21.5791C176.52 20.9574 177.449 20.6663 178.543 20.745C179.322 20.8 180.156 21.044 180.959 21.4453C180.959 21.4453 180.966 21.4453 180.966 21.4532C181.659 21.8073 182.163 21.8781 182.407 21.823H182.414C182.454 21.8152 182.477 21.8073 182.477 21.7994C182.477 21.7994 182.477 21.7994 182.485 21.7916C182.768 21.3352 182.564 20.6584 182.226 20.1784C182.218 20.1626 182.21 20.1548 182.202 20.139C182.194 20.1233 182.186 20.1154 182.178 20.0997C182.17 20.0918 182.163 20.084 182.155 20.0682C181.085 18.7304 179.039 18.2426 177.488 18.3449C175.167 18.5022 173.593 19.1003 172.389 20.2885C170.996 21.6657 170.603 23.1215 171.209 24.6166L171.217 24.6324C171.248 24.6953 171.272 24.7583 171.287 24.8212C171.303 24.8606 171.319 24.8999 171.335 24.9314C171.964 26.159 174.223 28.1892 175.309 29.1729C175.844 29.6529 176.182 29.9598 176.426 30.2274C176.56 30.3611 176.678 30.5107 176.764 30.6838C176.819 30.7782 176.859 30.8726 176.898 30.9749C176.898 30.9749 176.898 30.9828 176.906 30.9828C177.331 32.1947 176.788 33.9338 174.939 34.9332C172.987 35.9798 170.445 35.1063 168.219 34.1069C167.172 33.6426 166.944 33.9023 166.18 34.76C166.141 34.8072 166.102 34.8545 166.062 34.8938C165.582 35.4368 166.314 36.4519 166.558 36.7588C166.928 37.2152 167.282 37.5851 167.644 37.8998C167.652 37.9077 167.66 37.9077 167.668 37.9156C167.699 37.9392 167.731 37.9707 167.762 38.0021ZM175.348 25.0101C175.348 25.0101 175.356 25.0101 175.348 25.0101C175.356 25.0101 175.348 25.0101 175.348 25.0101Z" fill="#F5F7EF"/>
<path d="M44.9756 27.8008C42.8431 28.8081 41.3558 27.0532 40.5374 26.2112C37.6888 23.3154 35.2336 23.2524 32.4165 25.3456C30.1345 27.0375 29.1115 29.894 29.4971 31.9164C29.6623 32.782 30.1187 33.3879 30.7404 33.7814C31.5588 34.3086 32.6683 34.4739 33.7542 34.4424C35.4776 34.3873 37.075 33.7735 38.7354 33.8286C39.8371 33.868 40.86 34.3086 41.6548 34.9618C43.1578 36.2051 43.8424 38.2275 42.6699 39.7777C41.5919 41.1942 37.5078 43.0041 33.0382 42.8074C30.0007 42.6736 26.6642 41.6506 24.4136 38.8334C24.0123 38.3298 23.6503 37.8104 23.3277 37.2753C19.1885 30.4921 21.5257 21.773 28.0491 18.0587C35.2494 13.9589 41.4581 17.4528 43.6378 19.7899C44.2831 20.4824 44.8261 21.2772 45.2431 22.0956C46.4471 24.48 46.5573 27.0532 44.9756 27.8008Z" fill="#00DAFF"/>
<path d="M42.6704 39.7867C41.5923 41.2032 37.5083 43.0131 33.0386 42.8164C30.0011 42.6826 26.6646 41.6596 24.4141 38.8424C24.0127 38.3388 23.6508 37.8194 23.3281 37.2843C25.5236 39.2595 28.986 41.3133 33.794 41.1166C40.6008 40.8333 43.1897 37.4653 41.6631 34.9629C43.1583 36.2062 43.8429 38.2286 42.6704 39.7867Z" fill="#00BAEE"/>
<path d="M44.9736 27.8009C42.8411 28.8081 41.3538 27.0533 40.5354 26.2113C37.6868 23.3154 35.2317 23.2525 32.4145 25.3457C30.1325 27.0376 29.1095 29.8941 29.4951 31.9165C29.6603 32.7821 30.1167 33.388 30.7384 33.7815C27.5357 32.5618 27.8426 28.6193 29.4164 26.0303C31.722 22.2373 35.153 22.0957 36.4907 22.3869C40.2758 23.2053 40.8974 26.3529 43.8877 26.6441C46.0517 26.8566 45.6346 23.8033 45.2412 22.0957C46.4451 24.4801 46.5553 27.0533 44.9736 27.8009Z" fill="#00BAEE"/>
<path d="M25.9499 23.2457C26.3019 23.2457 26.5873 22.9533 26.5873 22.5926C26.5873 22.2319 26.3019 21.9395 25.9499 21.9395C25.5979 21.9395 25.3125 22.2319 25.3125 22.5926C25.3125 22.9533 25.5979 23.2457 25.9499 23.2457Z" fill="#CBF9FF"/>
<path d="M32.7657 17.4138C30.6253 18.0669 29.0515 19.1843 27.8396 20.3883C27.2258 21.0021 26.9583 21.5766 27.4226 21.5608C27.8947 21.5451 29.3899 20.0421 32.388 19.2001C33.8752 18.783 34.7172 18.6571 34.5913 17.8623C34.4733 17.1462 33.3559 17.2328 32.7657 17.4138Z" fill="#CBF9FF"/>
<path d="M65.3589 38.4179C65.288 41.7151 62.227 41.7308 61.3141 41.6443C60.2203 41.5341 59.4964 41.2351 58.796 40.3694C58.5757 40.094 58.3475 39.7635 58.1193 39.3622C57.1592 37.7018 57.3245 33.9246 57.3245 33.9246C56.9153 33.9246 54.4365 34.2393 54.4365 34.2393C54.4365 34.2393 54.7041 37.7254 53.9801 40.0862C53.3821 42.0377 51.525 42.4705 50.2502 42.0377C49.7702 41.8725 48.8731 41.3846 48.1806 40.519C47.7085 39.9288 47.3307 39.1576 47.2363 38.1897C47.016 35.8053 46.8271 24.6232 46.8979 21.4204C46.9688 18.2176 48.3852 18.0838 49.5183 18.076C50.5964 18.0681 51.4305 18.194 52.0522 18.4616C52.9335 18.8314 53.4057 19.4688 53.5788 20.3344C53.9644 22.2073 53.8778 25.111 53.8778 25.111L56.7264 25.1819C57.4819 17.6038 59.5436 17.8242 61.4873 18.076C62.0066 18.1389 62.4866 18.2727 62.9116 18.4616C64.0998 18.9888 64.8788 19.941 64.8788 21.1056C64.9024 22.6795 65.4297 35.1207 65.3589 38.4179Z" fill="#00DAFF"/>
<path d="M57.3158 33.9149C56.9066 33.9149 54.4278 34.2296 54.4278 34.2296C54.4278 34.2296 54.6954 37.7157 53.9714 40.0765C53.3733 42.028 51.5162 42.4608 50.2414 42.028C49.7614 41.8628 48.8644 41.3749 48.1719 40.5093C49.2185 41.0601 51.1543 41.3041 52.2638 39.8168C53.5543 38.0856 53.153 33.0335 53.153 33.0335L57.3158 32.7188V33.9149Z" fill="#00BAEE"/>
<path d="M65.3597 38.4173C65.2889 41.7145 62.2278 41.7303 61.315 41.6437C60.2212 41.5335 59.4972 41.2345 58.7969 40.3689C59.4264 40.542 60.7878 40.5027 61.8737 40.1879C65.1708 39.2357 63.841 35.5293 63.7859 30.6583C63.7308 25.7872 63.7151 22.3799 63.5498 20.4283C63.4869 19.6492 63.3295 18.9725 62.936 18.4531C64.1243 18.9804 64.9033 19.9325 64.9033 21.0972C64.9033 22.6789 65.4305 35.1201 65.3597 38.4173Z" fill="#00BAEE"/>
<path d="M53.8921 25.0948C53.8921 25.0948 53.42 25.205 53.0108 25.0082C52.6016 24.8194 52.8219 22.6239 52.5307 20.2001C52.4284 19.3581 52.2553 18.8073 52.0586 18.4453C52.9399 18.8152 53.4121 19.4526 53.5852 20.3182C53.9708 22.1989 53.8921 25.0948 53.8921 25.0948Z" fill="#00BAEE"/>
<path d="M48.5513 27.754C48.2601 27.7619 47.8194 28.2734 48.0476 28.8242C48.2758 29.3751 49.0706 29.1626 49.2044 28.6432C49.3224 28.1553 49.1808 27.7461 48.5513 27.754Z" fill="#CBF9FF"/>
<path d="M49.5556 19.9232C49.2172 19.9704 48.6585 20.7101 48.3044 23.0001C48.0054 24.928 47.9109 27.0291 48.6978 27.0291C49.4848 27.0291 49.17 25.6126 49.2408 24.1332C49.288 23.126 49.5634 22.3154 49.8389 21.3633C49.9884 20.836 50.13 20.5134 50.0671 20.2694C50.0199 20.0727 49.8074 19.8839 49.5556 19.9232Z" fill="#CBF9FF"/>
<path d="M59.6379 19.3497C59.2208 19.3418 58.8352 19.9399 58.6149 20.7661C58.3945 21.5924 58.4575 22.1826 58.9139 22.1826C59.3703 22.1826 59.5277 21.7891 59.5513 21.4744C59.5749 21.1596 59.7795 20.4986 59.9998 20.1523C60.2202 19.8061 60.0864 19.3576 59.6379 19.3497Z" fill="#CBF9FF"/>
<path d="M49.0522 34.7419C49.0522 34.8442 48.942 37.9211 50.0122 38.5427C50.1302 38.6135 50.7598 38.9677 50.445 39.4477C50.0515 40.0536 49.1073 39.5421 48.5328 38.3381C47.9584 37.1341 47.7459 34.4665 48.3754 34.1124C48.8633 33.8527 49.0522 34.4822 49.0522 34.7419Z" fill="#CBF9FF"/>
<path d="M81.4989 30.6185C80.2713 33.4593 78.2253 33.8449 76.4705 33.6009C76.2423 33.5694 76.0298 33.5065 75.841 33.4042C74.4403 32.6881 74.1334 30.3352 75.1721 28.2341C76.5964 25.3618 79.6339 25.4641 80.4208 25.9048C80.4995 25.9442 80.5703 25.9914 80.649 26.0465C81.6405 26.7468 82.4746 28.3679 81.4989 30.6185ZM86.7318 22.3165C86.1888 21.5059 85.5357 20.8056 84.8117 20.1996C82.514 18.2953 79.4844 17.4297 76.919 17.5477C70.8913 17.8389 66.4531 23.4339 66.4531 29.7057C66.4531 33.8055 69.3568 37.6536 72.7563 39.794C74.5662 40.935 76.5177 41.5882 78.241 41.541C83.9068 41.3757 88.1955 37.087 88.6519 30.8231C88.8643 27.88 88.2584 24.5985 86.7318 22.3165Z" fill="#00DAFF"/>
<path d="M80.6459 26.0462C80.5672 25.9912 80.4964 25.944 80.4177 25.9046C79.6308 25.4639 76.5933 25.3616 75.169 28.2339C74.1303 30.3271 74.4372 32.6879 75.8379 33.404C74.6024 33.0577 73.5322 31.7121 73.4614 29.8707C73.367 27.2738 74.807 24.9839 77.1678 24.5511C79.0091 24.2206 80.1659 25.4088 80.6459 26.0462Z" fill="#00BAEE"/>
<path d="M88.6417 30.8383C88.1853 37.1022 83.8966 41.3909 78.2309 41.5562C76.5075 41.6034 74.556 40.9503 72.7461 39.8092C78.1836 41.21 84.9589 39.345 86.761 32.9315C88.445 26.9116 86.336 22.4576 84.8016 20.207C85.5255 20.8051 86.1787 21.5133 86.7216 22.3239C88.2561 24.5981 88.862 27.8795 88.6417 30.8383Z" fill="#00BAEE"/>
<path d="M75.6505 18.8538C73.8642 19.2708 69.9847 20.766 68.3086 26.8489C68.1827 27.3132 68.0725 28.6903 69.2686 28.7611C70.4569 28.8319 69.1585 25.6606 72.2982 22.5759C75.438 19.4912 77.5705 20.4433 77.4918 19.2708C77.4525 18.6806 76.4216 18.6728 75.6505 18.8538Z" fill="#CBF9FF"/>
<path d="M68.5276 29.9584C68.0555 30.1394 67.7328 31.0207 68.3073 31.5007C68.8817 31.9808 69.5821 31.4378 69.5427 30.8397C69.5112 30.2338 69.1178 29.7302 68.5276 29.9584Z" fill="#CBF9FF"/>
<path d="M108.888 39.6748C107.086 41.4769 104.914 41.6972 102.971 40.1784C102.916 40.1391 102.86 40.0919 102.805 40.0447C100.744 38.3528 95.6602 32.7657 95.5737 32.6712C95.5737 32.6712 95.2825 37.3613 95.432 38.7305C95.5737 40.0998 95.2117 41.4375 92.9061 41.4375C91.8044 41.4375 90.9781 40.9496 90.4037 40.2099C89.782 39.4073 89.4594 38.3056 89.4043 37.2118C89.2941 35.1185 89.0817 23.6452 89.6246 21.5835C89.9787 20.2457 91.2929 19.6005 92.6228 19.7106C93.3389 19.7736 94.0628 20.0569 94.6451 20.5684C96.0065 21.7881 102.561 28.4848 102.656 28.5792C102.656 28.5792 102.475 21.2923 103.38 19.27C104.285 17.2476 105.937 16.8462 107.999 17.3577C108.274 17.4286 108.526 17.523 108.754 17.6489C110.462 18.5696 111.005 21.0641 111.099 25.7699C111.194 31.121 110.926 37.6367 108.888 39.6748Z" fill="#00DAFF"/>
<path d="M102.469 29.6811C101.989 29.9801 99.0069 26.8639 95.3242 22.4965C94.0808 21.025 93.2388 20.183 92.6172 19.7266C93.3333 19.7895 94.0572 20.0728 94.6396 20.5843C96.0009 21.804 102.556 28.5007 102.65 28.5952C102.65 28.5952 102.753 29.5001 102.469 29.6811Z" fill="#00BAEE"/>
<path d="M108.888 39.6762C107.085 41.4783 104.914 41.6986 102.97 40.1798C102.915 40.1405 102.86 40.0933 102.805 40.0461C105.653 40.7071 107.943 39.0624 108.817 36.6466C109.761 34.0182 109.792 29.7059 109.863 25.6375C109.95 20.9947 109.375 18.7441 108.746 17.666C110.453 18.5867 110.996 21.0813 111.091 25.787C111.193 31.1224 110.926 37.6381 108.888 39.6762Z" fill="#00BAEE"/>
<path d="M95.4268 38.7405C95.5684 40.1098 95.2065 41.4475 92.9008 41.4475C91.7991 41.4475 90.9729 40.9596 90.3984 40.2199C92.5074 40.9596 93.9395 39.6691 94.1284 38.6697C94.3487 37.5129 94.4195 31.3828 94.4195 31.3828L95.5763 32.6812C95.5763 32.6812 95.2852 37.3713 95.4268 38.7405Z" fill="#00BAEE"/>
<path d="M105.78 18.3828C105.213 18.3828 104.301 19.8465 104.135 21.4518C103.97 23.0571 103.884 23.9385 104.513 23.9621C105.143 23.9778 104.962 23.0729 105.072 22.3725C105.339 20.657 105.67 20.1691 105.953 19.453C106.252 18.7291 106.268 18.3828 105.78 18.3828Z" fill="#CBF9FF"/>
<path d="M104.176 25.5123C103.483 25.7641 103.633 26.8265 104.176 26.8501C104.719 26.8658 104.955 26.3307 104.955 26.071C104.955 25.8192 104.632 25.3549 104.176 25.5123Z" fill="#CBF9FF"/>
<path d="M91.0954 23.2365C90.5996 23.2207 90.0881 24.4798 90.1589 26.8642C90.2298 29.2486 89.9622 31.57 90.757 31.806C91.5518 32.0421 91.5833 30.846 91.6069 29.1541C91.6226 27.4544 91.717 25.0936 91.717 24.4955C91.7092 23.9054 91.7957 23.2601 91.0954 23.2365Z" fill="#CBF9FF"/>
<path d="M128.871 27.3137C129.532 28.4547 131.499 31.9014 132.333 33.7271C133.655 36.6151 134.237 38.7791 133.395 39.865C132.593 40.9038 131.704 41.6907 129.744 40.5575C129.658 40.5103 129.563 40.4552 129.477 40.3923C126.494 38.4958 122.04 30.8469 121.899 30.603C121.899 30.603 121.899 30.603 121.899 30.5951C120.923 30.4141 121.175 31.988 121.246 34.2543C121.301 35.8518 121.127 38.1181 121.002 38.9207C120.71 40.8723 118.57 41.0376 117.366 40.8959C116.548 40.8015 115.344 40.1877 114.525 39.2985C114.14 38.8814 113.841 38.4014 113.707 37.8899C113.274 36.2767 112.771 30.1151 112.7 24.5594C112.629 19.0038 113.424 17.2489 114.769 16.525C115.525 16.1236 116.304 16.0764 116.996 16.3046C117.539 16.4856 118.035 16.824 118.428 17.2883C119.349 18.3821 120.207 21.3331 120.207 21.3331C122.89 19.9559 125.778 17.2883 129.107 16.8791C130.673 16.6902 132.223 17.1309 133.183 17.784C133.214 17.7998 133.238 17.8234 133.27 17.8391C134.426 18.6654 134.773 19.7828 134.859 20.3651C135.15 22.4111 133.608 23.6387 132.546 24.2604C130.854 25.2598 129.587 26.2277 128.997 26.6684C128.8 26.8258 128.745 27.1012 128.871 27.3137Z" fill="#00DAFF"/>
<path d="M121.889 30.5943C120.913 30.4133 121.165 31.9871 121.236 34.2535C121.291 35.8509 121.118 38.1173 120.992 38.9199C120.701 40.8715 118.56 41.0367 117.356 40.8951C116.538 40.8007 115.334 40.1869 114.516 39.2976C115.074 39.5888 115.885 39.7855 117.065 39.6439C120.063 39.2819 119.733 37.7631 119.772 35.5676C119.812 33.3643 119.591 29.8625 120.095 29.5398C120.598 29.2172 121.322 29.5241 121.889 30.5943Z" fill="#00BAEE"/>
<path d="M128.868 27.3127C129.529 28.4537 131.497 31.9005 132.331 33.7261C133.653 36.6141 134.235 38.7781 133.393 39.8641C132.59 40.9028 131.701 41.6898 129.742 40.5566C130.962 40.2969 132.134 39.3133 132.527 38.062C133.173 36.0082 128.018 28.0681 127.334 26.4786C126.649 24.889 131.017 23.7401 132.889 21.8593C134.188 20.5609 133.81 18.9871 133.188 17.7988C133.22 17.8146 133.244 17.8382 133.275 17.8539C134.432 18.6802 134.778 19.7976 134.865 20.3799C135.156 22.4259 133.613 23.6535 132.551 24.2752C130.859 25.2746 129.592 26.2425 129.002 26.6832C128.797 26.8248 128.742 27.1002 128.868 27.3127Z" fill="#00BAEE"/>
<path d="M120.203 21.3331C119.022 22.2932 118.897 21.0419 118.857 20.7823C118.44 18.2799 117.716 16.9736 116.992 16.3047C117.535 16.4857 118.031 16.8241 118.424 17.2883C119.345 18.3822 120.203 21.3331 120.203 21.3331Z" fill="#00BAEE"/>
<path d="M129.48 17.7995C128.764 17.8703 127.631 18.4211 127.3 18.8225C126.978 19.2159 127.198 19.8769 127.953 19.6409C128.528 19.4599 128.835 19.1451 129.504 18.8933C130.18 18.6415 130.18 18.4369 130.117 18.1693C130.054 17.9018 129.826 17.7601 129.48 17.7995Z" fill="#CBF9FF"/>
<path d="M115.396 17.9641C114.624 17.8854 113.979 19.2625 113.546 22.1269C113.114 24.9913 113.908 25.4005 114.412 25.0622C114.916 24.7238 114.868 22.8037 115.325 21.3085C115.781 19.8134 116.356 18.0586 115.396 17.9641Z" fill="#CBF9FF"/>
<path d="M114.46 26.8184C114.145 26.8184 113.807 27.4716 113.838 28.2585C113.862 29.0533 114.357 29.3838 114.727 29.1241C115.01 28.9274 114.869 28.0933 114.845 27.7077C114.822 27.3221 114.948 26.8106 114.46 26.8184Z" fill="#CBF9FF"/>
<path d="M158.002 19.4834C157.207 21.4586 149.338 30.7679 149.338 30.7679C149.338 30.7679 149.267 34.9543 149.023 37.5748C148.779 40.1952 147.095 41.2812 144.978 40.3447C144.64 40.1952 144.325 39.9906 144.05 39.7388C142.618 38.464 142.059 36.1111 142.012 34.6159C141.964 32.8375 142.232 28.8635 142.177 28.5802C142.13 28.2891 137.943 24.2994 136.574 23.0246C135.205 21.7498 134.67 19.8926 135.708 18.1614C136.244 17.2643 137.188 16.8866 138.14 16.8473C139.029 16.8079 139.926 17.0676 140.524 17.461C141.752 18.2794 146.119 21.4586 146.119 21.4586C152.265 13.975 154.169 14.5022 155.853 15.0845C156.239 15.2183 156.577 15.3757 156.869 15.5488C158.316 16.4223 158.663 17.8388 158.002 19.4834Z" fill="#00DAFF"/>
<path d="M146.135 21.4512C146.135 21.4512 145.663 22.002 145.16 21.8368C144.656 21.6715 143.767 20.4911 140.399 18.0123C139.533 17.3749 138.794 17.0208 138.164 16.8477C139.053 16.8083 139.95 17.068 140.548 17.4615C141.768 18.2799 146.135 21.4512 146.135 21.4512Z" fill="#00BAEE"/>
<path d="M157.999 19.4835C157.204 21.4587 149.335 30.7679 149.335 30.7679C149.335 30.7679 149.264 34.9544 149.02 37.5748C148.776 40.1953 147.092 41.2812 144.975 40.3448C144.637 40.1953 144.322 39.9907 144.047 39.7388C145.227 40.3133 146.439 40.0457 147.195 38.4876C148.422 35.9616 147.95 29.6426 147.95 29.6426C147.95 29.6426 153.002 23.6856 155.386 20.2232C157.015 17.8546 157.495 16.5719 156.858 15.541C158.314 16.4224 158.66 17.8388 157.999 19.4835Z" fill="#00BAEE"/>
<path d="M137.467 18.176C137.011 18.2704 136.775 18.5931 136.861 18.9787C136.948 19.3642 137.349 19.3092 138.018 19.4902C138.687 19.6711 139.442 20.041 139.923 20.4187C140.403 20.7964 140.796 20.7335 141.016 20.2141C141.229 19.6948 139.049 17.8455 137.467 18.176Z" fill="#CBF9FF"/>
<path d="M152.458 16.4845C152.017 16.6812 151.427 17.0589 151.498 17.539C151.569 18.019 152.222 17.8695 152.663 17.6019C153.103 17.3344 154.079 17.0983 153.937 16.634C153.796 16.1697 153.41 16.0596 152.458 16.4845Z" fill="#CBF9FF"/>
<path d="M144.016 30.454C143.583 30.3989 143.166 31.1386 143.206 33.4522C143.245 35.7657 143.497 37.0405 144.071 37.0799C144.646 37.1192 144.63 36.1749 144.449 35.2227C144.268 34.2627 144.229 32.6574 144.268 31.7367C144.3 30.997 144.473 30.5091 144.016 30.454Z" fill="#CBF9FF"/>
<path d="M168.01 20.0099C167.459 20.9699 166.829 22.2211 165.916 24.5347C165.035 26.7695 163.029 26.9584 161.376 25.18C161.321 25.117 161.258 25.0541 161.203 24.9911C159.519 23.0159 159.999 20.5135 161.754 17.657C163.509 14.7926 165.791 15.2412 166.688 15.6582C166.719 15.674 166.758 15.6897 166.79 15.7054C168.773 16.7206 168.553 19.0656 168.01 20.0099Z" fill="#00DAFF"/>
<path d="M168.009 20.0115C167.458 20.9715 166.828 22.2227 165.915 24.5363C165.034 26.7711 163.028 26.96 161.375 25.1816C163.61 25.7718 164.531 24.0641 165.317 21.8844C165.648 20.9637 166.215 19.6967 166.616 18.8783C167.466 17.1392 167.269 16.2421 166.789 15.707C168.772 16.7222 168.552 19.0672 168.009 20.0115Z" fill="#00BAEE"/>
<path d="M164.664 16.73C164.428 16.4703 163.594 16.7142 162.862 17.6664C162.209 18.5084 162.272 19.2403 162.76 19.3111C163.248 19.374 163.61 18.4848 164.145 18.0914C164.68 17.6979 165.12 17.2336 164.664 16.73Z" fill="#CBF9FF"/>
<path d="M177.154 24.2194C177.563 25.0535 179.515 26.289 181.23 27.9966C182.631 29.3973 183.858 31.1128 183.968 33.1903C184.165 37.2193 181.356 41.689 175.234 41.9959C171.362 42.1927 168.514 41.2641 166.365 39.3834C165.885 38.9663 165.445 38.4941 165.028 37.9826C163.509 36.0862 163.776 34.4966 164.595 33.5759C165.413 32.6631 166.546 31.1915 169.025 32.3011C171.504 33.4106 173.07 33.6939 174.006 33.1903C174.943 32.6867 175.163 31.9627 175.045 31.6243C174.927 31.2859 170.717 28.036 169.584 25.8011C169.521 25.6752 169.458 25.5336 169.395 25.3919C168.702 23.7236 168.592 21.2763 171 18.8919C172.7 17.2237 174.832 16.5627 177.351 16.3895C179.42 16.2479 182.135 16.9089 183.685 18.8447C183.74 18.9077 183.787 18.9785 183.835 19.0493C184.59 20.1274 184.905 21.6304 184.142 22.8423C183.465 23.9046 181.978 24.1643 180.073 23.2043C178.161 22.2442 176.406 22.7006 177.154 24.2194Z" fill="#00DAFF"/>
<path d="M175.037 31.6348C174.919 31.2964 170.709 28.0464 169.576 25.8115C169.513 25.6856 169.45 25.544 169.387 25.4023C169.733 25.8666 170.26 26.3939 171.031 26.9762C173.77 29.0301 175.108 30.6196 175.037 31.6348Z" fill="#00BAEE"/>
<path d="M180.065 23.2057C178.16 22.2457 176.406 22.7021 177.153 24.213C174.619 22.5054 176.051 20.7033 178.137 20.8686C179.758 20.9945 180.844 22.9618 182.488 22.2063C183.283 21.8365 183.787 21.0968 183.889 20.4436C183.968 19.9557 183.913 19.4521 183.826 19.0508C184.582 20.1289 184.896 21.6319 184.133 22.8437C183.456 23.9061 181.961 24.1736 180.065 23.2057Z" fill="#00BAEE"/>
<path d="M183.963 33.1917C184.159 37.2207 181.35 41.6904 175.228 41.9973C171.356 42.194 168.508 41.2655 166.359 39.3847C169.995 41.0924 173.662 41.234 176.259 40.5494C179.784 39.6208 181.633 37.0869 182.286 34.9544C183.223 31.8932 182.019 29.2807 181.224 28.0059C182.625 29.3987 183.86 31.1142 183.963 33.1917Z" fill="#00BAEE"/>
<path d="M166.69 35.0092C167.06 35.6152 167.626 36.709 168.72 37.3543C169.814 38.0074 169.932 38.1569 169.83 38.511C169.672 39.0147 168.846 38.9045 167.855 38.2671C166.871 37.6297 166.053 36.5201 165.872 35.4184C165.746 34.6551 166.234 34.2538 166.69 35.0092Z" fill="#CBF9FF"/>
<path d="M170.983 21.0569C170.519 21.3952 170.306 22.4418 171.054 22.5599C171.801 22.6779 171.982 21.8595 171.935 21.5526C171.88 21.2379 171.463 20.7106 170.983 21.0569Z" fill="#CBF9FF"/>
<path d="M174.173 17.9255C172.969 18.4528 172.151 19.2869 172.308 19.7669C172.466 20.2469 172.93 20.1761 173.544 19.6725C174.158 19.1689 175.865 18.4055 177.297 18.3977C178.73 18.3898 178.84 18.2088 178.8 17.8075C178.753 17.3117 176.817 16.7766 174.173 17.9255Z" fill="#CBF9FF"/>
</svg>
