<svg width="123" height="78" viewBox="0 0 123 78" fill="none" xmlns="http://www.w3.org/2000/svg">
<path d="M31.1027 40.4352C29.6218 40.4352 28.3014 40.104 27.1414 39.4415C25.9814 38.7791 25.0682 37.8713 24.4018 36.7181V40.0672H20.0703V13.2012H25.0312V24.1684C25.7222 23.0152 26.6231 22.1074 27.7337 21.445C28.8691 20.7825 30.1895 20.4513 31.695 20.4513C33.3733 20.4513 34.8418 20.9175 36.1006 21.8498C37.384 22.7576 38.3836 23.9721 39.0993 25.4933C39.8151 27.0145 40.1729 28.6829 40.1729 30.4985C40.1729 32.3631 39.778 34.0438 38.9882 35.5404C38.1985 37.0371 37.1125 38.227 35.7304 39.1103C34.3729 39.9936 32.8304 40.4352 31.1027 40.4352ZM29.7329 36.2397C30.7942 36.2397 31.7197 35.9821 32.5095 35.4668C33.324 34.9516 33.9533 34.2646 34.3976 33.4059C34.8665 32.5226 35.101 31.5657 35.101 30.5353C35.101 29.4803 34.8789 28.5111 34.4346 27.6278C34.015 26.72 33.4227 25.9963 32.6576 25.4565C31.8925 24.9167 31.0163 24.6468 30.0291 24.6468C28.9431 24.6468 27.9435 25.0149 27.0303 25.7509C26.1418 26.4624 25.4754 27.3457 25.0312 28.4007V33.001C25.352 33.9579 25.9814 34.743 26.9193 35.3564C27.8571 35.9453 28.795 36.2397 29.7329 36.2397Z" fill="#F5F7EF"/>
<path d="M68.9102 13.2012H73.8711V33.8843C73.8711 34.7921 74.0192 35.3932 74.3153 35.6876C74.6115 35.9821 75.0187 36.1293 75.537 36.1293C75.9319 36.1293 76.3392 36.0802 76.7587 35.9821C77.1783 35.8839 77.5485 35.7613 77.8694 35.614L78.5358 39.3679C77.8694 39.6869 77.0919 39.9322 76.2034 40.104C75.3149 40.2757 74.5128 40.3616 73.797 40.3616C72.2421 40.3616 71.0328 39.9568 70.1689 39.1471C69.3298 38.3129 68.9102 37.1352 68.9102 35.614V13.2012Z" fill="#F5F7EF"/>
<path d="M80.9934 30.4249C80.9934 28.5847 81.3636 26.9041 82.104 25.3829C82.8444 23.8617 83.8687 22.6595 85.1768 21.7762C86.4849 20.8929 87.9781 20.4513 89.6564 20.4513C91.0879 20.4513 92.3713 20.8071 93.5066 21.5186C94.6666 22.2056 95.5674 23.0888 96.2092 24.1684V13.2012H101.17V34.5468C101.17 35.0865 101.256 35.4668 101.429 35.6876C101.602 35.8839 101.898 36.0066 102.318 36.0557V40.0672C101.429 40.2389 100.726 40.3248 100.207 40.3248C99.3189 40.3248 98.5785 40.104 97.9862 39.6623C97.4185 39.2207 97.0977 38.6441 97.0236 37.9326L96.9496 36.7181C96.2338 37.9203 95.2589 38.8404 94.0249 39.4783C92.8155 40.1162 91.5445 40.4352 90.2117 40.4352C88.41 40.4352 86.8181 39.9936 85.4359 39.1103C84.0538 38.2025 82.9678 37.0003 82.178 35.5036C81.3883 33.9825 80.9934 32.2895 80.9934 30.4249ZM96.2092 33.001V28.4007C95.8143 27.3212 95.1355 26.4256 94.173 25.7141C93.2104 25.0026 92.2232 24.6468 91.2113 24.6468C90.1993 24.6468 89.3108 24.929 88.5457 25.4933C87.7806 26.0331 87.1883 26.7568 86.7687 27.6646C86.3491 28.5479 86.1393 29.5048 86.1393 30.5353C86.1393 31.5903 86.3738 32.5594 86.8427 33.4427C87.3117 34.3014 87.941 34.9884 88.7308 35.5036C89.5453 35.9943 90.4708 36.2397 91.5074 36.2397C92.4453 36.2397 93.3708 35.933 94.284 35.3196C95.2219 34.7062 95.8636 33.9334 96.2092 33.001Z" fill="#F5F7EF"/>
<path d="M31.1027 40.4352C29.6218 40.4352 28.3014 40.104 27.1414 39.4415C25.9814 38.7791 25.0682 37.8713 24.4018 36.7181V40.0672H20.0703V13.2012H25.0312V24.1684C25.7222 23.0152 26.6231 22.1074 27.7337 21.445C28.8691 20.7825 30.1895 20.4513 31.695 20.4513C33.3733 20.4513 34.8418 20.9175 36.1006 21.8498C37.384 22.7576 38.3836 23.9721 39.0993 25.4933C39.8151 27.0145 40.1729 28.6829 40.1729 30.4985C40.1729 32.3631 39.778 34.0438 38.9882 35.5404C38.1985 37.0371 37.1125 38.227 35.7304 39.1103C34.3729 39.9936 32.8304 40.4352 31.1027 40.4352ZM29.7329 36.2397C30.7942 36.2397 31.7197 35.9821 32.5095 35.4668C33.324 34.9516 33.9533 34.2646 34.3976 33.4059C34.8665 32.5226 35.101 31.5657 35.101 30.5353C35.101 29.4803 34.8789 28.5111 34.4346 27.6278C34.015 26.72 33.4227 25.9963 32.6576 25.4565C31.8925 24.9167 31.0163 24.6468 30.0291 24.6468C28.9431 24.6468 27.9435 25.0149 27.0303 25.7509C26.1418 26.4624 25.4754 27.3457 25.0312 28.4007V33.001C25.352 33.9579 25.9814 34.743 26.9193 35.3564C27.8571 35.9453 28.795 36.2397 29.7329 36.2397Z" stroke="#F5F7EF" stroke-width="0.347235" stroke-linecap="round" stroke-linejoin="round"/>
<path d="M68.9102 13.2012H73.8711V33.8843C73.8711 34.7921 74.0192 35.3932 74.3153 35.6876C74.6115 35.9821 75.0187 36.1293 75.537 36.1293C75.9319 36.1293 76.3392 36.0802 76.7587 35.9821C77.1783 35.8839 77.5485 35.7613 77.8694 35.614L78.5358 39.3679C77.8694 39.6869 77.0919 39.9322 76.2034 40.104C75.3149 40.2757 74.5128 40.3616 73.797 40.3616C72.2421 40.3616 71.0328 39.9568 70.1689 39.1471C69.3298 38.3129 68.9102 37.1352 68.9102 35.614V13.2012Z" stroke="#F5F7EF" stroke-width="0.347235" stroke-linecap="round" stroke-linejoin="round"/>
<path d="M80.9934 30.4249C80.9934 28.5847 81.3636 26.9041 82.104 25.3829C82.8444 23.8617 83.8687 22.6595 85.1768 21.7762C86.4849 20.8929 87.9781 20.4513 89.6564 20.4513C91.0879 20.4513 92.3713 20.8071 93.5066 21.5186C94.6666 22.2056 95.5674 23.0888 96.2092 24.1684V13.2012H101.17V34.5468C101.17 35.0865 101.256 35.4668 101.429 35.6876C101.602 35.8839 101.898 36.0066 102.318 36.0557V40.0672C101.429 40.2389 100.726 40.3248 100.207 40.3248C99.3189 40.3248 98.5785 40.104 97.9862 39.6623C97.4185 39.2207 97.0977 38.6441 97.0236 37.9326L96.9496 36.7181C96.2338 37.9203 95.2589 38.8404 94.0249 39.4783C92.8155 40.1162 91.5445 40.4352 90.2117 40.4352C88.41 40.4352 86.8181 39.9936 85.4359 39.1103C84.0538 38.2025 82.9678 37.0003 82.178 35.5036C81.3883 33.9825 80.9934 32.2895 80.9934 30.4249ZM96.2092 33.001V28.4007C95.8143 27.3212 95.1355 26.4256 94.173 25.7141C93.2104 25.0026 92.2232 24.6468 91.2113 24.6468C90.1993 24.6468 89.3108 24.929 88.5457 25.4933C87.7806 26.0331 87.1883 26.7568 86.7687 27.6646C86.3491 28.5479 86.1393 29.5048 86.1393 30.5353C86.1393 31.5903 86.3738 32.5594 86.8427 33.4427C87.3117 34.3014 87.941 34.9884 88.7308 35.5036C89.5453 35.9943 90.4708 36.2397 91.5074 36.2397C92.4453 36.2397 93.3708 35.933 94.284 35.3196C95.2219 34.7062 95.8636 33.9334 96.2092 33.001Z" stroke="#F5F7EF" stroke-width="0.347235" stroke-linecap="round" stroke-linejoin="round"/>
<path d="M44.433 25.197L44.433 25.1969L44.4309 25.2008C43.573 26.7874 43.145 28.5146 43.145 30.3764C43.145 32.2143 43.5734 33.929 44.4309 35.5149C44.6653 35.9485 44.9272 36.3597 45.2166 36.7482L43.9852 40.3213C43.9419 40.4469 43.9741 40.5862 44.0681 40.6801C44.1622 40.774 44.3015 40.806 44.4271 40.7626L48.2442 39.4411C49.8358 40.3395 51.7121 40.7817 53.86 40.7817C56.0468 40.7817 57.9457 40.3128 59.5425 39.3593L59.5438 39.3585C61.1528 38.3877 62.3913 37.1059 63.2515 35.5149C64.109 33.929 64.5374 32.2143 64.5374 30.3764C64.5374 28.5146 64.1094 26.7874 63.2515 25.2008C62.3913 23.6098 61.1527 22.3401 59.5432 21.3939C57.9464 20.4155 56.0471 19.934 53.86 19.934C51.6718 19.934 49.7604 20.416 48.1393 21.3939C46.5549 22.3401 45.3176 23.6089 44.433 25.197Z" fill="#EAA34D" stroke="#EAA34D" stroke-width="0.69447" stroke-linecap="round" stroke-linejoin="round"/>
<path d="M19.5273 46.9727H20.4722V58.4461C20.4722 58.8853 20.5648 59.1903 20.7501 59.3611C20.9354 59.5197 21.1762 59.599 21.4726 59.599C21.6702 59.599 21.874 59.5807 22.084 59.5441C22.294 59.5075 22.4792 59.4587 22.6398 59.3977L22.825 60.1479C22.6151 60.2211 22.3557 60.2882 22.0469 60.3492C21.7382 60.4102 21.4726 60.4407 21.2503 60.4407C20.7316 60.4407 20.3116 60.2882 19.9905 59.9832C19.6817 59.6661 19.5273 59.2452 19.5273 58.7206V46.9727Z" fill="#F5F7EF"/>
<path d="M29.6203 48.6562V46.9727H30.5467V48.6562H29.6203ZM29.6203 60.3309V50.8154H30.5467V60.3309H29.6203Z" fill="#F5F7EF"/>
<path d="M43.3305 60.5139C42.5771 60.5139 41.873 60.3187 41.2184 59.9283C40.5638 59.5258 40.0513 59.0256 39.6808 58.4278V60.3309H38.8285V46.9727H39.7549V52.8832C40.2118 52.2245 40.7491 51.6877 41.3667 51.2729C41.9966 50.8581 42.7191 50.6508 43.5342 50.6508C44.2136 50.6508 44.8249 50.791 45.3684 51.0716C45.9118 51.3522 46.375 51.7304 46.7578 52.2062C47.1407 52.6819 47.431 53.2187 47.6286 53.8165C47.8386 54.402 47.9435 54.9998 47.9435 55.6098C47.9435 56.2563 47.8262 56.8785 47.5915 57.4763C47.3569 58.0618 47.0296 58.5864 46.6096 59.05C46.1897 59.5014 45.7018 59.8612 45.146 60.1296C44.5903 60.3858 43.9851 60.5139 43.3305 60.5139ZM43.1452 59.6904C43.8986 59.6904 44.5656 59.4953 45.146 59.1049C45.7265 58.7023 46.1774 58.1899 46.4985 57.5678C46.832 56.9456 46.9987 56.2929 46.9987 55.6098C46.9987 54.89 46.8443 54.2191 46.5355 53.5969C46.2268 52.9625 45.7945 52.4502 45.2387 52.0598C44.6829 51.6694 44.0406 51.4742 43.3119 51.4742C42.7685 51.4742 42.2683 51.5962 41.8113 51.8402C41.3543 52.072 40.9529 52.3831 40.6071 52.7734C40.2612 53.1516 39.9772 53.5603 39.7549 53.9995V57.1469C39.7919 57.5007 39.9216 57.8301 40.1439 58.135C40.3786 58.44 40.6627 58.7145 40.9961 58.9585C41.342 59.1903 41.7001 59.3733 42.0707 59.5075C42.4535 59.6295 42.8117 59.6904 43.1452 59.6904Z" fill="#F5F7EF"/>
<path d="M59.6394 60.5139C58.7377 60.5139 57.9226 60.2882 57.1939 59.8368C56.4775 59.3855 55.9094 58.7816 55.4894 58.0252C55.0819 57.2689 54.8781 56.4393 54.8781 55.5366C54.8781 54.646 55.0819 53.8348 55.4894 53.1028C55.897 52.3587 56.459 51.767 57.1753 51.3278C57.8917 50.8764 58.6945 50.6508 59.5838 50.6508C60.4977 50.6508 61.3067 50.8764 62.0107 51.3278C62.7271 51.767 63.2891 52.3587 63.6966 53.1028C64.1042 53.847 64.308 54.6582 64.308 55.5366C64.308 55.683 64.3018 55.8172 64.2895 55.9392H55.8414C55.8908 56.6711 56.0946 57.3299 56.4528 57.9154C56.811 58.4888 57.268 58.9463 57.8238 59.2879C58.3919 59.6173 59.0095 59.7819 59.6764 59.7819C60.3434 59.7819 60.9733 59.6112 61.5661 59.2696C62.1589 58.928 62.5727 58.4888 62.8074 57.952L63.6225 58.1716C63.4373 58.623 63.1408 59.0256 62.7333 59.3794C62.338 59.7331 61.8687 60.0137 61.3253 60.2211C60.7942 60.4163 60.2322 60.5139 59.6394 60.5139ZM55.8044 55.2255H63.4187C63.3693 54.4813 63.1655 53.8226 62.8074 53.2492C62.4615 52.6636 62.0107 52.2123 61.4549 51.8951C60.8992 51.5657 60.2816 51.401 59.6023 51.401C58.923 51.401 58.3054 51.5657 57.7497 51.8951C57.1939 52.2245 56.7431 52.6819 56.3972 53.2675C56.0514 53.8409 55.8538 54.4935 55.8044 55.2255Z" fill="#F5F7EF"/>
<path d="M76.2762 51.6389C75.4117 51.6633 74.6521 51.9195 73.9975 52.4075C73.3552 52.8832 72.9044 53.542 72.645 54.3837V60.3309H71.7187V50.8154H72.608V53.1577C72.9415 52.4989 73.3861 51.9561 73.9419 51.5291C74.4977 51.1021 75.0844 50.8581 75.7019 50.7971C75.8254 50.7971 75.9304 50.7971 76.0169 50.7971C76.1157 50.7849 76.2021 50.7788 76.2762 50.7788V51.6389Z" fill="#F5F7EF"/>
<path d="M87.7037 59.8734C87.6172 59.9222 87.3887 60.032 87.0182 60.2028C86.6477 60.3614 86.2031 60.4407 85.6843 60.4407C85.1779 60.4407 84.7333 60.2943 84.3504 60.0015C83.9799 59.7087 83.7946 59.2879 83.7946 58.7389V51.5657H82.4422V50.8154H83.7946V47.5582H84.7209V50.8154H86.9626V51.5657H84.7209V58.5193C84.7456 58.8731 84.8753 59.1415 85.11 59.3245C85.3447 59.4953 85.6164 59.5807 85.9252 59.5807C86.308 59.5807 86.6415 59.5197 86.9256 59.3977C87.2097 59.2635 87.3764 59.1781 87.4258 59.1415L87.7037 59.8734Z" fill="#F5F7EF"/>
<path d="M95.3609 63.5515C95.5585 63.5637 95.7314 63.5637 95.8796 63.5515C96.0402 63.5515 96.1575 63.5271 96.2316 63.4783C96.3428 63.4539 96.454 63.3563 96.5651 63.1856C96.6763 63.027 96.8307 62.7281 97.0283 62.2889C97.2382 61.8497 97.5223 61.1971 97.8805 60.3309L93.5824 50.8154H94.5643L98.3807 59.3611L101.919 50.8154H102.864L97.5841 63.3319C97.4729 63.6125 97.3 63.8504 97.0653 64.0456C96.8307 64.2408 96.5219 64.3506 96.139 64.375C96.0278 64.3872 95.9043 64.3933 95.7685 64.3933C95.645 64.4055 95.5091 64.4055 95.3609 64.3933V63.5515Z" fill="#F5F7EF"/>
<path d="M19.5273 46.9727H20.4722V58.4461C20.4722 58.8853 20.5648 59.1903 20.7501 59.3611C20.9354 59.5197 21.1762 59.599 21.4726 59.599C21.6702 59.599 21.874 59.5807 22.084 59.5441C22.294 59.5075 22.4792 59.4587 22.6398 59.3977L22.825 60.1479C22.6151 60.2211 22.3557 60.2882 22.0469 60.3492C21.7382 60.4102 21.4726 60.4407 21.2503 60.4407C20.7316 60.4407 20.3116 60.2882 19.9905 59.9832C19.6817 59.6661 19.5273 59.2452 19.5273 58.7206V46.9727Z" stroke="#F5F7EF" stroke-width="0.347235" stroke-linecap="round" stroke-linejoin="round"/>
<path d="M29.6203 48.6562V46.9727H30.5467V48.6562H29.6203ZM29.6203 60.3309V50.8154H30.5467V60.3309H29.6203Z" stroke="#F5F7EF" stroke-width="0.347235" stroke-linecap="round" stroke-linejoin="round"/>
<path d="M43.3305 60.5139C42.5771 60.5139 41.873 60.3187 41.2184 59.9283C40.5638 59.5258 40.0513 59.0256 39.6808 58.4278V60.3309H38.8285V46.9727H39.7549V52.8832C40.2118 52.2245 40.7491 51.6877 41.3667 51.2729C41.9966 50.8581 42.7191 50.6508 43.5342 50.6508C44.2136 50.6508 44.8249 50.791 45.3684 51.0716C45.9118 51.3522 46.375 51.7304 46.7578 52.2062C47.1407 52.6819 47.431 53.2187 47.6286 53.8165C47.8386 54.402 47.9435 54.9998 47.9435 55.6098C47.9435 56.2563 47.8262 56.8785 47.5915 57.4763C47.3569 58.0618 47.0296 58.5864 46.6096 59.05C46.1897 59.5014 45.7018 59.8612 45.146 60.1296C44.5903 60.3858 43.9851 60.5139 43.3305 60.5139ZM43.1452 59.6904C43.8986 59.6904 44.5656 59.4953 45.146 59.1049C45.7265 58.7023 46.1774 58.1899 46.4985 57.5678C46.832 56.9456 46.9987 56.2929 46.9987 55.6098C46.9987 54.89 46.8443 54.2191 46.5355 53.5969C46.2268 52.9625 45.7945 52.4502 45.2387 52.0598C44.6829 51.6694 44.0406 51.4742 43.3119 51.4742C42.7685 51.4742 42.2683 51.5962 41.8113 51.8402C41.3543 52.072 40.9529 52.3831 40.6071 52.7734C40.2612 53.1516 39.9772 53.5603 39.7549 53.9995V57.1469C39.7919 57.5007 39.9216 57.8301 40.1439 58.135C40.3786 58.44 40.6627 58.7145 40.9961 58.9585C41.342 59.1903 41.7001 59.3733 42.0707 59.5075C42.4535 59.6295 42.8117 59.6904 43.1452 59.6904Z" stroke="#F5F7EF" stroke-width="0.347235" stroke-linecap="round" stroke-linejoin="round"/>
<path d="M59.6394 60.5139C58.7377 60.5139 57.9226 60.2882 57.1939 59.8368C56.4775 59.3855 55.9094 58.7816 55.4894 58.0252C55.0819 57.2689 54.8781 56.4393 54.8781 55.5366C54.8781 54.646 55.0819 53.8348 55.4894 53.1028C55.897 52.3587 56.459 51.767 57.1753 51.3278C57.8917 50.8764 58.6945 50.6508 59.5838 50.6508C60.4977 50.6508 61.3067 50.8764 62.0107 51.3278C62.7271 51.767 63.2891 52.3587 63.6966 53.1028C64.1042 53.847 64.308 54.6582 64.308 55.5366C64.308 55.683 64.3018 55.8172 64.2895 55.9392H55.8414C55.8908 56.6711 56.0946 57.3299 56.4528 57.9154C56.811 58.4888 57.268 58.9463 57.8238 59.2879C58.3919 59.6173 59.0095 59.7819 59.6764 59.7819C60.3434 59.7819 60.9733 59.6112 61.5661 59.2696C62.1589 58.928 62.5727 58.4888 62.8074 57.952L63.6225 58.1716C63.4373 58.623 63.1408 59.0256 62.7333 59.3794C62.338 59.7331 61.8687 60.0137 61.3253 60.2211C60.7942 60.4163 60.2322 60.5139 59.6394 60.5139ZM55.8044 55.2255H63.4187C63.3693 54.4813 63.1655 53.8226 62.8074 53.2492C62.4615 52.6636 62.0107 52.2123 61.4549 51.8951C60.8992 51.5657 60.2816 51.401 59.6023 51.401C58.923 51.401 58.3054 51.5657 57.7497 51.8951C57.1939 52.2245 56.7431 52.6819 56.3972 53.2675C56.0514 53.8409 55.8538 54.4935 55.8044 55.2255Z" stroke="#F5F7EF" stroke-width="0.347235" stroke-linecap="round" stroke-linejoin="round"/>
<path d="M76.2762 51.6389C75.4117 51.6633 74.6521 51.9195 73.9975 52.4075C73.3552 52.8832 72.9044 53.542 72.645 54.3837V60.3309H71.7187V50.8154H72.608V53.1577C72.9415 52.4989 73.3861 51.9561 73.9419 51.5291C74.4977 51.1021 75.0844 50.8581 75.7019 50.7971C75.8254 50.7971 75.9304 50.7971 76.0169 50.7971C76.1157 50.7849 76.2021 50.7788 76.2762 50.7788V51.6389Z" stroke="#F5F7EF" stroke-width="0.347235" stroke-linecap="round" stroke-linejoin="round"/>
<path d="M87.7037 59.8734C87.6172 59.9222 87.3887 60.032 87.0182 60.2028C86.6477 60.3614 86.2031 60.4407 85.6843 60.4407C85.1779 60.4407 84.7333 60.2943 84.3504 60.0015C83.9799 59.7087 83.7946 59.2879 83.7946 58.7389V51.5657H82.4422V50.8154H83.7946V47.5582H84.7209V50.8154H86.9626V51.5657H84.7209V58.5193C84.7456 58.8731 84.8753 59.1415 85.11 59.3245C85.3447 59.4953 85.6164 59.5807 85.9252 59.5807C86.308 59.5807 86.6415 59.5197 86.9256 59.3977C87.2097 59.2635 87.3764 59.1781 87.4258 59.1415L87.7037 59.8734Z" stroke="#F5F7EF" stroke-width="0.347235" stroke-linecap="round" stroke-linejoin="round"/>
<path d="M95.3609 63.5515C95.5585 63.5637 95.7314 63.5637 95.8796 63.5515C96.0402 63.5515 96.1575 63.5271 96.2316 63.4783C96.3428 63.4539 96.454 63.3563 96.5651 63.1856C96.6763 63.027 96.8307 62.7281 97.0283 62.2889C97.2382 61.8497 97.5223 61.1971 97.8805 60.3309L93.5824 50.8154H94.5643L98.3807 59.3611L101.919 50.8154H102.864L97.5841 63.3319C97.4729 63.6125 97.3 63.8504 97.0653 64.0456C96.8307 64.2408 96.5219 64.3506 96.139 64.375C96.0278 64.3872 95.9043 64.3933 95.7685 64.3933C95.645 64.4055 95.5091 64.4055 95.3609 64.3933V63.5515Z" stroke="#F5F7EF" stroke-width="0.347235" stroke-linecap="round" stroke-linejoin="round"/>
</svg>
