<svg width="220" height="65" viewBox="0 0 220 65" fill="none" xmlns="http://www.w3.org/2000/svg">
<g clip-path="url(#clip0_2124_32499)">
<path d="M58.2969 47.4786V44.4567H63.0499V25.1927H66.3865V44.7095C66.3856 45.4439 66.0935 46.148 65.5742 46.6674C65.0549 47.1867 64.3508 47.4788 63.6163 47.4797L58.2969 47.4786ZM70.7299 39.3261C69.1246 37.7207 68.3065 35.7058 68.3065 33.3143C68.3065 30.9218 69.1246 28.9069 70.7299 27.3015C72.3353 25.6962 74.3502 24.8781 76.7417 24.8781C79.1342 24.8781 81.1171 25.6962 82.7545 27.3015C84.3598 28.9069 85.1779 30.9218 85.1779 33.3143C85.1779 35.7058 84.3598 37.7207 82.7545 39.3261C81.1491 40.9314 79.1342 41.7495 76.7417 41.7495C74.3182 41.7495 72.3353 40.9314 70.7299 39.3261ZM73.1534 29.3485C72.2403 30.3234 71.7998 31.6461 71.7998 33.2823C71.7998 34.9197 72.2403 36.2413 73.1545 37.2173C74.0665 38.1933 75.2622 38.6967 76.7107 38.6967C78.1582 38.6967 79.355 38.1933 80.267 37.2173C81.1801 36.2413 81.6217 34.9197 81.6217 33.2823C81.6217 31.6461 81.1801 30.3234 80.267 29.3485C79.355 28.3725 78.1582 27.8679 76.7107 27.8679C75.2622 27.8999 74.0665 28.3725 73.1534 29.3485ZM85.4307 25.1927H88.9241L92.4174 38.2562H94.1486L97.9577 25.1927H101.452L94.779 47.4786H91.2846L93.1726 41.4349H91.9459C90.7182 41.4349 89.6163 40.6167 89.3006 39.421L85.4307 25.1927ZM101.135 36.3362H104.788C104.82 36.3991 104.85 36.493 104.913 36.5879L105.291 37.1543C105.48 37.4381 105.732 37.6898 105.984 37.8786C106.235 38.0983 106.645 38.2871 107.116 38.4439C107.646 38.6119 108.198 38.6972 108.753 38.6967C109.918 38.6967 110.767 38.5079 111.303 38.1613C111.838 37.8157 112.09 37.3431 112.09 36.8077C112.09 36.3042 111.743 35.8946 111.051 35.6119C110.228 35.2855 109.374 35.0429 108.502 34.8877C107.491 34.6953 106.492 34.4431 105.511 34.1325C104.538 33.8398 103.659 33.2974 102.961 32.5591C102.268 31.8029 101.922 30.8589 101.922 29.6631C101.922 28.4045 102.489 27.2706 103.654 26.3266C104.818 25.3815 106.361 24.9101 108.25 24.9101C109.446 24.9101 110.485 25.0989 111.429 25.4445C112.373 25.7911 113.066 26.2317 113.537 26.7031C114.01 27.2077 114.388 27.7111 114.702 28.2146C115.017 28.7181 115.206 29.1277 115.3 29.5053L115.426 30.0087H111.932C111.895 29.9382 111.863 29.8647 111.838 29.789C111.806 29.6941 111.68 29.5373 111.492 29.2845C111.314 29.0444 111.102 28.8323 110.862 28.6551C110.61 28.4663 110.265 28.3095 109.823 28.1517C109.383 27.9949 108.847 27.9319 108.281 27.9319C107.337 27.9319 106.645 28.0887 106.14 28.4354C105.669 28.781 105.417 29.1906 105.417 29.6941C105.417 30.1037 105.669 30.4813 106.172 30.7639C106.676 31.0477 107.305 31.2685 108.06 31.3933C108.816 31.5202 109.634 31.709 110.516 31.9607C111.348 32.2011 112.168 32.4848 112.971 32.8109C113.729 33.1279 114.383 33.6512 114.859 34.3213C115.364 35.0146 115.616 35.8637 115.616 36.8386C115.616 38.1933 115.017 39.3581 113.789 40.333C112.562 41.309 110.894 41.7815 108.784 41.7815C107.526 41.7815 106.424 41.5927 105.448 41.2151C104.473 40.8375 103.717 40.3959 103.213 39.8605C102.746 39.365 102.324 38.8281 101.954 38.2562C101.64 37.7207 101.419 37.2802 101.325 36.9335L101.135 36.3362ZM116.214 28.2146V25.1927H118.102V21.6994H121.438V25.1927H126.38V28.2146H121.47V38.413H126.537V41.4349H120.873C120.138 41.4343 119.434 41.1423 118.914 40.6229C118.395 40.1036 118.103 39.3993 118.102 38.6647V28.2146H116.214ZM131.764 28.2146V41.4349H128.426V27.6173C128.426 26.9742 128.681 26.3575 129.136 25.9029C129.591 25.4482 130.207 25.1927 130.85 25.1927H138.28V28.2146H131.764ZM140.545 39.3261C138.971 37.6898 138.153 35.6749 138.153 33.3143C138.153 30.9538 138.971 28.9389 140.545 27.3015C142.151 25.6653 144.102 24.8781 146.4 24.8781C148.698 24.8781 150.649 25.6962 152.254 27.3015C153.86 28.9389 154.647 30.9218 154.647 33.3143V34.4162H141.489C141.71 35.7389 142.308 36.7767 143.19 37.5629C144.102 38.3501 145.173 38.7277 146.4 38.7277C147.407 38.7277 148.256 38.5389 149.044 38.1623C149.8 37.7837 150.334 37.4061 150.586 37.0285L150.996 36.493H154.49C154.458 36.6509 154.364 36.8397 154.269 37.0594C154.174 37.2802 153.892 37.7207 153.451 38.3181C153.025 38.9119 152.528 39.4513 151.972 39.9245C151.436 40.365 150.649 40.8055 149.642 41.1831C148.635 41.5607 147.564 41.7495 146.368 41.7495C144.102 41.7495 142.151 40.9314 140.544 39.3261H140.545ZM142.088 31.709H151.594C151.436 30.6701 150.933 29.757 150.082 29.0338C149.233 28.2775 148.162 27.8999 146.84 27.8999C145.733 27.8875 144.656 28.2541 143.787 28.9389C142.906 29.6322 142.34 30.5442 142.088 31.709ZM157.764 39.421C156.315 37.8466 155.591 35.8007 155.591 33.3143C155.591 30.8279 156.316 28.781 157.764 27.2077C159.211 25.6333 161.037 24.8781 163.209 24.8781C164.216 24.8781 165.129 25.0669 165.979 25.4754C166.828 25.885 167.426 26.2626 167.773 26.6413L168.277 27.2386H168.433V25.1618H171.77V41.4029H168.433V39.1682H168.277C168.245 39.2311 168.151 39.325 168.056 39.4509C167.962 39.5767 167.741 39.7655 167.426 40.0802C167.113 40.3693 166.776 40.6326 166.42 40.8674C166.073 41.0882 165.569 41.277 165.003 41.4647C164.423 41.6509 163.818 41.7466 163.209 41.7485C161.068 41.7485 159.243 40.9623 157.764 39.4199V39.421ZM174.666 41.4349V25.1927H178.002V27.4285H178.16C178.192 27.3645 178.254 27.2706 178.318 27.1447C178.38 27.0189 178.538 26.8301 178.822 26.5154C179.104 26.2317 179.387 25.9479 179.735 25.7282C180.049 25.5074 180.521 25.3186 181.087 25.1309C181.677 24.9398 182.293 24.844 182.913 24.8471C183.669 24.8471 184.393 24.941 185.022 25.1618C185.684 25.3815 186.187 25.6333 186.534 25.917C186.911 26.2007 187.226 26.5143 187.478 26.7981C187.729 27.0818 187.886 27.3335 187.981 27.5533L188.139 27.8679H188.296C188.328 27.7741 188.391 27.6791 188.485 27.5223C188.549 27.3965 188.768 27.1447 189.082 26.7981C189.398 26.4525 189.743 26.1687 190.122 25.885C190.5 25.6333 191.034 25.3815 191.695 25.1618C192.396 24.9321 193.129 24.8151 193.867 24.8151C195.724 24.8151 197.204 25.4125 198.274 26.6093C199.344 27.8061 199.88 29.4733 199.88 31.677V41.373H196.543V31.8658C196.543 29.2226 195.378 27.8999 193.049 27.8999C191.916 27.8999 190.94 28.3405 190.122 29.1906C189.303 30.0717 188.925 31.1735 188.925 32.4951V41.4039H185.589V31.8658C185.589 29.2226 184.424 27.8999 182.095 27.8999C180.961 27.8999 179.985 28.3405 179.167 29.1906C178.349 30.0717 177.972 31.1735 177.972 32.4951V41.4039H174.666V41.4359V41.4349ZM63.0809 18.9922V22.3287H66.4174V18.9922H63.0809ZM159.998 29.3485C159.086 30.3234 158.646 31.6461 158.646 33.2823C158.646 34.9197 159.086 36.2413 159.999 37.2173C160.912 38.1933 162.108 38.6967 163.556 38.6967C165.004 38.6967 166.201 38.1933 167.113 37.2173C168.026 36.2413 168.466 34.9197 168.466 33.2823C168.466 31.6461 168.026 30.3234 167.113 29.3485C166.2 28.3725 165.004 27.8679 163.556 27.8679C162.108 27.8999 160.912 28.3725 159.999 29.3485H159.998Z" fill="#F5F7EF"/>
<path d="M45.7362 13.2012H49.1677V23.0529C49.1689 26.846 47.78 30.508 45.2637 33.3462C45.5794 32.0236 45.7362 30.671 45.7362 29.2545V13.2012ZM28.4872 41.31C28.3922 41.4049 28.3293 41.4988 28.2354 41.5937L28.1405 41.6876C28.0466 41.7825 27.9837 41.8764 27.8888 41.9393L27.7629 42.0652C27.6654 42.1676 27.5602 42.2624 27.4482 42.3489C27.3224 42.4748 27.1965 42.5697 27.0706 42.6956C26.9481 42.8175 26.8105 42.9233 26.661 43.0102L26.2834 43.2929C25.9688 43.4817 25.6541 43.6705 25.3394 43.8284C25.2754 43.8604 25.2136 43.8924 25.1186 43.9222C25.0248 43.9542 24.9618 43.9862 24.8989 44.0172C24.804 44.0492 24.741 44.0812 24.6472 44.1121C24.4893 44.175 24.3325 44.238 24.1437 44.3009H24.1117C23.9538 44.3638 23.797 44.3948 23.6392 44.4268H23.6072C23.4504 44.4588 23.2936 44.5206 23.1357 44.5526C22.9469 44.5846 22.7272 44.6465 22.5384 44.6465C22.4744 44.6465 22.4125 44.6785 22.3485 44.6785H22.3176C22.1288 44.7105 21.9709 44.7105 21.7821 44.7105H21.0898L22.1288 41.279H28.4861V41.311L28.4872 41.31ZM42.9661 13.2012V29.2545C42.9661 29.5062 42.9661 29.79 42.9341 30.0417C42.9341 30.1676 42.9341 30.2934 42.9032 30.4193C42.9032 30.5452 42.8712 30.671 42.8712 30.7969C42.8712 30.9228 42.8402 31.0486 42.8402 31.1745C42.8402 31.2694 42.8082 31.3953 42.8082 31.4892V31.5841C42.7773 31.71 42.7773 31.8358 42.7464 31.9297C42.7144 32.0556 42.7144 32.1814 42.6824 32.2764V32.3084C42.6514 32.4022 42.6514 32.4961 42.6205 32.591V32.655C42.5256 33.0316 42.4317 33.4412 42.3058 33.8177C42.2738 33.9137 42.2418 34.0396 42.2109 34.1334C42.1831 34.2537 42.1409 34.3701 42.085 34.4801C42.053 34.606 41.9912 34.6998 41.9592 34.7948C41.9272 34.9206 41.8653 35.0145 41.8333 35.1094C41.8013 35.2353 41.7384 35.3292 41.7074 35.4241C41.6754 35.518 41.6125 35.6449 41.5496 35.7388C41.5101 35.8495 41.4574 35.9552 41.3928 36.0534C41.3288 36.1484 41.2978 36.2742 41.2349 36.3681C41.2029 36.463 41.141 36.526 41.109 36.6198C41.016 36.805 40.9109 36.9839 40.7944 37.1553C40.7073 37.3066 40.6129 37.4536 40.5117 37.5958C40.4567 37.7126 40.382 37.8191 40.2909 37.9105C40.2589 37.9745 40.197 38.0364 40.165 38.0684C40.0712 38.1942 40.0072 38.2881 39.9133 38.383C39.8184 38.5089 39.7245 38.6028 39.6616 38.7286L39.0952 39.39L39.189 39.0124C39.221 38.9174 39.221 38.8236 39.253 38.7286V38.6348C39.284 38.5089 39.284 38.383 39.3149 38.2572C39.3469 38.0993 39.3789 37.9425 39.3789 37.8166C39.3789 37.7217 39.4098 37.6278 39.4098 37.5649C39.4098 37.47 39.4418 37.407 39.4418 37.3121C39.4728 37.1553 39.4728 36.9974 39.5037 36.8086V36.6828C39.5037 36.5569 39.5357 36.463 39.5357 36.3372V13.2012H42.9661Z" fill="#4038FF"/>
<path d="M36.7672 13.2012V35.455C36.7672 35.9905 36.7352 36.494 36.7032 36.9974C36.6721 37.4317 36.6094 37.863 36.5154 38.2881C36.3266 39.2961 36.0429 40.2721 35.6653 41.1841C35.435 41.7548 35.1721 42.3118 34.8781 42.8524C34.0001 44.4195 32.8732 45.8335 31.5416 47.039C28.714 49.5767 25.0475 50.9783 21.2482 50.974H19.2344L20.2733 47.5425H21.2802C24.1162 47.5481 26.8614 46.5438 29.0242 44.7094C30.155 43.7752 31.0952 42.6319 31.7933 41.342C31.9821 41.0273 32.14 40.6806 32.2968 40.334C32.5496 39.7686 32.7384 39.2012 32.8952 38.6028C33.0895 37.9365 33.2058 37.25 33.2418 36.5569C33.2738 36.2113 33.2738 35.8646 33.2738 35.518V13.2012H36.7672Z" fill="#4038FF"/>
<path d="M30.5674 35.1085V35.4541C30.5674 35.7378 30.5674 36.0216 30.5354 36.2733C30.4724 36.8077 30.4095 37.3432 30.2527 37.8466C30.1887 38.0984 30.1258 38.3501 30.0319 38.5709H22.9492L23.9882 35.1394H30.5674V35.1085Z" fill="#4038FF"/>
</g>
<defs>
<clipPath id="clip0_2124_32499">
<rect width="181.333" height="38.4" fill="white" transform="translate(19.2344 13.2012)"/>
</clipPath>
</defs>
</svg>
