<svg width="216" height="65" viewBox="0 0 216 65" fill="none" xmlns="http://www.w3.org/2000/svg">
<g filter="url(#filter0_iiii_2124_30980)">
<path d="M35.4293 25.2483L35.4628 25.2686L35.4971 25.2876C37.3598 26.3175 39.5019 26.903 41.7748 26.903C44.0476 26.903 46.1898 26.3175 48.0524 25.2876L48.0867 25.2686L48.1203 25.2483C49.4689 24.4326 51.0496 23.9627 52.7462 23.9627C57.6913 23.9627 61.7001 27.9716 61.7001 32.9168C61.7001 37.862 57.6913 41.8708 52.7461 41.8708C51.0495 41.8708 49.4689 41.4009 48.1202 40.5852L48.0867 40.5649L48.0524 40.5459C46.1898 39.516 44.0476 38.9305 41.7748 38.9305C39.5019 38.9305 37.3598 39.516 35.4971 40.546L35.4628 40.5649L35.4293 40.5852C34.0807 41.4009 32.5 41.8708 30.8034 41.8708C25.8583 41.8708 21.8494 37.862 21.8494 32.9168C21.8494 27.9716 25.8583 23.9627 30.8034 23.9627C32.5 23.9627 34.0807 24.4326 35.4293 25.2483Z" stroke="#5D52EE" stroke-width="4.03478"/>
</g>
<path d="M79.7915 41.9858C84.0451 41.9858 87.1735 38.9397 87.1735 34.8234V21.7609H83.2767L83.2492 28.9233C82.2613 28.1275 80.9441 27.6335 79.572 27.6335C75.3459 27.6335 72.437 30.5973 72.437 34.8234C72.437 38.7476 75.6203 41.9858 79.7915 41.9858ZM79.7915 38.3085C77.7883 38.3085 76.3338 36.7443 76.3338 34.8234C76.3338 32.9024 77.7883 31.3108 79.7915 31.3108C81.7948 31.3108 83.2767 32.9024 83.2767 34.8234C83.2767 36.7443 81.7948 38.3085 79.7915 38.3085ZM92.9325 25.987C94.2497 25.987 95.3199 24.9167 95.3199 23.5721C95.3199 22.2549 94.2497 21.1572 92.9325 21.1572C91.6152 21.1572 90.5175 22.2549 90.5175 23.5721C90.5175 24.9167 91.6152 25.987 92.9325 25.987ZM90.9841 28.0177V41.6016H94.8808V28.0177H90.9841ZM104.727 41.9583C106.593 41.9583 108.075 41.2174 109.035 40.0099V41.6016H112.74V34.7685C112.74 30.6796 109.611 27.6061 105.358 27.6061C101.187 27.6061 98.0032 30.8717 98.0032 34.7685C98.0032 38.7201 100.775 41.9583 104.727 41.9583ZM105.358 38.3085C103.354 38.3085 101.9 36.7169 101.9 34.7959C101.9 32.875 103.354 31.2833 105.358 31.2833C107.361 31.2833 108.843 32.875 108.843 34.7959C108.843 36.7169 107.361 38.3085 105.358 38.3085ZM122.999 41.9858C123.96 41.9858 125.14 41.7662 125.826 41.3271V37.842C125.167 38.2536 124.152 38.5006 123.356 38.5006C121.929 38.5006 121.023 37.6225 121.023 36.1131V31.3108H125.826V28.0177H121.023V24.56H117.127V28.0177H114.629V31.3108H117.127V36.2229C117.127 39.6257 119.075 41.9858 122.999 41.9858ZM135.158 41.9583C139.329 41.9583 142.54 38.7201 142.54 34.7685C142.54 30.8717 139.357 27.6061 135.158 27.6061C131.014 27.6061 127.804 30.8442 127.804 34.7685C127.804 38.7201 130.987 41.9583 135.158 41.9583ZM135.158 38.3085C133.155 38.3085 131.7 36.7169 131.7 34.7959C131.7 32.875 133.155 31.2833 135.158 31.2833C137.161 31.2833 138.643 32.875 138.643 34.7959C138.643 36.7169 137.161 38.3085 135.158 38.3085ZM162.256 27.5237C159.813 27.5237 157.892 28.6763 157.042 30.5424C156.246 28.6763 154.352 27.5237 151.745 27.5237C147.355 27.5237 145.132 30.707 145.132 34.494V41.6016H149.029V35.1252C149.029 33.0671 149.879 31.3108 152.047 31.3108C154.16 31.3108 155.066 33.0396 155.066 35.1252V41.6016H158.963V35.0978C158.963 33.0396 159.868 31.3108 161.981 31.3108C164.122 31.3108 165.027 33.0671 165.027 35.1527V41.6016H168.924V34.494C168.924 30.707 166.674 27.5237 162.256 27.5237ZM174.696 25.987C176.013 25.987 177.084 24.9167 177.084 23.5721C177.084 22.2549 176.013 21.1572 174.696 21.1572C173.379 21.1572 172.281 22.2549 172.281 23.5721C172.281 24.9167 173.379 25.987 174.696 25.987ZM172.748 28.0177V41.6016H176.644V28.0177H172.748ZM184.075 41.6016L186.408 37.842C186.655 37.4304 186.874 36.9638 187.012 36.4973H187.972C188.109 36.9638 188.329 37.4304 188.576 37.842L190.908 41.6016H195.272L192.088 36.4424C191.677 35.7838 191.485 35.2899 191.485 34.8234C191.485 34.3843 191.649 33.9452 192.006 33.3689L195.272 28.0177H190.881L188.576 31.8322C188.356 32.1889 188.164 32.6005 188.054 33.0122H186.929C186.82 32.6005 186.627 32.1889 186.408 31.8322L184.103 28.0177H179.712L182.978 33.3689C183.334 33.9452 183.499 34.3843 183.499 34.8234C183.499 35.2899 183.307 35.7838 182.895 36.4424L179.712 41.6016H184.075Z" fill="#F5F7EF"/>
<defs>
<filter id="filter0_iiii_2124_30980" x="18.4871" y="20.6004" width="46.5766" height="24.6332" filterUnits="userSpaceOnUse" color-interpolation-filters="sRGB">
<feFlood flood-opacity="0" result="BackgroundImageFix"/>
<feBlend mode="normal" in="SourceGraphic" in2="BackgroundImageFix" result="shape"/>
<feColorMatrix in="SourceAlpha" type="matrix" values="0 0 0 0 0 0 0 0 0 0 0 0 0 0 0 0 0 0 127 0" result="hardAlpha"/>
<feOffset dx="1.34492" dy="1.34492"/>
<feGaussianBlur stdDeviation="1.34492"/>
<feComposite in2="hardAlpha" operator="arithmetic" k2="-1" k3="1"/>
<feColorMatrix type="matrix" values="0 0 0 0 0.868729 0 0 0 0 0.862726 0 0 0 0 0.954167 0 0 0 0.25 0"/>
<feBlend mode="normal" in2="shape" result="effect1_innerShadow_2124_30980"/>
<feColorMatrix in="SourceAlpha" type="matrix" values="0 0 0 0 0 0 0 0 0 0 0 0 0 0 0 0 0 0 127 0" result="hardAlpha"/>
<feOffset dx="0.672462" dy="0.672462"/>
<feGaussianBlur stdDeviation="0.336231"/>
<feComposite in2="hardAlpha" operator="arithmetic" k2="-1" k3="1"/>
<feColorMatrix type="matrix" values="0 0 0 0 0.755129 0 0 0 0 0.747396 0 0 0 0 0.875 0 0 0 0.25 0"/>
<feBlend mode="normal" in2="effect1_innerShadow_2124_30980" result="effect2_innerShadow_2124_30980"/>
<feColorMatrix in="SourceAlpha" type="matrix" values="0 0 0 0 0 0 0 0 0 0 0 0 0 0 0 0 0 0 127 0" result="hardAlpha"/>
<feOffset dx="-1.34492" dy="-1.34492"/>
<feGaussianBlur stdDeviation="1.34492"/>
<feComposite in2="hardAlpha" operator="arithmetic" k2="-1" k3="1"/>
<feColorMatrix type="matrix" values="0 0 0 0 0.133339 0 0 0 0 0.122049 0 0 0 0 0.308333 0 0 0 0.35 0"/>
<feBlend mode="normal" in2="effect2_innerShadow_2124_30980" result="effect3_innerShadow_2124_30980"/>
<feColorMatrix in="SourceAlpha" type="matrix" values="0 0 0 0 0 0 0 0 0 0 0 0 0 0 0 0 0 0 127 0" result="hardAlpha"/>
<feOffset dx="-0.672462" dy="-0.672462"/>
<feGaussianBlur stdDeviation="0.336231"/>
<feComposite in2="hardAlpha" operator="arithmetic" k2="-1" k3="1"/>
<feColorMatrix type="matrix" values="0 0 0 0 0.133333 0 0 0 0 0.121569 0 0 0 0 0.309804 0 0 0 0.25 0"/>
<feBlend mode="normal" in2="effect3_innerShadow_2124_30980" result="effect4_innerShadow_2124_30980"/>
</filter>
</defs>
</svg>
