<svg width="175" height="52" viewBox="0 0 175 52" fill="none" xmlns="http://www.w3.org/2000/svg">
<g clip-path="url(#clip0_2124_32632)">
<path d="M139.002 20.8652L136.589 23.2988C137.488 24.2634 139.751 26.4032 140.383 27.1574C141.079 28.0857 141.215 28.623 141.215 29.5031C141.215 30.3832 141.025 31.2037 140.12 32.1997L136.305 36.0145L138.76 38.4481C139.995 37.3299 142.475 34.8243 143.342 33.8002C144.58 32.3374 144.963 31.149 144.963 29.5031C144.963 27.8572 144.799 26.937 142.948 24.7896L139.002 20.8652Z" fill="#9FEA3E"/>
<path d="M152.187 20.8652L154.599 23.2988C153.7 24.2634 149.837 28.0036 149.205 28.7577L146.641 26.39L152.187 20.8652Z" fill="#9FEA3E"/>
<path d="M154.886 36.0161L152.431 38.4497C151.447 37.5587 147.786 33.941 146.676 32.7327L149.207 30.3379L154.886 36.0161Z" fill="#9FEA3E"/>
<path d="M27.2312 19.0527L25.3372 20.964C26.0432 21.7216 27.8201 23.4021 28.316 23.9944C28.9703 24.7759 28.9703 25.1202 28.9703 25.8367C28.9703 26.5532 28.7784 27.2096 28.1094 27.9546L25.2773 30.8232L27.2058 32.7344C28.1757 31.8563 29.9862 30.038 30.6405 29.2115C31.4892 28.1395 31.8963 27.2589 31.8963 25.8367C31.8963 24.4145 31.1852 23.107 30.3305 22.1348L27.2312 19.0527Z" fill="#9FEA3E"/>
<path d="M37.6395 18.9805L39.5336 20.8917C38.8275 21.6493 35.7213 24.6591 35.2255 25.2514L33.2109 23.3918L37.6395 18.9805Z" fill="#9FEA3E"/>
<path d="M37.6591 32.8008L39.5531 30.8896C38.8471 30.132 35.7408 27.1222 35.245 26.5299L33.2305 28.3894L37.6591 32.8008Z" fill="#9FEA3E"/>
<path d="M37.4967 13.0984V16.1801H27.9613C27.0905 16.1801 25.6389 16.4704 23.9864 18.1452C22.6643 19.4851 22.4679 21.6865 22.4679 22.5891C22.4679 23.4918 22.4679 30.74 22.4679 30.74H19.4532C19.4532 30.74 19.4531 23.7104 19.4532 22.5891C19.4533 21.4679 19.5693 18.6097 21.5523 16.1801C23.5353 13.7505 26.6512 13.1133 27.9613 13.0984C29.2714 13.0835 37.4967 13.0984 37.4967 13.0984Z" fill="#F5F9F1"/>
<path d="M116.033 14.2363H119.114V20.824H126.662V23.7717H119.114V29.9798C119.114 30.8506 119.405 32.3023 121.08 33.9548C122.419 35.2767 124.613 35.4732 125.523 35.4732H126.662V38.488H125.523C124.394 38.488 121.544 38.3718 119.114 36.3888C116.685 34.4057 116.048 31.2899 116.033 29.9798V23.7717H114.09V20.824H116.033V14.2363Z" fill="#F5F9F1"/>
<path d="M51.6331 20.8457H54.6479V28.9965C54.6032 29.9195 54.8443 32.1006 56.1663 33.4404C57.8188 35.1152 59.2705 35.4056 60.1413 35.4056H65.1435V38.4873H60.1413C58.8312 38.4724 55.7154 37.8352 53.7323 35.4056C51.7493 32.976 51.5067 30.1206 51.6331 28.9965V20.8457Z" fill="#F5F9F1"/>
<path d="M66.2148 20.8457H69.2296V33.954H66.2148V20.8457Z" fill="#F5F9F1"/>
<path d="M111.256 38.4873H108.242V30.3365C108.286 29.4134 108.045 27.2324 106.723 25.8926C105.071 24.2177 103.619 23.9274 102.748 23.9274H97.7461V20.8457H102.748C104.058 20.8606 107.174 21.4978 109.157 23.9274C111.14 26.357 111.383 29.2125 111.256 30.3365V38.4873Z" fill="#F5F9F1"/>
<path d="M96.6748 38.4893H93.6602V25.3809H96.6748V38.4893Z" fill="#F5F9F1"/>
<path d="M133.229 38.4873H130.191V20.8457H133.229V38.4873Z" fill="#F5F9F1"/>
<path d="M133.229 17.72H130.191V14.2363H133.229V17.72Z" fill="#F5F9F1"/>
<path d="M27.1992 38.5342V35.4524H36.7346C37.6055 35.4524 39.057 35.1622 40.7096 33.4874C42.0316 32.1474 42.2727 29.9665 42.228 29.0435V20.8926H45.2427V29.0435C45.3693 30.1674 45.1266 33.0228 43.1436 35.4524H49.977V38.5342H36.7346H27.1992Z" fill="#F5F9F1"/>
<path fill-rule="evenodd" clip-rule="evenodd" d="M78.9647 20.8457V23.7711H84.8155C85.1282 23.7785 85.816 23.8559 86.0661 24.106C86.3786 24.4187 86.602 24.6643 86.6244 25.6245C86.6422 26.3927 86.6318 27.7609 86.6244 28.349C86.3563 28.2969 85.6194 28.1926 84.8155 28.1926H76.2627C75.7491 28.2224 74.5343 28.465 73.784 29.1976C72.8461 30.1132 72.3101 30.984 72.3101 32.7035C72.3101 32.8788 72.3087 33.0507 72.3073 33.2192C72.2953 34.703 72.2854 35.9259 73.248 36.9687C74.3198 38.13 75.5705 38.5096 76.2627 38.5096H84.8155C85.5896 38.5617 87.3835 38.389 88.3661 37.2814C89.5943 35.8969 89.6166 34.7133 89.5943 33.1725C89.5765 31.9398 89.5868 27.2994 89.5943 25.1333C89.5794 24.4857 89.3532 23.0118 88.5671 22.2972C88.5189 22.2534 88.4718 22.2104 88.4258 22.1682L88.4241 22.1667C87.5313 21.35 86.9802 20.8457 84.8155 20.8457H78.9647ZM85.0834 31.118H76.7762C75.9129 31.118 75.2131 31.8179 75.2131 32.6812V34.0211C75.2131 34.8844 75.9129 35.5842 76.7762 35.5842H85.0834C85.9467 35.5842 86.6466 34.8844 86.6466 34.0211V32.6812C86.6466 31.8179 85.9467 31.118 85.0834 31.118Z" fill="#F5F9F1"/>
</g>
<defs>
<clipPath id="clip0_2124_32632">
<rect width="135.658" height="25.6" fill="white" transform="translate(19.4258 13.0977)"/>
</clipPath>
</defs>
</svg>
