<svg width="195" height="65" viewBox="0 0 195 65" fill="none" xmlns="http://www.w3.org/2000/svg">
<path d="M24.4126 19.0641C17.7635 25.7193 18.1763 40.6567 24.9082 47.2302C31.4289 53.5986 45.8623 53.6094 52.3038 47.1582C58.8485 40.6039 60.9989 28.1516 52.2318 19.4169C43.7371 10.9534 30.9549 12.5146 24.4126 19.0641Z" fill="#232C2A"/>
<path d="M31.4492 14.8594V14.9242H31.6412L31.4492 14.8594Z" fill="#B46F45"/>
<path d="M37.3049 18.64H37.3697C37.7609 19.5784 38.2889 20.4831 38.3345 21.5259H38.3993L38.4629 21.0135H38.5277V21.2703C38.6693 20.9091 38.4677 20.3535 38.3741 19.9864C38.0585 18.7264 37.4021 17.4916 36.4037 16.636C33.6221 14.248 29.745 14.2912 27.4422 17.3584C26.6982 18.3496 26.1654 19.5796 26.0478 20.8215C25.7994 23.4327 26.5866 26.0559 28.8738 27.5847C32.6585 30.1118 37.1897 26.7231 37.6817 22.6803C37.8485 21.3063 37.6805 19.9696 37.3049 18.6412V18.64Z" fill="#EED8AE"/>
<path d="M30.8672 14.9863L30.9332 15.0511L30.8684 14.9863" fill="#D8945A"/>
<path d="M38.5275 15.564H38.5911C38.6775 15.2832 38.8371 15.282 39.1071 15.2436V15.6276C39.3183 15.108 38.6163 14.994 38.5275 15.564Z" fill="#D8945A"/>
<path d="M34.2792 15.2425L34.3428 15.3061L34.278 15.2425M38.5259 15.6913H38.7179V15.8197H39.0407L39.1691 15.6913L39.1055 15.2425H38.9123V15.6265H38.8475V15.2425C38.6135 15.3193 38.5763 15.4597 38.5259 15.6913Z" fill="#B46F45"/>
<path d="M38.8516 15.2441V15.6281H38.9164L38.8516 15.2441Z" fill="#232C2A"/>
<path d="M39.1695 15.373V15.565H39.2331L39.1683 15.373" fill="#B46F45"/>
<path d="M31.7695 15.5664V15.63H32.4127L31.7695 15.5664Z" fill="#B46F45"/>
<path d="M37.3047 15.5664V15.63H37.6263L37.3047 15.5664Z" fill="#B46F45"/>
<path d="M37.6285 15.5664V15.63H37.9501L37.6285 15.5664Z" fill="#D8945A"/>
<path d="M31.3846 15.6562C27.9178 16.1962 25.9799 20.1741 26.7815 23.3865C27.3911 25.8321 29.5378 28.1744 32.2858 27.7833C35.8785 27.2697 37.6521 23.3217 36.9837 20.0517C36.4389 17.3914 34.2562 15.2086 31.3846 15.6562Z" fill="#232C2A"/>
<path d="M32.9075 15.6505L32.9494 15.6721L32.9062 15.6505" fill="#B46F45"/>
<path d="M36.4023 15.6925V15.8845L37.9467 15.8209V15.6289L36.4023 15.6925Z" fill="#EED8AE"/>
<path d="M39.8125 15.6914C39.9397 16.049 40.5145 15.9794 40.8433 16.0298C41.8729 16.1882 42.8185 16.5254 43.8036 16.8458L43.8672 16.589C42.5017 16.2746 41.2453 15.7202 39.8125 15.6914Z" fill="#EED8AE"/>
<path d="M37.1094 15.8203V15.8839H37.3014L37.1094 15.8203Z" fill="#B46F45"/>
<path d="M39.8801 15.8848L39.9437 15.9496L39.8789 15.8848" fill="#D8945A"/>
<path d="M42.58 16.3965L42.6436 16.4613L42.58 16.3977" fill="#D8945A"/>
<path d="M44.3872 16.5902L44.3236 16.9742L44.5804 16.6538H44.8396V16.7186H44.71V16.7822L44.9032 16.847L44.8396 17.1674C45.034 17.051 45.1468 16.679 44.8396 16.5266C44.626 16.4198 44.482 16.613 44.3884 16.5902" fill="#B46F45"/>
<path d="M44.5754 16.6543V16.7191H44.8346L44.5754 16.6543Z" fill="#D8945A"/>
<path d="M37.2422 16.7188C37.583 17.2143 37.9646 17.6715 38.2718 18.1935C38.8538 19.1847 38.987 19.8975 40.2673 20.1171L40.3957 16.9107L37.2422 16.7188Z" fill="#51988E"/>
<path d="M44.3203 16.7188V16.9107H44.3839L44.3203 16.7188Z" fill="#D8945A"/>
<path d="M44.5781 17.038H44.7713L44.8361 16.7812C44.6297 16.7896 44.5865 16.8328 44.5781 17.038Z" fill="#232C2A"/>
<path d="M43.8047 16.7824L43.8695 16.8472L43.8059 16.7824M44.8355 16.7824L44.8991 16.8472L44.8367 16.7812M44.4503 16.846L44.6423 17.1664V17.1016L44.4503 16.846Z" fill="#D8945A"/>
<path d="M40.653 16.9766L40.5234 20.2465L42.6474 21.0793L43.407 18.9001L43.6914 17.9522L42.969 17.5526L40.653 16.9766Z" fill="#51988E"/>
<path d="M44.5112 17.0391V17.1027L44.7692 17.2311L44.5112 17.0391Z" fill="#B46F45"/>
<path d="M44.7031 17.0391V17.1675H44.8339L44.7031 17.0391Z" fill="#D8945A"/>
<path d="M45.4766 17.4885L46.4414 18.1557L48.2437 19.3485C48.2281 19.0005 47.9281 18.8433 47.6641 18.6525C47.1025 18.2445 46.2002 17.4729 45.4766 17.4885Z" fill="#EED8AE"/>
<path d="M43.9994 18L42.9062 21.2712L45.2222 22.104L46.6382 19.284L43.9994 18Z" fill="#51988E"/>
<path d="M32.5434 18.514V18.5776H33.123L32.5434 18.514Z" fill="#B46F45"/>
<path d="M32.2825 18.609C28.6262 19.2665 29.219 26.0249 33.0553 25.3361C36.7753 24.6689 36.2461 17.8974 32.2837 18.609H32.2825Z" fill="#EED8AE"/>
<path d="M32.4826 18.7979C28.9702 19.3487 29.3602 25.6426 33.061 25.0978C36.4125 24.6058 36.0201 18.2435 32.4826 18.7979Z" fill="#232C2A"/>
<path d="M48.8252 19.2832V19.6036H48.8888C48.9128 19.4104 49.028 19.396 49.2104 19.4116V19.348L48.8252 19.2832Z" fill="#B46F45"/>
<path d="M48.7599 19.3477C48.6783 19.6321 48.7239 19.7977 48.9519 19.9884L49.2099 19.7965L49.1463 19.9237H49.2099L49.2747 19.4113L48.8247 19.4749V19.5397C49.2807 19.5589 48.7239 19.8481 48.8883 19.3477H48.7599Z" fill="#D8945A"/>
<path d="M37.4927 19.4746L37.5575 19.5394L37.4939 19.4746" fill="#D8945A"/>
<path d="M46.8277 19.4746L45.4766 22.2322C46.8829 22.8958 47.0209 23.7346 47.0209 25.1817H47.0857C47.5309 24.0106 48.7993 22.807 49.6597 21.9118C48.9589 20.9914 47.8837 19.9738 46.8277 19.4746Z" fill="#51988E"/>
<path d="M48.8878 19.4746L48.8242 19.7314L49.1458 19.6678V19.5394L48.8878 19.4746Z" fill="#232C2A"/>
<path d="M49.2094 19.4746V19.7962H49.339L49.2094 19.4746Z" fill="#B46F45"/>
<path d="M31.2583 22.1695H31.3867C31.5931 21.7759 31.6507 21.3283 31.8991 20.9503C32.3575 20.2544 33.2826 19.9064 34.089 20.0528C32.6935 18.722 30.3535 20.4488 31.2583 22.1695Z" fill="#EED8AE"/>
<path d="M32.9922 19.541V19.6046H33.1866L32.9922 19.541Z" fill="#51988E"/>
<path d="M30.8672 19.6035L30.9332 19.6683L30.8684 19.6035" fill="#51988E"/>
<path d="M48.8904 19.7324V19.7972H49.0824L48.8904 19.7324Z" fill="#B46F45"/>
<path d="M48.8885 19.8585L48.9533 20.0505L49.2101 19.7949L48.8885 19.8585Z" fill="#B46F45"/>
<path d="M27.9722 19.8613C26.5167 22.3549 27.9566 26.4349 30.8678 27.1069V27.0421C28.7834 26.3353 27.5354 24.0289 27.587 21.9133C27.6026 21.2413 28.0322 20.5033 27.9722 19.8613Z" fill="#EED8AE"/>
<path d="M31.3833 22.1695H31.2549C31.0653 21.6799 31.0029 21.2107 31.1253 20.6935C30.6573 20.9371 30.5493 21.5575 30.5469 22.0411C30.5421 23.0875 30.9381 24.1003 31.9629 24.5419C31.9629 22.6567 32.4405 21.0643 34.3437 20.3095C33.7581 19.5931 32.3877 20.2135 31.9389 20.8231C31.6497 21.2167 31.5561 21.7219 31.3833 22.1695Z" fill="#51988E"/>
<path d="M39.043 20.1797C39.1198 20.4773 39.1042 20.9837 39.2998 21.2249C39.625 21.6269 40.7457 21.8405 41.2317 22.0193C42.8109 22.6013 44.3697 23.2613 45.9285 23.8984C45.9153 23.5769 45.9057 23.0825 45.6525 22.8497C45.1797 22.4177 44.2653 22.2185 43.6761 21.9761C42.1905 21.3641 40.6089 20.5409 39.043 20.1797Z" fill="#EED8AE"/>
<path d="M39.1748 20.1797L39.2384 20.2445L39.1736 20.1797" fill="#D8945A"/>
<path d="M35.3106 20.3722L35.3742 20.437L35.3094 20.3722" fill="#B46F45"/>
<path d="M37.0507 20.502L37.1143 20.5668L37.0495 20.502" fill="#D8945A"/>
<path d="M38.3986 20.5664V20.7584H38.4622L38.3986 20.5664Z" fill="#D8945A"/>
<path d="M50.3031 20.6926V21.271L50.6895 21.3346C50.6307 21.0442 50.7411 21.3538 50.8815 21.1426C51.2415 20.6074 50.2551 20.6806 50.3031 20.6926Z" fill="#B46F45"/>
<path d="M50.3673 20.6934L50.4321 20.7582L50.3685 20.6946" fill="#D8945A"/>
<path d="M50.5021 20.7598V20.8246L50.7601 20.8882V20.8246L50.5021 20.7598Z" fill="#D8945A"/>
<path d="M38.3354 20.8223V21.1427H38.4002L38.3354 20.8223Z" fill="#D8945A"/>
<path d="M50.5 20.8223L50.6284 21.1427V20.8223H50.5Z" fill="#232C2A"/>
<path d="M25.2038 21.4641L25.4618 21.0801V21.5277L25.3334 21.4641V21.6561C26.0894 20.9181 24.5751 20.9805 25.2038 21.4641Z" fill="#D8945A"/>
<path d="M37.1094 21.0137V21.2057H37.1742L37.1094 21.0137ZM38.4606 21.0137L38.3322 21.5261C38.6034 22.6637 38.1738 23.6968 38.0106 24.796H38.0742C38.4414 23.7244 39.0798 22.1117 38.4606 21.0137Z" fill="#D8945A"/>
<path d="M50.3064 21.0137L50.4348 21.1421V21.0137H50.3064Z" fill="#D8945A"/>
<path d="M25.3981 21.0781V21.3349H25.4629L25.3981 21.0781Z" fill="#B46F45"/>
<path d="M25.2679 21.1445L25.2031 21.4649C25.3603 21.3617 25.3747 21.2993 25.2679 21.1445Z" fill="#232C2A"/>
<path d="M41.6136 21.1445L41.6772 21.2081L41.6124 21.1445" fill="#D8945A"/>
<path d="M37.1128 21.207V21.9126H37.1776L37.1128 21.207Z" fill="#B46F45"/>
<path d="M24.9531 21.2715C25.0047 21.5235 25.0875 21.6459 25.3395 21.7203L25.4031 21.5283L24.9531 21.2715Z" fill="#B46F45"/>
<path d="M50.4334 21.2715L50.497 21.3351L50.4322 21.2715" fill="#D8945A"/>
<path d="M25.3359 21.3995L25.4643 21.5279V21.3995H25.3359Z" fill="#B46F45"/>
<path d="M35.375 21.5898V22.0386H35.4398L35.375 21.5898Z" fill="#D8945A"/>
<path d="M27.3906 21.6534V21.8454H27.4542L27.3906 21.6534ZM27.5826 21.6534V22.4226H27.6474L27.5826 21.6534Z" fill="#B46F45"/>
<path d="M29.9688 21.721V21.913H30.0335L29.9688 21.721Z" fill="#D8945A"/>
<path d="M38.4609 21.7207V22.2331H38.5245L38.4609 21.7207Z" fill="#B46F45"/>
<path d="M26.5547 21.7843V22.1047H26.6183L26.5547 21.7843Z" fill="#D8945A"/>
<path d="M39.2969 21.7832C39.3869 22.3328 40.3829 22.5104 40.8425 22.694C42.508 23.3576 44.1964 24.2612 45.9256 24.7328C45.9052 24.1004 44.8888 23.9348 44.3812 23.732C42.7372 23.078 41.0213 22.19 39.2969 21.7832Z" fill="#EED8AE"/>
<path d="M51.0776 21.7832L50.9492 21.8468L52.4672 23.9636L53.2664 25.1168C53.1536 24.0164 51.8636 22.5104 51.0776 21.7832Z" fill="#EED8AE"/>
<path d="M27.3906 21.8477V22.3613H27.4542L27.3906 21.8477Z" fill="#D8945A"/>
<path d="M29.9688 21.9121V22.1689H30.0335L29.9688 21.9121Z" fill="#B46F45"/>
<path d="M37.1328 21.9553L37.1556 21.9973L37.134 21.9553" fill="#D8945A"/>
<path d="M49.788 22.1055C48.924 23.2383 47.898 24.2522 47.0544 25.403C46.8672 25.6574 46.8348 25.9994 46.6752 26.273C46.4914 26.5919 46.2205 26.8518 45.8943 27.0222C45.568 27.1926 45.2 27.2666 44.8332 27.2354L44.2537 27.941L44.5753 27.2354L43.7521 27.0878L43.0309 27.9398L43.4173 26.915L41.6797 26.081C41.8801 26.6738 42.1489 27.797 42.6217 28.223C42.8161 28.397 43.1737 28.3754 43.4173 28.4078L45.348 28.6634C46.4172 28.8026 47.49 28.9502 48.5652 29.0354C48.9408 29.0666 49.3476 29.2106 49.7232 29.171C50.1636 29.123 50.664 28.835 51.0756 28.6718C51.834 28.3718 52.6835 28.1498 53.3915 27.7478C53.1599 26.7734 52.5719 25.8662 52.1052 24.9914C50.9892 25.3982 49.878 26.2634 48.8868 26.9138C48.4812 27.1814 47.9028 27.6854 47.4072 27.6842L48.8868 26.6306L51.9108 24.7982C51.5064 23.8323 50.6472 22.7091 49.788 22.1055Z" fill="#51988E"/>
<path d="M29.9688 22.1699V22.3619H30.0335L29.9688 22.1699Z" fill="#D8945A"/>
<path d="M23.4029 25.118L24.3305 23.7717L25.3337 22.2969C24.6245 22.4973 24.0797 23.6853 23.7257 24.2853C23.5697 24.5493 23.3705 24.806 23.4017 25.118H23.4029Z" fill="#EED8AE"/>
<path d="M27.3906 22.3633V22.6201H27.4542L27.3906 22.3633Z" fill="#B46F45"/>
<path d="M42.6459 22.5547L42.7095 22.6195L42.6447 22.5547" fill="#D8945A"/>
<path d="M26.6418 22.6604L26.6622 22.7024L26.6406 22.6592" fill="#B46F45"/>
<path d="M38.5938 22.7441V22.9361H38.6586L38.5938 22.7441Z" fill="#B46F45"/>
<path d="M38.4621 22.8086V23.0006H38.5257L38.4621 22.8086Z" fill="#B46F45"/>
<path d="M46.1875 23.002L46.3795 24.0927H46.4443V23.8359H46.5091V24.3483H46.5739L46.5091 23.5155H46.4443V23.6439H46.3807C46.4167 23.3703 46.3843 23.2 46.1875 23.002Z" fill="#EED8AE"/>
<path d="M25.5899 23.4492L24.8711 24.6612L25.2683 25.0896L26.6843 25.95L25.5899 23.4492Z" fill="#51988E"/>
<path d="M46.3828 23.4492V23.6412H46.4464L46.5112 23.4492H46.3828Z" fill="#D8945A"/>
<path d="M27.7779 23.5781L27.8427 23.6429L27.7791 23.5781" fill="#D8945A"/>
<path d="M38.333 23.6445V23.8365H38.3978L38.333 23.6445Z" fill="#B46F45"/>
<path d="M46.4468 23.8359C46.3208 24.8259 46.3388 25.6743 45.8672 26.5923C46.1948 26.3367 46.3736 25.9827 46.3172 25.5675H46.382V25.6947H46.4456L46.382 25.2459H46.4456V25.5027H46.5104L46.4456 24.4767H46.5104V25.1175H46.5752L46.4468 23.8359Z" fill="#D8945A"/>
<path d="M23.7266 24.2219L23.7914 24.2855L23.7266 24.2207M38.2716 24.2207L38.3352 24.2855L38.2704 24.2207" fill="#B46F45"/>
<path d="M44.9599 24.3477L45.0247 24.4125L44.9611 24.3477M46.5691 24.3477V24.5397H46.6339L46.5703 24.3477" fill="#B46F45"/>
<path d="M46.4426 24.4766L46.571 25.2458L46.4414 24.4778" fill="#B46F45"/>
<path d="M36.345 24.668L36.4085 24.7328L36.3438 24.668" fill="#B46F45"/>
<path d="M23.5938 24.8633L23.6585 24.9269L23.595 24.8633" fill="#D8945A"/>
<path d="M31.5742 24.8633L31.639 24.9269L31.5754 24.8633" fill="#B46F45"/>
<path d="M31.7055 24.9258L31.7691 24.9906L31.7043 24.9258" fill="#B46F45"/>
<path d="M31.8359 24.9883L31.9007 25.0531L31.8359 24.9895" fill="#D8945A"/>
<path d="M37.8849 24.9883L37.9485 25.0531L37.8849 24.9895" fill="#D8945A"/>
<path d="M24.5615 25.0547L23.6471 26.9147L23.3915 27.7307L24.4967 28.2575L27.9082 29.6074C27.5806 29.9518 26.9926 29.5126 26.6206 29.3638C25.5167 28.9198 24.3695 28.3415 23.2103 28.0679L22.4375 31.1458C23.2079 31.1974 24.1199 31.3882 24.8831 31.279C25.3811 31.2082 25.8647 30.7798 26.3638 30.6358C27.2398 30.3826 28.3174 30.4882 29.1958 30.697L29.3242 29.2222L28.9378 28.9018C29.3698 29.0218 29.557 29.0374 29.8378 28.645C29.2414 28.2947 28.6354 27.9755 28.1014 27.5267C27.0478 26.6435 25.9367 25.4507 24.5615 25.0547Z" fill="#51988E"/>
<path d="M32.4766 25.1191V25.1839H32.7982L32.4766 25.1191Z" fill="#B46F45"/>
<path d="M40.6518 25.1839V25.2475H40.9086L40.6518 25.1839Z" fill="#B46F45"/>
<path d="M53.1991 25.1191L53.2639 25.1839L53.2003 25.1191" fill="#D8945A"/>
<path d="M36.7926 25.1816L36.8562 25.2464L36.7926 25.1828M40.7177 25.1828C40.9867 26.2382 41.3985 27.252 41.9417 28.196H42.0053L41.2073 26.0168L40.7177 25.1828Z" fill="#D8945A"/>
<path d="M22.6339 25.4377V25.5013L22.7623 25.5661L22.5703 25.7581L22.8919 25.6933L22.6339 25.4377Z" fill="#B46F45"/>
<path d="M53.8458 26.1432L54.1026 26.016L53.9742 26.208L54.1026 26.0796L54.2322 26.1432L54.3606 26.016C54.2478 25.2156 53.5758 25.512 53.8458 26.1432Z" fill="#B46F45"/>
<path d="M22.4375 25.5687V26.0175L22.9535 26.0811V25.5687L22.7591 25.9527H22.6307L22.7591 25.5039L22.4375 25.5687Z" fill="#D8945A"/>
<path d="M54.1638 25.5039C53.9226 25.6599 53.8722 25.8003 53.8422 26.0811H53.9058L54.2286 25.5687L54.1638 25.5039Z" fill="#D8945A"/>
<path d="M54.0393 25.6309C53.9733 25.8169 53.9601 25.9069 54.1677 25.9513V25.8877L54.0393 25.8229V25.7593H54.1677V25.6309H54.0393Z" fill="#232C2A"/>
<path d="M54.2969 25.6309V25.8229H54.3617L54.2969 25.6309Z" fill="#D8945A"/>
<path d="M22.5703 25.7601V25.8885L22.6339 25.9521H22.7623L22.8271 25.6953L22.5703 25.7601Z" fill="#232C2A"/>
<path d="M22.8906 25.7601V25.9521H22.9542L22.8906 25.7601Z" fill="#B46F45"/>
<path d="M22.8239 25.9531L22.4375 26.0179V26.0815L22.7591 26.2099L22.8239 25.9531Z" fill="#B46F45"/>
<path d="M53.9058 26.1428L54.099 26.0156L53.907 26.1428" fill="#D8945A"/>
<path d="M29.2578 26.2727L29.3226 26.3363L29.2578 26.2715" fill="#B46F45"/>
<path d="M41.1016 26.2727L41.1664 26.3363L41.1016 26.2715" fill="#B46F45"/>
<path d="M41.3559 26.4652L41.4207 26.5288L41.3571 26.4652" fill="#B46F45"/>
<path d="M38.5897 26.6566V28.003H38.6545L38.7193 26.6566H38.5897Z" fill="#B46F45"/>
<path d="M38.6562 26.7227V28.0054H39.6222C39.6222 27.2351 39.4386 26.9471 38.6562 26.7227Z" fill="#D8945A"/>
<path d="M22.5017 26.7852C21.9473 28.2095 21.5357 29.6243 21.3438 31.1447C21.7133 31.0151 21.6713 30.3911 21.7433 30.0551C21.9773 28.9511 22.3457 27.9179 22.6949 26.8488L22.5017 26.7852Z" fill="#EED8AE"/>
<path d="M54.0391 26.8477L55.1322 31.1436H55.3254C55.2618 29.6532 54.7051 28.2396 54.2323 26.8477H54.0391Z" fill="#EED8AE"/>
<path d="M30.4856 26.9766L30.5492 27.0402L30.4844 26.9766" fill="#D8945A"/>
<path d="M38.014 27.041L36.9844 28.0034H38.014V27.041Z" fill="#51988E"/>
<path d="M41.4851 27.2324L41.5487 27.2972L41.4851 27.2336" fill="#B46F45"/>
<path d="M45.8642 27.4258L45.1562 28.195C45.479 28.1998 46.0286 27.7738 45.8642 27.427V27.4258Z" fill="#232C2A"/>
<path d="M30.5455 27.6191L30.6103 27.6839L30.5467 27.6191" fill="#B46F45"/>
<path d="M50.0469 29.3495V29.4131C50.6781 29.8931 51.2589 30.5338 51.3981 31.3366L54.23 31.1446L53.8064 28.9007L53.4884 28.1387L52.6208 28.3439L50.0469 29.3495Z" fill="#51988E"/>
<path d="M22.1797 28.1953L22.2445 28.2601L22.1809 28.1953" fill="#D8945A"/>
<path d="M30.6133 28.3254L30.6781 28.389L30.6133 28.3242" fill="#D8945A"/>
<path d="M32.8008 28.3254L32.8644 28.389L32.8008 28.3242" fill="#B46F45"/>
<path d="M35.8281 28.39V28.582C36.7257 28.582 38.5041 28.2412 39.1617 28.9696C39.5337 29.3824 39.4977 29.9236 39.4977 30.4408V33.262C39.4977 37.2567 39.5793 41.2635 39.4329 45.2522C40.2129 44.5839 39.8181 42.4815 39.8181 41.5335V32.3656C39.8181 31.402 40.1577 29.6392 39.5337 28.8388C38.8737 27.9928 36.7977 28.39 35.8281 28.39Z" fill="#EED8AE"/>
<path d="M39.9453 28.3867L40.5237 29.6683C41.7477 29.4331 42.6141 30.5707 41.8341 31.6567C41.4525 32.1883 40.9581 32.3611 40.3317 32.3611V42.0438C41.3181 41.9658 41.8929 42.0882 42.1977 43.1334C43.2453 42.8766 44.4069 43.005 45.4796 43.005C46.7996 43.005 48.2324 42.8634 49.5344 43.0698V33.5155C49.5344 32.9443 49.6808 32.1331 49.4864 31.5919C49.3496 31.2079 49.0088 30.8647 48.8108 30.5023C48.6572 30.2203 48.4916 29.7259 48.2228 29.5399C47.6756 29.1619 46.3316 29.2267 45.6728 29.1523C43.7697 28.9399 41.8281 28.7359 39.9453 28.3867Z" fill="#EED8AE"/>
<path d="M31.5121 28.4531V28.5167H31.9632L31.5121 28.4531Z" fill="#B46F45"/>
<path d="M41.1016 28.5188L41.1664 28.5824L41.1016 28.5176" fill="#B46F45"/>
<path d="M35.9531 28.5801V28.6437H37.8191L35.9531 28.5801Z" fill="#D8945A"/>
<path d="M37.9453 28.5801V28.6437H38.5249L37.9453 28.5801Z" fill="#D8945A"/>
<path d="M41.4922 28.5801V28.6437H41.6842L41.4922 28.5801Z" fill="#B46F45"/>
<path d="M30.4856 28.7715V28.8363H30.7424L30.4844 28.7715" fill="#B46F45"/>
<path d="M43.0781 28.7919L43.1201 28.8147L43.0781 28.7931" fill="#B46F45"/>
<path d="M29.905 30.3755C30.001 29.6675 30.3658 29.1275 31.129 29.0927V29.0291H30.9358V28.9643H31.1278C30.5986 28.6487 30.0358 28.9511 29.8006 29.4779C29.671 29.7671 29.5318 30.2447 29.905 30.3755Z" fill="#EED8AE"/>
<path d="M31.0637 28.9657C31.4681 29.3773 32.6333 29.1577 33.1877 29.1577H36.9196C37.5868 29.1577 38.3284 29.0677 38.9788 29.2225C38.7016 28.7485 37.54 28.9657 37.048 28.9657C35.6944 28.9657 34.3493 29.0305 32.9945 29.0305C32.3705 29.0305 31.6745 28.8625 31.0625 28.9657H31.0637Z" fill="#51988E"/>
<path d="M39.3633 29.2852L39.4281 29.35L39.3633 29.2864" fill="#D8945A"/>
<path d="M21.6016 29.4785L21.6664 29.5433L21.6016 29.4797" fill="#D8945A"/>
<path d="M40.9727 29.541V29.6058H41.1671L40.9727 29.541Z" fill="#D8945A"/>
<path d="M48.8242 29.541C49.1338 30.2034 49.8094 30.8502 50.0134 31.5294C50.323 32.559 50.047 34.0446 50.047 35.1198V43.0709H50.8186V32.4906C50.8186 31.2042 50.4262 29.5746 48.8242 29.541Z" fill="#EED8AE"/>
<path d="M49.2746 29.541L49.3382 29.6058L49.2734 29.541" fill="#B46F45"/>
<path d="M31.8352 31.7868C31.5592 31.3032 31.3792 30.402 32.0944 30.1716C32.7111 29.9724 33.5703 30.12 34.2171 30.12H38.7219V29.928H34.1523C33.4347 29.928 32.6055 29.8128 31.9 29.9424C31.1524 30.0804 31.1656 31.5864 31.8352 31.7868Z" fill="#51988E"/>
<path d="M40.9138 29.9763C40.1554 30.2859 40.6138 31.6635 41.4214 31.3383C42.2182 31.0179 41.7166 29.6475 40.9138 29.9763Z" fill="#EED8AE"/>
<path d="M48.5715 30.1211L48.6351 30.1859L48.5703 30.1211" fill="#D8945A"/>
<path d="M40.9852 30.2507C40.5316 30.5111 40.906 31.3607 41.4112 31.0691C41.8588 30.8111 41.488 29.9615 40.9852 30.2507Z" fill="#232C2A"/>
<path d="M39.4283 30.2461V31.4005H39.4919L39.4283 30.2461ZM50.1741 30.2461L50.2401 30.3109L50.1753 30.2461" fill="#B46F45"/>
<path d="M49.2735 30.375L49.3371 30.4386L49.2723 30.375" fill="#D8945A"/>
<path d="M31.5101 35.6338H31.5749L32.0249 37.8142H32.0897V37.1734H32.2181V38.071H32.2829L31.9613 34.4806C32.5529 34.9726 32.8013 35.9158 32.8613 36.6598H34.4705C34.4357 34.9882 33.5345 33.2158 32.0897 32.3302C31.6337 32.0506 31.1381 32.0506 30.6737 31.8274C29.2986 31.1662 27.5382 30.6262 26.0406 31.1986C23.9982 31.9786 23.0166 34.1206 22.7766 36.1474C22.4058 39.2625 25.0698 43.9893 28.7418 42.2817C29.1798 42.0777 29.6118 41.7933 29.9586 41.4585C31.5749 39.8997 31.5101 37.6786 31.5089 35.6338H31.5101Z" fill="#EED8AE"/>
<path d="M54.1651 31.4023L51.4627 31.5943V33.4543L51.5287 34.1755L52.2991 34.2871L54.2299 34.4155C54.4099 33.6607 54.5779 32.0899 54.1651 31.4023ZM22.4375 31.4659V34.8643L23.1227 33.3895L24.6263 31.5295L22.4375 31.4659Z" fill="#51988E"/>
<path d="M50.8177 31.4648V31.6568H50.8825L50.8177 31.4648Z" fill="#B46F45"/>
<path d="M49.4703 31.5273L49.5351 31.5921L49.4703 31.5285M55.5194 31.5285C55.1714 31.9785 55.3634 32.3805 55.9058 32.0409C55.8698 31.7577 55.7966 31.6257 55.5194 31.5285ZM20.9598 31.5921C20.7414 32.0061 20.9634 32.3361 21.411 32.1057V32.0409L21.219 31.9125L21.0246 32.1045L21.0894 31.9773L20.9598 31.5921Z" fill="#B46F45"/>
<path d="M20.9591 32.0437H21.0227L21.2807 31.6597C20.9879 31.5661 20.9459 31.8013 20.9591 32.0437Z" fill="#D8945A"/>
<path d="M21.2818 31.5938L21.0898 31.7221L21.3466 31.8505L21.2818 31.5938Z" fill="#B46F45"/>
<path d="M55.5805 31.5938C55.3993 31.8493 55.3717 32.1781 55.7725 32.0425V31.9789H55.4521L55.7089 31.7221L55.5805 31.5938ZM21.3438 31.6585V32.0425H21.4073L21.3438 31.6585Z" fill="#D8945A"/>
<path d="M27.0723 31.6861C23.5479 32.0101 22.8051 36.6109 23.8803 39.2869C24.4275 40.65 25.6563 42.0348 27.2643 41.9556C30.911 41.7756 31.6562 36.9229 30.473 34.2217C29.9042 32.9257 28.6371 31.5421 27.0723 31.6861Z" fill="#232C2A"/>
<path d="M27.3281 31.6602V31.7238H27.5213L27.3281 31.6602Z" fill="#B46F45"/>
<path d="M50.8203 31.6594V37.1085H50.8851V33.3262L50.8203 31.6582" fill="#D8945A"/>
<path d="M21.0898 31.7227V32.0431H21.217L21.2818 31.7863L21.0898 31.7227Z" fill="#232C2A"/>
<path d="M29.4531 31.7227L31.1259 33.7746H31.2555C31.5807 32.7474 30.2955 32.0083 29.4531 31.7227Z" fill="#232C2A"/>
<path d="M21.4098 31.7852V31.9772H21.4746L21.4098 31.7852Z" fill="#B46F45"/>
<path d="M49.5312 31.7852V32.234H49.5948L49.5312 31.7852Z" fill="#D8945A"/>
<path d="M55.5156 31.7852V32.042L55.7088 31.7852H55.5156Z" fill="#232C2A"/>
<path d="M38.207 32.1699V32.2335C38.5298 32.2335 39.119 33.1539 39.2366 33.4527C39.347 32.9259 38.729 32.1819 38.207 32.1699Z" fill="#51988E"/>
<path d="M34.0234 32.3623H36.2758C36.6226 32.3623 37.0498 32.2963 37.3702 32.4559C37.8754 32.7079 38.2222 33.2575 38.5282 33.7087L38.6566 33.5167L38.3998 33.3247L38.5918 33.2599L38.6566 33.4519C38.665 33.1471 38.3014 32.8543 38.077 32.6719C37.261 32.0059 36.235 32.1703 35.245 32.1703C34.8886 32.1703 34.2514 32.0407 34.0234 32.3623Z" fill="#51988E"/>
<path d="M38.3984 32.2344L38.9768 32.94H39.0416L38.3984 32.2344Z" fill="#232C2A"/>
<path d="M49.5312 32.2344V32.8764H49.5948L49.5312 32.2344Z" fill="#B46F45"/>
<path d="M40.2651 32.3633V41.7892H40.3311V35.1845C40.3311 34.3853 40.5759 33.0977 40.2663 32.3645" fill="#D8945A"/>
<path d="M32.3546 32.4922L32.4182 32.557L32.3534 32.4922" fill="#B46F45"/>
<path d="M32.4766 32.6223L32.5402 32.6859L32.4766 32.6211" fill="#D8945A"/>
<path d="M48.8342 32.6833C48.4406 32.7733 48.6326 33.4117 49.0106 33.2833C49.3454 33.1705 49.1798 32.6041 48.8342 32.6833Z" fill="#232C2A"/>
<path d="M48.9514 32.6223L49.0174 32.6859L48.9526 32.6211" fill="#D8945A"/>
<path d="M33.8945 32.877V32.9406H34.8605L33.8945 32.877Z" fill="#B46F45"/>
<path d="M38.1429 32.877L38.0781 32.9406L38.5293 33.2609L38.1429 32.877Z" fill="#232C2A"/>
<path d="M49.5312 32.877V33.069H49.5948L49.5312 32.877Z" fill="#51988E"/>
<path d="M33.7656 32.9395V33.0043L35.2464 33.1327V32.9407L33.7656 32.9395Z" fill="#EED8AE"/>
<path d="M37.4945 33.0039L37.4297 33.0675L38.0729 33.7083L37.4945 33.0039Z" fill="#51988E"/>
<path d="M48.5715 33.0684L48.6351 33.1332L48.5703 33.0684M49.5363 33.0684V43.0067H49.5999V36.0179C49.5999 35.1851 49.8579 33.834 49.5363 33.0684Z" fill="#B46F45"/>
<path d="M36.0156 33.1348V33.1984H36.2088L36.0156 33.1348Z" fill="#D8945A"/>
<path d="M36.0156 33.1973C36.624 34.4141 37.3692 35.2816 37.4316 36.724L38.0112 36.6592C37.9872 35.542 37.4076 33.2729 36.0156 33.1973Z" fill="#EED8AE"/>
<path d="M30.8672 33.3262L30.9332 33.3898L30.8684 33.3262" fill="#B46F45"/>
<path d="M34.4102 33.3887C34.7402 33.8123 35.1397 33.7727 35.6341 33.7727C35.3557 33.3479 34.8614 33.4727 34.4102 33.3887Z" fill="#EED8AE"/>
<path d="M31.3192 33.4551L31.3827 33.5187L31.318 33.4551" fill="#B46F45"/>
<path d="M34.859 33.5195V33.5843H35.2466L34.859 33.5195Z" fill="#D8945A"/>
<path d="M34.6673 33.6445L34.7309 33.7081L34.6661 33.6445" fill="#D8945A"/>
<path d="M31.1875 33.7734L31.2523 33.8382L31.1875 33.7746" fill="#B46F45"/>
<path d="M37.625 33.7734L37.6898 33.8382L37.625 33.7746" fill="#51988E"/>
<path d="M34.9258 34.1585C35.2678 34.8065 35.7778 34.8365 36.4702 34.6721C36.3538 33.9437 35.4958 34.1585 34.9258 34.1585Z" fill="#EED8AE"/>
<path d="M36.3423 34.2227L36.4059 34.2863L36.3411 34.2227" fill="#B46F45"/>
<path d="M21.3438 34.4805C21.5201 35.4261 21.6077 36.3704 21.8765 37.3004C21.9785 37.6532 22.0349 38.132 22.3733 38.3276L21.6005 34.4805H21.3438Z" fill="#EED8AE"/>
<path d="M55.0669 34.4805L54.2305 38.3276C54.5701 38.144 54.6301 37.7108 54.7453 37.3652C55.0513 36.4412 55.2469 35.4489 55.3237 34.4805H55.0669Z" fill="#EED8AE"/>
<path d="M51.4614 34.543V36.3381C51.4614 36.5421 51.3966 36.8901 51.5274 37.0629C51.8142 37.4433 52.9997 37.6653 53.4557 37.8129L53.8205 36.7233L54.2285 34.6714L51.4614 34.543Z" fill="#51988E"/>
<path d="M21.3438 34.6722V34.8642H21.4073L21.3438 34.6722ZM21.6005 34.6722V34.8642H21.6653L21.6005 34.6722Z" fill="#B46F45"/>
<path d="M32.2812 34.8008L32.346 34.8644L32.2825 34.8008" fill="#D8945A"/>
<path d="M24.7543 34.8645C23.6947 36.7209 24.2995 40.5308 26.6202 41.2112V41.1476C25.1515 40.2212 24.3199 38.4548 24.4387 36.7233C24.4783 36.1341 24.8059 35.4261 24.7543 34.8645Z" fill="#EED8AE"/>
<path d="M55.0017 34.8633V35.0553H55.0665L55.0017 34.8633Z" fill="#B46F45"/>
<path d="M23.5938 34.9922L23.6585 35.057L23.595 34.9922" fill="#B46F45"/>
<path d="M35.5049 35.1211V35.1847H36.5345L35.5049 35.1211Z" fill="#B46F45"/>
<path d="M35.5 35.1836L35.6296 35.7608C35.9416 35.7608 36.3484 35.8304 36.6496 35.7404C36.8776 35.6732 36.8776 35.3756 36.6952 35.2496C36.4288 35.066 35.8144 35.1836 35.5 35.1836Z" fill="#EED8AE"/>
<path d="M28.6817 38.7757V38.7109C28.4165 38.5069 28.2677 38.2765 28.2317 37.9417H28.2965C28.4801 38.2621 28.7669 38.4169 29.1329 38.3257L28.9397 37.6213H29.0045C29.1869 37.9453 29.5913 38.0653 29.8601 37.7341C30.4337 37.0285 29.8145 36.1921 29.0681 36.0817V36.0181H29.7125C29.3645 35.3102 28.3097 35.195 27.7169 35.6581C26.8409 36.3457 26.7845 37.9645 27.7817 38.5837C28.0613 38.7577 28.3625 38.7745 28.6817 38.7757Z" fill="#51988E"/>
<path d="M41.4895 35.4872C40.6375 35.816 40.9735 37.6712 40.9735 38.3888C40.9735 39.0884 40.7347 40.3363 41.1091 40.9507C41.2855 41.2411 41.5627 41.2723 41.8759 41.2747C42.6535 41.2783 43.9182 41.5147 44.6418 41.2267C44.9898 41.0875 44.9598 40.7479 45.0462 40.4467C45.2622 39.6895 45.351 39.1411 45.351 38.3252C45.351 37.6556 45.5778 36.4652 45.1746 35.8916C44.961 35.5868 44.5974 35.57 44.2566 35.5676C43.4418 35.5628 42.2647 35.1872 41.4895 35.4872Z" fill="#232C2A"/>
<path d="M42.7109 35.4414V35.5062H42.9029L42.7109 35.4414Z" fill="#B46F45"/>
<path d="M42.9036 35.4414V35.5062H43.0956L42.9036 35.4414Z" fill="#D8945A"/>
<path d="M43.6761 35.5059V35.5695H43.9341L43.6761 35.5059Z" fill="#B46F45"/>
<path d="M43.9367 35.5059V35.5695H44.1287L43.9367 35.5059Z" fill="#D8945A"/>
<path d="M42.3898 40.2519C41.845 39.3399 42.0694 38.0799 42.0694 37.0455C42.0694 36.5715 41.9974 36.0999 42.391 35.7627C41.887 35.6655 41.875 36.2487 41.875 36.5967V39.2895C41.875 39.7311 41.8618 40.1691 42.391 40.2519H42.3898Z" fill="#51988E"/>
<path d="M35.8233 35.7617V35.8265H36.4677L35.8233 35.7617Z" fill="#B46F45"/>
<path d="M28.1688 35.8634C27.654 35.9954 27.546 36.5906 27.5976 37.0442C27.6216 37.2722 27.8004 37.6154 28.0872 37.5518C28.3128 37.5014 28.2936 37.1522 28.3272 36.9794C28.3932 36.659 29.0039 35.6498 28.1688 35.8634Z" fill="#EED8AE"/>
<path d="M31.5156 35.8242V36.1458H31.5804L31.5156 35.8242Z" fill="#B46F45"/>
<path d="M42.6615 36.0194C42.2775 36.2546 42.4539 37.235 42.4539 37.6214C42.4539 38.1134 42.2139 39.533 42.6159 39.875C42.9051 40.1198 43.5807 39.9938 43.9347 39.9938C44.1867 39.9938 44.5947 40.0682 44.8179 39.9278C45.2451 39.659 45.0147 38.5478 44.9751 38.1338C44.9235 37.5914 45.1647 36.773 44.9703 36.2786C44.8119 35.8766 43.0179 35.8034 42.6615 36.0194Z" fill="#EED8AE"/>
<path d="M43.8672 35.957V36.0206H44.1252L43.8672 35.957Z" fill="#D8945A"/>
<path d="M44.125 35.957V36.0206H44.5102L44.125 35.957Z" fill="#B46F45"/>
<path d="M35.8281 36.1445V36.2081H36.6009L35.8281 36.1445Z" fill="#D8945A"/>
<path d="M36.5977 36.1445V36.2081H36.8545L36.5977 36.1445Z" fill="#B46F45"/>
<path d="M35.6953 36.2115C35.7193 36.9507 36.4993 36.8259 37.0465 36.7251C37.0297 35.9955 36.2497 36.2115 35.6953 36.2115Z" fill="#EED8AE"/>
<path d="M44.7683 39.6743V36.2759C44.3183 36.2759 43.1724 35.9927 42.8124 36.2771C42.6396 36.4127 42.7092 36.7895 42.7092 36.9803V38.9039C42.7092 39.0959 42.6396 39.4715 42.8124 39.6083C43.1604 39.8819 44.3291 39.6743 44.7683 39.6743Z" fill="#232C2A"/>
<path d="M43.8047 36.2109V36.2757H44.3207L43.8047 36.2109Z" fill="#B46F45"/>
<path d="M44.3203 36.2109V36.2757H44.5771L44.3203 36.2109Z" fill="#D8945A"/>
<path d="M28.8183 36.3455C28.4908 36.5051 28.5172 37.2503 28.9263 37.0391C29.1963 36.8999 29.2095 36.1547 28.8183 36.3455Z" fill="#EED8AE"/>
<path d="M24.2422 36.4027V36.6583H24.307L24.2422 36.4027Z" fill="#B46F45"/>
<path d="M42.6464 36.4023V36.8511H42.7112L42.6464 36.4023ZM44.7704 36.4023V36.7227H44.8352L44.7704 36.4023ZM23.3398 36.4659V37.0419H23.4046L23.3398 36.4659ZM24.4342 36.4659V36.6579H24.4978L24.4342 36.4659Z" fill="#D8945A"/>
<path d="M46.3804 36.5026C45.1516 36.8182 45.37 39.4257 46.702 39.0681C47.9104 38.7429 47.818 36.133 46.3804 36.5026Z" fill="#232C2A"/>
<path d="M44.9609 36.5957V38.3273H45.0245L44.9609 36.5957Z" fill="#D8945A"/>
<path d="M24.2422 36.6602V37.3021H24.307L24.2422 36.6602Z" fill="#D8945A"/>
<path d="M24.4375 36.6602V37.3021H24.5011L24.4375 36.6602Z" fill="#B46F45"/>
<path d="M32.8611 36.6587C33.2763 38.3938 32.2767 39.769 31.7031 41.275C32.3427 41.0242 32.8287 40.6666 33.3111 40.1854L32.6031 41.2114C34.3227 40.459 34.4703 38.2594 34.4703 36.6587H32.8623M35.9499 40.8262C37.7114 40.735 38.0102 37.9558 38.0102 36.6587C37.8086 36.6587 37.5231 36.6191 37.4511 36.8615C37.2423 37.5646 37.3155 38.3158 37.0407 39.031C36.7791 39.7102 36.2559 40.195 35.9499 40.8262Z" fill="#D8945A"/>
<path d="M32.2812 36.7246V37.5574H32.346L32.2825 36.7246M32.8608 36.7246V37.045H32.9256L32.8608 36.7246Z" fill="#B46F45"/>
<path d="M46.375 37.0441C46.9558 37.1905 47.083 37.5121 47.083 38.0701C47.6146 37.5517 46.7806 36.3853 46.375 37.0441Z" fill="#EED8AE"/>
<path d="M32.0312 36.8535V37.1091H32.096L32.0312 36.8535Z" fill="#D8945A"/>
<path d="M34.4688 36.9816V37.3032H34.5335L34.4688 36.9816Z" fill="#B46F45"/>
<path d="M43.8033 36.9805L43.1602 38.904H43.225L43.3534 38.5201H43.4818L43.7397 39.1608C44.0301 38.9748 44.1753 38.5993 44.1261 38.2633L44.5761 37.4305L43.9965 37.3021L43.9329 38.5201L43.8033 36.9805Z" fill="#EED8AE"/>
<path d="M50.8209 37.1066V39.9277H50.8857C50.8857 39.1285 51.1305 37.841 50.8209 37.1066Z" fill="#B46F45"/>
<path d="M32.0932 37.1719L32.1568 37.8127H32.2216V37.1719H32.0932Z" fill="#D8945A"/>
<path d="M39.0434 37.1719L38.207 39.7998C38.7506 39.3391 39.3182 37.8727 39.0434 37.1719Z" fill="#51988E"/>
<path d="M31.5156 37.2355V37.4275H31.5804L31.5156 37.2355Z" fill="#D8945A"/>
<path d="M24.2422 37.3008V37.5564H24.307L24.2422 37.3008Z" fill="#B46F45"/>
<path d="M36.7237 38.0684V38.0048C36.3842 37.9688 35.903 38.0696 35.6942 37.7492H36.5954V37.8128H35.8874V37.8776L36.9169 38.0048L37.0453 37.364C36.7081 37.3016 36.1466 37.19 35.8334 37.376C34.9814 37.8776 36.4478 38.0696 36.7237 38.0696V38.0684Z" fill="#D8945A"/>
<path d="M36.5317 37.3633V37.4281H36.7249L36.5317 37.3633Z" fill="#B46F45"/>
<path d="M43.8707 37.3633C43.8083 37.8265 43.6068 38.0833 43.8707 38.5177H43.9355C44.0327 38.1697 44.2103 37.6201 43.8707 37.3633Z" fill="#232C2A"/>
<path d="M22.7578 37.4297V37.6217H22.8226L22.7578 37.4297ZM31.5105 37.4297V37.6217H31.5753L31.5105 37.4297ZM32.8617 37.4297V37.9421H32.9265L32.8617 37.4297ZM35.7584 37.4297V37.7501H35.822L35.7584 37.4297ZM36.8516 37.4297L36.9164 37.6217H36.9812V37.4297H36.8516Z" fill="#B46F45"/>
<path d="M47.5394 37.4297V37.6217H47.603L47.5394 37.4297Z" fill="#B46F45"/>
<path d="M51.4648 37.4297V41.7256H51.5284C52.312 40.5821 53.0308 39.4253 53.3944 38.0705L51.4648 37.4297Z" fill="#51988E"/>
<path d="M37.9465 37.5578V37.8146H38.0113L37.9465 37.5578Z" fill="#B46F45"/>
<path d="M35.5664 37.6211V37.8131H35.6312L35.5664 37.6211ZM36.788 37.6211L36.9176 37.8131H36.596V37.8779L36.9176 37.9415L36.788 37.6211Z" fill="#B46F45"/>
<path d="M32.0911 37.748V38.5808H32.0263V38.4524H31.9627L31.8979 38.966C31.9627 39.1592 32.0155 39.2672 31.8331 39.2228L31.7695 39.4784V39.5432L31.9615 39.6716L32.0263 39.4796L31.9627 39.2864H32.0911C32.0551 39.0788 31.9687 38.984 32.1547 39.0296L32.0911 38.6456H32.1547V38.774H32.2195L32.0911 37.748ZM35.6947 37.748C35.7667 38.0792 36.6127 38.0348 36.9187 38.0684V38.0036L35.8879 37.8764V37.8116H36.5959V37.748H35.6947ZM47.5361 37.748V37.94H47.6009L47.5361 37.748Z" fill="#B46F45"/>
<path d="M32.0312 37.8145V38.5836H32.096L32.0312 37.8145Z" fill="#D8945A"/>
<path d="M43.8699 37.8145V37.9429H43.9983L43.8699 37.8145Z" fill="#B46F45"/>
<path d="M22.8242 37.8789L22.889 37.9437L22.8242 37.8801" fill="#D8945A"/>
<path d="M44.2568 37.8789L44.3216 37.9437L44.2568 37.8801" fill="#D8945A"/>
<path d="M44.125 37.9414V38.1982H44.1886L44.125 37.9414Z" fill="#D8945A"/>
<path d="M34.4102 38.0059V38.1979H34.475L34.4102 38.0059ZM35.7625 38.0059V38.0707H35.9545L35.7625 38.0059Z" fill="#B46F45"/>
<path d="M32.2211 38.0703L32.1562 38.6487H32.2211V38.0715" fill="#D8945A"/>
<path d="M22.1797 38.2617L22.2445 38.3265L22.1809 38.2617" fill="#B46F45"/>
<path d="M44.7734 38.3906V39.4802H44.8382L44.7734 38.3906Z" fill="#D8945A"/>
<path d="M37.1981 38.4983L37.2185 38.5415L37.1969 38.4983" fill="#B46F45"/>
<path d="M35.3125 39.0955L36.6649 39.0307C36.8173 38.2915 35.3233 38.2603 35.3125 39.0955Z" fill="#D8945A"/>
<path d="M42.6484 38.5195V39.5455H42.7132L42.6484 38.5195Z" fill="#D8945A"/>
<path d="M31.9654 38.6465V38.9669H32.029L31.9654 38.6465ZM32.0938 38.6465V38.9669H32.1574L32.0938 38.6465ZM43.6773 38.6465L43.7421 38.9021H43.8069L43.8705 38.6465H43.6773Z" fill="#D8945A"/>
<path d="M43.0962 38.7129V38.9049H43.1598L43.0962 38.7129Z" fill="#B46F45"/>
<path d="M22.0547 38.7754V38.839L22.3763 39.2878L22.0547 39.1594V39.2242L22.2467 39.2878L22.1183 39.4798L22.5047 39.3514V38.839L22.0547 38.7754Z" fill="#B46F45"/>
<path d="M22.1797 38.7754L22.2445 38.839L22.1809 38.7754" fill="#D8945A"/>
<path d="M54.5495 39.4808C54.7499 39.266 54.8375 39.1448 54.7415 38.84L54.6131 38.9036C54.3155 38.5796 54.0107 39.2456 54.5495 39.4808ZM21.9219 38.84L21.9855 39.416H22.0503L21.9219 38.84Z" fill="#B46F45"/>
<path d="M21.9922 38.8398L22.057 39.4158L22.249 39.3522V39.2886C22.1026 39.117 22.1614 39.0414 22.3786 39.0318V38.9682L21.9922 38.8398Z" fill="#D8945A"/>
<path d="M35.2481 38.8398V39.0318H35.3117L35.2481 38.8398Z" fill="#B46F45"/>
<path d="M54.4859 38.8398C54.3299 39.0654 54.2915 39.2094 54.5507 39.3522V39.2886L54.4859 38.8398ZM22.4379 38.9034V39.2886H22.5015L22.4367 38.9046M23.0811 38.9046L23.1447 38.9682L23.0811 38.9034" fill="#D8945A"/>
<path d="M22.0547 39.0304V39.1588L22.3763 39.2236L22.3115 38.9668L22.0547 39.0304Z" fill="#232C2A"/>
<path d="M32.0281 38.9668V39.1588H32.0929L32.0281 38.9668Z" fill="#D8945A"/>
<path d="M36.3433 38.9668L36.4069 39.0304L36.3421 38.9668" fill="#B46F45"/>
<path d="M54.4867 38.9668L54.4219 39.2236L54.6799 39.0316L54.4867 38.9668Z" fill="#232C2A"/>
<path d="M31.901 39.0312V39.288H31.9658L31.901 39.0312Z" fill="#D8945A"/>
<path d="M35.3725 39.0977V39.1613H36.4669L35.3725 39.0977ZM36.9805 39.0977L37.0453 39.1613L36.9817 39.0977" fill="#B46F45"/>
<path d="M31.8368 39.2891V39.4811H31.9016L31.8368 39.2891Z" fill="#D8945A"/>
<path d="M31.7715 39.543L31.3203 40.6974H31.3851L31.8351 39.927L31.7715 39.543Z" fill="#D8945A"/>
<path d="M31.7043 39.6742L31.7679 39.7378L31.7031 39.6742" fill="#B46F45"/>
<path d="M31.8318 39.7363L31.7682 39.8647H31.8966L31.8318 39.7363ZM34.7286 39.7363C34.9302 39.9667 35.9406 39.9667 36.1446 39.7363H34.7286Z" fill="#B46F45"/>
<path d="M22.8906 39.8652C23.061 40.8132 23.9106 41.7792 24.5178 42.4932C24.7734 42.7944 25.0074 43.1532 25.401 43.2636C24.8466 42.0228 23.4786 41.2236 23.085 39.8652H22.8906Z" fill="#EED8AE"/>
<path d="M43.0938 39.8652V39.9288H43.3517L43.095 39.8652" fill="#D8945A"/>
<path d="M31.7052 39.9277V40.1197H31.77L31.8336 39.9277H31.7052Z" fill="#B46F45"/>
<path d="M50.8204 39.9277V40.6333H50.8852L50.8204 39.9277Z" fill="#D8945A"/>
<path d="M53.5865 39.9277L52.3421 42.1081L51.5273 43.3261C51.8909 43.1977 52.1093 42.8569 52.3337 42.5581C52.8785 41.8261 53.6177 40.8397 53.7797 39.9277H53.5865Z" fill="#EED8AE"/>
<path d="M31.5742 40.0586L31.639 40.1234L31.5754 40.0586" fill="#B46F45"/>
<path d="M23.5963 40.1211L23.6611 40.1859L23.5975 40.1223" fill="#B46F45"/>
<path d="M33.2532 40.1855L33.1896 40.3139H33.318L33.2532 40.1855Z" fill="#B46F45"/>
<path d="M50.823 40.6348V43.2627H50.8878C50.8878 42.5139 51.1134 41.3248 50.823 40.6348Z" fill="#B46F45"/>
<path d="M31.1867 40.9548L30.9947 41.2116L30.6719 41.4684L30.9935 41.0844L31.2515 40.9548L31.1867 40.8264L31.3787 40.7628L31.1867 40.9548ZM36.4006 40.6992L36.4642 40.7628L36.3994 40.6992" fill="#B46F45"/>
<path d="M39.1045 40.8926C38.8525 41.3762 38.3917 41.7434 37.9453 42.047V42.1106C38.3533 41.9186 39.2089 41.4302 39.1045 40.8926Z" fill="#51988E"/>
<path d="M32.2812 40.9551L32.346 41.0199L32.2825 40.9551" fill="#B46F45"/>
<path d="M38.2045 41.0195C37.2709 41.7323 36.3529 41.5319 35.2441 41.5319C34.8529 41.5319 34.0885 41.3831 33.8281 41.7239C34.8793 41.7239 36.1537 41.9795 37.1749 41.7311C37.5313 41.6447 38.1085 41.4023 38.2045 41.0195Z" fill="#51988E"/>
<path d="M26.8164 41.2773V41.3421H27.0096L26.8164 41.2773Z" fill="#51988E"/>
<path d="M30.4854 41.5977L30.549 41.6613L30.4842 41.5977" fill="#B46F45"/>
<path d="M40.2645 41.7891V42.0459H40.3293L40.2645 41.7891Z" fill="#B46F45"/>
<path d="M26.875 41.918V41.9816H27.067L26.875 41.918ZM27.325 41.918V41.9816H27.583L27.325 41.918Z" fill="#B46F45"/>
<path d="M40.7148 41.9805V42.0453H40.908L40.7148 41.9805Z" fill="#B46F45"/>
<path d="M39.4297 42.0449V44.5457H39.4933C39.4933 43.8293 39.7069 42.7037 39.4297 42.0449Z" fill="#B46F45"/>
<path d="M32.9941 42.1738C32.5501 42.5086 32.6065 44.2582 33.1261 44.5258C33.4621 44.701 33.9781 44.6098 34.3465 44.6098H37.1785L37.1137 44.3542C36.1477 44.4046 35.1169 44.4238 34.1533 44.3938C33.8413 44.3842 33.3805 44.437 33.1717 44.1526C32.7913 43.6342 33.2365 42.7486 32.9953 42.175L32.9941 42.1738Z" fill="#51988E"/>
<path d="M52.49 42.2383L52.5548 42.3019L52.4912 42.2383" fill="#D8945A"/>
<path d="M41.038 42.4124C40.2256 42.7148 40.5892 44.2136 41.4856 43.856C42.208 43.568 41.8432 42.1124 41.038 42.4124Z" fill="#EED8AE"/>
<path d="M41.4219 42.3652L41.4867 42.43L41.4219 42.3664" fill="#B46F45"/>
<path d="M41.1048 42.675C40.5745 42.855 40.8025 43.7898 41.3568 43.6086C41.8848 43.437 41.6568 42.4866 41.1048 42.675Z" fill="#232C2A"/>
<path d="M32.088 42.6875L31.8948 42.7511C31.8948 43.1495 31.8372 43.5515 32.1516 43.8419L32.088 42.6875Z" fill="#51988E"/>
<path d="M31.0604 42.75L30.8672 42.8148C30.8672 43.4652 30.9068 44.058 31.5752 44.3532L31.0604 42.75Z" fill="#51988E"/>
<path d="M40.5252 43.005V43.3254H40.59L40.5252 43.005ZM41.8776 43.005V43.2618H41.9412L41.8776 43.005Z" fill="#B46F45"/>
<path d="M41.7422 44.2906C42.3362 44.149 43.0022 44.2258 43.6094 44.2258H47.0845C47.6161 44.2258 48.6889 44.431 49.0789 44.0338L48.9505 44.0974V44.0338C49.3525 43.8358 49.4749 43.4974 49.5301 43.0726C49.0717 42.8806 48.4297 43.3282 47.9209 43.3282C46.4209 43.3282 44.8429 43.4722 43.3514 43.3282C43.223 43.3162 42.4934 43.1242 42.9014 43.0726C42.1334 42.7978 42.041 43.8238 41.7422 44.2906Z" fill="#D8945A"/>
<path d="M42.9062 43.0078V43.0726H48.5054L46.7678 43.0078H42.9062Z" fill="#B46F45"/>
<path d="M48.5039 43.0078V43.0726H48.8255L48.5039 43.0078Z" fill="#D8945A"/>
<path d="M42.1328 43.0723V43.3279H42.1976L42.1328 43.0723ZM42.7124 43.0723L42.776 43.2643H42.8408V43.0723H42.7124Z" fill="#B46F45"/>
<path d="M42.8398 43.0723V43.2643H47.1514C47.6182 43.2643 48.415 43.4239 48.7606 43.0723H42.8398Z" fill="#232C2A"/>
<path d="M48.7578 43.0723V43.1359H48.9498L48.7578 43.0723Z" fill="#B46F45"/>
<path d="M50.0485 43.0723C50.0173 43.7491 49.5781 44.1499 49.2109 44.6742C50.2285 44.6742 50.8177 44.0995 50.8201 43.0723H50.0485Z" fill="#D8945A"/>
<path d="M28.4895 43.1348L29.1327 44.0324H29.1963V43.1348H28.4895ZM29.6475 43.1348C29.6475 43.8668 29.4579 44.8927 30.1011 45.4183C30.6687 45.8815 31.6658 45.6991 32.3498 45.6991H37.1126C37.9634 45.6991 38.7686 45.8251 39.4933 45.3151L39.3649 44.9311C38.6726 45.5599 37.937 45.4435 37.049 45.4435H32.6726C32.027 45.4435 31.1426 45.5875 30.5487 45.2851C30.0267 45.0187 29.9691 44.486 29.9691 43.9688C29.9691 43.6184 30.0639 43.2248 29.6475 43.1348Z" fill="#51988E"/>
<path d="M27.2656 43.1992L27.844 43.9048C27.7672 43.5784 27.5992 43.2976 27.2656 43.1992Z" fill="#EED8AE"/>
<path d="M28.8086 43.1992L29.1302 43.5844L29.0018 43.2004L28.8086 43.1992ZM29.0654 43.2004V43.3924H29.1302L29.0654 43.2004Z" fill="#232C2A"/>
<path d="M43.1652 43.264V43.3276H48.3767L46.7688 43.264H43.1652Z" fill="#B46F45"/>
<path d="M26.3014 43.7124L26.1094 43.9044V44.3532H26.173L26.623 43.7772L26.3014 43.7124Z" fill="#B46F45"/>
<path d="M26.3672 43.7148V43.7784H26.5592L26.3672 43.7148Z" fill="#D8945A"/>
<path d="M26.7492 43.9057H26.6844L26.556 44.2897C26.37 44.0749 26.4612 43.9813 26.6844 43.8421C25.8432 43.6777 26.6724 44.9029 26.7492 43.9057Z" fill="#D8945A"/>
<path d="M26.6183 43.8398L26.5547 43.9034L26.6183 44.0954H26.6831L26.7479 43.8398H26.6183Z" fill="#B46F45"/>
<path d="M26.4297 43.9062V44.2266H26.5593V43.9062H26.4297Z" fill="#232C2A"/>
<path d="M41.9412 43.9688L42.0048 44.0324L41.94 43.9688M48.9552 43.9688V44.0959L49.0836 43.9688H48.9552Z" fill="#B46F45"/>
<path d="M41.1028 44.7369V44.7993H46.7655C47.2071 44.7993 48.3735 45.0033 48.6315 44.6073H43.9335L41.1016 44.7357M49.1463 44.6073L49.6611 44.7357V44.6709L49.1463 44.6073Z" fill="#B46F45"/>
<path d="M40.4609 44.6758V44.8042L40.7825 44.7406L40.4609 44.6758Z" fill="#B46F45"/>
<path d="M39.3633 44.8672V44.9956H39.4917V44.8672H39.3633Z" fill="#D8945A"/>
<path d="M28.167 46.5049C27.7746 46.6201 27.3654 47.4649 27.861 47.7025C28.3746 47.9497 29.4006 47.7505 29.9669 47.7505H35.1797C35.7269 47.7505 37.0373 47.9893 37.4777 47.6389C37.6961 47.4649 37.9096 46.5949 37.5509 46.4881C36.9425 46.3081 36.0689 46.5193 35.4377 46.5313C33.9689 46.5601 32.4665 46.5301 30.9977 46.5313C30.1493 46.5337 28.9734 46.2673 28.167 46.5049Z" fill="#EED8AE"/>
<path d="M29.1953 46.4685V46.5333H31.5773C30.9461 46.2693 29.8817 46.4685 29.1953 46.4685ZM34.3432 46.4685V46.5333H34.666L34.3444 46.4685M34.924 46.4685V46.5333H35.824L34.924 46.4685ZM36.2104 46.4685V46.5333H36.6616L36.2104 46.4685Z" fill="#D8945A"/>
<path d="M38.3381 46.4707C38.0453 46.7479 37.9685 47.1139 38.0801 47.4967H38.1449L38.3381 46.4707Z" fill="#EED8AE"/>
<path d="M40.5251 46.5807C39.7079 46.8843 40.1027 48.3615 40.9739 48.0243C41.7466 47.7243 41.3626 46.2687 40.5251 46.5807Z" fill="#EED8AE"/>
<path d="M49.0781 46.5332V46.5968H49.3361L49.0781 46.5332Z" fill="#B46F45"/>
<path d="M48.9561 46.6519C48.2361 46.9687 48.6537 48.3487 49.4625 48.0079C50.2136 47.6899 49.7877 46.2871 48.9561 46.6519Z" fill="#EED8AE"/>
<path d="M37.3055 46.6621L37.4339 46.7917L37.3055 46.6633" fill="#D8945A"/>
<path d="M28.1815 46.7944C27.8335 46.9972 28.0819 47.5948 28.4767 47.4064C28.8547 47.2264 28.5487 46.582 28.1815 46.7944ZM36.9258 46.7944C36.5178 47.0152 36.8778 47.6584 37.2738 47.4112C37.6122 47.2 37.2978 46.5928 36.9258 46.7944Z" fill="#232C2A"/>
<path d="M40.2648 46.9166H40.3296L40.458 46.7894L40.2648 46.9166ZM48.9527 46.7246V46.9166H49.0175L48.9527 46.7246Z" fill="#D8945A"/>
<path d="M40.5288 46.8566C40.0128 47.1349 40.4292 48.0529 40.9584 47.7397C41.4107 47.4721 41.0472 46.5758 40.5288 46.8566Z" fill="#232C2A"/>
<path d="M49.1471 46.8496C48.6347 46.9804 48.7703 47.8936 49.3355 47.7736C49.8623 47.6608 49.6907 46.7116 49.1471 46.8496Z" fill="#232C2A"/>
<path d="M41.1641 47.2383V47.4303H41.2277L41.1641 47.2383ZM49.852 47.2383V47.4303H49.9156L49.852 47.2383Z" fill="#B46F45"/>
<path d="M48.566 47.4941L48.6296 47.5589L48.5648 47.4941" fill="#B46F45"/>
<path d="M27.9062 48.2656V48.3292C28.5458 48.5992 29.4074 48.4576 30.0938 48.4576H34.6634C35.3594 48.4576 36.3433 48.634 36.9793 48.3292H33.7634L27.9062 48.2656Z" fill="#EED8AE"/>
<path d="M28.8086 48.2668V48.3304H31.2542C30.6074 48.0604 29.5106 48.2668 28.8086 48.2668Z" fill="#D8945A"/>
<path d="M31.2578 48.2656V48.3292H31.7726L31.2578 48.2656Z" fill="#B46F45"/>
<path d="M31.7694 48.2656V48.3292H36.9173L35.3094 48.2656H31.7694Z" fill="#D8945A"/>
<path d="M41.4922 48.3926V48.4574C42.0466 48.7586 42.7438 48.6494 43.3582 48.6494H47.2197C47.6157 48.6494 48.8229 48.8498 48.9573 48.3926H41.4922Z" fill="#51988E"/>
<path d="M28.4219 48.457V48.5206H30.6742L28.4219 48.457ZM35.437 48.457V48.5206H36.595L35.437 48.457Z" fill="#B46F45"/>
<path d="M28.6797 48.7129V48.7777H28.8729L28.6797 48.7129Z" fill="#D8945A"/>
<path d="M28.875 48.7129V48.7777H29.1966L28.875 48.7129Z" fill="#EED8AE"/>
<path d="M29.2578 48.7129V48.7777H29.9658L29.2578 48.7129Z" fill="#EED8AE"/>
<path d="M29.9688 48.7129V48.7777L34.9247 48.8413L33.5075 48.7141L29.9688 48.7129Z" fill="#D8945A"/>
<path d="M34.8577 48.7141L34.9861 48.8413V48.7141H34.8577Z" fill="#B46F45"/>
<path d="M34.9844 48.7129V48.8413L36.272 48.7777L34.9844 48.7129Z" fill="#D8945A"/>
<path d="M36.2745 48.7129V48.7777H36.5313L36.2745 48.7129ZM29.3242 48.7777V48.8413H31.5118L29.3242 48.7777ZM31.5766 48.7777V48.8413H32.6062L31.5766 48.7777ZM35.7585 48.7777V48.8413H36.2745L35.7585 48.7777Z" fill="#B46F45"/>
<path d="M59.9766 28.91V15.7141H62.6629V26.6683H69.3425V28.91H59.9766Z" fill="#F5F7EF"/>
<path d="M77.2291 28.91H74.6789V19.299C73.7471 20.1702 72.649 20.8146 71.3845 21.2321V18.9178C72.05 18.7 72.773 18.2886 73.5535 17.6835C74.334 17.0724 74.8695 16.3615 75.1599 15.5508H77.2291V28.91Z" fill="#F5F7EF"/>
<path d="M81.5944 28.91V26.3597H84.1447V28.91H81.5944Z" fill="#F5F7EF"/>
<path d="M86.7493 28.91V15.6052H90.7698L93.1839 24.6808L95.5707 15.6052H99.6003V28.91H97.1045V18.4368L94.4635 28.91H91.877L89.2451 18.4368V28.91H86.7493Z" fill="#F5F7EF"/>
<path d="M102.268 28.91V15.6052H112.134V17.856H104.955V20.8055H111.634V23.0472H104.955V26.6683H112.388V28.91H102.268Z" fill="#F5F7EF"/>
<path d="M114.657 15.6052H119.566C120.674 15.6052 121.518 15.6899 122.098 15.8593C122.879 16.0893 123.548 16.4977 124.104 17.0845C124.661 17.6714 125.084 18.3914 125.375 19.2445C125.665 20.0916 125.81 21.1383 125.81 22.3847C125.81 23.4798 125.674 24.4236 125.402 25.2162C125.069 26.1843 124.594 26.9678 123.977 27.5668C123.511 28.0206 122.882 28.3745 122.089 28.6286C121.496 28.8162 120.704 28.91 119.712 28.91H114.657V15.6052ZM117.343 17.856V26.6683H119.349C120.099 26.6683 120.64 26.626 120.973 26.5413C121.409 26.4324 121.769 26.2478 122.053 25.9876C122.344 25.7275 122.579 25.3009 122.761 24.708C122.942 24.109 123.033 23.2952 123.033 22.2667C123.033 21.2381 122.942 20.4485 122.761 19.898C122.579 19.3474 122.325 18.9178 121.999 18.6092C121.672 18.3007 121.257 18.0919 120.755 17.983C120.38 17.8983 119.645 17.856 118.55 17.856H117.343Z" fill="#F5F7EF"/>
<path d="M128.016 28.91V15.6052H130.702V28.91H128.016Z" fill="#F5F7EF"/>
<path d="M145.268 28.91H142.346L141.184 25.8878H135.866L134.768 28.91H131.918L137.1 15.6052H139.941L145.268 28.91ZM140.322 23.6462L138.489 18.7091L136.692 23.6462H140.322Z" fill="#F5F7EF"/>
<path d="M59.8984 31.5234H158.824V33.4962H59.8984V31.5234Z" fill="#F5F7EF"/>
<path d="M60.4805 37.3418H63.9598C64.6485 37.3418 65.1611 37.3715 65.4976 37.4309C65.838 37.4863 66.1408 37.605 66.406 37.7871C66.6752 37.9692 66.8988 38.2126 67.0769 38.5174C67.255 38.8182 67.3441 39.1567 67.3441 39.5327C67.3441 39.9404 67.2333 40.3145 67.0116 40.6549C66.7939 40.9953 66.497 41.2506 66.121 41.4208C66.6514 41.5752 67.0591 41.8384 67.3441 42.2105C67.6291 42.5826 67.7716 43.0199 67.7716 43.5226C67.7716 43.9185 67.6786 44.3044 67.4925 44.6804C67.3105 45.0525 67.0591 45.3514 66.7385 45.577C66.4218 45.7987 66.03 45.9352 65.5629 45.9867C65.27 46.0183 64.5634 46.0381 63.4432 46.046H60.4805V37.3418ZM62.2379 38.7905V40.8033H63.3898C64.0746 40.8033 64.5001 40.7934 64.6663 40.7736C64.9672 40.738 65.2027 40.6351 65.3729 40.4649C65.5471 40.2907 65.6341 40.0631 65.6341 39.7821C65.6341 39.5129 65.5589 39.2952 65.4085 39.129C65.2621 38.9588 65.0424 38.8558 64.7495 38.8202C64.5753 38.8004 64.0746 38.7905 63.2473 38.7905H62.2379ZM62.2379 42.252V44.5795H63.8648C64.4981 44.5795 64.8999 44.5617 65.0701 44.5261C65.3313 44.4786 65.5431 44.3638 65.7054 44.1817C65.8716 43.9957 65.9548 43.7483 65.9548 43.4395C65.9548 43.1783 65.8914 42.9566 65.7648 42.7745C65.6381 42.5925 65.454 42.4598 65.2126 42.3767C64.9751 42.2936 64.4566 42.252 63.657 42.252H62.2379Z" fill="#F5F7EF"/>
<path d="M69.2619 46.046V37.3418H75.7158V38.8143H71.0194V40.7439H75.3893V42.2105H71.0194V44.5795H75.8821V46.046H69.2619Z" fill="#F5F7EF"/>
<path d="M79.6583 46.046V42.3827L76.4699 37.3418H78.5302L80.5786 40.7855L82.5854 37.3418H84.6101L81.4098 42.3945V46.046H79.6583Z" fill="#F5F7EF"/>
<path d="M85.1266 41.7474C85.1266 40.8607 85.2592 40.1165 85.5244 39.5149C85.7224 39.0716 85.9915 38.6738 86.3319 38.3215C86.6763 37.9692 87.0523 37.7079 87.46 37.5377C88.0023 37.3081 88.6277 37.1934 89.3363 37.1934C90.6187 37.1934 91.6439 37.5912 92.4118 38.3868C93.1837 39.1824 93.5696 40.2887 93.5696 41.7058C93.5696 43.111 93.1876 44.2114 92.4237 45.007C91.6598 45.7987 90.6385 46.1945 89.36 46.1945C88.0656 46.1945 87.0365 45.8006 86.2726 45.0129C85.5086 44.2213 85.1266 43.1328 85.1266 41.7474ZM86.9375 41.688C86.9375 42.6736 87.1651 43.4217 87.6203 43.9323C88.0755 44.439 88.6535 44.6923 89.3541 44.6923C90.0547 44.6923 90.6286 44.441 91.0759 43.9383C91.5272 43.4316 91.7528 42.6736 91.7528 41.6642C91.7528 40.6667 91.5331 39.9226 91.0937 39.4318C90.6583 38.9409 90.0784 38.6955 89.3541 38.6955C88.6297 38.6955 88.0459 38.9449 87.6025 39.4436C87.1592 39.9384 86.9375 40.6865 86.9375 41.688Z" fill="#F5F7EF"/>
<path d="M94.9649 46.046V37.3418H96.6749L100.237 43.1545V37.3418H101.87V46.046H100.107L96.5977 40.3699V46.046H94.9649Z" fill="#F5F7EF"/>
<path d="M103.729 37.3418H106.941C107.665 37.3418 108.217 37.3972 108.597 37.508C109.108 37.6585 109.545 37.9256 109.909 38.3096C110.274 38.6935 110.551 39.1646 110.741 39.7227C110.931 40.2769 111.026 40.9616 111.026 41.777C111.026 42.4935 110.937 43.111 110.758 43.6295C110.541 44.2628 110.23 44.7754 109.826 45.1673C109.521 45.4642 109.11 45.6957 108.591 45.862C108.203 45.9847 107.685 46.046 107.036 46.046H103.729V37.3418ZM105.486 38.8143V44.5795H106.798C107.289 44.5795 107.643 44.5518 107.861 44.4964C108.146 44.4251 108.381 44.3044 108.568 44.1342C108.758 43.964 108.912 43.6849 109.031 43.297C109.149 42.9052 109.209 42.3728 109.209 41.6999C109.209 41.027 109.149 40.5104 109.031 40.1502C108.912 39.79 108.746 39.509 108.532 39.3071C108.318 39.1052 108.047 38.9686 107.718 38.8974C107.473 38.842 106.992 38.8143 106.276 38.8143H105.486Z" fill="#F5F7EF"/>
<path d="M115.912 37.3418H119.391C120.08 37.3418 120.593 37.3715 120.929 37.4309C121.27 37.4863 121.572 37.605 121.838 37.7871C122.107 37.9692 122.33 38.2126 122.509 38.5174C122.687 38.8182 122.776 39.1567 122.776 39.5327C122.776 39.9404 122.665 40.3145 122.443 40.6549C122.226 40.9953 121.929 41.2506 121.553 41.4208C122.083 41.5752 122.491 41.8384 122.776 42.2105C123.061 42.5826 123.203 43.0199 123.203 43.5226C123.203 43.9185 123.11 44.3044 122.924 44.6804C122.742 45.0525 122.491 45.3514 122.17 45.577C121.853 45.7987 121.462 45.9352 120.994 45.9867C120.702 46.0183 119.995 46.0381 118.875 46.046H115.912V37.3418ZM117.67 38.7905V40.8033H118.821C119.506 40.8033 119.932 40.7934 120.098 40.7736C120.399 40.738 120.634 40.6351 120.804 40.4649C120.979 40.2907 121.066 40.0631 121.066 39.7821C121.066 39.5129 120.991 39.2952 120.84 39.129C120.694 38.9588 120.474 38.8558 120.181 38.8202C120.007 38.8004 119.506 38.7905 118.679 38.7905H117.67ZM117.67 42.252V44.5795H119.296C119.93 44.5795 120.331 44.5617 120.502 44.5261C120.763 44.4786 120.975 44.3638 121.137 44.1817C121.303 43.9957 121.386 43.7483 121.386 43.4395C121.386 43.1783 121.323 42.9566 121.196 42.7745C121.07 42.5925 120.886 42.4598 120.644 42.3767C120.407 42.2936 119.888 42.252 119.089 42.252H117.67Z" fill="#F5F7EF"/>
<path d="M124.337 41.7474C124.337 40.8607 124.47 40.1165 124.735 39.5149C124.933 39.0716 125.202 38.6738 125.543 38.3215C125.887 37.9692 126.263 37.7079 126.671 37.5377C127.213 37.3081 127.838 37.1934 128.547 37.1934C129.829 37.1934 130.855 37.5912 131.622 38.3868C132.394 39.1824 132.78 40.2887 132.78 41.7058C132.78 43.111 132.398 44.2114 131.634 45.007C130.87 45.7987 129.849 46.1945 128.571 46.1945C127.276 46.1945 126.247 45.8006 125.483 45.0129C124.719 44.2213 124.337 43.1328 124.337 41.7474ZM126.148 41.688C126.148 42.6736 126.376 43.4217 126.831 43.9323C127.286 44.439 127.864 44.6923 128.565 44.6923C129.265 44.6923 129.839 44.441 130.287 43.9383C130.738 43.4316 130.963 42.6736 130.963 41.6642C130.963 40.6667 130.744 39.9226 130.304 39.4318C129.869 38.9409 129.289 38.6955 128.565 38.6955C127.84 38.6955 127.256 38.9449 126.813 39.4436C126.37 39.9384 126.148 40.6865 126.148 41.688Z" fill="#F5F7EF"/>
<path d="M134.164 46.046V37.3418H137.863C138.793 37.3418 139.468 37.421 139.887 37.5793C140.311 37.7337 140.649 38.0107 140.903 38.4105C141.156 38.8103 141.283 39.2675 141.283 39.7821C141.283 40.4352 141.091 40.9755 140.707 41.403C140.323 41.8265 139.749 42.0937 138.985 42.2045C139.365 42.4262 139.678 42.6696 139.923 42.9348C140.172 43.2 140.507 43.6711 140.926 44.3479L141.989 46.046H139.887L138.617 44.152C138.165 43.4751 137.857 43.0496 137.69 42.8755C137.524 42.6973 137.348 42.5766 137.162 42.5133C136.976 42.446 136.681 42.4124 136.277 42.4124H135.921V46.046H134.164ZM135.921 41.023H137.221C138.065 41.023 138.591 40.9874 138.801 40.9161C139.011 40.8449 139.175 40.7222 139.294 40.548C139.412 40.3738 139.472 40.1561 139.472 39.8949C139.472 39.602 139.393 39.3665 139.234 39.1883C139.08 39.0063 138.86 38.8915 138.575 38.844C138.433 38.8242 138.005 38.8143 137.293 38.8143H135.921V41.023Z" fill="#F5F7EF"/>
<path d="M142.939 37.3418H146.151C146.876 37.3418 147.428 37.3972 147.808 37.508C148.318 37.6585 148.756 37.9256 149.12 38.3096C149.484 38.6935 149.761 39.1646 149.951 39.7227C150.141 40.2769 150.236 40.9616 150.236 41.777C150.236 42.4935 150.147 43.111 149.969 43.6295C149.751 44.2628 149.441 44.7754 149.037 45.1673C148.732 45.4642 148.32 45.6957 147.802 45.862C147.414 45.9847 146.895 46.046 146.246 46.046H142.939V37.3418ZM144.697 38.8143V44.5795H146.009C146.5 44.5795 146.854 44.5518 147.072 44.4964C147.357 44.4251 147.592 44.3044 147.778 44.1342C147.968 43.964 148.122 43.6849 148.241 43.297C148.36 42.9052 148.419 42.3728 148.419 41.6999C148.419 41.027 148.36 40.5104 148.241 40.1502C148.122 39.79 147.956 39.509 147.742 39.3071C147.529 39.1052 147.258 38.9686 146.929 38.8974C146.684 38.842 146.203 38.8143 145.486 38.8143H144.697Z" fill="#F5F7EF"/>
<path d="M151.732 46.046V37.3418H158.186V38.8143H153.49V40.7439H157.86V42.2105H153.49V44.5795H158.353V46.046H151.732Z" fill="#F5F7EF"/>
<path d="M159.849 46.046V37.3418H163.548C164.478 37.3418 165.153 37.421 165.573 37.5793C165.996 37.7337 166.334 38.0107 166.588 38.4105C166.841 38.8103 166.968 39.2675 166.968 39.7821C166.968 40.4352 166.776 40.9755 166.392 41.403C166.008 41.8265 165.434 42.0937 164.67 42.2045C165.05 42.4262 165.363 42.6696 165.608 42.9348C165.858 43.2 166.192 43.6711 166.612 44.3479L167.674 46.046H165.573L164.302 44.152C163.851 43.4751 163.542 43.0496 163.376 42.8755C163.209 42.6973 163.033 42.5766 162.847 42.5133C162.661 42.446 162.366 42.4124 161.963 42.4124H161.606V46.046H159.849ZM161.606 41.023H162.907C163.75 41.023 164.276 40.9874 164.486 40.9161C164.696 40.8449 164.86 40.7222 164.979 40.548C165.098 40.3738 165.157 40.1561 165.157 39.8949C165.157 39.602 165.078 39.3665 164.919 39.1883C164.765 39.0063 164.545 38.8915 164.26 38.844C164.118 38.8242 163.69 38.8143 162.978 38.8143H161.606V41.023Z" fill="#F5F7EF"/>
<path d="M168.185 43.2139L169.895 43.0477C169.998 43.6216 170.206 44.0432 170.518 44.3123C170.835 44.5815 171.261 44.7161 171.795 44.7161C172.361 44.7161 172.786 44.5973 173.071 44.3598C173.36 44.1184 173.505 43.8373 173.505 43.5167C173.505 43.3109 173.444 43.1367 173.321 42.9942C173.202 42.8478 172.992 42.7211 172.691 42.6142C172.486 42.543 172.017 42.4163 171.284 42.2342C170.342 42.0007 169.681 41.7137 169.301 41.3733C168.767 40.8944 168.5 40.3105 168.5 39.6218C168.5 39.1784 168.624 38.7648 168.874 38.3808C169.127 37.9929 169.489 37.698 169.96 37.4962C170.435 37.2943 171.007 37.1934 171.676 37.1934C172.769 37.1934 173.59 37.4328 174.14 37.9118C174.694 38.3907 174.985 39.03 175.013 39.8296L173.256 39.9068C173.18 39.4595 173.018 39.1389 172.769 38.9449C172.523 38.747 172.153 38.648 171.658 38.648C171.148 38.648 170.748 38.7529 170.459 38.9627C170.273 39.0973 170.18 39.2774 170.18 39.503C170.18 39.7088 170.267 39.885 170.441 40.0314C170.663 40.2175 171.201 40.4114 172.056 40.6133C172.911 40.8152 173.542 41.025 173.95 41.2427C174.362 41.4564 174.682 41.7513 174.912 42.1274C175.146 42.4994 175.262 42.9606 175.262 43.5108C175.262 44.0095 175.124 44.4766 174.847 44.912C174.57 45.3474 174.178 45.672 173.671 45.8857C173.164 46.0955 172.533 46.2004 171.777 46.2004C170.677 46.2004 169.832 45.9471 169.242 45.4404C168.652 44.9298 168.3 44.1876 168.185 43.2139Z" fill="#F5F7EF"/>
</svg>
