<svg width="141" height="65" viewBox="0 0 141 65" fill="none" xmlns="http://www.w3.org/2000/svg">
<path d="M49.3542 30.0973C49.3542 38.5803 42.466 51.6012 33.969 51.6012C25.472 51.6012 19.1992 38.5803 19.1992 30.0973L19.1992 28.5613C19.1992 20.1185 25.4125 13.2668 33.8481 13.2018C30.5091 13.2429 27.8149 15.9956 27.8149 19.3852C27.8149 19.3852 27.3534 25.3355 27.8149 29.1358C28.4626 34.468 30.5499 41.4636 33.9238 41.4636C37.2976 41.4636 40.0326 34.507 40.0326 29.1358C40.0326 25.3355 40.0326 19.3852 40.0326 19.3852C40.0326 14.7473 42.5847 13.2018 44.4309 13.2014C46.2772 13.2009 48.2364 13.2014 48.2364 13.2014C51.9697 13.2014 52.8829 17.3486 50.5941 19.6335C49.0523 21.4351 49.1338 23.0655 49.2648 25.6862C49.3069 26.5292 49.3542 27.4747 49.3542 28.5613L49.3542 30.0973Z" fill="url(#paint0_linear_2124_32485)"/>
<path d="M58.8563 47.363C57.4452 47.363 56.2082 47.0344 55.1451 46.3772C54.1013 45.7007 53.2895 44.7922 52.7096 43.6518C52.1298 42.5114 51.8398 41.255 51.8398 39.8827C51.8398 38.491 52.1298 37.2346 52.7096 36.1135C53.2895 34.9731 54.1013 34.0743 55.1451 33.4171C56.2082 32.7406 57.4452 32.4023 58.8563 32.4023C60.0546 32.4023 61.0791 32.6343 61.9296 33.0982C62.7994 33.5621 63.5049 34.1903 64.0461 34.9828V32.6343H66.2206V47.131H64.0461V44.8116C63.5049 45.5847 62.7994 46.2032 61.9296 46.6671C61.0791 47.131 60.0546 47.363 58.8563 47.363ZM59.1462 45.3914C60.2286 45.3914 61.1371 45.1402 61.8716 44.6376C62.6254 44.135 63.1956 43.4682 63.5822 42.637C63.9688 41.7866 64.162 40.8684 64.162 39.8827C64.162 38.8776 63.9688 37.9594 63.5822 37.1283C63.1956 36.2971 62.6254 35.6303 61.8716 35.1277C61.1371 34.6252 60.2286 34.3739 59.1462 34.3739C58.0831 34.3739 57.165 34.6252 56.3918 35.1277C55.6187 35.6303 55.0291 36.2971 54.6232 37.1283C54.2173 37.9594 54.0144 38.8776 54.0144 39.8827C54.0144 40.8684 54.2173 41.7866 54.6232 42.637C55.0291 43.4682 55.6187 44.135 56.3918 44.6376C57.165 45.1402 58.0831 45.3914 59.1462 45.3914Z" fill="#F5F7EF"/>
<path d="M69.9818 47.131V32.6343H72.1563V36.2005C72.2336 35.9492 72.3786 35.6206 72.5912 35.2147C72.8232 34.7895 73.1517 34.3642 73.577 33.939C74.0022 33.5138 74.5338 33.1562 75.1716 32.8662C75.8288 32.557 76.602 32.4023 77.4911 32.4023H77.6361V34.5769H77.3751C76.2927 34.5769 75.3552 34.8765 74.5628 35.4757C73.7896 36.0555 73.1904 36.819 72.7652 37.7661C72.3593 38.6939 72.1563 39.6894 72.1563 40.7525V47.131H69.9818Z" fill="#F5F7EF"/>
<path d="M86.0451 47.363C84.5761 47.363 83.2907 47.0344 82.1889 46.3772C81.0872 45.7007 80.227 44.7922 79.6085 43.6518C79.0093 42.5114 78.7097 41.255 78.7097 39.8827C78.7097 38.491 78.9997 37.2346 79.5795 36.1135C80.1594 34.9731 80.9905 34.0743 82.073 33.4171C83.1554 32.7406 84.4311 32.4023 85.9001 32.4023C87.3884 32.4023 88.6641 32.7406 89.7272 33.4171C90.8096 34.0743 91.6408 34.9731 92.2207 36.1135C92.8005 37.2346 93.0905 38.491 93.0905 39.8827V40.7525H80.9422C81.0582 41.6029 81.3288 42.3858 81.754 43.1009C82.1986 43.7968 82.7881 44.3573 83.5226 44.7826C84.2571 45.1885 85.1076 45.3914 86.074 45.3914C87.0985 45.3914 87.9586 45.1691 88.6545 44.7246C89.3503 44.2607 89.8915 43.6711 90.2781 42.956H92.6556C92.153 44.251 91.3508 45.3141 90.2491 46.1453C89.1667 46.9571 87.7653 47.363 86.0451 47.363ZM80.9712 38.7229H90.829C90.6357 37.4859 90.1138 36.4518 89.2633 35.6206C88.4129 34.7895 87.2918 34.3739 85.9001 34.3739C84.5084 34.3739 83.3873 34.7895 82.5368 35.6206C81.7057 36.4518 81.1838 37.4859 80.9712 38.7229Z" fill="#F5F7EF"/>
<path d="M101.024 47.363C99.6905 47.363 98.5598 47.1407 97.632 46.6961C96.7235 46.2516 96.0277 45.6717 95.5445 44.9565C95.0613 44.222 94.7906 43.4295 94.7327 42.5791H96.9941C97.0521 43.0623 97.2164 43.5358 97.487 43.9997C97.777 44.4443 98.2119 44.8116 98.7917 45.1015C99.3716 45.3721 100.125 45.5074 101.053 45.5074C101.343 45.5074 101.701 45.4784 102.126 45.4204C102.551 45.3624 102.957 45.2561 103.344 45.1015C103.75 44.9469 104.088 44.7149 104.358 44.4056C104.629 44.0964 104.764 43.7001 104.764 43.2169C104.764 42.6177 104.532 42.1538 104.069 41.8252C103.605 41.4966 103.005 41.2454 102.271 41.0714C101.536 40.8781 100.754 40.6945 99.9225 40.5205C99.1107 40.3466 98.3375 40.1243 97.603 39.8537C96.8685 39.5637 96.2693 39.1675 95.8054 38.6649C95.3415 38.1431 95.1096 37.4375 95.1096 36.5484C95.1096 35.234 95.5831 34.2193 96.5302 33.5041C97.4967 32.7696 98.9174 32.4023 100.792 32.4023C102.068 32.4023 103.102 32.6053 103.895 33.0112C104.706 33.3978 105.315 33.9003 105.721 34.5189C106.146 35.1374 106.398 35.8042 106.475 36.5194H104.271C104.194 35.9009 103.885 35.3693 103.344 34.9248C102.822 34.4802 101.952 34.2579 100.734 34.2579C98.4342 34.2579 97.2841 34.9538 97.2841 36.3455C97.2841 36.9253 97.516 37.3699 97.9799 37.6792C98.4438 37.9884 99.043 38.2397 99.7775 38.433C100.512 38.607 101.285 38.7809 102.097 38.9549C102.928 39.1095 103.711 39.3318 104.445 39.6217C105.18 39.9117 105.779 40.3272 106.243 40.8684C106.707 41.3903 106.939 42.1055 106.939 43.014C106.939 44.425 106.398 45.5074 105.315 46.2612C104.252 46.9957 102.822 47.363 101.024 47.363Z" fill="#F5F7EF"/>
<path d="M115.011 47.363C113.678 47.363 112.547 47.1407 111.619 46.6961C110.711 46.2516 110.015 45.6717 109.532 44.9565C109.048 44.222 108.778 43.4295 108.72 42.5791H110.981C111.039 43.0623 111.203 43.5358 111.474 43.9997C111.764 44.4443 112.199 44.8116 112.779 45.1015C113.359 45.3721 114.112 45.5074 115.04 45.5074C115.33 45.5074 115.688 45.4784 116.113 45.4204C116.538 45.3624 116.944 45.2561 117.331 45.1015C117.737 44.9469 118.075 44.7149 118.346 44.4056C118.616 44.0964 118.751 43.7001 118.751 43.2169C118.751 42.6177 118.519 42.1538 118.056 41.8252C117.592 41.4966 116.993 41.2454 116.258 41.0714C115.524 40.8781 114.741 40.6945 113.91 40.5205C113.098 40.3466 112.325 40.1243 111.59 39.8537C110.856 39.5637 110.256 39.1675 109.792 38.6649C109.329 38.1431 109.097 37.4375 109.097 36.5484C109.097 35.234 109.57 34.2193 110.517 33.5041C111.484 32.7696 112.904 32.4023 114.779 32.4023C116.055 32.4023 117.089 32.6053 117.882 33.0112C118.693 33.3978 119.302 33.9003 119.708 34.5189C120.133 35.1374 120.385 35.8042 120.462 36.5194H118.259C118.181 35.9009 117.872 35.3693 117.331 34.9248C116.809 34.4802 115.939 34.2579 114.721 34.2579C112.421 34.2579 111.271 34.9538 111.271 36.3455C111.271 36.9253 111.503 37.3699 111.967 37.6792C112.431 37.9884 113.03 38.2397 113.765 38.433C114.499 38.607 115.272 38.7809 116.084 38.9549C116.915 39.1095 117.698 39.3318 118.433 39.6217C119.167 39.9117 119.766 40.3272 120.23 40.8684C120.694 41.3903 120.926 42.1055 120.926 43.014C120.926 44.425 120.385 45.5074 119.302 46.2612C118.239 46.9957 116.809 47.363 115.011 47.363Z" fill="#F5F7EF"/>
<path d="M58.8563 47.363C57.4452 47.363 56.2082 47.0344 55.1451 46.3772C54.1013 45.7007 53.2895 44.7922 52.7096 43.6518C52.1298 42.5114 51.8398 41.255 51.8398 39.8827C51.8398 38.491 52.1298 37.2346 52.7096 36.1135C53.2895 34.9731 54.1013 34.0743 55.1451 33.4171C56.2082 32.7406 57.4452 32.4023 58.8563 32.4023C60.0546 32.4023 61.0791 32.6343 61.9296 33.0982C62.7994 33.5621 63.5049 34.1903 64.0461 34.9828V32.6343H66.2206V47.131H64.0461V44.8116C63.5049 45.5847 62.7994 46.2032 61.9296 46.6671C61.0791 47.131 60.0546 47.363 58.8563 47.363ZM59.1462 45.3914C60.2286 45.3914 61.1371 45.1402 61.8716 44.6376C62.6254 44.135 63.1956 43.4682 63.5822 42.637C63.9688 41.7866 64.162 40.8684 64.162 39.8827C64.162 38.8776 63.9688 37.9594 63.5822 37.1283C63.1956 36.2971 62.6254 35.6303 61.8716 35.1277C61.1371 34.6252 60.2286 34.3739 59.1462 34.3739C58.0831 34.3739 57.165 34.6252 56.3918 35.1277C55.6187 35.6303 55.0291 36.2971 54.6232 37.1283C54.2173 37.9594 54.0144 38.8776 54.0144 39.8827C54.0144 40.8684 54.2173 41.7866 54.6232 42.637C55.0291 43.4682 55.6187 44.135 56.3918 44.6376C57.165 45.1402 58.0831 45.3914 59.1462 45.3914Z" stroke="#F5F7EF" stroke-width="0.767999"/>
<path d="M69.9818 47.131V32.6343H72.1563V36.2005C72.2336 35.9492 72.3786 35.6206 72.5912 35.2147C72.8232 34.7895 73.1517 34.3642 73.577 33.939C74.0022 33.5138 74.5338 33.1562 75.1716 32.8662C75.8288 32.557 76.602 32.4023 77.4911 32.4023H77.6361V34.5769H77.3751C76.2927 34.5769 75.3552 34.8765 74.5628 35.4757C73.7896 36.0555 73.1904 36.819 72.7652 37.7661C72.3593 38.6939 72.1563 39.6894 72.1563 40.7525V47.131H69.9818Z" stroke="#F5F7EF" stroke-width="0.767999"/>
<path d="M86.0451 47.363C84.5761 47.363 83.2907 47.0344 82.1889 46.3772C81.0872 45.7007 80.227 44.7922 79.6085 43.6518C79.0093 42.5114 78.7097 41.255 78.7097 39.8827C78.7097 38.491 78.9997 37.2346 79.5795 36.1135C80.1594 34.9731 80.9905 34.0743 82.073 33.4171C83.1554 32.7406 84.4311 32.4023 85.9001 32.4023C87.3884 32.4023 88.6641 32.7406 89.7272 33.4171C90.8096 34.0743 91.6408 34.9731 92.2207 36.1135C92.8005 37.2346 93.0905 38.491 93.0905 39.8827V40.7525H80.9422C81.0582 41.6029 81.3288 42.3858 81.754 43.1009C82.1986 43.7968 82.7881 44.3573 83.5226 44.7826C84.2571 45.1885 85.1076 45.3914 86.074 45.3914C87.0985 45.3914 87.9586 45.1691 88.6545 44.7246C89.3503 44.2607 89.8915 43.6711 90.2781 42.956H92.6556C92.153 44.251 91.3508 45.3141 90.2491 46.1453C89.1667 46.9571 87.7653 47.363 86.0451 47.363ZM80.9712 38.7229H90.829C90.6357 37.4859 90.1138 36.4518 89.2633 35.6206C88.4129 34.7895 87.2918 34.3739 85.9001 34.3739C84.5084 34.3739 83.3873 34.7895 82.5368 35.6206C81.7057 36.4518 81.1838 37.4859 80.9712 38.7229Z" stroke="#F5F7EF" stroke-width="0.767999"/>
<path d="M101.024 47.363C99.6905 47.363 98.5598 47.1407 97.632 46.6961C96.7235 46.2516 96.0277 45.6717 95.5445 44.9565C95.0613 44.222 94.7906 43.4295 94.7327 42.5791H96.9941C97.0521 43.0623 97.2164 43.5358 97.487 43.9997C97.777 44.4443 98.2119 44.8116 98.7917 45.1015C99.3716 45.3721 100.125 45.5074 101.053 45.5074C101.343 45.5074 101.701 45.4784 102.126 45.4204C102.551 45.3624 102.957 45.2561 103.344 45.1015C103.75 44.9469 104.088 44.7149 104.358 44.4056C104.629 44.0964 104.764 43.7001 104.764 43.2169C104.764 42.6177 104.532 42.1538 104.069 41.8252C103.605 41.4966 103.005 41.2454 102.271 41.0714C101.536 40.8781 100.754 40.6945 99.9225 40.5205C99.1107 40.3466 98.3375 40.1243 97.603 39.8537C96.8685 39.5637 96.2693 39.1675 95.8054 38.6649C95.3415 38.1431 95.1096 37.4375 95.1096 36.5484C95.1096 35.234 95.5831 34.2193 96.5302 33.5041C97.4967 32.7696 98.9174 32.4023 100.792 32.4023C102.068 32.4023 103.102 32.6053 103.895 33.0112C104.706 33.3978 105.315 33.9003 105.721 34.5189C106.146 35.1374 106.398 35.8042 106.475 36.5194H104.271C104.194 35.9009 103.885 35.3693 103.344 34.9248C102.822 34.4802 101.952 34.2579 100.734 34.2579C98.4342 34.2579 97.2841 34.9538 97.2841 36.3455C97.2841 36.9253 97.516 37.3699 97.9799 37.6792C98.4438 37.9884 99.043 38.2397 99.7775 38.433C100.512 38.607 101.285 38.7809 102.097 38.9549C102.928 39.1095 103.711 39.3318 104.445 39.6217C105.18 39.9117 105.779 40.3272 106.243 40.8684C106.707 41.3903 106.939 42.1055 106.939 43.014C106.939 44.425 106.398 45.5074 105.315 46.2612C104.252 46.9957 102.822 47.363 101.024 47.363Z" stroke="#F5F7EF" stroke-width="0.767999"/>
<path d="M115.011 47.363C113.678 47.363 112.547 47.1407 111.619 46.6961C110.711 46.2516 110.015 45.6717 109.532 44.9565C109.048 44.222 108.778 43.4295 108.72 42.5791H110.981C111.039 43.0623 111.203 43.5358 111.474 43.9997C111.764 44.4443 112.199 44.8116 112.779 45.1015C113.359 45.3721 114.112 45.5074 115.04 45.5074C115.33 45.5074 115.688 45.4784 116.113 45.4204C116.538 45.3624 116.944 45.2561 117.331 45.1015C117.737 44.9469 118.075 44.7149 118.346 44.4056C118.616 44.0964 118.751 43.7001 118.751 43.2169C118.751 42.6177 118.519 42.1538 118.056 41.8252C117.592 41.4966 116.993 41.2454 116.258 41.0714C115.524 40.8781 114.741 40.6945 113.91 40.5205C113.098 40.3466 112.325 40.1243 111.59 39.8537C110.856 39.5637 110.256 39.1675 109.792 38.6649C109.329 38.1431 109.097 37.4375 109.097 36.5484C109.097 35.234 109.57 34.2193 110.517 33.5041C111.484 32.7696 112.904 32.4023 114.779 32.4023C116.055 32.4023 117.089 32.6053 117.882 33.0112C118.693 33.3978 119.302 33.9003 119.708 34.5189C120.133 35.1374 120.385 35.8042 120.462 36.5194H118.259C118.181 35.9009 117.872 35.3693 117.331 34.9248C116.809 34.4802 115.939 34.2579 114.721 34.2579C112.421 34.2579 111.271 34.9538 111.271 36.3455C111.271 36.9253 111.503 37.3699 111.967 37.6792C112.431 37.9884 113.03 38.2397 113.765 38.433C114.499 38.607 115.272 38.7809 116.084 38.9549C116.915 39.1095 117.698 39.3318 118.433 39.6217C119.167 39.9117 119.766 40.3272 120.23 40.8684C120.694 41.3903 120.926 42.1055 120.926 43.014C120.926 44.425 120.385 45.5074 119.302 46.2612C118.239 46.9957 116.809 47.363 115.011 47.363Z" stroke="#F5F7EF" stroke-width="0.767999"/>
<defs>
<linearGradient id="paint0_linear_2124_32485" x1="35.5192" y1="13.2012" x2="35.5192" y2="51.6012" gradientUnits="userSpaceOnUse">
<stop stop-color="#1AFFFD"/>
<stop offset="0.536164" stop-color="#5F56FF" stop-opacity="0.81"/>
<stop offset="1" stop-color="#FFA70D"/>
</linearGradient>
</defs>
</svg>
