<svg width="201" height="78" viewBox="0 0 201 78" fill="none" xmlns="http://www.w3.org/2000/svg">
<path d="M44.8847 15.1704C57.9358 15.1704 68.5151 25.7499 68.5151 38.8012C68.5151 51.8524 57.9358 62.4319 44.8847 62.4319C31.8337 62.4319 21.2544 51.8524 21.2544 38.8012C21.2544 25.7499 31.8345 15.1704 44.8847 15.1704ZM44.8847 13.2012C41.43 13.2012 38.0768 13.8786 34.9198 15.2137C31.8715 16.5032 29.1335 18.3487 26.7831 20.6992C24.4326 23.0497 22.5871 25.7869 21.2977 28.8361C19.9626 31.9931 19.2852 35.3464 19.2852 38.8012C19.2852 42.256 19.9626 45.6092 21.2977 48.7663C22.5871 51.8146 24.4326 54.5527 26.7831 56.9031C29.1335 59.2536 31.8707 61.0992 34.9198 62.3886C38.0768 63.7238 41.43 64.4012 44.8847 64.4012C48.3395 64.4012 51.6926 63.7238 54.8496 62.3886C57.898 61.0992 60.6359 59.2536 62.9864 56.9031C65.3368 54.5527 67.1823 51.8154 68.4718 48.7663C69.8069 45.6092 70.4843 42.256 70.4843 38.8012C70.4843 35.3464 69.8069 31.9931 68.4718 28.8361C67.1823 25.7877 65.3368 23.0497 62.9864 20.6992C60.6359 18.3487 57.8987 16.5032 54.8496 15.2137C51.6926 13.8786 48.3403 13.2012 44.8847 13.2012Z" fill="url(#paint0_linear_2124_30952)"/>
<path d="M57.2133 53.9844C53.8499 56.7177 49.5602 58.3561 44.8885 58.3561C34.0879 58.3561 25.332 49.6001 25.332 38.7993C25.332 28.705 32.9804 20.3964 42.798 19.3535" stroke="url(#paint1_linear_2124_30952)" stroke-width="1.96921" stroke-miterlimit="10" stroke-linecap="round"/>
<path d="M46.9727 19.3535C56.7911 20.3964 64.4394 28.705 64.4394 38.8001C64.4394 43.4404 62.8231 47.7033 60.123 51.0566" stroke="url(#paint2_linear_2124_30952)" stroke-width="1.96921" stroke-miterlimit="10" stroke-linecap="round"/>
<path d="M60.2297 40.8685C59.2199 48.4422 52.7342 54.2845 44.8842 54.2845C36.3339 54.2845 29.4023 47.3528 29.4023 38.8024C29.4023 30.252 36.3339 23.3203 44.8842 23.3203C52.731 23.3203 59.2144 29.1579 60.2282 36.7276" stroke="url(#paint3_linear_2124_30952)" stroke-width="1.96921" stroke-miterlimit="10" stroke-linecap="round"/>
<path d="M42.7956 50.0178C38.1633 49.16 34.5124 45.5035 33.6641 40.8672" stroke="url(#paint4_linear_2124_30952)" stroke-width="1.96921" stroke-miterlimit="10" stroke-linecap="round"/>
<path d="M33.668 36.7129C34.6494 31.4102 39.2983 27.3945 44.8845 27.3945C51.1851 27.3945 56.2925 32.5019 56.2925 38.8027C56.2925 44.3898 52.2761 49.0387 46.9726 50.0202" stroke="url(#paint5_linear_2124_30952)" stroke-width="1.96921" stroke-miterlimit="10" stroke-linecap="round"/>
<path d="M50.2207 44.1362C48.8557 45.5012 46.97 46.3456 44.8866 46.3456C40.7205 46.3456 37.3438 42.9688 37.3438 38.8027C37.3438 34.6366 40.7205 31.2598 44.8866 31.2598C46.9692 31.2598 48.8557 32.1042 50.2207 33.4692" stroke="url(#paint6_linear_2124_30952)" stroke-width="1.96921" stroke-miterlimit="10" stroke-linecap="round"/>
<path d="M99.603 32.0715C100.709 33.127 101.322 34.3259 101.445 35.6681H99.3556C99.1185 34.6489 98.6467 33.8407 97.9394 33.2452C97.2321 32.6497 96.2396 32.3512 94.962 32.3512C93.4039 32.3512 92.146 32.8986 91.1874 33.9935C90.2288 35.0884 89.7499 36.767 89.7499 39.0284C89.7499 40.8811 90.1823 42.3832 91.0472 43.5356C91.9121 44.688 93.2031 45.2638 94.9186 45.2638C96.4979 45.2638 97.7007 44.6573 98.5262 43.4435C98.9642 42.8046 99.291 41.9642 99.5061 40.9236H101.595C101.408 42.5896 100.791 43.9862 99.7424 45.1126C98.486 46.4698 96.7917 47.148 94.6595 47.148C92.8218 47.148 91.278 46.5919 90.0287 45.4788C88.3848 44.0074 87.5625 41.7349 87.5625 38.6622C87.5625 36.329 88.18 34.4157 89.4151 32.9222C90.7502 31.2996 92.5918 30.4883 94.9399 30.4883C96.943 30.4891 98.4971 31.016 99.603 32.0715Z" fill="url(#paint7_linear_2124_30952)"/>
<path d="M110.126 39.7504C110.571 39.6929 110.869 39.5062 111.02 39.1903C111.106 39.0178 111.149 38.7705 111.149 38.4476C111.149 37.7875 110.914 37.3078 110.443 37.01C109.973 36.7123 109.3 36.5634 108.425 36.5634C107.412 36.5634 106.694 36.8359 106.271 37.3818C106.034 37.6835 105.88 38.1325 105.808 38.728H103.999C104.035 37.3062 104.496 36.3176 105.383 35.7607C106.269 35.2046 107.297 34.9258 108.468 34.9258C109.825 34.9258 110.927 35.1841 111.774 35.7009C112.613 36.2176 113.034 37.0218 113.034 38.1128V44.7578C113.034 44.9586 113.075 45.1201 113.158 45.2422C113.24 45.3643 113.414 45.4249 113.68 45.4249C113.766 45.4249 113.863 45.4194 113.971 45.4084C114.079 45.3974 114.193 45.3816 114.316 45.3596V46.7916C114.014 46.8774 113.784 46.9318 113.626 46.9531C113.468 46.9743 113.253 46.9853 112.98 46.9853C112.313 46.9853 111.828 46.7483 111.526 46.2748C111.368 46.0236 111.257 45.6683 111.192 45.2083C110.798 45.725 110.231 46.174 109.491 46.5545C108.751 46.9349 107.937 47.1256 107.046 47.1256C105.976 47.1256 105.102 46.801 104.424 46.1512C103.746 45.5013 103.406 44.6884 103.406 43.7117C103.406 42.642 103.74 41.8126 104.407 41.2242C105.075 40.6358 105.951 40.2726 107.035 40.1364L110.126 39.7504ZM106.045 44.9956C106.455 45.3186 106.939 45.4801 107.499 45.4801C108.181 45.4801 108.841 45.3225 109.481 45.0059C110.558 44.4821 111.096 43.6243 111.096 42.4317V40.8705C110.859 41.0209 110.554 41.147 110.181 41.2478C109.808 41.3486 109.441 41.4203 109.082 41.4628L107.909 41.6133C107.205 41.707 106.677 41.8535 106.325 42.0552C105.729 42.3931 105.431 42.9311 105.431 43.6707C105.431 44.2308 105.635 44.6719 106.045 44.9956Z" fill="url(#paint8_linear_2124_30952)"/>
<path d="M116.258 35.2045H118.099V37.1965C118.25 36.809 118.62 36.3372 119.208 35.7803C119.797 35.2242 120.476 34.9453 121.244 34.9453C121.28 34.9453 121.341 34.9493 121.427 34.9563C121.512 34.9634 121.66 34.9776 121.868 34.9997V37.0461C121.753 37.0248 121.648 37.0099 121.551 37.0028C121.454 36.9957 121.348 36.9917 121.234 36.9917C120.257 36.9917 119.507 37.306 118.983 37.9338C118.459 38.5624 118.197 39.2855 118.197 40.1039V46.7379H116.259V35.2045H116.258Z" fill="url(#paint9_linear_2124_30952)"/>
<path d="M123.398 30.8633H125.283V36.6032C125.707 36.0502 126.213 35.6288 126.802 35.3382C127.39 35.0475 128.03 34.9018 128.719 34.9018C130.155 34.9018 131.32 35.3957 132.214 36.3826C133.108 37.3696 133.555 38.8253 133.555 40.7496C133.555 42.5731 133.113 44.0879 132.23 45.2946C131.347 46.5013 130.123 47.1039 128.558 47.1039C127.682 47.1039 126.942 46.892 126.34 46.4683C125.98 46.217 125.597 45.8153 125.187 45.2623V46.7376H123.399V30.8633H123.398ZM130.792 44.1414C131.312 43.3088 131.572 42.21 131.572 40.8457C131.572 39.6327 131.312 38.6276 130.792 37.8304C130.271 37.0333 129.505 36.6347 128.492 36.6347C127.609 36.6347 126.836 36.9616 126.172 37.6146C125.508 38.2676 125.175 39.3452 125.175 40.8457C125.175 41.9296 125.312 42.8094 125.585 43.4845C126.095 44.755 127.046 45.3907 128.439 45.3907C129.486 45.3907 130.271 44.9748 130.792 44.1414Z" fill="url(#paint10_linear_2124_30952)"/>
<path d="M144.239 36.3567C145.266 37.3476 145.779 38.8048 145.779 40.7292C145.779 42.5889 145.327 44.1249 144.422 45.3387C143.518 46.5518 142.114 47.1591 140.211 47.1591C138.625 47.1591 137.364 46.6227 136.431 45.5491C135.498 44.4762 135.031 43.0347 135.031 41.2254C135.031 39.2869 135.523 37.743 136.507 36.5946C137.49 35.4461 138.811 34.8711 140.469 34.8711C141.956 34.8703 143.212 35.3658 144.239 36.3567ZM143.039 44.0296C143.516 43.0568 143.755 41.9745 143.755 40.7827C143.755 39.706 143.582 38.83 143.238 38.155C142.692 37.0924 141.752 36.5615 140.417 36.5615C139.232 36.5615 138.37 37.0136 137.832 37.9187C137.294 38.8237 137.025 39.9147 137.025 41.1923C137.025 42.4203 137.294 43.4428 137.832 44.2612C138.37 45.0796 139.225 45.4892 140.395 45.4892C141.68 45.4884 142.561 45.0024 143.039 44.0296Z" fill="url(#paint11_linear_2124_30952)"/>
<path d="M148.086 35.2045H149.928V36.8413C150.473 36.1662 151.051 35.6818 151.661 35.3872C152.272 35.0926 152.95 34.9453 153.697 34.9453C155.333 34.9453 156.439 35.5164 157.013 36.6578C157.329 37.2824 157.488 38.1764 157.488 39.3391V46.7379H155.517V39.4682C155.517 38.7648 155.413 38.1977 155.205 37.7668C154.86 37.0492 154.236 36.6901 153.331 36.6901C152.872 36.6901 152.495 36.7365 152.2 36.8303C151.668 36.9886 151.202 37.3044 150.8 37.7779C150.477 38.1583 150.267 38.5514 150.17 38.957C150.073 39.3627 150.024 39.9424 150.024 40.6963V46.7379H148.086V35.2045V35.2045Z" fill="url(#paint12_linear_2124_30952)"/>
<path d="M166.718 35.5618C167.063 35.7769 167.454 36.1542 167.892 36.693V30.8672H169.754V46.7408H168.01V45.1362C167.558 45.8467 167.023 46.3603 166.405 46.6762C165.788 46.992 165.08 47.1504 164.284 47.1504C162.999 47.1504 161.886 46.61 160.946 45.5293C160.005 44.4486 159.535 43.011 159.535 41.2159C159.535 39.5357 159.964 38.0801 160.822 36.8489C161.68 35.6178 162.906 35.0018 164.5 35.0018C165.383 35.0018 166.122 35.1885 166.718 35.5618ZM162.368 44.2091C162.891 45.0417 163.732 45.4584 164.887 45.4584C165.785 45.4584 166.523 45.0724 167.101 44.3005C167.679 43.5286 167.968 42.4211 167.968 40.978C167.968 39.5208 167.67 38.4416 167.074 37.7422C166.478 37.0419 165.742 36.6922 164.866 36.6922C163.889 36.6922 163.098 37.0655 162.491 37.8123C161.885 38.559 161.582 39.6578 161.582 41.108C161.582 42.3431 161.843 43.3765 162.368 44.2091Z" fill="url(#paint13_linear_2124_30952)"/>
<path d="M173.772 43.1196C173.83 43.7655 173.991 44.2609 174.257 44.6059C174.745 45.2306 175.592 45.5425 176.798 45.5425C177.516 45.5425 178.148 45.3865 178.694 45.0738C179.24 44.7619 179.512 44.279 179.512 43.6252C179.512 43.1298 179.293 42.7533 178.855 42.4941C178.575 42.3366 178.023 42.1531 177.197 41.9451L175.657 41.5576C174.673 41.3134 173.949 41.0408 173.482 40.7391C172.649 40.2153 172.232 39.4899 172.232 38.5635C172.232 37.4726 172.625 36.5896 173.411 35.9145C174.198 35.2395 175.255 34.9023 176.583 34.9023C178.32 34.9023 179.573 35.412 180.341 36.4313C180.822 37.0772 181.055 37.7735 181.041 38.5202H179.211C179.175 38.0823 179.021 37.6837 178.748 37.3245C178.303 36.8149 177.531 36.5597 176.433 36.5597C175.7 36.5597 175.146 36.6999 174.769 36.9795C174.393 37.2591 174.204 37.6293 174.204 38.0886C174.204 38.5911 174.451 38.9928 174.947 39.2945C175.233 39.4741 175.657 39.6324 176.217 39.7687L177.499 40.0806C178.891 40.4186 179.825 40.7447 180.299 41.0605C181.053 41.556 181.43 42.335 181.43 43.3976C181.43 44.4248 181.04 45.3109 180.262 46.0576C179.483 46.8044 178.297 47.1777 176.702 47.1777C174.986 47.1777 173.771 46.7878 173.057 46.0096C172.343 45.2306 171.961 44.2672 171.91 43.118H173.772V43.1196Z" fill="url(#paint14_linear_2124_30952)"/>
<defs>
<linearGradient id="paint0_linear_2124_30952" x1="26.7834" y1="20.6995" x2="62.9873" y2="56.9028" gradientUnits="userSpaceOnUse">
<stop stop-color="#1CF1A4"/>
<stop offset="0.0493" stop-color="#1DE6A8"/>
<stop offset="0.2657" stop-color="#20BAB7"/>
<stop offset="0.4747" stop-color="#2398C3"/>
<stop offset="0.6717" stop-color="#257FCB"/>
<stop offset="0.852" stop-color="#2770D0"/>
<stop offset="1" stop-color="#276BD2"/>
</linearGradient>
<linearGradient id="paint1_linear_2124_30952" x1="27.7891" y1="26.8501" x2="56.7649" y2="55.8254" gradientUnits="userSpaceOnUse">
<stop stop-color="#1CF1A4"/>
<stop offset="0.0493" stop-color="#1DE6A8"/>
<stop offset="0.2657" stop-color="#20BAB7"/>
<stop offset="0.4747" stop-color="#2398C3"/>
<stop offset="0.6717" stop-color="#257FCB"/>
<stop offset="0.852" stop-color="#2770D0"/>
<stop offset="1" stop-color="#276BD2"/>
</linearGradient>
<linearGradient id="paint2_linear_2124_30952" x1="43.169" y1="21.7649" x2="66.988" y2="45.5835" gradientUnits="userSpaceOnUse">
<stop stop-color="#1CF1A4"/>
<stop offset="0.0493" stop-color="#1DE6A8"/>
<stop offset="0.2657" stop-color="#20BAB7"/>
<stop offset="0.4747" stop-color="#2398C3"/>
<stop offset="0.6717" stop-color="#257FCB"/>
<stop offset="0.852" stop-color="#2770D0"/>
<stop offset="1" stop-color="#276BD2"/>
</linearGradient>
<linearGradient id="paint3_linear_2124_30952" x1="33.2409" y1="27.1581" x2="56.5285" y2="50.4453" gradientUnits="userSpaceOnUse">
<stop stop-color="#1CF1A4"/>
<stop offset="0.0493" stop-color="#1DE6A8"/>
<stop offset="0.2657" stop-color="#20BAB7"/>
<stop offset="0.4747" stop-color="#2398C3"/>
<stop offset="0.6717" stop-color="#257FCB"/>
<stop offset="0.852" stop-color="#2770D0"/>
<stop offset="1" stop-color="#276BD2"/>
</linearGradient>
<linearGradient id="paint4_linear_2124_30952" x1="32.2569" y1="40.882" x2="42.7905" y2="51.4154" gradientUnits="userSpaceOnUse">
<stop stop-color="#1CF1A4"/>
<stop offset="0.0493" stop-color="#1DE6A8"/>
<stop offset="0.2657" stop-color="#20BAB7"/>
<stop offset="0.4747" stop-color="#2398C3"/>
<stop offset="0.6717" stop-color="#257FCB"/>
<stop offset="0.852" stop-color="#2770D0"/>
<stop offset="1" stop-color="#276BD2"/>
</linearGradient>
<linearGradient id="paint5_linear_2124_30952" x1="37.8732" y1="28.2882" x2="55.3989" y2="45.8136" gradientUnits="userSpaceOnUse">
<stop stop-color="#1CF1A4"/>
<stop offset="0.0493" stop-color="#1DE6A8"/>
<stop offset="0.2657" stop-color="#20BAB7"/>
<stop offset="0.4747" stop-color="#2398C3"/>
<stop offset="0.6717" stop-color="#257FCB"/>
<stop offset="0.852" stop-color="#2770D0"/>
<stop offset="1" stop-color="#276BD2"/>
</linearGradient>
<linearGradient id="paint6_linear_2124_30952" x1="38.8569" y1="32.7721" x2="50.9171" y2="44.8321" gradientUnits="userSpaceOnUse">
<stop stop-color="#1CF1A4"/>
<stop offset="0.0493" stop-color="#1DE6A8"/>
<stop offset="0.2657" stop-color="#20BAB7"/>
<stop offset="0.4747" stop-color="#2398C3"/>
<stop offset="0.6717" stop-color="#257FCB"/>
<stop offset="0.852" stop-color="#2770D0"/>
<stop offset="1" stop-color="#276BD2"/>
</linearGradient>
<linearGradient id="paint7_linear_2124_30952" x1="94.5792" y1="30.4887" x2="94.5792" y2="47.1487" gradientUnits="userSpaceOnUse">
<stop stop-color="#1CF1A4"/>
<stop offset="0.2645" stop-color="#1FD2AF"/>
<stop offset="0.841" stop-color="#2582CA"/>
<stop offset="1" stop-color="#276BD2"/>
</linearGradient>
<linearGradient id="paint8_linear_2124_30952" x1="108.861" y1="34.926" x2="108.861" y2="47.1276" gradientUnits="userSpaceOnUse">
<stop stop-color="#1CF1A4"/>
<stop offset="0.2645" stop-color="#1FD2AF"/>
<stop offset="0.841" stop-color="#2582CA"/>
<stop offset="1" stop-color="#276BD2"/>
</linearGradient>
<linearGradient id="paint9_linear_2124_30952" x1="119.063" y1="34.9458" x2="119.063" y2="46.7382" gradientUnits="userSpaceOnUse">
<stop stop-color="#1CF1A4"/>
<stop offset="0.2645" stop-color="#1FD2AF"/>
<stop offset="0.841" stop-color="#2582CA"/>
<stop offset="1" stop-color="#276BD2"/>
</linearGradient>
<linearGradient id="paint10_linear_2124_30952" x1="128.476" y1="30.8633" x2="128.476" y2="47.1033" gradientUnits="userSpaceOnUse">
<stop stop-color="#1CF1A4"/>
<stop offset="0.2645" stop-color="#1FD2AF"/>
<stop offset="0.841" stop-color="#2582CA"/>
<stop offset="1" stop-color="#276BD2"/>
</linearGradient>
<linearGradient id="paint11_linear_2124_30952" x1="140.405" y1="34.8703" x2="140.405" y2="47.158" gradientUnits="userSpaceOnUse">
<stop stop-color="#1CF1A4"/>
<stop offset="0.2645" stop-color="#1FD2AF"/>
<stop offset="0.841" stop-color="#2582CA"/>
<stop offset="1" stop-color="#276BD2"/>
</linearGradient>
<linearGradient id="paint12_linear_2124_30952" x1="152.786" y1="34.9458" x2="152.786" y2="46.7382" gradientUnits="userSpaceOnUse">
<stop stop-color="#1CF1A4"/>
<stop offset="0.2645" stop-color="#1FD2AF"/>
<stop offset="0.841" stop-color="#2582CA"/>
<stop offset="1" stop-color="#276BD2"/>
</linearGradient>
<linearGradient id="paint13_linear_2124_30952" x1="164.645" y1="30.8664" x2="164.645" y2="47.1495" gradientUnits="userSpaceOnUse">
<stop stop-color="#1CF1A4"/>
<stop offset="0.2645" stop-color="#1FD2AF"/>
<stop offset="0.841" stop-color="#2582CA"/>
<stop offset="1" stop-color="#276BD2"/>
</linearGradient>
<linearGradient id="paint14_linear_2124_30952" x1="176.669" y1="34.9023" x2="176.669" y2="47.1793" gradientUnits="userSpaceOnUse">
<stop stop-color="#1CF1A4"/>
<stop offset="0.2645" stop-color="#1FD2AF"/>
<stop offset="0.841" stop-color="#2582CA"/>
<stop offset="1" stop-color="#276BD2"/>
</linearGradient>
</defs>
</svg>
