<svg width="184" height="65" viewBox="0 0 184 65" fill="none" xmlns="http://www.w3.org/2000/svg">
<path d="M72.2973 44.6038C71.7218 44.9451 71.154 45.2089 70.594 45.3951C70.0496 45.5813 69.4196 45.6744 68.7041 45.6744C67.5064 45.6744 66.5498 45.302 65.8342 44.5572C65.1342 43.7969 64.7843 42.7186 64.7843 41.3221V36.2484H62.3344V34.4097H64.7843V31.3608H67.0708V34.4097H70.7107V36.2484H67.0708V41.3454C67.0708 42.1367 67.2497 42.7186 67.6075 43.091C67.9652 43.4633 68.4474 43.6495 69.0541 43.6495C69.4896 43.6495 69.9018 43.5875 70.2907 43.4633C70.6796 43.3237 71.084 43.1297 71.504 42.8815L72.2973 44.6038Z" fill="#DEFFB3"/>
<path d="M52.6591 45.6046C53.2968 45.6046 53.8801 45.4572 54.409 45.1624L53.8957 43.5099C53.7246 43.634 53.4835 43.6961 53.1724 43.6961C52.6435 43.6961 52.3791 43.3159 52.3791 42.5557V34.4097H48.0859V36.2484H50.0925V41.2989C48.7392 42.8039 47.4637 43.5564 46.266 43.5564C45.4571 43.5564 44.866 43.3237 44.4927 42.8582C44.135 42.3772 43.9561 41.7023 43.9561 40.8334V34.4097H39.4762V36.2484H41.6695V40.9032C41.6695 42.4703 41.9961 43.6573 42.6495 44.4641C43.3183 45.271 44.2594 45.6744 45.4727 45.6744C46.2971 45.6744 47.0826 45.4572 47.8293 45.0227C48.5759 44.5883 49.3381 43.9443 50.1158 43.091C50.1781 43.8978 50.4347 44.5184 50.8858 44.9529C51.3369 45.3873 51.928 45.6046 52.6591 45.6046Z" fill="#DEFFB3"/>
<path d="M63.0921 45.3718V43.5332H60.5956V34.4097H55.8358V36.2484H58.309V43.5332H55.8358V45.3718H63.0921Z" fill="#DEFFB3"/>
<path d="M85.1622 43.859C85.5822 43.2694 85.8389 42.5789 85.9322 41.7876L83.9723 41.2523C83.8478 41.9971 83.5367 42.6022 83.039 43.0677C82.5412 43.5177 81.9501 43.7426 81.2657 43.7426C80.6902 43.7426 80.1069 43.6107 79.5158 43.347C78.9247 43.0832 78.3025 42.6953 77.6492 42.1833C77.9914 41.8885 78.3647 41.6247 78.7692 41.3919C79.1891 41.1437 79.718 40.8644 80.3557 40.5541C81.3513 40.0886 82.1679 39.6386 82.8057 39.2042C83.459 38.7542 84.0189 38.1724 84.4856 37.4586C84.9678 36.7449 85.3256 35.8527 85.5589 34.7821L83.6223 34.0839C83.4201 35.1855 83.0468 36.0544 82.5023 36.6906C81.7557 36.0699 81.0713 35.5812 80.4491 35.2243C79.8424 34.8674 79.1425 34.5959 78.3492 34.4097C77.5559 34.208 76.607 34.1072 75.5026 34.1072H74.0093V38.7853H75.9459V36.0622C77.097 36.0622 78.0847 36.2096 78.9091 36.5044C79.7491 36.7837 80.5346 37.1949 81.2657 37.7379C81.0168 37.9086 80.5035 38.2034 79.7258 38.6223L79.2125 38.9016C78.2636 39.3981 77.4703 39.8714 76.8325 40.3213C76.1948 40.7558 75.5726 41.3532 74.966 42.1134C74.3749 42.8737 73.9004 43.828 73.5427 44.9762L75.4093 45.6977C75.7204 44.7512 76.1326 43.9288 76.6459 43.2306C77.4859 44.053 78.2869 44.6736 79.0491 45.0925C79.8269 45.4959 80.6669 45.6977 81.569 45.6977C82.269 45.6977 82.9379 45.5425 83.5756 45.2322C84.2134 44.9063 84.7423 44.4486 85.1622 43.859Z" fill="#DEFFB3"/>
<path d="M111.031 38.7853V34.1304H110.051C109.165 34.1304 108.27 34.402 107.368 34.945C106.481 35.4726 105.626 36.2096 104.801 37.1561V34.4097H100.042V36.2484H102.515V43.5332H100.042V45.3718H107.298V43.5332H104.801V38.9714C105.564 38.1491 106.302 37.5129 107.018 37.063C107.734 36.613 108.395 36.388 109.001 36.388V38.7853H111.031Z" fill="#DEFFB3"/>
<path d="M149.099 43.5332V45.3718H142.613V43.5332H144.642V38.9947C144.642 38.1413 144.425 37.4741 143.989 36.9931C143.569 36.4966 142.963 36.2484 142.169 36.2484C140.816 36.2484 139.385 37.1018 137.876 38.8085V43.5332H139.906V45.3718H133.116V43.5332H135.59V36.2484H133.116V34.4097H137.876V36.9931C138.747 36.0312 139.579 35.3174 140.373 34.8519C141.182 34.3709 142.045 34.1304 142.963 34.1304C144.223 34.1304 145.195 34.5339 145.879 35.3407C146.564 36.1475 146.906 37.3423 146.906 38.9249V43.5332H149.099Z" fill="#DEFFB3"/>
<path d="M91.1063 33.0536L90.9173 30.5473L92.0771 32.7786L91.1063 33.0536Z" fill="#DEFFB3"/>
<path d="M87.8013 31.9439L88.8753 34.2176L89.6836 33.6148L87.8013 31.9439Z" fill="#DEFFB3"/>
<path d="M93.739 32.7148L94.4027 30.2901L94.746 32.7801L93.739 32.7148Z" fill="#DEFFB3"/>
<path d="M148.165 32.5977L146.083 34.0141L146.808 34.7153L148.165 32.5977Z" fill="#DEFFB3"/>
<path d="M143.957 32.6689L145.394 30.6042L144.885 33.0657L143.957 32.6689Z" fill="#DEFFB3"/>
<path d="M150.131 35.48L147.694 36.119L148.141 37.0216L150.131 35.48Z" fill="#DEFFB3"/>
<path d="M58.3367 30.8968L56.8047 31.2091L58.3367 31.5214L58.6498 33.0496L58.963 31.5214L60.495 31.2091L58.963 30.8968L58.6498 29.3686L58.3367 30.8968Z" fill="#DEFFB3"/>
<path fill-rule="evenodd" clip-rule="evenodd" d="M93.2978 45.6977C95.211 45.6977 96.9143 45.046 98.4076 43.7426L97.4276 42.2531C96.2454 43.2461 94.8611 43.7426 93.2745 43.7426C92.5745 43.7426 91.9289 43.5952 91.3379 43.3004C90.7468 43.0056 90.2723 42.5789 89.9146 42.0203C89.5724 41.4618 89.4013 40.8179 89.4013 40.0886V39.8791C90.1012 40.1895 90.7934 40.43 91.4779 40.6006C92.1623 40.7558 92.9011 40.8334 93.6944 40.8334C94.9233 40.8334 95.9732 40.5541 96.8443 39.9955C97.731 39.4214 98.1743 38.6223 98.1743 37.5983C98.1743 36.9156 97.9643 36.3104 97.5443 35.7829C97.1399 35.2553 96.5721 34.8442 95.841 34.5494C95.1255 34.2546 94.3089 34.1072 93.3911 34.1072C92.3489 34.1072 91.3534 34.3554 90.4046 34.8519C89.4557 35.3329 88.6857 36.0312 88.0947 36.9466C87.5036 37.862 87.208 38.9327 87.208 40.1584C87.208 41.3066 87.4958 42.2996 88.0713 43.1375C88.6469 43.9754 89.4013 44.6115 90.3346 45.046C91.2679 45.4804 92.2556 45.6977 93.2978 45.6977ZM93.5544 35.9225C92.7145 35.9225 91.9289 36.163 91.1979 36.644C90.4823 37.125 89.969 37.7767 89.6579 38.5991C90.8401 39.018 92.0223 39.2275 93.2045 39.2275C93.9822 39.2275 94.62 39.0878 95.1177 38.8085C95.631 38.5137 95.8877 38.1103 95.8877 37.5983C95.8877 37.1018 95.6699 36.6983 95.2344 36.388C94.7988 36.0777 94.2389 35.9225 93.5544 35.9225Z" fill="#DEFFB3"/>
<path fill-rule="evenodd" clip-rule="evenodd" d="M131.678 45.0925C131.165 45.4029 130.566 45.558 129.881 45.558C129.306 45.558 128.816 45.3951 128.411 45.0693C128.022 44.7279 127.75 44.2469 127.595 43.6263C126.039 45.0072 124.499 45.6977 122.975 45.6977C121.902 45.6977 120.992 45.3951 120.245 44.79C119.498 44.1848 119.125 43.3392 119.125 42.2531C119.125 41.5083 119.335 40.8644 119.755 40.3213C120.175 39.7628 120.735 39.3438 121.435 39.0645C122.15 38.7697 122.92 38.6223 123.745 38.6223C124.445 38.6223 125.09 38.6922 125.681 38.8318C126.273 38.9559 126.879 39.1421 127.501 39.3904V38.3663C127.501 37.575 127.237 36.9931 126.708 36.6208C126.179 36.2484 125.487 36.0622 124.631 36.0622C123.418 36.0622 121.956 36.3958 120.245 37.063L119.778 35.2941C121.614 34.5183 123.325 34.1304 124.911 34.1304C126.42 34.1304 127.587 34.5028 128.411 35.2476C129.251 35.9768 129.671 37.0475 129.671 38.4594V42.4858C129.671 43.2461 129.943 43.6263 130.488 43.6263C130.721 43.6263 130.962 43.5642 131.211 43.4401L131.678 45.0925ZM122.018 43.3702C121.598 43.0754 121.388 42.6643 121.388 42.1367C121.388 41.5471 121.653 41.0971 122.182 40.7868C122.726 40.461 123.379 40.2981 124.141 40.2981C125.324 40.3291 126.444 40.5308 127.501 40.9032V42.1367C126.77 42.6798 126.063 43.091 125.378 43.3702C124.694 43.6495 124.087 43.7892 123.558 43.7892C122.952 43.7892 122.438 43.6495 122.018 43.3702Z" fill="#DEFFB3"/>
<path fill-rule="evenodd" clip-rule="evenodd" d="M163.875 45.1624C163.657 45.2865 163.393 45.3873 163.082 45.4649C162.771 45.558 162.444 45.6046 162.102 45.6046C161.526 45.6046 161.028 45.4572 160.608 45.1624C160.188 44.852 159.901 44.4098 159.745 43.8357C159.123 44.3943 158.462 44.8443 157.762 45.1856C157.077 45.527 156.315 45.6977 155.475 45.6977C154.526 45.6977 153.64 45.4572 152.815 44.9762C152.007 44.4952 151.361 43.828 150.879 42.9746C150.397 42.1057 150.156 41.1282 150.156 40.0421C150.156 38.9094 150.404 37.8931 150.902 36.9931C151.415 36.0777 152.108 35.3717 152.979 34.8752C153.85 34.3632 154.814 34.1072 155.872 34.1072C157.225 34.1072 158.47 34.6037 159.605 35.5967V31.2444H157.132V29.4058H161.845V42.5557C161.845 43.3004 162.102 43.6728 162.615 43.6728C162.957 43.6728 163.214 43.6107 163.385 43.4866L163.875 45.1624ZM153.469 42.7186C152.847 42.0359 152.535 41.1359 152.535 40.0188C152.535 39.2585 152.699 38.5758 153.025 37.9707C153.352 37.3655 153.811 36.8923 154.402 36.5509C154.993 36.2096 155.654 36.0389 156.385 36.0389C157.443 36.0389 158.516 36.4734 159.605 37.3423V42.16C158.33 43.2151 157.109 43.7426 155.942 43.7426C154.931 43.7426 154.106 43.4013 153.469 42.7186ZM155.495 39.6245L153.963 39.9369L155.495 40.2492L155.808 41.7774L156.121 40.2492L157.653 39.9369L156.121 39.6245L155.808 38.0964L155.495 39.6245Z" fill="#DEFFB3"/>
<path d="M33.9958 29.8865L32.4638 30.1989L33.9958 30.5112L34.3089 32.0394L34.622 30.5112L36.154 30.1989L34.622 29.8865L34.3089 28.3584L33.9958 29.8865Z" fill="#DEFFB3"/>
<path fill-rule="evenodd" clip-rule="evenodd" d="M40.5135 26.1787V25.0877L20.3131 25.0877V26.1787C20.3131 29.3224 22.868 31.8708 26.0196 31.8708C28.7971 31.8708 31.1112 29.8914 31.6214 27.2697L38.2234 27.2696C38.2152 27.324 38.2064 27.3799 38.1968 27.4372C38.0646 28.2285 37.8022 29.2668 37.2883 30.292C36.7766 31.3128 36.0262 32.3005 34.9211 33.0354C33.8228 33.7658 32.3092 34.2901 30.1942 34.2901C27.6965 34.2901 25.7504 34.9161 24.254 35.9112C22.7645 36.9017 21.7851 38.2146 21.1437 39.4943C20.5043 40.7698 20.1901 42.032 20.034 42.9662C19.9556 43.4359 19.9159 43.8296 19.8958 44.1103C19.8863 44.2429 19.8786 44.4751 19.8755 44.5683L19.875 44.5834V45.6744L40.0852 45.6744V44.5834C40.0852 41.4397 37.5303 38.8913 34.3787 38.8913C31.6012 38.8913 29.2872 40.8706 28.777 43.4924L22.165 43.4924C22.1732 43.4381 22.1821 43.3822 22.1917 43.3249C22.3239 42.5336 22.5863 41.4953 23.1001 40.4701C23.6119 39.4492 24.3623 38.4616 25.4674 37.7267C26.5657 36.9963 28.0792 36.472 30.1942 36.472C32.692 36.472 34.638 35.846 36.1344 34.8509C37.624 33.8604 38.6033 32.5475 39.2448 31.2678C39.8841 29.9923 40.1984 28.7301 40.3544 27.7959C40.4304 27.3411 40.4895 26.514 40.5114 26.2071L40.5135 26.1787ZM31.033 43.4924H37.7245C37.2645 42.0879 35.9404 41.0732 34.3787 41.0732C32.817 41.0732 31.4929 42.0879 31.033 43.4924ZM26.0196 29.6889C24.4579 29.6889 23.1338 28.6742 22.6738 27.2697L29.3654 27.2697C28.9054 28.6742 27.5813 29.6889 26.0196 29.6889Z" fill="#DEFFB3"/>
<path d="M28.8105 40.5997L27.5488 39.1269L29.2887 39.9878L28.8105 40.5997Z" fill="#DEFFB3"/>
<path d="M26.2492 41.4108L27.955 42.3369L28.1825 41.595L26.2492 41.4108Z" fill="#DEFFB3"/>
<path d="M30.2937 39.1933L29.5996 37.384L30.9498 38.7766L30.2937 39.1933Z" fill="#DEFFB3"/>
<path fill-rule="evenodd" clip-rule="evenodd" d="M117.652 43.5332V45.3718H110.372V43.5332H112.822V31.2444H110.372V29.4058H113.082V22.1225L121.249 22.1225C122.011 22.1225 122.392 21.8587 122.392 21.3312C122.392 21.0209 122.33 20.7804 122.205 20.6097L123.862 20.0977C124.158 20.6252 124.305 21.2071 124.305 21.8432L124.302 29.28C124.271 29.9343 124.055 30.4694 123.652 30.8852C123.217 31.3351 122.594 31.5912 121.785 31.6532L119.989 31.6765H115.109V43.5332H117.652ZM122.392 27.889V28.6043C122.392 29.1319 122.011 29.3956 121.249 29.3956H114.926V24.4033H119.989L121.785 24.3801C122.001 24.3635 122.203 24.3332 122.392 24.2892V27.889Z" fill="#DEFFB3"/>
<path d="M118.491 26.5329L116.959 26.8452L118.491 27.1576L118.804 28.6857L119.117 27.1576L120.649 26.8452L119.117 26.5329L118.804 25.0047L118.491 26.5329Z" fill="#DEFFB3"/>
<path d="M124.305 21.8432C124.305 21.2071 124.158 20.6252 123.862 20.0977L122.205 20.6097C122.33 20.7804 122.392 21.0209 122.392 21.3312C122.392 21.8587 122.011 22.1225 121.249 22.1225L113.082 22.1225V29.4058H110.372V31.2444H112.822V43.5332H110.372V45.3718H117.652V43.5332H115.109V31.6765H119.989L121.785 31.6532C122.594 31.5912 123.217 31.3351 123.652 30.8852C124.055 30.4694 124.271 29.9343 124.302 29.28L124.305 21.8432ZM124.305 21.8432C124.305 22.5725 124.088 23.1621 123.652 23.612C123.333 23.9421 122.913 24.1679 122.392 24.2892M122.392 24.2892C122.203 24.3332 122.001 24.3635 121.785 24.3801L119.989 24.4033H114.926V29.3956H121.249C122.011 29.3956 122.392 29.1319 122.392 28.6043V27.889V24.2892ZM70.594 45.3951C71.154 45.2089 71.7218 44.9451 72.2973 44.6038L71.504 42.8815C71.084 43.1297 70.6796 43.3237 70.2907 43.4633C69.9018 43.5875 69.4896 43.6495 69.0541 43.6495C68.4474 43.6495 67.9652 43.4633 67.6075 43.091C67.2497 42.7186 67.0708 42.1367 67.0708 41.3454V36.2484H70.7107V34.4097H67.0708V31.3608H64.7843V34.4097H62.3344V36.2484H64.7843V41.3221C64.7843 42.7186 65.1342 43.7969 65.8342 44.5572C66.5498 45.302 67.5064 45.6744 68.7041 45.6744C69.4196 45.6744 70.0496 45.5813 70.594 45.3951ZM54.409 45.1624C53.8801 45.4572 53.2968 45.6046 52.6591 45.6046C51.928 45.6046 51.3369 45.3873 50.8858 44.9529C50.4347 44.5184 50.1781 43.8978 50.1158 43.091C49.3381 43.9443 48.5759 44.5883 47.8293 45.0227C47.0826 45.4572 46.2971 45.6744 45.4727 45.6744C44.2594 45.6744 43.3183 45.271 42.6495 44.4641C41.9961 43.6573 41.6695 42.4703 41.6695 40.9032V36.2484H39.4762V34.4097H43.9561V40.8334C43.9561 41.7023 44.135 42.3772 44.4927 42.8582C44.866 43.3237 45.4571 43.5564 46.266 43.5564C47.4637 43.5564 48.7392 42.8039 50.0925 41.2989V36.2484H48.0859V34.4097H52.3791V42.5557C52.3791 43.3159 52.6435 43.6961 53.1724 43.6961C53.4835 43.6961 53.7246 43.634 53.8957 43.5099L54.409 45.1624ZM63.0921 43.5332V45.3718H55.8358V43.5332H58.309V36.2484H55.8358V34.4097H60.5956V43.5332H63.0921ZM85.9322 41.7876C85.8389 42.5789 85.5822 43.2694 85.1622 43.859C84.7423 44.4486 84.2134 44.9063 83.5756 45.2322C82.9379 45.5425 82.269 45.6977 81.569 45.6977C80.6669 45.6977 79.8269 45.4959 79.0491 45.0925C78.2869 44.6736 77.4859 44.053 76.6459 43.2306C76.1326 43.9288 75.7204 44.7512 75.4093 45.6977L73.5427 44.9762C73.9004 43.828 74.3749 42.8737 74.966 42.1134C75.5726 41.3532 76.1948 40.7558 76.8325 40.3213C77.4703 39.8714 78.2636 39.3981 79.2125 38.9016L79.7258 38.6223C80.5035 38.2034 81.0168 37.9086 81.2657 37.7379C80.5346 37.1949 79.7491 36.7837 78.9091 36.5044C78.0847 36.2096 77.097 36.0622 75.9459 36.0622V38.7853H74.0093V34.1072H75.5026C76.607 34.1072 77.5559 34.208 78.3492 34.4097C79.1425 34.5959 79.8424 34.8674 80.4491 35.2243C81.0713 35.5812 81.7557 36.0699 82.5023 36.6906C83.0468 36.0544 83.4201 35.1855 83.6223 34.0839L85.5589 34.7821C85.3256 35.8527 84.9678 36.7449 84.4856 37.4586C84.0189 38.1724 83.459 38.7542 82.8057 39.2042C82.1679 39.6386 81.3513 40.0886 80.3557 40.5541C79.718 40.8644 79.1891 41.1437 78.7692 41.3919C78.3647 41.6247 77.9914 41.8885 77.6492 42.1833C78.3025 42.6953 78.9247 43.0832 79.5158 43.347C80.1069 43.6107 80.6902 43.7426 81.2657 43.7426C81.9501 43.7426 82.5412 43.5177 83.039 43.0677C83.5367 42.6022 83.8478 41.9971 83.9723 41.2523L85.9322 41.7876ZM93.2978 45.6977C95.211 45.6977 96.9143 45.046 98.4076 43.7426L97.4276 42.2531C96.2454 43.2461 94.8611 43.7426 93.2745 43.7426C92.5745 43.7426 91.9289 43.5952 91.3379 43.3004C90.7468 43.0056 90.2723 42.5789 89.9146 42.0203C89.5724 41.4618 89.4013 40.8179 89.4013 40.0886V39.8791C90.1012 40.1895 90.7934 40.43 91.4779 40.6006C92.1623 40.7558 92.9011 40.8334 93.6944 40.8334C94.9233 40.8334 95.9732 40.5541 96.8443 39.9955C97.731 39.4214 98.1743 38.6223 98.1743 37.5983C98.1743 36.9156 97.9643 36.3104 97.5443 35.7829C97.1399 35.2553 96.5721 34.8442 95.841 34.5494C95.1255 34.2546 94.3089 34.1072 93.3911 34.1072C92.3489 34.1072 91.3534 34.3554 90.4046 34.8519C89.4557 35.3329 88.6857 36.0312 88.0947 36.9466C87.5036 37.862 87.208 38.9327 87.208 40.1584C87.208 41.3066 87.4958 42.2996 88.0713 43.1375C88.6469 43.9754 89.4013 44.6115 90.3346 45.046C91.2679 45.4804 92.2556 45.6977 93.2978 45.6977ZM91.1979 36.644C91.9289 36.163 92.7145 35.9225 93.5544 35.9225C94.2389 35.9225 94.7988 36.0777 95.2344 36.388C95.6699 36.6983 95.8877 37.1018 95.8877 37.5983C95.8877 38.1103 95.631 38.5137 95.1177 38.8085C94.62 39.0878 93.9822 39.2275 93.2045 39.2275C92.0223 39.2275 90.8401 39.018 89.6579 38.5991C89.969 37.7767 90.4823 37.125 91.1979 36.644ZM111.031 34.1304V38.7853H109.001V36.388C108.395 36.388 107.734 36.613 107.018 37.063C106.302 37.5129 105.564 38.1491 104.801 38.9714V43.5332H107.298V45.3718H100.042V43.5332H102.515V36.2484H100.042V34.4097H104.801V37.1561C105.626 36.2096 106.481 35.4726 107.368 34.945C108.27 34.402 109.165 34.1304 110.051 34.1304H111.031ZM131.678 45.0925C131.165 45.4029 130.566 45.558 129.881 45.558C129.306 45.558 128.816 45.3951 128.411 45.0693C128.022 44.7279 127.75 44.2469 127.595 43.6263C126.039 45.0072 124.499 45.6977 122.975 45.6977C121.902 45.6977 120.992 45.3951 120.245 44.79C119.498 44.1848 119.125 43.3392 119.125 42.2531C119.125 41.5083 119.335 40.8644 119.755 40.3213C120.175 39.7628 120.735 39.3438 121.435 39.0645C122.15 38.7697 122.92 38.6223 123.745 38.6223C124.445 38.6223 125.09 38.6922 125.681 38.8318C126.273 38.9559 126.879 39.1421 127.501 39.3904V38.3663C127.501 37.575 127.237 36.9931 126.708 36.6208C126.179 36.2484 125.487 36.0622 124.631 36.0622C123.418 36.0622 121.956 36.3958 120.245 37.063L119.778 35.2941C121.614 34.5183 123.325 34.1304 124.911 34.1304C126.42 34.1304 127.587 34.5028 128.411 35.2476C129.251 35.9768 129.671 37.0475 129.671 38.4594V42.4858C129.671 43.2461 129.943 43.6263 130.488 43.6263C130.721 43.6263 130.962 43.5642 131.211 43.4401L131.678 45.0925ZM121.388 42.1367C121.388 42.6643 121.598 43.0754 122.018 43.3702C122.438 43.6495 122.952 43.7892 123.558 43.7892C124.087 43.7892 124.694 43.6495 125.378 43.3702C126.063 43.091 126.77 42.6798 127.501 42.1367V40.9032C126.444 40.5308 125.324 40.3291 124.141 40.2981C123.379 40.2981 122.726 40.461 122.182 40.7868C121.653 41.0971 121.388 41.5471 121.388 42.1367ZM149.099 45.3718V43.5332H146.906V38.9249C146.906 37.3423 146.564 36.1475 145.879 35.3407C145.195 34.5339 144.223 34.1304 142.963 34.1304C142.045 34.1304 141.182 34.3709 140.373 34.8519C139.579 35.3174 138.747 36.0312 137.876 36.9931V34.4097H133.116V36.2484H135.59V43.5332H133.116V45.3718H139.906V43.5332H137.876V38.8085C139.385 37.1018 140.816 36.2484 142.169 36.2484C142.963 36.2484 143.569 36.4966 143.989 36.9931C144.425 37.4741 144.642 38.1413 144.642 38.9947V43.5332H142.613V45.3718H149.099ZM163.875 45.1624C163.657 45.2865 163.393 45.3873 163.082 45.4649C162.771 45.558 162.444 45.6046 162.102 45.6046C161.526 45.6046 161.028 45.4572 160.608 45.1624C160.188 44.852 159.901 44.4098 159.745 43.8357C159.123 44.3943 158.462 44.8443 157.762 45.1856C157.077 45.527 156.315 45.6977 155.475 45.6977C154.526 45.6977 153.64 45.4572 152.815 44.9762C152.007 44.4952 151.361 43.828 150.879 42.9746C150.397 42.1057 150.156 41.1282 150.156 40.0421C150.156 38.9094 150.404 37.8931 150.902 36.9931C151.415 36.0777 152.108 35.3717 152.979 34.8752C153.85 34.3632 154.814 34.1072 155.872 34.1072C157.225 34.1072 158.47 34.6037 159.605 35.5967V31.2444H157.132V29.4058H161.845V42.5557C161.845 43.3004 162.102 43.6728 162.615 43.6728C162.957 43.6728 163.214 43.6107 163.385 43.4866L163.875 45.1624ZM152.535 40.0188C152.535 41.1359 152.847 42.0359 153.469 42.7186C154.106 43.4013 154.931 43.7426 155.942 43.7426C157.109 43.7426 158.33 43.2151 159.605 42.16V37.3423C158.516 36.4734 157.443 36.0389 156.385 36.0389C155.654 36.0389 154.993 36.2096 154.402 36.5509C153.811 36.8923 153.352 37.3655 153.025 37.9707C152.699 38.5758 152.535 39.2585 152.535 40.0188ZM90.9173 30.5473L91.1063 33.0536L92.0771 32.7786L90.9173 30.5473ZM88.8753 34.2176L87.8013 31.9439L89.6836 33.6148L88.8753 34.2176ZM94.4027 30.2901L93.739 32.7148L94.746 32.7801L94.4027 30.2901ZM146.083 34.0141L148.165 32.5977L146.808 34.7153L146.083 34.0141ZM145.394 30.6042L143.957 32.6689L144.885 33.0657L145.394 30.6042ZM147.694 36.119L150.131 35.48L148.141 37.0216L147.694 36.119ZM155.495 39.6245L153.963 39.9369L155.495 40.2492L155.808 41.7774L156.121 40.2492L157.653 39.9369L156.121 39.6245L155.808 38.0964L155.495 39.6245ZM56.8047 31.2091L58.3367 30.8968L58.6498 29.3686L58.963 30.8968L60.495 31.2091L58.963 31.5214L58.6498 33.0496L58.3367 31.5214L56.8047 31.2091ZM118.491 26.5329L116.959 26.8452L118.491 27.1576L118.804 28.6857L119.117 27.1576L120.649 26.8452L119.117 26.5329L118.804 25.0047L118.491 26.5329ZM32.4638 30.1989L33.9958 29.8865L34.3089 28.3584L34.622 29.8865L36.154 30.1989L34.622 30.5112L34.3089 32.0394L33.9958 30.5112L32.4638 30.1989ZM40.5135 25.0877V26.1787L40.5114 26.2071C40.4895 26.514 40.4304 27.3411 40.3544 27.7959C40.1984 28.7301 39.8841 29.9923 39.2448 31.2678C38.6033 32.5475 37.624 33.8604 36.1344 34.8509C34.638 35.846 32.692 36.472 30.1942 36.472C28.0792 36.472 26.5657 36.9963 25.4674 37.7267C24.3623 38.4616 23.6119 39.4492 23.1001 40.4701C22.5863 41.4953 22.3239 42.5336 22.1917 43.3249C22.1821 43.3822 22.1732 43.4381 22.165 43.4924L28.777 43.4924C29.2872 40.8706 31.6012 38.8913 34.3787 38.8913C37.5303 38.8913 40.0852 41.4397 40.0852 44.5834V45.6744L19.875 45.6744V44.5834L19.8755 44.5683C19.8786 44.4751 19.8863 44.2429 19.8958 44.1103C19.9159 43.8296 19.9556 43.4359 20.034 42.9662C20.1901 42.032 20.5043 40.7698 21.1437 39.4943C21.7851 38.2146 22.7645 36.9017 24.254 35.9112C25.7504 34.9161 27.6965 34.2901 30.1942 34.2901C32.3092 34.2901 33.8228 33.7658 34.9211 33.0354C36.0262 32.3005 36.7766 31.3128 37.2883 30.292C37.8022 29.2668 38.0646 28.2285 38.1968 27.4372C38.2064 27.3799 38.2152 27.324 38.2234 27.2696L31.6214 27.2697C31.1112 29.8914 28.7971 31.8708 26.0196 31.8708C22.868 31.8708 20.3131 29.3224 20.3131 26.1787V25.0877L40.5135 25.0877ZM29.3654 27.2697L22.6738 27.2697C23.1338 28.6742 24.4579 29.6889 26.0196 29.6889C27.5813 29.6889 28.9054 28.6742 29.3654 27.2697ZM31.033 43.4924H37.7245C37.2645 42.0879 35.9404 41.0732 34.3787 41.0732C32.817 41.0732 31.4929 42.0879 31.033 43.4924ZM27.5488 39.1269L28.8105 40.5997L29.2887 39.9878L27.5488 39.1269ZM27.955 42.3369L26.2492 41.4108L28.1825 41.595L27.955 42.3369ZM29.5996 37.384L30.2937 39.1933L30.9498 38.7766L29.5996 37.384Z" stroke="url(#paint0_linear_2124_32655)" stroke-width="0.8"/>
<defs>
<linearGradient id="paint0_linear_2124_32655" x1="91.875" y1="20.0977" x2="91.875" y2="45.6977" gradientUnits="userSpaceOnUse">
<stop stop-color="#0C1335"/>
<stop offset="1" stop-color="#232AE1"/>
</linearGradient>
</defs>
</svg>
