<svg width="180" height="58" viewBox="0 0 180 58" fill="none" xmlns="http://www.w3.org/2000/svg">
<path d="M52.3945 44.2168H45.2623L43.0878 41.8581L40.3797 38.8572L32.8984 30.5271L36.9169 27.0793L44.2144 35.2218L46.9975 38.2941L52.3945 44.2168Z" fill="#F5F7EF"/>
<path d="M54.8594 35.9858V24.9051H60.4173V36.0212C60.4173 38.2163 61.7274 39.7027 63.9576 39.7027C66.1881 39.7027 67.4979 38.2163 67.4979 36.0212V24.9051H73.0558V35.9858C73.0558 41.6502 69.5865 44.8008 63.9576 44.8008C58.3994 44.8008 54.8594 41.6148 54.8594 35.9858Z" fill="#F5F7EF"/>
<path d="M81.8704 32.5167H91.0043C90.5087 30.3219 88.8802 28.906 86.5436 28.906C84.2781 28.906 82.5078 30.2512 81.8704 32.5167ZM96.1728 36.4821H81.9061C82.5078 38.6062 84.1716 40.1283 87.1807 40.1283C89.2694 40.1283 91.6767 39.314 93.2345 38.2522L95.4293 42.0401C93.5532 43.456 90.5438 44.7305 86.9331 44.7305C79.6756 44.7305 76.3125 39.8453 76.3125 34.5703C76.3125 28.7999 80.3837 24.4099 86.5436 24.4099C92.1015 24.4099 96.3497 27.9853 96.3497 34.1452C96.3497 34.9241 96.2789 35.7033 96.1728 36.4821" fill="#F5F7EF"/>
<path d="M99.7812 24.9045H105.092V27.418C106.366 25.3291 108.207 24.3736 110.366 24.3736C111.074 24.3736 111.959 24.5505 112.774 24.8335L112.313 30.1441C111.499 29.8605 110.649 29.719 109.871 29.719C107.322 29.719 105.339 31.2413 105.339 35.4544V44.3047H99.7812V24.9045Z" fill="#F5F7EF"/>
<path d="M130.192 43.2074C128.635 44.1988 126.334 44.8008 124.245 44.8008C119.714 44.8008 117.306 42.1809 117.306 36.977V29.507H114.227V24.9048H117.342V18.0367H122.865V24.9048H129.095V29.507H122.865V36.446C122.865 38.6759 123.714 39.7384 125.449 39.7384C126.688 39.7384 127.679 39.2779 128.635 38.7824L130.192 43.2074Z" fill="#F5F7EF"/>
<path d="M132.703 44.3047H138.261V24.9045H132.703V44.3047Z" fill="#F5F7EF"/>
<path d="M135.475 22.9336C137.313 22.9336 138.762 21.5551 138.762 19.6464C138.762 17.7732 137.313 16.3593 135.475 16.3593C133.601 16.3593 132.152 17.7732 132.152 19.6464C132.152 21.5551 133.601 22.9336 135.475 22.9336Z" fill="#F5F7EF"/>
<path d="M49.3693 35.2173L44.8828 30.241C45.3688 27.4631 44.6546 24.5358 42.8414 22.2925C39.4168 18.0566 33.1844 17.3949 28.9447 20.8195C24.7088 24.2478 24.0471 30.4803 27.4717 34.72C29.4119 37.1204 32.2983 38.4551 35.3903 38.3841C36.9979 38.3504 38.3326 39.6252 38.37 41.2328C38.4037 42.8219 37.1623 44.1415 35.5846 44.2126H35.5211C30.6083 44.3248 26.0247 42.1975 22.9403 38.3841C17.4931 31.6468 18.5434 21.7355 25.2806 16.288C32.0179 10.8406 41.9292 11.8914 47.3766 18.6284C51.1451 23.2869 51.9228 29.7962 49.3693 35.2173" fill="#F5F7EF"/>
<path d="M155.581 31.582L152.527 26.8827L153.884 24.9031H160.115L155.581 31.582Z" fill="#F5F7EF"/>
<path d="M160.289 44.3066H153.885L150.496 39.0775L146.946 44.3066H140.602L147.423 34.3405L141.315 24.9042H147.649L150.691 29.5699L150.707 29.5472L153.764 34.2541L153.753 34.2729L160.289 44.3066Z" fill="#F5F7EF"/>
</svg>
