<svg width="179" height="59" viewBox="0 0 179 59" fill="none" xmlns="http://www.w3.org/2000/svg">
<path d="M67.2045 44.1074C65.7006 44.1074 64.3713 43.8391 63.2165 43.3026C62.0618 42.7392 61.1621 41.9747 60.5176 41.009C59.873 40.0432 59.5508 38.9299 59.5508 37.6691C59.5508 35.6572 60.3027 34.1012 61.8066 33.0014C63.3374 31.8747 65.4321 31.3113 68.0908 31.3113C69.9169 31.3113 71.6357 31.593 73.247 32.1564V30.6273C73.247 29.4201 72.871 28.508 72.1191 27.891C71.3671 27.274 70.266 26.9655 68.8159 26.9655C67.9296 26.9655 66.9763 27.1131 65.9558 27.4081C64.9353 27.6764 63.7536 28.1056 62.4109 28.6958L60.3967 24.6316C62.0618 23.8805 63.6462 23.3172 65.1501 22.9416C66.6809 22.566 68.2116 22.3783 69.7424 22.3783C72.5622 22.3783 74.7509 23.0623 76.3085 24.4304C77.893 25.7717 78.6852 27.6764 78.6852 30.1444V43.7452H73.247V42.2564C72.3876 42.9002 71.4611 43.3696 70.4675 43.6647C69.4738 43.9598 68.3862 44.1074 67.2045 44.1074ZM64.7876 37.5484C64.7876 38.3532 65.1367 38.997 65.8349 39.4799C66.5332 39.9359 67.4597 40.1639 68.6144 40.1639C69.5275 40.1639 70.3735 40.0566 71.1523 39.842C71.9311 39.6006 72.6293 39.2518 73.247 38.7958V35.7376C72.5756 35.4694 71.8774 35.2682 71.1523 35.134C70.4272 34.9999 69.6484 34.9329 68.8159 34.9329C67.5537 34.9329 66.56 35.1743 65.8349 35.6572C65.1367 36.1132 64.7876 36.7436 64.7876 37.5484Z" fill="#F5F7EF"/>
<path d="M82.862 43.7452V15.5778L88.3808 14.6523V43.7452H82.862Z" fill="#F5F7EF"/>
<path d="M92.6967 43.7452V15.5778L98.2155 14.6523V24.4707C99.8805 23.1562 101.841 22.499 104.097 22.499C106.084 22.499 107.883 22.9818 109.495 23.9476C111.106 24.9133 112.382 26.2144 113.322 27.8508C114.288 29.4603 114.772 31.2711 114.772 33.283C114.772 35.295 114.288 37.1192 113.322 38.7556C112.355 40.3651 111.052 41.6528 109.414 42.6185C107.776 43.5574 105.95 44.0269 103.936 44.0269C102.888 44.0269 101.868 43.8793 100.874 43.5843C99.8805 43.2892 98.9674 42.86 98.1349 42.2966V43.7452H92.6967ZM103.211 39.3592C104.365 39.3592 105.399 39.0909 106.312 38.5544C107.252 38.0178 107.991 37.2935 108.528 36.3815C109.065 35.4694 109.334 34.4366 109.334 33.283C109.334 32.1295 109.065 31.0967 108.528 30.1846C107.991 29.2457 107.252 28.5214 106.312 28.0117C105.399 27.4752 104.365 27.2069 103.211 27.2069C102.19 27.2069 101.25 27.3813 100.391 27.7301C99.5583 28.052 98.8332 28.5482 98.2155 29.2189V37.3874C98.8063 38.0044 99.5314 38.4873 100.391 38.836C101.277 39.1848 102.217 39.3592 103.211 39.3592Z" fill="#F5F7EF"/>
<path d="M126.247 44.1476C124.635 44.1476 123.199 43.7989 121.936 43.1014C120.701 42.3771 119.721 41.3845 118.996 40.1237C118.298 38.8629 117.948 37.4143 117.948 35.7779V22.7806H123.467V34.9731C123.467 36.3144 123.857 37.3874 124.635 38.1922C125.441 38.997 126.515 39.3994 127.858 39.3994C128.771 39.3994 129.59 39.225 130.315 38.8763C131.067 38.5007 131.685 37.9776 132.168 37.307V22.7806H137.687V43.7452H132.168V42.0552C130.557 43.4501 128.583 44.1476 126.247 44.1476Z" fill="#F5F7EF"/>
<path d="M149.843 44.1476C147.91 44.1476 146.124 43.9062 144.486 43.4233C142.848 42.9136 141.424 42.1893 140.216 41.2504L142.955 37.5886C144.164 38.3934 145.318 38.997 146.419 39.3994C147.547 39.8018 148.662 40.003 149.763 40.003C150.998 40.003 151.978 39.8018 152.704 39.3994C153.455 38.9702 153.831 38.4202 153.831 37.7496C153.831 37.2131 153.617 36.7838 153.187 36.4619C152.784 36.14 152.126 35.912 151.213 35.7779L147.185 35.1743C145.09 34.8524 143.506 34.1817 142.431 33.1623C141.357 32.1161 140.82 30.748 140.82 29.0579C140.82 27.6898 141.169 26.5229 141.867 25.5571C142.593 24.5646 143.6 23.8 144.889 23.2635C146.205 22.7002 147.762 22.4185 149.561 22.4185C151.092 22.4185 152.583 22.6331 154.033 23.0623C155.51 23.4915 156.893 24.1488 158.182 25.034L155.523 28.6153C154.369 27.891 153.267 27.3679 152.22 27.046C151.173 26.7241 150.112 26.5631 149.038 26.5631C148.044 26.5631 147.238 26.7509 146.621 27.1265C146.03 27.502 145.735 27.9983 145.735 28.6153C145.735 29.1787 145.949 29.6213 146.379 29.9432C146.809 30.2651 147.547 30.4931 148.595 30.6273L152.583 31.2309C154.677 31.5259 156.275 32.1966 157.376 33.2428C158.477 34.2622 159.028 35.5901 159.028 37.2265C159.028 38.5678 158.625 39.7615 157.819 40.8078C157.014 41.8272 155.926 42.6453 154.557 43.2623C153.187 43.8525 151.616 44.1476 149.843 44.1476Z" fill="#F5F7EF"/>
<g filter="url(#filter0_ii_2124_32525)">
<path d="M19.2031 36.4962L19.2031 22.305C19.2031 17.3874 23.1897 13.4008 28.1074 13.4008L35.2029 13.4008L51.2028 29.4006L51.2028 36.4962C51.2028 41.4138 47.2162 45.4004 42.2985 45.4004L35.2029 45.4004L28.1074 45.4004C23.1897 45.4004 19.2031 41.4138 19.2031 36.4962Z" fill="#3572EA"/>
</g>
<path d="M29.6721 27.446L27.7178 25.4653L23.7563 29.374L25.7107 31.3547L29.6721 27.446ZM34.1433 35.9394L32.1625 37.8937L36.124 37.8937L34.1433 35.9394ZM49.0278 24.8157C50.1071 23.7217 50.0953 21.9599 49.0013 20.8806C47.9074 19.8012 46.1456 19.8131 45.0663 20.907L49.0278 24.8157ZM25.7107 31.3547L32.1625 37.8937L36.124 33.9851L29.6721 27.446L25.7107 31.3547ZM36.124 37.8937L49.0278 24.8157L45.0663 20.907L32.1625 33.9851L36.124 37.8937Z" fill="#535E72"/>
<path d="M29.6744 27.4267L27.7223 25.4438L23.7564 29.3479L25.7084 31.3308L29.6744 27.4267ZM34.1505 35.9403L32.1675 37.8923H36.1335L34.1505 35.9403ZM25.7084 31.3308L32.1675 37.8923L36.1335 33.9882L29.6744 27.4267L25.7084 31.3308ZM36.1335 37.8923L47.5914 26.2528L43.6254 22.3487L32.1675 33.9882L36.1335 37.8923Z" fill="#F5F7EF"/>
<path d="M35.2033 20.496C35.2033 25.4136 39.1899 29.4002 44.1076 29.4002L51.2031 29.4002L35.2033 13.4004L35.2033 20.496Z" fill="url(#paint0_linear_2124_32525)"/>
<defs>
<filter id="filter0_ii_2124_32525" x="18.0901" y="10.6178" width="35.3391" height="36.1739" filterUnits="userSpaceOnUse" color-interpolation-filters="sRGB">
<feFlood flood-opacity="0" result="BackgroundImageFix"/>
<feBlend mode="normal" in="SourceGraphic" in2="BackgroundImageFix" result="shape"/>
<feColorMatrix in="SourceAlpha" type="matrix" values="0 0 0 0 0 0 0 0 0 0 0 0 0 0 0 0 0 0 127 0" result="hardAlpha"/>
<feOffset dx="2.22606" dy="-2.78258"/>
<feGaussianBlur stdDeviation="2.22606"/>
<feComposite in2="hardAlpha" operator="arithmetic" k2="-1" k3="1"/>
<feColorMatrix type="matrix" values="0 0 0 0 1 0 0 0 0 1 0 0 0 0 1 0 0 0 0.25 0"/>
<feBlend mode="normal" in2="shape" result="effect1_innerShadow_2124_32525"/>
<feColorMatrix in="SourceAlpha" type="matrix" values="0 0 0 0 0 0 0 0 0 0 0 0 0 0 0 0 0 0 127 0" result="hardAlpha"/>
<feOffset dx="-1.11303" dy="1.39129"/>
<feGaussianBlur stdDeviation="1.66955"/>
<feComposite in2="hardAlpha" operator="arithmetic" k2="-1" k3="1"/>
<feColorMatrix type="matrix" values="0 0 0 0 0 0 0 0 0 0 0 0 0 0 0 0 0 0 0.25 0"/>
<feBlend mode="normal" in2="effect1_innerShadow_2124_32525" result="effect2_innerShadow_2124_32525"/>
</filter>
<linearGradient id="paint0_linear_2124_32525" x1="43.2728" y1="21.3307" x2="37.9163" y2="26.6872" gradientUnits="userSpaceOnUse">
<stop stop-color="#6493F0"/>
<stop offset="1" stop-color="#A2BFF9"/>
</linearGradient>
</defs>
</svg>
