<svg width="183" height="58" viewBox="0 0 183 58" fill="none" xmlns="http://www.w3.org/2000/svg">
<path d="M66.1043 37.0161C68.8336 37.0161 71.309 35.8101 72.7371 33.2078L71.0868 32.2875C69.9761 34.2233 68.1672 35.1437 66.1043 35.1437C62.9308 35.1437 60.2332 32.351 60.2332 28.987C60.2332 25.623 62.9308 22.8303 66.1043 22.8303C68.1672 22.8303 69.9761 23.7506 71.0868 25.7182L72.7371 24.7662C71.309 22.1638 68.8336 20.9579 66.1043 20.9579C61.8518 20.9579 58.2656 24.544 58.2656 28.987C58.2656 33.43 61.8518 37.0478 66.1043 37.0161Z" fill="#D9D9D9"/>
<path d="M83.3728 37.0161C87.911 37.0161 91.4336 33.3982 91.4336 28.9552C91.4336 24.5757 87.9745 20.9579 83.3728 20.9579C78.8663 20.9579 75.2802 24.544 75.2802 28.9552C75.2802 33.3982 78.8028 37.0161 83.3728 37.0161ZM83.3728 35.1437C79.9453 35.1437 77.2478 32.351 77.2478 28.987C77.2478 25.623 79.9453 22.8303 83.3728 22.8303C86.7685 22.8303 89.466 25.623 89.466 28.987C89.466 32.351 86.7685 35.1437 83.3728 35.1437Z" fill="#D9D9D9"/>
<path d="M102.72 22.8303C106.306 22.8303 108.242 25.7182 108.242 29.0187V36.6987H110.21V28.7966C110.21 24.3536 107.449 20.9579 102.72 20.9579C98.0865 20.9579 95.389 24.3853 95.389 28.8283V36.6987H97.3566V28.987C97.3566 25.7182 99.229 22.8303 102.72 22.8303Z" fill="#D9D9D9"/>
<path d="M118.872 36.6987V23.0842H124.743V21.307H118.872V19.022C118.872 16.7371 120.173 15.8485 122.299 15.8485C123.251 15.8485 124.14 16.1341 124.838 16.5784V14.6108C124.077 14.23 123.156 14.0078 122.141 14.0078C118.808 14.0078 116.904 16.1024 116.904 18.9903V21.307H113.858V23.0842H116.904V36.6987H118.872Z" fill="#D9D9D9"/>
<path d="M134.069 37.0161C136.988 37.0161 139.369 35.4293 140.543 33.1126V36.6987H142.415V28.9552C142.415 24.4488 138.861 20.9579 134.323 20.9579C129.721 20.9579 126.262 24.5757 126.262 28.9552C126.262 33.3982 129.626 37.0161 134.069 37.0161ZM134.323 35.1437C130.927 35.1437 128.229 32.351 128.229 28.987C128.229 25.623 130.927 22.8303 134.323 22.8303C137.75 22.8303 140.448 25.623 140.448 28.987C140.448 32.351 137.75 35.1437 134.323 35.1437Z" fill="#D9D9D9"/>
<path d="M155.579 37.0478C160.181 37.0478 163.64 33.43 163.64 29.0187C163.64 24.4805 160.212 20.9579 155.642 20.9579C153.04 20.9579 150.755 22.2908 149.454 24.2584V14.23H147.486V29.0187C147.486 33.5252 151.041 37.0478 155.579 37.0478ZM155.579 35.1754C152.151 35.1754 149.454 32.3827 149.454 29.0187C149.454 25.6548 152.151 22.8303 155.579 22.8303C158.975 22.8303 161.672 25.6548 161.672 29.0187C161.672 32.3827 158.975 35.1754 155.579 35.1754Z" fill="#D9D9D9"/>
<path fill-rule="evenodd" clip-rule="evenodd" d="M42.1651 19.5175C39.8803 16.5954 37.1684 14.4457 34.5386 13.4718C32.5594 12.7389 30.7292 12.71 29.2372 13.3634L22.7696 17.19C24.3244 16.3558 26.2961 16.3224 28.4432 17.1175C29.1123 17.3652 29.7867 17.6891 30.458 18.0825C32.4253 19.2352 34.3662 20.9845 36.0697 23.1632C36.7724 24.0618 37.4198 25.0145 38.0026 26.0021C39.1746 27.9879 40.0856 30.115 40.6602 32.2284C40.7291 32.4817 40.7932 32.7349 40.8523 32.9877C41.2814 34.8228 41.4329 36.5656 41.3113 38.1254C41.207 39.4631 40.902 40.6662 40.3992 41.6778C39.8997 42.6825 39.2209 43.4665 38.3978 44.0091L38.0026 44.2451C38.1378 44.1724 38.2695 44.0937 38.3978 44.0091L44.3639 40.446C45.2454 39.9016 45.9692 39.089 46.4946 38.0321C47.5838 35.8411 47.7449 32.751 46.9477 29.342C46.1506 25.933 44.4499 22.4396 42.1651 19.5175Z" fill="url(#paint0_angular_2124_32575)"/>
<path d="M38.0026 44.2451C37.1139 44.7236 36.0793 44.9452 34.9369 44.8875C32.6492 44.7721 30.0769 43.5446 27.6506 41.4207C27.3595 41.1658 27.0492 41.0233 26.7878 41.0438H23.6888C23.5485 41.0566 23.389 41.0129 23.2269 40.9174C22.9712 40.7666 22.9083 40.3783 23.0656 40.2362L26.0245 37.2327C26.2954 36.9881 26.7477 37.0744 27.173 37.452L29.6527 39.6535C29.816 39.7976 29.9875 39.8984 30.1518 39.9467C30.3162 39.9951 30.4682 39.9895 30.5942 39.9305C30.7202 39.8715 30.8163 39.7609 30.8737 39.6087C30.9312 39.4565 30.9483 39.2674 30.9235 39.0584L30.4351 34.762C30.3567 34.0724 30.7256 33.6944 31.2144 33.6543C31.6109 33.6218 31.9639 33.4766 32.252 33.2223C32.7478 32.7848 33.0232 32.0492 33.0348 31.1316C33.0405 30.6805 32.9823 30.198 32.8648 29.7039C32.7434 29.193 32.5587 28.6697 32.316 28.1556C31.8386 27.1442 31.1638 26.2262 30.3982 25.5465C30.1702 25.3442 29.9381 25.1664 29.7052 25.0148C29.1558 24.6573 28.602 24.4458 28.0882 24.4023C27.3567 24.3403 26.748 24.6225 26.3583 25.2044C25.9686 25.7862 25.8201 26.6345 25.9363 27.6153C26.0034 28.1822 26.1568 28.7747 26.3849 29.3605C26.6675 30.0861 26.73 30.8471 26.383 31.1583L23.8999 34.0118C23.6288 34.255 23.1717 34.1777 22.7696 33.7401C20.6022 31.381 19.557 27.9329 19.4292 25.0546C19.2888 21.8888 20.127 19.3355 21.7867 17.8741C22.0914 17.6058 22.42 17.3777 22.7696 17.19M38.0026 44.2451L38.3978 44.0091M38.0026 44.2451C38.1378 44.1724 38.2695 44.0937 38.3978 44.0091M22.7696 17.19C24.3244 16.3558 26.2961 16.3224 28.4432 17.1175C29.1123 17.3652 29.7867 17.6891 30.458 18.0825C32.4253 19.2352 34.3662 20.9845 36.0697 23.1632C36.7724 24.0618 37.4198 25.0145 38.0026 26.0021C39.1746 27.9879 40.0856 30.115 40.6602 32.2284C40.7291 32.4817 40.7932 32.7349 40.8523 32.9877C41.2814 34.8228 41.4329 36.5656 41.3113 38.1254C41.207 39.4631 40.902 40.6662 40.3992 41.6778C39.8997 42.6825 39.2209 43.4665 38.3978 44.0091M22.7696 17.19L29.2372 13.3634C30.7292 12.71 32.5594 12.7389 34.5386 13.4718C37.1684 14.4457 39.8803 16.5954 42.1651 19.5175C44.4499 22.4396 46.1506 25.933 46.9477 29.342C47.7449 32.751 47.5838 35.8411 46.4946 38.0321C45.9692 39.089 45.2454 39.9016 44.3639 40.446L38.3978 44.0091" stroke="url(#paint1_angular_2124_32575)" stroke-width="1.32232" stroke-linecap="round" stroke-linejoin="round"/>
<defs>
<radialGradient id="paint0_angular_2124_32575" cx="0" cy="0" r="1" gradientUnits="userSpaceOnUse" gradientTransform="translate(29.9926 32.1778) rotate(136.947) scale(11.216 18.7708)">
<stop stop-color="#9796F0"/>
<stop offset="1" stop-color="#FBC7D4"/>
</radialGradient>
<radialGradient id="paint1_angular_2124_32575" cx="0" cy="0" r="1" gradientUnits="userSpaceOnUse" gradientTransform="translate(29.9926 32.1778) rotate(136.947) scale(11.216 18.7708)">
<stop stop-color="#9796F0"/>
<stop offset="1" stop-color="#FBC7D4"/>
</radialGradient>
</defs>
</svg>
