<svg width="130" height="65" viewBox="0 0 130 65" fill="none" xmlns="http://www.w3.org/2000/svg">
<g clip-path="url(#clip0_2124_32571)">
<path fill-rule="evenodd" clip-rule="evenodd" d="M59.2447 13.8454C59.1616 13.9281 59.0938 15.2994 59.0938 16.8926V19.7893L69.8379 19.8478L80.5818 19.9065L70.0506 35.6053C64.2583 44.2397 59.4199 51.4819 59.2986 51.6995C59.0924 52.0685 59.3171 52.0947 62.7019 52.0947H66.3261L74.285 40.1795C78.6624 33.6259 82.4934 27.7056 82.7983 27.0229C83.475 25.5086 83.7128 22.9973 83.3263 21.4488C82.3167 17.4028 79.1417 14.5192 75.049 13.9312C73.3012 13.6803 59.4853 13.6051 59.2447 13.8454ZM85.5727 16.8243V19.7936H90.2122H94.8516V32.8947V45.9959H90.2122H85.5727V49.0453V52.0947H97.7938H110.015V49.0453V45.9959H105.502H100.989L100.919 36.4524L100.849 26.9089L100.214 25.116C99.2444 22.3777 98.1067 20.5397 96.2184 18.6608C93.5193 15.9755 90.2067 14.2997 86.9872 13.9909L85.5727 13.8554V16.8243Z" fill="#E16437"/>
<path fill-rule="evenodd" clip-rule="evenodd" d="M19.7567 20.6451C19.8298 27.584 19.8305 27.5928 20.4635 29.398C21.3647 31.9686 22.7192 34.1235 24.5806 35.9486C27.2665 38.582 30.6158 40.165 34.2067 40.4981L35.7814 40.644V46.3717V52.0992H38.8367H41.892V46.3392V40.5792H47.7827H53.6735L53.6104 37.5863L53.5472 34.5933L47.7196 34.533L41.892 34.4727V24.1989V13.9251H38.8367H35.7814V24.2027V34.4804H30.8025H25.8235V24.0898V13.6992H22.7536H19.6836L19.7567 20.6451ZM52.3672 46.2439C51.5269 46.4944 50.6087 47.6035 50.3908 48.631C50.066 50.1616 51.3812 51.8508 53.043 52.0376C56.8781 52.469 57.6897 46.7232 53.8752 46.1454C53.4458 46.0804 52.7673 46.1246 52.3672 46.2439Z" fill="#F5F7EF"/>
</g>
<defs>
<clipPath id="clip0_2124_32571">
<rect width="90.3" height="38.4" fill="white" transform="translate(19.7148 13.6973)"/>
</clipPath>
</defs>
</svg>
