<svg width="65" height="65" viewBox="0 0 65 65" fill="none" xmlns="http://www.w3.org/2000/svg">
<g filter="url(#filter0_d_2125_32665)">
<path d="M15.6223 49.9999V39.7599L32.4543 29.1999C33.137 28.7732 33.841 28.2825 34.5663 27.7279C35.2916 27.1732 35.953 26.5332 36.5503 25.8079C37.1903 25.0825 37.7023 24.2932 38.0863 23.4399C38.4703 22.5439 38.6623 21.5625 38.6623 20.4959C38.6623 19.3865 38.4063 18.4479 37.8943 17.6799C37.425 16.9119 36.721 16.3359 35.7823 15.9519C34.8863 15.5252 33.777 15.3119 32.4543 15.3119C30.961 15.3119 29.745 15.5465 28.8063 16.0159C27.9103 16.4852 27.2063 17.1465 26.6943 17.9999C26.225 18.8105 25.905 19.7492 25.7343 20.8159C25.5636 21.8825 25.4783 22.9919 25.4783 24.1439L15.5583 22.0319C15.473 18.8319 16.113 16.1012 17.4783 13.8399C18.8436 11.5359 20.8063 9.76521 23.3663 8.52788C25.969 7.29054 29.0623 6.67188 32.6463 6.67188C35.8036 6.67188 38.5983 7.16254 41.0303 8.14388C43.505 9.12521 45.425 10.5972 46.7903 12.5599C48.1983 14.4799 48.9023 16.8905 48.9023 19.7919C48.9023 21.9252 48.5396 23.8665 47.8143 25.6159C47.089 27.3225 46.1503 28.8372 44.9983 30.1599C43.8463 31.4825 42.5663 32.6559 41.1583 33.6799C39.793 34.6612 38.4703 35.5145 37.1903 36.2399L27.7823 41.4879V42.0639L49.4143 41.6799V49.9999H15.6223Z" fill="#F5F7EF"/>
<path d="M13.6223 49.9999V51.9999H15.6223H49.4143H51.4143V49.9999V41.6799V39.6441L49.3788 39.6802L34.66 39.9415L38.1646 37.9865L38.1646 37.9865L38.1763 37.9799C39.5269 37.2146 40.91 36.3214 42.3256 35.3039L42.3256 35.3039L42.3347 35.2973C43.8653 34.1842 45.2564 32.9087 46.5065 31.4734C47.8043 29.9834 48.8521 28.2872 49.655 26.3982L49.6584 26.39L49.6618 26.3819C50.4998 24.3609 50.9023 22.1549 50.9023 19.7919C50.9023 16.5694 50.1181 13.7261 48.418 11.3975C46.8052 9.088 44.5595 7.39296 41.7732 6.28695C39.0616 5.19375 36.0068 4.67188 32.6463 4.67188C28.8358 4.67188 25.4357 5.32954 22.5076 6.72161L22.5076 6.72157L22.496 6.72718C19.6074 8.1233 17.3402 10.1531 15.7619 12.8132C14.1636 15.464 13.4658 18.5876 13.559 22.0852L13.601 23.66L15.1418 23.988L25.0618 26.1L27.4783 26.6145V24.1439C27.4783 23.0908 27.5563 22.0874 27.7092 21.1319C27.8459 20.2773 28.0917 19.5823 28.4172 19.0158C28.7328 18.4947 29.1544 18.0949 29.7172 17.7966C30.2865 17.5163 31.1613 17.3119 32.4543 17.3119C33.5738 17.3119 34.3689 17.494 34.9224 17.7576L34.9731 17.7817L35.025 17.803C35.6216 18.047 35.9684 18.3639 36.1877 18.7228L36.2083 18.7564L36.2302 18.7893C36.4823 19.1674 36.6623 19.7005 36.6623 20.4959C36.6623 21.3103 36.5182 22.0154 36.2549 22.6359C35.9567 23.294 35.5582 23.9094 35.0506 24.4846L35.0281 24.5102L35.0065 24.5365C34.5035 25.1472 33.9518 25.68 33.3514 26.1392C32.6695 26.6606 32.0172 27.1146 31.3943 27.5039L31.3914 27.5057L14.5594 38.0657L13.6223 38.6536V39.7599V49.9999Z" stroke="#151514" stroke-width="4"/>
</g>
<defs>
<filter id="filter0_d_2125_32665" x="11.5508" y="2.67188" width="48.5299" height="57.9948" filterUnits="userSpaceOnUse" color-interpolation-filters="sRGB">
<feFlood flood-opacity="0" result="BackgroundImageFix"/>
<feColorMatrix in="SourceAlpha" type="matrix" values="0 0 0 0 0 0 0 0 0 0 0 0 0 0 0 0 0 0 127 0" result="hardAlpha"/>
<feOffset dx="6.66667" dy="6.66667"/>
<feComposite in2="hardAlpha" operator="out"/>
<feColorMatrix type="matrix" values="0 0 0 0 0.0823529 0 0 0 0 0.0823529 0 0 0 0 0.0784314 0 0 0 1 0"/>
<feBlend mode="normal" in2="BackgroundImageFix" result="effect1_dropShadow_2125_32665"/>
<feBlend mode="normal" in="SourceGraphic" in2="effect1_dropShadow_2125_32665" result="shape"/>
</filter>
</defs>
</svg>
