<svg width="65" height="65" viewBox="0 0 65 65" fill="none" xmlns="http://www.w3.org/2000/svg">
<g filter="url(#filter0_d_2125_32667)">
<path d="M30.8172 50.8963C27.9586 50.8963 25.4626 50.619 23.3293 50.0643C21.2386 49.5096 19.4893 48.7203 18.0813 47.6963C16.6733 46.6296 15.5639 45.3283 14.7533 43.7923C13.9852 42.2563 13.4946 40.5283 13.2812 38.6083L22.5613 35.6643C22.6466 36.8163 22.8813 37.8616 23.2653 38.8003C23.6919 39.6963 24.2679 40.4643 24.9933 41.1043C25.7186 41.7443 26.5933 42.235 27.6173 42.5763C28.6413 42.875 29.7932 43.0243 31.0732 43.0243C32.5666 43.0243 33.8679 42.811 34.9773 42.3843C36.1293 41.915 37.0039 41.2323 37.6012 40.3363C38.2413 39.3976 38.5613 38.2456 38.5613 36.8803C38.5613 35.1736 37.9426 33.7656 36.7052 32.6563C35.5106 31.5043 33.6546 30.715 31.1373 30.2883C28.6199 29.8616 25.4199 29.8616 21.5373 30.2883V24.5923L35.5533 16.3363V15.7603L15.5213 15.9523V7.69629H45.9853V17.1043L32.8013 25.3603V26.0003C36.8546 25.7016 40.0333 26.0643 42.3373 27.0883C44.6839 28.1123 46.3479 29.5416 47.3293 31.3763C48.3533 33.211 48.8653 35.1736 48.8653 37.2643C48.8653 40.0803 48.2039 42.5123 46.8813 44.5603C45.6013 46.5656 43.6173 48.123 40.9293 49.2323C38.2839 50.3416 34.9132 50.8963 30.8172 50.8963Z" fill="#F5F7EF"/>
<path d="M22.8164 51.9974L22.826 51.9999C25.1639 52.6078 27.8361 52.8963 30.8172 52.8963C35.0713 52.8963 38.7269 52.3234 41.6972 51.079C44.675 49.8491 47.0189 48.0595 48.5642 45.6409C50.1246 43.2228 50.8653 40.4022 50.8653 37.2643C50.8653 34.8365 50.268 32.5437 49.0842 30.4169C47.8456 28.1111 45.7954 26.4164 43.1434 25.2579C41.8193 24.6703 40.3026 24.2856 38.6137 24.0802L47.0467 18.7994L47.9853 18.2116V17.1043V7.69629V5.69629H45.9853H15.5213H13.5213V7.69629V15.9523V17.9716L15.5404 17.9522L29.0898 17.8223L20.5222 22.869L19.5373 23.4492V24.5923V30.2883V32.5201L21.7557 32.2763C25.5407 31.8604 28.5377 31.8762 30.803 32.2602C33.1225 32.6533 34.5296 33.3367 35.317 34.096L35.3431 34.1212L35.3702 34.1454C36.1715 34.8639 36.5613 35.7244 36.5613 36.8803C36.5613 37.9261 36.32 38.6652 35.9488 39.2096L35.9429 39.2182L35.9371 39.2269C35.5973 39.7367 35.0708 40.1832 34.2408 40.5247C33.4139 40.8395 32.3719 41.0243 31.0732 41.0243C29.9631 41.0243 29.0161 40.8965 28.2138 40.6669C27.4318 40.4016 26.8109 40.0409 26.3165 39.6046C25.812 39.1595 25.4059 38.6271 25.0951 37.9905C24.8127 37.2831 24.626 36.4642 24.5558 35.5165L24.3688 32.9926L21.9565 33.7579L12.6765 36.7019L11.1123 37.1982L11.2935 38.8292C11.5296 40.9546 12.0786 42.915 12.9644 44.6867L12.9742 44.7064L12.9845 44.7258C13.934 46.5249 15.2366 48.0504 16.8735 49.2905L16.8891 49.3023L16.9049 49.3138C18.5546 50.5135 20.5428 51.3942 22.8164 51.9974Z" stroke="#151514" stroke-width="4"/>
</g>
<defs>
<filter id="filter0_d_2125_32667" x="8.94141" y="3.69629" width="50.5924" height="57.8669" filterUnits="userSpaceOnUse" color-interpolation-filters="sRGB">
<feFlood flood-opacity="0" result="BackgroundImageFix"/>
<feColorMatrix in="SourceAlpha" type="matrix" values="0 0 0 0 0 0 0 0 0 0 0 0 0 0 0 0 0 0 127 0" result="hardAlpha"/>
<feOffset dx="6.66667" dy="6.66667"/>
<feComposite in2="hardAlpha" operator="out"/>
<feColorMatrix type="matrix" values="0 0 0 0 0.0823529 0 0 0 0 0.0823529 0 0 0 0 0.0784314 0 0 0 1 0"/>
<feBlend mode="normal" in2="BackgroundImageFix" result="effect1_dropShadow_2125_32667"/>
<feBlend mode="normal" in="SourceGraphic" in2="effect1_dropShadow_2125_32667" result="shape"/>
</filter>
</defs>
</svg>
