<svg width="32" height="32" viewBox="0 0 32 32" fill="none" xmlns="http://www.w3.org/2000/svg">
<g filter="url(#filter0_d_2117_27635)">
<path d="M5.16567 20.1161L10.8021 17.7125C11.093 17.5822 11.4122 17.5281 11.7298 17.5555C12.0473 17.5828 12.3526 17.6906 12.6169 17.8688L15.6334 19.8758C17.4719 18.9829 18.9604 17.5028 19.8638 15.6695L17.8688 12.6169C17.6918 12.3523 17.5837 12.0478 17.5544 11.7309C17.525 11.4139 17.5752 11.0947 17.7005 10.8021L20.1161 5.16567C20.2847 4.78507 20.5701 4.46806 20.931 4.26062C21.2919 4.05317 21.7094 3.96606 22.1232 4.01193C23.7461 4.22454 25.2366 5.01925 26.3176 6.24833C27.3985 7.4774 27.9964 9.05719 28 10.694C28 20.2363 20.2363 28 10.694 28C9.05719 27.9964 7.4774 27.3985 6.24832 26.3176C5.01925 25.2366 4.22454 23.7461 4.01193 22.1232C3.96606 21.7094 4.05317 21.2919 4.26062 20.931C4.46806 20.5701 4.78507 20.2847 5.16567 20.1161Z" fill="#C6FE09"/>
<path d="M5.16567 20.1161L10.8021 17.7125C11.093 17.5822 11.4122 17.5281 11.7298 17.5555C12.0473 17.5828 12.3526 17.6906 12.6169 17.8688L15.6334 19.8758C17.4719 18.9829 18.9604 17.5028 19.8638 15.6695L17.8688 12.6169C17.6918 12.3523 17.5837 12.0478 17.5544 11.7309C17.525 11.4139 17.5752 11.0947 17.7005 10.8021L20.1161 5.16567C20.2847 4.78507 20.5701 4.46806 20.931 4.26062C21.2919 4.05317 21.7094 3.96606 22.1232 4.01193C23.7461 4.22454 25.2366 5.01925 26.3176 6.24833C27.3985 7.4774 27.9964 9.05719 28 10.694C28 20.2363 20.2363 28 10.694 28C9.05719 27.9964 7.4774 27.3985 6.24832 26.3176C5.01925 25.2366 4.22454 23.7461 4.01193 22.1232C3.96606 21.7094 4.05317 21.2919 4.26062 20.931C4.46806 20.5701 4.78507 20.2847 5.16567 20.1161Z" stroke="#151514" stroke-width="2"/>
</g>
<defs>
<filter id="filter0_d_2117_27635" x="3" y="3" width="27.6" height="27.6" filterUnits="userSpaceOnUse" color-interpolation-filters="sRGB">
<feFlood flood-opacity="0" result="BackgroundImageFix"/>
<feColorMatrix in="SourceAlpha" type="matrix" values="0 0 0 0 0 0 0 0 0 0 0 0 0 0 0 0 0 0 127 0" result="hardAlpha"/>
<feOffset dx="1.6" dy="1.6"/>
<feComposite in2="hardAlpha" operator="out"/>
<feColorMatrix type="matrix" values="0 0 0 0 0.0823529 0 0 0 0 0.0823529 0 0 0 0 0.0784314 0 0 0 1 0"/>
<feBlend mode="normal" in2="BackgroundImageFix" result="effect1_dropShadow_2117_27635"/>
<feBlend mode="normal" in="SourceGraphic" in2="effect1_dropShadow_2117_27635" result="shape"/>
</filter>
</defs>
</svg>
