<svg width="32" height="36" viewBox="0 0 32 36" fill="none" xmlns="http://www.w3.org/2000/svg">
<g filter="url(#filter0_d_2117_27632)">
<path fill-rule="evenodd" clip-rule="evenodd" d="M10.6867 17.0034C8.44603 13.3914 11.51 11.9226 12.1804 10.1004C14.006 13.6321 10.4377 14.0335 10.6867 17.0034Z" fill="#C6FE09"/>
<path fill-rule="evenodd" clip-rule="evenodd" d="M9.77397 18.2879C10.0229 19.8932 10.6868 21.3381 12.5124 22.221C10.3548 18.609 11.3505 14.9169 14.0892 13.3916C13.8403 13.8732 13.5084 14.9167 14.2552 15.3984C16.4959 13.0707 17.0768 9.37821 16.5788 6.4082C19.4003 9.05699 20.9771 12.7494 19.1513 16.0404C17.9065 18.368 19.8981 20.6154 20.9769 16.0404C25.9563 20.6154 25.7901 28.6425 18.1554 30.4082C18.8193 29.6055 22.8853 25.9133 18.8193 21.7395C19.3172 25.0304 16.5786 25.0304 16.9936 28.2413C14.836 24.7097 19.4832 24.5491 15.4999 19.4119C16.4959 23.6662 10.023 25.3515 14.5871 30.3281C7.78222 28.9635 7.20142 22.8633 9.77397 18.2879Z" fill="#C6FE09"/>
<path d="M8.81423 14.6847C8.83185 15.3685 9.01154 16.0786 9.37205 16.8263L8.84419 17.7651C7.45606 20.234 6.86451 23.2027 7.64157 25.8161C8.44205 28.5082 10.6368 30.6238 14.3774 31.3739L15.7455 31.6483L15.324 32.1578L16.6999 31.8396L17.5832 32.0168L17.2946 31.7021L18.3957 31.4474C22.615 30.4716 24.9175 27.6891 25.3537 24.4188C25.7795 21.2273 24.4076 17.7439 21.6986 15.2549L20.8609 14.4852C21.5396 11.2038 19.7586 7.9303 17.3088 5.63052L15.004 3.46686L15.5268 6.58459C15.7927 8.17054 15.7171 9.93515 15.2396 11.53L13.7431 12.3634C13.8451 11.5192 13.6498 10.6201 13.1279 9.61057L12.0156 7.45878L11.1793 9.73212C11.076 10.013 10.8606 10.3254 10.5037 10.7894C10.468 10.8357 10.431 10.8836 10.3928 10.9329C10.0845 11.3309 9.70303 11.8234 9.40508 12.3707C9.05675 13.0105 8.79079 13.7751 8.81423 14.6847ZM14.6257 25.1385C14.7335 24.9545 14.8454 24.7758 14.9633 24.5911L15.2549 24.7322L15.0707 24.4238C15.0877 24.3974 15.1048 24.3708 15.122 24.3441C15.1941 24.2322 15.2684 24.1167 15.3455 23.9954C15.592 23.6078 15.8525 23.1809 16.0741 22.7224C16.1658 23.2334 16.0818 23.6284 15.9249 24.0756C15.8946 24.1619 15.8549 24.2641 15.8103 24.3789C15.6476 24.7973 15.4203 25.3823 15.3509 25.9689C15.2481 26.8374 15.4415 27.7468 16.0834 28.7974L18.0515 28.1046C17.9686 27.4636 18.047 27.0394 18.1713 26.7116C18.3066 26.3546 18.5123 26.0581 18.8106 25.6333L18.8166 25.6246C19.0005 25.3628 19.2201 25.0499 19.4153 24.6776C19.4398 24.7674 19.46 24.8554 19.4764 24.9416C19.6119 25.6524 19.5058 26.327 19.2648 26.9568C18.8534 28.0321 18.1291 28.8364 17.6368 29.3832C17.5203 29.5126 17.4167 29.6276 17.3334 29.7284L16.4566 30.7884L15.3732 29.6071C14.3329 28.4728 14.0419 27.6581 14.0094 27.0629C13.9761 26.4549 14.198 25.8682 14.6257 25.1385ZM19.169 17.6952C19.169 17.6951 19.1694 17.6948 19.1703 17.6941L19.169 17.6952ZM19.8723 17.8358C19.8722 17.8358 19.8717 17.8348 19.8706 17.8327C19.8718 17.8347 19.8723 17.8358 19.8723 17.8358Z" stroke="#151514" stroke-width="2.13333"/>
</g>
<defs>
<filter id="filter0_d_2117_27632" x="6.23047" y="0.525391" width="21.8656" height="34.9828" filterUnits="userSpaceOnUse" color-interpolation-filters="sRGB">
<feFlood flood-opacity="0" result="BackgroundImageFix"/>
<feColorMatrix in="SourceAlpha" type="matrix" values="0 0 0 0 0 0 0 0 0 0 0 0 0 0 0 0 0 0 127 0" result="hardAlpha"/>
<feOffset dx="1.6" dy="1.6"/>
<feComposite in2="hardAlpha" operator="out"/>
<feColorMatrix type="matrix" values="0 0 0 0 0.0823529 0 0 0 0 0.0823529 0 0 0 0 0.0784314 0 0 0 1 0"/>
<feBlend mode="normal" in2="BackgroundImageFix" result="effect1_dropShadow_2117_27632"/>
<feBlend mode="normal" in="SourceGraphic" in2="effect1_dropShadow_2117_27632" result="shape"/>
</filter>
</defs>
</svg>
