<svg width="1080" height="1080" viewBox="0 0 1080 1080" fill="none" xmlns="http://www.w3.org/2000/svg">
<path fill-rule="evenodd" clip-rule="evenodd" d="M558.563 270C564.407 279.298 570.775 288.096 576.925 296.594C593.434 319.402 608.378 340.049 607.419 362.413C627.266 322.134 627.616 293.724 619.539 270H1030.5V440.374H735.725V477.914H1030.5V636.738H735.725V810H617.236C714.798 765.649 710.947 639.502 635.407 564.991C617.586 646.125 584.687 606.27 605.249 564.991C635.41 506.627 609.364 441.146 562.754 394.172C570.98 446.842 561.385 512.326 524.371 553.605C512.034 545.064 517.518 526.558 521.629 518.017C476.39 545.067 459.942 610.543 495.583 674.6C465.425 658.943 454.457 633.318 450.346 604.849C411.63 678.774 416.15 775.142 502.264 810H388.112L215.697 567.433V810H40.5V270H215.697L388.112 521.23V270H558.563ZM465.424 582.069C441.48 540.633 459.413 515.279 474.692 493.678C483.032 481.886 490.582 471.212 490.098 459.65C507.416 495.616 495.351 513.277 482.717 531.769C473.351 545.479 463.672 559.646 465.424 582.069Z" fill="url(#paint0_linear_2114_27631)"/>
<path d="M596.943 810H523.109C487.419 762.778 505.464 732.698 524.07 701.683C537.719 678.931 551.67 655.677 544.933 624.783C582.146 676.306 573.76 699.601 565.897 721.447C559.856 738.229 554.123 754.155 569.607 781.366C566.223 753.256 575.534 739.023 584.841 724.795C594.387 710.201 603.93 695.612 599.765 666.06C656.799 728.915 616.972 785.609 596.943 810Z" fill="url(#paint1_linear_2114_27631)"/>
<defs>
<linearGradient id="paint0_linear_2114_27631" x1="535.5" y1="270" x2="535.5" y2="810" gradientUnits="userSpaceOnUse">
<stop stop-color="#C6FE09"/>
<stop offset="1" stop-color="#769805"/>
</linearGradient>
<linearGradient id="paint1_linear_2114_27631" x1="535.5" y1="270" x2="535.5" y2="810" gradientUnits="userSpaceOnUse">
<stop stop-color="#C6FE09"/>
<stop offset="1" stop-color="#769805"/>
</linearGradient>
</defs>
</svg>
