<svg width="32" height="32" viewBox="0 0 32 32" fill="none" xmlns="http://www.w3.org/2000/svg">
<g filter="url(#filter0_d_2216_20248)">
<path d="M3.66189 4.46707C3.92833 4.23692 4.25097 4.08466 4.5955 4.02649C4.94003 3.96831 5.29359 4.00638 5.6186 4.13666L27.7786 13.0088C28.1673 13.1598 28.4965 13.4368 28.7156 13.7972C28.9347 14.1576 29.0314 14.5815 28.991 15.0035C28.955 15.4253 28.7857 15.8239 28.5087 16.1394C28.2317 16.4549 27.8618 16.6704 27.4545 16.7534L21.8244 17.8915V25.0627C21.8246 25.4506 21.7118 25.8299 21.5002 26.1523C21.2886 26.4748 20.9878 26.7259 20.636 26.8738C20.4032 26.9693 20.1547 27.0191 19.9037 27.0206C19.6515 27.0215 19.4016 26.9711 19.1687 26.8724C18.9357 26.7736 18.7245 26.6285 18.5473 26.4455L15.4261 23.276L10.7084 27.5101C10.3601 27.8233 9.91236 27.9972 9.44798 27.9996C9.24377 28.0039 9.04046 27.9708 8.84776 27.9017C8.53098 27.7996 8.24585 27.6148 8.02058 27.3659C7.7953 27.1169 7.63768 26.8123 7.5633 26.4822L3.04967 6.38835C2.97078 6.04162 2.98609 5.67953 3.09396 5.34101C3.20183 5.00249 3.39818 4.70035 3.66189 4.46707Z" fill="#C6FE09"/>
<path d="M3.66189 4.46707C3.92833 4.23692 4.25097 4.08466 4.5955 4.02649C4.94003 3.96831 5.29359 4.00638 5.6186 4.13666L27.7786 13.0088C28.1673 13.1598 28.4965 13.4368 28.7156 13.7972C28.9347 14.1576 29.0314 14.5815 28.991 15.0035C28.955 15.4253 28.7857 15.8239 28.5087 16.1394C28.2317 16.4549 27.8618 16.6704 27.4545 16.7534L21.8244 17.8915M3.66189 4.46707C3.39818 4.70035 3.20183 5.00249 3.09396 5.34101C2.98609 5.67953 2.97078 6.04162 3.04967 6.38835L7.5633 26.4822C7.63768 26.8123 7.7953 27.1169 8.02058 27.3659C8.24585 27.6148 8.53098 27.7996 8.84776 27.9017C9.04046 27.9708 9.24377 28.0039 9.44798 27.9996C9.91236 27.9972 10.3601 27.8233 10.7084 27.5101L15.4261 23.276M3.66189 4.46707L21.8244 17.8915M21.8244 17.8915V25.0627C21.8246 25.4506 21.7118 25.8299 21.5002 26.1523C21.2886 26.4748 20.9878 26.7259 20.636 26.8738C20.4032 26.9693 20.1547 27.0191 19.9037 27.0206C19.6515 27.0215 19.4016 26.9711 19.1687 26.8724C18.9357 26.7736 18.7245 26.6285 18.5473 26.4455L15.4261 23.276M21.8244 17.8915L15.4261 23.276" stroke="#151514" stroke-width="2"/>
</g>
<defs>
<filter id="filter0_d_2216_20248" x="2" y="3" width="29.6" height="27.6" filterUnits="userSpaceOnUse" color-interpolation-filters="sRGB">
<feFlood flood-opacity="0" result="BackgroundImageFix"/>
<feColorMatrix in="SourceAlpha" type="matrix" values="0 0 0 0 0 0 0 0 0 0 0 0 0 0 0 0 0 0 127 0" result="hardAlpha"/>
<feOffset dx="1.6" dy="1.6"/>
<feComposite in2="hardAlpha" operator="out"/>
<feColorMatrix type="matrix" values="0 0 0 0 0.0823529 0 0 0 0 0.0823529 0 0 0 0 0.0784314 0 0 0 1 0"/>
<feBlend mode="normal" in2="BackgroundImageFix" result="effect1_dropShadow_2216_20248"/>
<feBlend mode="normal" in="SourceGraphic" in2="effect1_dropShadow_2216_20248" result="shape"/>
</filter>
</defs>
</svg>
