<svg width="32" height="32" viewBox="0 0 32 32" fill="none" xmlns="http://www.w3.org/2000/svg">
<g filter="url(#filter0_d_2117_27640)">
<path d="M3.66189 4.45818C3.92833 4.23241 4.25097 4.08305 4.5955 4.02598C4.94003 3.96891 5.29359 4.00626 5.6186 4.13406L27.7786 12.8372C28.1673 12.9853 28.4965 13.257 28.7156 13.6106C28.9347 13.9642 29.0314 14.3799 28.991 14.7939C28.955 15.2077 28.7857 15.5987 28.5087 15.9082C28.2317 16.2177 27.8618 16.429 27.4545 16.5105L21.8244 17.6269V24.6615C21.8246 25.042 21.7118 25.4141 21.5002 25.7304C21.2886 26.0467 20.9878 26.293 20.636 26.4381C20.4032 26.5318 20.1547 26.5807 19.9037 26.5822C19.6515 26.583 19.4016 26.5336 19.1687 26.4367C18.9357 26.3398 18.7245 26.1975 18.5473 26.0179L15.4261 22.9088L10.7084 27.0623C10.3601 27.3695 9.91236 27.5401 9.44798 27.5425C9.24377 27.5467 9.04046 27.5142 8.84776 27.4465C8.53098 27.3462 8.24585 27.165 8.02058 26.9208C7.7953 26.6766 7.63768 26.3778 7.5633 26.054L3.04967 6.34286C2.97078 6.00273 2.98609 5.64754 3.09396 5.31547C3.20183 4.98339 3.39818 4.68701 3.66189 4.45818ZM9.43598 25.6218L19.3275 16.9187L5.0784 6.63096L9.43598 25.6218Z" fill="#C6FE09"/>
<path d="M9.43598 25.6218L19.3275 16.9187L5.0784 6.63096L9.43598 25.6218Z" fill="#C6FE09"/>
<path d="M4.75549 4.99181C4.68729 5.00311 4.62084 5.02173 4.55721 5.04718L5.65147 5.83722L19.9006 16.1249L20.8627 16.8196L21.634 16.6666L27.2624 15.5506C27.2627 15.5505 27.263 15.5504 27.2633 15.5504C27.4626 15.5103 27.6436 15.4067 27.7792 15.2552C27.9151 15.1035 27.998 14.9118 28.0157 14.7089L28.0157 14.7089L28.0167 14.6988C28.0362 14.4985 27.9894 14.2973 27.8834 14.1262C27.7774 13.9552 27.6181 13.8237 27.43 13.752L27.43 13.7521L27.4207 13.7484L5.26072 5.0453L5.26034 5.04515C5.09996 4.98208 4.9255 4.96365 4.75549 4.99181ZM20.8454 17.6269V16.8871L19.9742 17.6537L15.4945 21.5951L16.1171 22.2152L19.2382 25.3244L19.2382 25.3243L19.244 25.3302C19.3297 25.417 19.4319 25.4859 19.5446 25.5328C19.657 25.5795 19.7776 25.6035 19.8993 25.6032C20.0251 25.6023 20.1496 25.578 20.2665 25.5315C20.4374 25.4601 20.5835 25.34 20.6865 25.1861C20.7902 25.031 20.8455 24.8486 20.8454 24.662V24.6615V17.6269ZM6.61436 8.94739L10.0227 23.8015L17.7597 16.9942L6.61436 8.94739Z" stroke="#151514" stroke-width="1.95799"/>
</g>
<defs>
<filter id="filter0_d_2117_27640" x="3" y="4" width="27.5664" height="25.1094" filterUnits="userSpaceOnUse" color-interpolation-filters="sRGB">
<feFlood flood-opacity="0" result="BackgroundImageFix"/>
<feColorMatrix in="SourceAlpha" type="matrix" values="0 0 0 0 0 0 0 0 0 0 0 0 0 0 0 0 0 0 127 0" result="hardAlpha"/>
<feOffset dx="1.56639" dy="1.56639"/>
<feComposite in2="hardAlpha" operator="out"/>
<feColorMatrix type="matrix" values="0 0 0 0 0.0823529 0 0 0 0 0.0823529 0 0 0 0 0.0784314 0 0 0 1 0"/>
<feBlend mode="normal" in2="BackgroundImageFix" result="effect1_dropShadow_2117_27640"/>
<feBlend mode="normal" in="SourceGraphic" in2="effect1_dropShadow_2117_27640" result="shape"/>
</filter>
</defs>
</svg>
